%TF.GenerationSoftware,KiCad,Pcbnew,9.0.1*%
%TF.CreationDate,2025-04-02T11:20:44-04:00*%
%TF.ProjectId,Colossus_TI_rev_A,436f6c6f-7373-4757-935f-54495f726576,rev?*%
%TF.SameCoordinates,Original*%
%TF.FileFunction,Soldermask,Top*%
%TF.FilePolarity,Negative*%
%FSLAX46Y46*%
G04 Gerber Fmt 4.6, Leading zero omitted, Abs format (unit mm)*
G04 Created by KiCad (PCBNEW 9.0.1) date 2025-04-02 11:20:44*
%MOMM*%
%LPD*%
G01*
G04 APERTURE LIST*
G04 APERTURE END LIST*
G36*
X71600000Y-118350000D02*
G01*
X69900000Y-118350000D01*
X69900000Y-116650000D01*
X71600000Y-116650000D01*
X71600000Y-118350000D01*
G37*
G36*
X73536742Y-116686601D02*
G01*
X73690687Y-116750367D01*
X73829234Y-116842941D01*
X73947059Y-116960766D01*
X74039633Y-117099313D01*
X74103399Y-117253258D01*
X74135907Y-117416685D01*
X74135907Y-117583315D01*
X74103399Y-117746742D01*
X74039633Y-117900687D01*
X73947059Y-118039234D01*
X73829234Y-118157059D01*
X73690687Y-118249633D01*
X73536742Y-118313399D01*
X73373315Y-118345907D01*
X73206685Y-118345907D01*
X73043258Y-118313399D01*
X72889313Y-118249633D01*
X72750766Y-118157059D01*
X72632941Y-118039234D01*
X72540367Y-117900687D01*
X72476601Y-117746742D01*
X72444093Y-117583315D01*
X72444093Y-117416685D01*
X72476601Y-117253258D01*
X72540367Y-117099313D01*
X72632941Y-116960766D01*
X72750766Y-116842941D01*
X72889313Y-116750367D01*
X73043258Y-116686601D01*
X73206685Y-116654093D01*
X73373315Y-116654093D01*
X73536742Y-116686601D01*
G37*
G36*
X55168254Y-111805034D02*
G01*
X55179425Y-111805034D01*
X55257008Y-111813775D01*
X55469527Y-111834707D01*
X55504477Y-111841658D01*
X55536020Y-111845213D01*
X55628748Y-111866377D01*
X55777521Y-111895970D01*
X55835630Y-111913597D01*
X55885874Y-111925065D01*
X55966903Y-111953418D01*
X56078017Y-111987124D01*
X56158482Y-112020454D01*
X56224587Y-112043585D01*
X56287694Y-112073976D01*
X56368152Y-112107303D01*
X56470533Y-112162026D01*
X56547900Y-112199285D01*
X56591547Y-112226710D01*
X56645087Y-112255328D01*
X56771194Y-112339590D01*
X56851748Y-112390205D01*
X56876565Y-112409996D01*
X56906192Y-112429792D01*
X57071284Y-112565279D01*
X57132309Y-112613945D01*
X57140205Y-112621841D01*
X57148938Y-112629008D01*
X57370991Y-112851061D01*
X57378157Y-112859793D01*
X57386055Y-112867691D01*
X57434726Y-112928723D01*
X57570207Y-113093807D01*
X57590001Y-113123431D01*
X57609795Y-113148252D01*
X57660415Y-113228813D01*
X57744671Y-113354912D01*
X57773286Y-113408447D01*
X57800715Y-113452100D01*
X57837977Y-113529475D01*
X57892696Y-113631847D01*
X57926019Y-113712296D01*
X57956415Y-113775413D01*
X57979549Y-113841527D01*
X58012875Y-113921982D01*
X58046576Y-114033081D01*
X58074935Y-114114126D01*
X58086404Y-114164378D01*
X58104029Y-114222478D01*
X58133616Y-114371224D01*
X58154787Y-114463980D01*
X58158342Y-114495531D01*
X58165292Y-114530472D01*
X58186222Y-114742975D01*
X58194966Y-114820575D01*
X58194966Y-114831745D01*
X58196073Y-114842985D01*
X58196073Y-115157014D01*
X58194966Y-115168253D01*
X58194966Y-115179425D01*
X58186221Y-115257031D01*
X58165292Y-115469527D01*
X58158342Y-115504465D01*
X58154787Y-115536020D01*
X58133614Y-115628782D01*
X58104029Y-115777521D01*
X58086405Y-115835617D01*
X58074935Y-115885874D01*
X58046574Y-115966925D01*
X58012875Y-116078017D01*
X57979551Y-116158466D01*
X57956415Y-116224587D01*
X57926016Y-116287709D01*
X57892696Y-116368152D01*
X57837982Y-116470514D01*
X57800715Y-116547900D01*
X57773282Y-116591558D01*
X57744671Y-116645087D01*
X57660425Y-116771169D01*
X57609795Y-116851748D01*
X57589997Y-116876573D01*
X57570207Y-116906192D01*
X57434755Y-117071241D01*
X57386055Y-117132309D01*
X57378153Y-117140210D01*
X57370991Y-117148938D01*
X57148938Y-117370991D01*
X57140210Y-117378153D01*
X57132309Y-117386055D01*
X57071241Y-117434755D01*
X56906192Y-117570207D01*
X56876573Y-117589997D01*
X56851748Y-117609795D01*
X56771169Y-117660425D01*
X56645087Y-117744671D01*
X56591558Y-117773282D01*
X56547900Y-117800715D01*
X56470514Y-117837982D01*
X56368152Y-117892696D01*
X56287709Y-117926016D01*
X56224587Y-117956415D01*
X56158466Y-117979551D01*
X56078017Y-118012875D01*
X55966925Y-118046574D01*
X55885874Y-118074935D01*
X55835617Y-118086405D01*
X55777521Y-118104029D01*
X55628782Y-118133614D01*
X55536020Y-118154787D01*
X55504465Y-118158342D01*
X55469527Y-118165292D01*
X55257031Y-118186221D01*
X55179425Y-118194966D01*
X55168253Y-118194966D01*
X55157014Y-118196073D01*
X54842986Y-118196073D01*
X54831747Y-118194966D01*
X54820575Y-118194966D01*
X54742971Y-118186222D01*
X54530472Y-118165292D01*
X54495531Y-118158342D01*
X54463980Y-118154787D01*
X54371224Y-118133616D01*
X54222478Y-118104029D01*
X54164378Y-118086404D01*
X54114126Y-118074935D01*
X54033081Y-118046576D01*
X53921982Y-118012875D01*
X53841527Y-117979549D01*
X53775413Y-117956415D01*
X53712296Y-117926019D01*
X53631847Y-117892696D01*
X53529475Y-117837977D01*
X53452100Y-117800715D01*
X53408447Y-117773286D01*
X53354912Y-117744671D01*
X53228813Y-117660415D01*
X53148252Y-117609795D01*
X53123431Y-117590001D01*
X53093807Y-117570207D01*
X52928723Y-117434726D01*
X52867691Y-117386055D01*
X52859793Y-117378157D01*
X52851061Y-117370991D01*
X52629008Y-117148938D01*
X52621841Y-117140205D01*
X52613945Y-117132309D01*
X52565279Y-117071284D01*
X52429792Y-116906192D01*
X52409996Y-116876565D01*
X52390205Y-116851748D01*
X52339590Y-116771194D01*
X52255328Y-116645087D01*
X52226710Y-116591547D01*
X52199285Y-116547900D01*
X52162026Y-116470533D01*
X52107303Y-116368152D01*
X52073976Y-116287694D01*
X52043585Y-116224587D01*
X52020454Y-116158482D01*
X51987124Y-116078017D01*
X51953418Y-115966903D01*
X51925065Y-115885874D01*
X51913597Y-115835630D01*
X51895970Y-115777521D01*
X51866377Y-115628748D01*
X51845213Y-115536020D01*
X51841658Y-115504477D01*
X51834707Y-115469527D01*
X51813775Y-115257008D01*
X51805034Y-115179425D01*
X51805034Y-115168253D01*
X51803927Y-115157014D01*
X51803927Y-114842985D01*
X51805034Y-114831745D01*
X51805034Y-114820575D01*
X51813774Y-114742998D01*
X51834707Y-114530472D01*
X51841659Y-114495520D01*
X51845213Y-114463980D01*
X51866376Y-114371258D01*
X51895970Y-114222478D01*
X51913598Y-114164365D01*
X51925065Y-114114126D01*
X51953416Y-114033102D01*
X51987124Y-113921982D01*
X52020456Y-113841511D01*
X52043585Y-113775413D01*
X52073973Y-113712311D01*
X52107303Y-113631847D01*
X52162031Y-113529456D01*
X52199285Y-113452100D01*
X52226707Y-113408457D01*
X52255328Y-113354912D01*
X52339600Y-113228788D01*
X52390205Y-113148252D01*
X52409992Y-113123439D01*
X52429792Y-113093807D01*
X52565307Y-112928680D01*
X52613945Y-112867691D01*
X52621836Y-112859799D01*
X52629008Y-112851061D01*
X52851061Y-112629008D01*
X52859799Y-112621836D01*
X52867691Y-112613945D01*
X52928680Y-112565307D01*
X53093807Y-112429792D01*
X53123439Y-112409992D01*
X53148252Y-112390205D01*
X53228788Y-112339600D01*
X53354912Y-112255328D01*
X53408457Y-112226707D01*
X53452100Y-112199285D01*
X53529456Y-112162031D01*
X53631847Y-112107303D01*
X53712311Y-112073973D01*
X53775413Y-112043585D01*
X53841511Y-112020456D01*
X53921982Y-111987124D01*
X54033102Y-111953416D01*
X54114126Y-111925065D01*
X54164365Y-111913598D01*
X54222478Y-111895970D01*
X54371258Y-111866376D01*
X54463980Y-111845213D01*
X54495520Y-111841659D01*
X54530472Y-111834707D01*
X54742993Y-111813775D01*
X54820575Y-111805034D01*
X54831746Y-111805034D01*
X54842986Y-111803927D01*
X55157014Y-111803927D01*
X55168254Y-111805034D01*
G37*
G36*
X115168254Y-111805034D02*
G01*
X115179425Y-111805034D01*
X115257008Y-111813775D01*
X115469527Y-111834707D01*
X115504477Y-111841658D01*
X115536020Y-111845213D01*
X115628748Y-111866377D01*
X115777521Y-111895970D01*
X115835630Y-111913597D01*
X115885874Y-111925065D01*
X115966903Y-111953418D01*
X116078017Y-111987124D01*
X116158482Y-112020454D01*
X116224587Y-112043585D01*
X116287694Y-112073976D01*
X116368152Y-112107303D01*
X116470533Y-112162026D01*
X116547900Y-112199285D01*
X116591547Y-112226710D01*
X116645087Y-112255328D01*
X116771194Y-112339590D01*
X116851748Y-112390205D01*
X116876565Y-112409996D01*
X116906192Y-112429792D01*
X117071284Y-112565279D01*
X117132309Y-112613945D01*
X117140205Y-112621841D01*
X117148938Y-112629008D01*
X117370991Y-112851061D01*
X117378157Y-112859793D01*
X117386055Y-112867691D01*
X117434726Y-112928723D01*
X117570207Y-113093807D01*
X117590001Y-113123431D01*
X117609795Y-113148252D01*
X117660415Y-113228813D01*
X117744671Y-113354912D01*
X117773286Y-113408447D01*
X117800715Y-113452100D01*
X117837977Y-113529475D01*
X117892696Y-113631847D01*
X117926019Y-113712296D01*
X117956415Y-113775413D01*
X117979549Y-113841527D01*
X118012875Y-113921982D01*
X118046576Y-114033081D01*
X118074935Y-114114126D01*
X118086404Y-114164378D01*
X118104029Y-114222478D01*
X118133616Y-114371224D01*
X118154787Y-114463980D01*
X118158342Y-114495531D01*
X118165292Y-114530472D01*
X118186222Y-114742975D01*
X118194966Y-114820575D01*
X118194966Y-114831745D01*
X118196073Y-114842985D01*
X118196073Y-115157014D01*
X118194966Y-115168253D01*
X118194966Y-115179425D01*
X118186221Y-115257031D01*
X118165292Y-115469527D01*
X118158342Y-115504465D01*
X118154787Y-115536020D01*
X118133614Y-115628782D01*
X118104029Y-115777521D01*
X118086405Y-115835617D01*
X118074935Y-115885874D01*
X118046574Y-115966925D01*
X118012875Y-116078017D01*
X117979551Y-116158466D01*
X117956415Y-116224587D01*
X117926016Y-116287709D01*
X117892696Y-116368152D01*
X117837982Y-116470514D01*
X117800715Y-116547900D01*
X117773282Y-116591558D01*
X117744671Y-116645087D01*
X117660425Y-116771169D01*
X117609795Y-116851748D01*
X117589997Y-116876573D01*
X117570207Y-116906192D01*
X117434755Y-117071241D01*
X117386055Y-117132309D01*
X117378153Y-117140210D01*
X117370991Y-117148938D01*
X117148938Y-117370991D01*
X117140210Y-117378153D01*
X117132309Y-117386055D01*
X117071241Y-117434755D01*
X116906192Y-117570207D01*
X116876573Y-117589997D01*
X116851748Y-117609795D01*
X116771169Y-117660425D01*
X116645087Y-117744671D01*
X116591558Y-117773282D01*
X116547900Y-117800715D01*
X116470514Y-117837982D01*
X116368152Y-117892696D01*
X116287709Y-117926016D01*
X116224587Y-117956415D01*
X116158466Y-117979551D01*
X116078017Y-118012875D01*
X115966925Y-118046574D01*
X115885874Y-118074935D01*
X115835617Y-118086405D01*
X115777521Y-118104029D01*
X115628782Y-118133614D01*
X115536020Y-118154787D01*
X115504465Y-118158342D01*
X115469527Y-118165292D01*
X115257031Y-118186221D01*
X115179425Y-118194966D01*
X115168253Y-118194966D01*
X115157014Y-118196073D01*
X114842986Y-118196073D01*
X114831747Y-118194966D01*
X114820575Y-118194966D01*
X114742971Y-118186222D01*
X114530472Y-118165292D01*
X114495531Y-118158342D01*
X114463980Y-118154787D01*
X114371224Y-118133616D01*
X114222478Y-118104029D01*
X114164378Y-118086404D01*
X114114126Y-118074935D01*
X114033081Y-118046576D01*
X113921982Y-118012875D01*
X113841527Y-117979549D01*
X113775413Y-117956415D01*
X113712296Y-117926019D01*
X113631847Y-117892696D01*
X113529475Y-117837977D01*
X113452100Y-117800715D01*
X113408447Y-117773286D01*
X113354912Y-117744671D01*
X113228813Y-117660415D01*
X113148252Y-117609795D01*
X113123431Y-117590001D01*
X113093807Y-117570207D01*
X112928723Y-117434726D01*
X112867691Y-117386055D01*
X112859793Y-117378157D01*
X112851061Y-117370991D01*
X112629008Y-117148938D01*
X112621841Y-117140205D01*
X112613945Y-117132309D01*
X112565279Y-117071284D01*
X112429792Y-116906192D01*
X112409996Y-116876565D01*
X112390205Y-116851748D01*
X112339590Y-116771194D01*
X112255328Y-116645087D01*
X112226710Y-116591547D01*
X112199285Y-116547900D01*
X112162026Y-116470533D01*
X112107303Y-116368152D01*
X112073976Y-116287694D01*
X112043585Y-116224587D01*
X112020454Y-116158482D01*
X111987124Y-116078017D01*
X111953418Y-115966903D01*
X111925065Y-115885874D01*
X111913597Y-115835630D01*
X111895970Y-115777521D01*
X111866377Y-115628748D01*
X111845213Y-115536020D01*
X111841658Y-115504477D01*
X111834707Y-115469527D01*
X111813775Y-115257008D01*
X111805034Y-115179425D01*
X111805034Y-115168253D01*
X111803927Y-115157014D01*
X111803927Y-114842985D01*
X111805034Y-114831745D01*
X111805034Y-114820575D01*
X111813774Y-114742998D01*
X111834707Y-114530472D01*
X111841659Y-114495520D01*
X111845213Y-114463980D01*
X111866376Y-114371258D01*
X111895970Y-114222478D01*
X111913598Y-114164365D01*
X111925065Y-114114126D01*
X111953416Y-114033102D01*
X111987124Y-113921982D01*
X112020456Y-113841511D01*
X112043585Y-113775413D01*
X112073973Y-113712311D01*
X112107303Y-113631847D01*
X112162031Y-113529456D01*
X112199285Y-113452100D01*
X112226707Y-113408457D01*
X112255328Y-113354912D01*
X112339600Y-113228788D01*
X112390205Y-113148252D01*
X112409992Y-113123439D01*
X112429792Y-113093807D01*
X112565307Y-112928680D01*
X112613945Y-112867691D01*
X112621836Y-112859799D01*
X112629008Y-112851061D01*
X112851061Y-112629008D01*
X112859799Y-112621836D01*
X112867691Y-112613945D01*
X112928680Y-112565307D01*
X113093807Y-112429792D01*
X113123439Y-112409992D01*
X113148252Y-112390205D01*
X113228788Y-112339600D01*
X113354912Y-112255328D01*
X113408457Y-112226707D01*
X113452100Y-112199285D01*
X113529456Y-112162031D01*
X113631847Y-112107303D01*
X113712311Y-112073973D01*
X113775413Y-112043585D01*
X113841511Y-112020456D01*
X113921982Y-111987124D01*
X114033102Y-111953416D01*
X114114126Y-111925065D01*
X114164365Y-111913598D01*
X114222478Y-111895970D01*
X114371258Y-111866376D01*
X114463980Y-111845213D01*
X114495520Y-111841659D01*
X114530472Y-111834707D01*
X114742993Y-111813775D01*
X114820575Y-111805034D01*
X114831746Y-111805034D01*
X114842986Y-111803927D01*
X115157014Y-111803927D01*
X115168254Y-111805034D01*
G37*
G36*
X92304100Y-116804100D02*
G01*
X90195900Y-116804100D01*
X90195900Y-114695900D01*
X92304100Y-114695900D01*
X92304100Y-116804100D01*
G37*
G36*
X81945058Y-114700976D02*
G01*
X81955320Y-114700976D01*
X81995429Y-114708954D01*
X82098031Y-114725205D01*
X82131026Y-114735925D01*
X82157989Y-114741289D01*
X82196036Y-114757048D01*
X82255310Y-114776308D01*
X82310846Y-114804605D01*
X82348899Y-114820367D01*
X82371756Y-114835640D01*
X82402670Y-114851391D01*
X82486705Y-114912446D01*
X82520714Y-114935170D01*
X82527972Y-114942428D01*
X82536460Y-114948595D01*
X82653404Y-115065539D01*
X82659570Y-115074026D01*
X82666830Y-115081286D01*
X82689557Y-115115299D01*
X82750608Y-115199329D01*
X82766357Y-115230240D01*
X82781633Y-115253101D01*
X82797396Y-115291158D01*
X82825691Y-115346689D01*
X82844947Y-115405955D01*
X82860711Y-115444011D01*
X82866075Y-115470978D01*
X82876794Y-115503968D01*
X82893044Y-115606562D01*
X82901024Y-115646680D01*
X82901024Y-115656942D01*
X82902666Y-115667309D01*
X82902666Y-115832690D01*
X82901024Y-115843056D01*
X82901024Y-115853320D01*
X82893043Y-115893441D01*
X82876794Y-115996031D01*
X82866075Y-116029018D01*
X82860711Y-116055989D01*
X82844946Y-116094047D01*
X82825691Y-116153310D01*
X82797399Y-116208836D01*
X82781633Y-116246899D01*
X82766355Y-116269763D01*
X82750608Y-116300670D01*
X82689565Y-116384688D01*
X82666830Y-116418714D01*
X82659567Y-116425976D01*
X82653404Y-116434460D01*
X82536460Y-116551404D01*
X82527976Y-116557567D01*
X82520714Y-116564830D01*
X82486688Y-116587565D01*
X82402670Y-116648608D01*
X82371763Y-116664355D01*
X82348899Y-116679633D01*
X82310836Y-116695399D01*
X82255310Y-116723691D01*
X82196047Y-116742946D01*
X82157989Y-116758711D01*
X82131018Y-116764075D01*
X82098031Y-116774794D01*
X81995438Y-116791043D01*
X81955320Y-116799024D01*
X81945058Y-116799024D01*
X81934691Y-116800666D01*
X81769309Y-116800666D01*
X81758942Y-116799024D01*
X81748680Y-116799024D01*
X81708562Y-116791044D01*
X81605968Y-116774794D01*
X81572978Y-116764075D01*
X81546011Y-116758711D01*
X81507955Y-116742947D01*
X81448689Y-116723691D01*
X81393158Y-116695396D01*
X81355101Y-116679633D01*
X81332240Y-116664357D01*
X81301329Y-116648608D01*
X81217299Y-116587557D01*
X81183286Y-116564830D01*
X81176026Y-116557570D01*
X81167539Y-116551404D01*
X81050595Y-116434460D01*
X81044428Y-116425972D01*
X81037170Y-116418714D01*
X81014446Y-116384705D01*
X80953391Y-116300670D01*
X80937640Y-116269756D01*
X80922367Y-116246899D01*
X80906605Y-116208846D01*
X80878308Y-116153310D01*
X80859048Y-116094036D01*
X80843289Y-116055989D01*
X80837925Y-116029026D01*
X80827205Y-115996031D01*
X80810954Y-115893432D01*
X80802976Y-115853320D01*
X80802976Y-115843057D01*
X80801334Y-115832690D01*
X80801334Y-115667309D01*
X80802976Y-115656941D01*
X80802976Y-115646680D01*
X80810953Y-115606571D01*
X80827205Y-115503968D01*
X80837926Y-115470970D01*
X80843289Y-115444011D01*
X80859047Y-115405967D01*
X80878308Y-115346689D01*
X80906607Y-115291147D01*
X80922367Y-115253101D01*
X80937637Y-115230246D01*
X80953391Y-115199329D01*
X81014454Y-115115282D01*
X81037170Y-115081286D01*
X81044425Y-115074030D01*
X81050595Y-115065539D01*
X81167539Y-114948595D01*
X81176030Y-114942425D01*
X81183286Y-114935170D01*
X81217282Y-114912454D01*
X81301329Y-114851391D01*
X81332246Y-114835637D01*
X81355101Y-114820367D01*
X81393147Y-114804607D01*
X81448689Y-114776308D01*
X81507967Y-114757047D01*
X81546011Y-114741289D01*
X81572970Y-114735926D01*
X81605968Y-114725205D01*
X81708571Y-114708953D01*
X81748680Y-114700976D01*
X81758942Y-114700976D01*
X81769309Y-114699334D01*
X81934691Y-114699334D01*
X81945058Y-114700976D01*
G37*
G36*
X86644058Y-114700976D02*
G01*
X86654320Y-114700976D01*
X86694429Y-114708954D01*
X86797031Y-114725205D01*
X86830026Y-114735925D01*
X86856989Y-114741289D01*
X86895036Y-114757048D01*
X86954310Y-114776308D01*
X87009846Y-114804605D01*
X87047899Y-114820367D01*
X87070756Y-114835640D01*
X87101670Y-114851391D01*
X87185705Y-114912446D01*
X87219714Y-114935170D01*
X87226972Y-114942428D01*
X87235460Y-114948595D01*
X87352404Y-115065539D01*
X87358570Y-115074026D01*
X87365830Y-115081286D01*
X87388557Y-115115299D01*
X87449608Y-115199329D01*
X87465357Y-115230240D01*
X87480633Y-115253101D01*
X87496396Y-115291158D01*
X87524691Y-115346689D01*
X87543947Y-115405955D01*
X87559711Y-115444011D01*
X87565075Y-115470978D01*
X87575794Y-115503968D01*
X87592044Y-115606562D01*
X87600024Y-115646680D01*
X87600024Y-115656942D01*
X87601666Y-115667309D01*
X87601666Y-115832690D01*
X87600024Y-115843056D01*
X87600024Y-115853320D01*
X87592043Y-115893441D01*
X87575794Y-115996031D01*
X87565075Y-116029018D01*
X87559711Y-116055989D01*
X87543946Y-116094047D01*
X87524691Y-116153310D01*
X87496399Y-116208836D01*
X87480633Y-116246899D01*
X87465355Y-116269763D01*
X87449608Y-116300670D01*
X87388565Y-116384688D01*
X87365830Y-116418714D01*
X87358567Y-116425976D01*
X87352404Y-116434460D01*
X87235460Y-116551404D01*
X87226976Y-116557567D01*
X87219714Y-116564830D01*
X87185688Y-116587565D01*
X87101670Y-116648608D01*
X87070763Y-116664355D01*
X87047899Y-116679633D01*
X87009836Y-116695399D01*
X86954310Y-116723691D01*
X86895047Y-116742946D01*
X86856989Y-116758711D01*
X86830018Y-116764075D01*
X86797031Y-116774794D01*
X86694438Y-116791043D01*
X86654320Y-116799024D01*
X86644058Y-116799024D01*
X86633691Y-116800666D01*
X86468309Y-116800666D01*
X86457942Y-116799024D01*
X86447680Y-116799024D01*
X86407562Y-116791044D01*
X86304968Y-116774794D01*
X86271978Y-116764075D01*
X86245011Y-116758711D01*
X86206955Y-116742947D01*
X86147689Y-116723691D01*
X86092158Y-116695396D01*
X86054101Y-116679633D01*
X86031240Y-116664357D01*
X86000329Y-116648608D01*
X85916299Y-116587557D01*
X85882286Y-116564830D01*
X85875026Y-116557570D01*
X85866539Y-116551404D01*
X85749595Y-116434460D01*
X85743428Y-116425972D01*
X85736170Y-116418714D01*
X85713446Y-116384705D01*
X85652391Y-116300670D01*
X85636640Y-116269756D01*
X85621367Y-116246899D01*
X85605605Y-116208846D01*
X85577308Y-116153310D01*
X85558048Y-116094036D01*
X85542289Y-116055989D01*
X85536925Y-116029026D01*
X85526205Y-115996031D01*
X85509954Y-115893432D01*
X85501976Y-115853320D01*
X85501976Y-115843057D01*
X85500334Y-115832690D01*
X85500334Y-115667309D01*
X85501976Y-115656941D01*
X85501976Y-115646680D01*
X85509953Y-115606571D01*
X85526205Y-115503968D01*
X85536926Y-115470970D01*
X85542289Y-115444011D01*
X85558047Y-115405967D01*
X85577308Y-115346689D01*
X85605607Y-115291147D01*
X85621367Y-115253101D01*
X85636637Y-115230246D01*
X85652391Y-115199329D01*
X85713454Y-115115282D01*
X85736170Y-115081286D01*
X85743425Y-115074030D01*
X85749595Y-115065539D01*
X85866539Y-114948595D01*
X85875030Y-114942425D01*
X85882286Y-114935170D01*
X85916282Y-114912454D01*
X86000329Y-114851391D01*
X86031246Y-114835637D01*
X86054101Y-114820367D01*
X86092147Y-114804607D01*
X86147689Y-114776308D01*
X86206967Y-114757047D01*
X86245011Y-114741289D01*
X86271970Y-114735926D01*
X86304968Y-114725205D01*
X86407571Y-114708953D01*
X86447680Y-114700976D01*
X86457942Y-114700976D01*
X86468309Y-114699334D01*
X86633691Y-114699334D01*
X86644058Y-114700976D01*
G37*
G36*
X77290285Y-111543060D02*
G01*
X77471397Y-111618079D01*
X77634393Y-111726990D01*
X77773010Y-111865607D01*
X77881921Y-112028603D01*
X77956940Y-112209715D01*
X77995185Y-112401983D01*
X77995185Y-112598017D01*
X77956940Y-112790285D01*
X77881921Y-112971397D01*
X77773010Y-113134393D01*
X77634393Y-113273010D01*
X77471397Y-113381921D01*
X77290285Y-113456940D01*
X77098017Y-113495185D01*
X76901983Y-113495185D01*
X76709715Y-113456940D01*
X76528603Y-113381921D01*
X76365607Y-113273010D01*
X76226990Y-113134393D01*
X76118079Y-112971397D01*
X76043060Y-112790285D01*
X76004815Y-112598017D01*
X76004815Y-112401983D01*
X76043060Y-112209715D01*
X76118079Y-112028603D01*
X76226990Y-111865607D01*
X76365607Y-111726990D01*
X76528603Y-111618079D01*
X76709715Y-111543060D01*
X76901983Y-111504815D01*
X77098017Y-111504815D01*
X77290285Y-111543060D01*
G37*
G36*
X72704850Y-105275962D02*
G01*
X72749317Y-105281121D01*
X72764510Y-105287829D01*
X72786104Y-105292125D01*
X72809222Y-105307572D01*
X72826567Y-105315231D01*
X72838412Y-105327076D01*
X72859099Y-105340899D01*
X72872921Y-105361585D01*
X72884766Y-105373430D01*
X72892423Y-105390772D01*
X72907873Y-105413894D01*
X72912168Y-105435489D01*
X72918876Y-105450680D01*
X72924033Y-105495137D01*
X72925000Y-105499998D01*
X72925000Y-105999998D01*
X72924032Y-106004860D01*
X72918876Y-106049315D01*
X72912168Y-106064504D01*
X72907873Y-106086102D01*
X72892422Y-106109225D01*
X72884766Y-106126565D01*
X72872923Y-106138407D01*
X72859099Y-106159097D01*
X72838409Y-106172921D01*
X72826567Y-106184764D01*
X72809227Y-106192420D01*
X72786104Y-106207871D01*
X72764506Y-106212166D01*
X72749317Y-106218874D01*
X72704861Y-106224030D01*
X72700000Y-106224998D01*
X72250000Y-106224998D01*
X72245138Y-106224031D01*
X72200682Y-106218874D01*
X72185491Y-106212166D01*
X72163896Y-106207871D01*
X72140774Y-106192421D01*
X72123432Y-106184764D01*
X72111587Y-106172919D01*
X72090901Y-106159097D01*
X72077078Y-106138410D01*
X72065233Y-106126565D01*
X72057574Y-106109220D01*
X72042127Y-106086102D01*
X72037831Y-106064508D01*
X72031123Y-106049315D01*
X72025964Y-106004847D01*
X72025000Y-105999998D01*
X72025000Y-105499998D01*
X72025964Y-105495148D01*
X72031123Y-105450680D01*
X72037832Y-105435485D01*
X72042127Y-105413894D01*
X72057573Y-105390777D01*
X72065233Y-105373430D01*
X72077080Y-105361582D01*
X72090901Y-105340899D01*
X72111584Y-105327078D01*
X72123432Y-105315231D01*
X72140779Y-105307571D01*
X72163896Y-105292125D01*
X72185487Y-105287830D01*
X72200682Y-105281121D01*
X72245151Y-105275962D01*
X72250000Y-105274998D01*
X72700000Y-105274998D01*
X72704850Y-105275962D01*
G37*
G36*
X74254850Y-105275962D02*
G01*
X74299317Y-105281121D01*
X74314510Y-105287829D01*
X74336104Y-105292125D01*
X74359222Y-105307572D01*
X74376567Y-105315231D01*
X74388412Y-105327076D01*
X74409099Y-105340899D01*
X74422921Y-105361585D01*
X74434766Y-105373430D01*
X74442423Y-105390772D01*
X74457873Y-105413894D01*
X74462168Y-105435489D01*
X74468876Y-105450680D01*
X74474033Y-105495137D01*
X74475000Y-105499998D01*
X74475000Y-105999998D01*
X74474032Y-106004860D01*
X74468876Y-106049315D01*
X74462168Y-106064504D01*
X74457873Y-106086102D01*
X74442422Y-106109225D01*
X74434766Y-106126565D01*
X74422923Y-106138407D01*
X74409099Y-106159097D01*
X74388409Y-106172921D01*
X74376567Y-106184764D01*
X74359227Y-106192420D01*
X74336104Y-106207871D01*
X74314506Y-106212166D01*
X74299317Y-106218874D01*
X74254861Y-106224030D01*
X74250000Y-106224998D01*
X73800000Y-106224998D01*
X73795138Y-106224031D01*
X73750682Y-106218874D01*
X73735491Y-106212166D01*
X73713896Y-106207871D01*
X73690774Y-106192421D01*
X73673432Y-106184764D01*
X73661587Y-106172919D01*
X73640901Y-106159097D01*
X73627078Y-106138410D01*
X73615233Y-106126565D01*
X73607574Y-106109220D01*
X73592127Y-106086102D01*
X73587831Y-106064508D01*
X73581123Y-106049315D01*
X73575964Y-106004847D01*
X73575000Y-105999998D01*
X73575000Y-105499998D01*
X73575964Y-105495148D01*
X73581123Y-105450680D01*
X73587832Y-105435485D01*
X73592127Y-105413894D01*
X73607573Y-105390777D01*
X73615233Y-105373430D01*
X73627080Y-105361582D01*
X73640901Y-105340899D01*
X73661584Y-105327078D01*
X73673432Y-105315231D01*
X73690779Y-105307571D01*
X73713896Y-105292125D01*
X73735487Y-105287830D01*
X73750682Y-105281121D01*
X73795151Y-105275962D01*
X73800000Y-105274998D01*
X74250000Y-105274998D01*
X74254850Y-105275962D01*
G37*
G36*
X85182403Y-105411418D02*
G01*
X85231066Y-105443934D01*
X85263582Y-105492597D01*
X85275000Y-105550000D01*
X85275000Y-105850000D01*
X85263582Y-105907403D01*
X85231066Y-105956066D01*
X85182403Y-105988582D01*
X85125000Y-106000000D01*
X84100000Y-106000000D01*
X84042597Y-105988582D01*
X83993934Y-105956066D01*
X83961418Y-105907403D01*
X83950000Y-105850000D01*
X83950000Y-105550000D01*
X83961418Y-105492597D01*
X83993934Y-105443934D01*
X84042597Y-105411418D01*
X84100000Y-105400000D01*
X85125000Y-105400000D01*
X85182403Y-105411418D01*
G37*
G36*
X87457403Y-105411418D02*
G01*
X87506066Y-105443934D01*
X87538582Y-105492597D01*
X87550000Y-105550000D01*
X87550000Y-105850000D01*
X87538582Y-105907403D01*
X87506066Y-105956066D01*
X87457403Y-105988582D01*
X87400000Y-106000000D01*
X86375000Y-106000000D01*
X86317597Y-105988582D01*
X86268934Y-105956066D01*
X86236418Y-105907403D01*
X86225000Y-105850000D01*
X86225000Y-105550000D01*
X86236418Y-105492597D01*
X86268934Y-105443934D01*
X86317597Y-105411418D01*
X86375000Y-105400000D01*
X87400000Y-105400000D01*
X87457403Y-105411418D01*
G37*
G36*
X83006537Y-105180224D02*
G01*
X83071421Y-105223579D01*
X83114776Y-105288463D01*
X83130000Y-105365000D01*
X83130000Y-105765000D01*
X83114776Y-105841537D01*
X83071421Y-105906421D01*
X83006537Y-105949776D01*
X82930000Y-105965000D01*
X82380000Y-105965000D01*
X82303463Y-105949776D01*
X82238579Y-105906421D01*
X82195224Y-105841537D01*
X82180000Y-105765000D01*
X82180000Y-105365000D01*
X82195224Y-105288463D01*
X82238579Y-105223579D01*
X82303463Y-105180224D01*
X82380000Y-105165000D01*
X82930000Y-105165000D01*
X83006537Y-105180224D01*
G37*
G36*
X89006537Y-105180224D02*
G01*
X89071421Y-105223579D01*
X89114776Y-105288463D01*
X89130000Y-105365000D01*
X89130000Y-105765000D01*
X89114776Y-105841537D01*
X89071421Y-105906421D01*
X89006537Y-105949776D01*
X88930000Y-105965000D01*
X88380000Y-105965000D01*
X88303463Y-105949776D01*
X88238579Y-105906421D01*
X88195224Y-105841537D01*
X88180000Y-105765000D01*
X88180000Y-105365000D01*
X88195224Y-105288463D01*
X88238579Y-105223579D01*
X88303463Y-105180224D01*
X88380000Y-105165000D01*
X88930000Y-105165000D01*
X89006537Y-105180224D01*
G37*
G36*
X90409850Y-105065964D02*
G01*
X90454317Y-105071123D01*
X90469510Y-105077831D01*
X90491104Y-105082127D01*
X90514222Y-105097574D01*
X90531567Y-105105233D01*
X90543412Y-105117078D01*
X90564099Y-105130901D01*
X90577921Y-105151587D01*
X90589766Y-105163432D01*
X90597423Y-105180774D01*
X90612873Y-105203896D01*
X90617168Y-105225491D01*
X90623876Y-105240682D01*
X90629033Y-105285139D01*
X90630000Y-105290000D01*
X90630000Y-105740000D01*
X90629032Y-105744862D01*
X90623876Y-105789317D01*
X90617168Y-105804506D01*
X90612873Y-105826104D01*
X90597422Y-105849227D01*
X90589766Y-105866567D01*
X90577923Y-105878409D01*
X90564099Y-105899099D01*
X90543409Y-105912923D01*
X90531567Y-105924766D01*
X90514227Y-105932422D01*
X90491104Y-105947873D01*
X90469506Y-105952168D01*
X90454317Y-105958876D01*
X90409861Y-105964032D01*
X90405000Y-105965000D01*
X89905000Y-105965000D01*
X89900138Y-105964033D01*
X89855682Y-105958876D01*
X89840491Y-105952168D01*
X89818896Y-105947873D01*
X89795774Y-105932423D01*
X89778432Y-105924766D01*
X89766587Y-105912921D01*
X89745901Y-105899099D01*
X89732078Y-105878412D01*
X89720233Y-105866567D01*
X89712574Y-105849222D01*
X89697127Y-105826104D01*
X89692831Y-105804510D01*
X89686123Y-105789317D01*
X89680964Y-105744849D01*
X89680000Y-105740000D01*
X89680000Y-105290000D01*
X89680964Y-105285150D01*
X89686123Y-105240682D01*
X89692832Y-105225487D01*
X89697127Y-105203896D01*
X89712573Y-105180779D01*
X89720233Y-105163432D01*
X89732080Y-105151584D01*
X89745901Y-105130901D01*
X89766584Y-105117080D01*
X89778432Y-105105233D01*
X89795779Y-105097573D01*
X89818896Y-105082127D01*
X89840487Y-105077832D01*
X89855682Y-105071123D01*
X89900151Y-105065964D01*
X89905000Y-105065000D01*
X90405000Y-105065000D01*
X90409850Y-105065964D01*
G37*
G36*
X87457403Y-104461418D02*
G01*
X87506066Y-104493934D01*
X87538582Y-104542597D01*
X87550000Y-104600000D01*
X87550000Y-104900000D01*
X87538582Y-104957403D01*
X87506066Y-105006066D01*
X87457403Y-105038582D01*
X87400000Y-105050000D01*
X86375000Y-105050000D01*
X86317597Y-105038582D01*
X86268934Y-105006066D01*
X86236418Y-104957403D01*
X86225000Y-104900000D01*
X86225000Y-104600000D01*
X86236418Y-104542597D01*
X86268934Y-104493934D01*
X86317597Y-104461418D01*
X86375000Y-104450000D01*
X87400000Y-104450000D01*
X87457403Y-104461418D01*
G37*
G36*
X61954850Y-104025964D02*
G01*
X61999317Y-104031123D01*
X62014510Y-104037831D01*
X62036104Y-104042127D01*
X62059222Y-104057574D01*
X62076567Y-104065233D01*
X62088412Y-104077078D01*
X62109099Y-104090901D01*
X62122921Y-104111587D01*
X62134766Y-104123432D01*
X62142423Y-104140774D01*
X62157873Y-104163896D01*
X62162168Y-104185491D01*
X62168876Y-104200682D01*
X62174033Y-104245139D01*
X62175000Y-104250000D01*
X62175000Y-104750000D01*
X62174032Y-104754862D01*
X62168876Y-104799317D01*
X62162168Y-104814506D01*
X62157873Y-104836104D01*
X62142422Y-104859227D01*
X62134766Y-104876567D01*
X62122923Y-104888409D01*
X62109099Y-104909099D01*
X62088409Y-104922923D01*
X62076567Y-104934766D01*
X62059227Y-104942422D01*
X62036104Y-104957873D01*
X62014506Y-104962168D01*
X61999317Y-104968876D01*
X61954861Y-104974032D01*
X61950000Y-104975000D01*
X61500000Y-104975000D01*
X61495138Y-104974033D01*
X61450682Y-104968876D01*
X61435491Y-104962168D01*
X61413896Y-104957873D01*
X61390774Y-104942423D01*
X61373432Y-104934766D01*
X61361587Y-104922921D01*
X61340901Y-104909099D01*
X61327078Y-104888412D01*
X61315233Y-104876567D01*
X61307574Y-104859222D01*
X61292127Y-104836104D01*
X61287831Y-104814510D01*
X61281123Y-104799317D01*
X61275964Y-104754849D01*
X61275000Y-104750000D01*
X61275000Y-104250000D01*
X61275964Y-104245150D01*
X61281123Y-104200682D01*
X61287832Y-104185487D01*
X61292127Y-104163896D01*
X61307573Y-104140779D01*
X61315233Y-104123432D01*
X61327080Y-104111584D01*
X61340901Y-104090901D01*
X61361584Y-104077080D01*
X61373432Y-104065233D01*
X61390779Y-104057573D01*
X61413896Y-104042127D01*
X61435487Y-104037832D01*
X61450682Y-104031123D01*
X61495151Y-104025964D01*
X61500000Y-104025000D01*
X61950000Y-104025000D01*
X61954850Y-104025964D01*
G37*
G36*
X63504850Y-104025964D02*
G01*
X63549317Y-104031123D01*
X63564510Y-104037831D01*
X63586104Y-104042127D01*
X63609222Y-104057574D01*
X63626567Y-104065233D01*
X63638412Y-104077078D01*
X63659099Y-104090901D01*
X63672921Y-104111587D01*
X63684766Y-104123432D01*
X63692423Y-104140774D01*
X63707873Y-104163896D01*
X63712168Y-104185491D01*
X63718876Y-104200682D01*
X63724033Y-104245139D01*
X63725000Y-104250000D01*
X63725000Y-104750000D01*
X63724032Y-104754862D01*
X63718876Y-104799317D01*
X63712168Y-104814506D01*
X63707873Y-104836104D01*
X63692422Y-104859227D01*
X63684766Y-104876567D01*
X63672923Y-104888409D01*
X63659099Y-104909099D01*
X63638409Y-104922923D01*
X63626567Y-104934766D01*
X63609227Y-104942422D01*
X63586104Y-104957873D01*
X63564506Y-104962168D01*
X63549317Y-104968876D01*
X63504861Y-104974032D01*
X63500000Y-104975000D01*
X63050000Y-104975000D01*
X63045138Y-104974033D01*
X63000682Y-104968876D01*
X62985491Y-104962168D01*
X62963896Y-104957873D01*
X62940774Y-104942423D01*
X62923432Y-104934766D01*
X62911587Y-104922921D01*
X62890901Y-104909099D01*
X62877078Y-104888412D01*
X62865233Y-104876567D01*
X62857574Y-104859222D01*
X62842127Y-104836104D01*
X62837831Y-104814510D01*
X62831123Y-104799317D01*
X62825964Y-104754849D01*
X62825000Y-104750000D01*
X62825000Y-104250000D01*
X62825964Y-104245150D01*
X62831123Y-104200682D01*
X62837832Y-104185487D01*
X62842127Y-104163896D01*
X62857573Y-104140779D01*
X62865233Y-104123432D01*
X62877080Y-104111584D01*
X62890901Y-104090901D01*
X62911584Y-104077080D01*
X62923432Y-104065233D01*
X62940779Y-104057573D01*
X62963896Y-104042127D01*
X62985487Y-104037832D01*
X63000682Y-104031123D01*
X63045151Y-104025964D01*
X63050000Y-104025000D01*
X63500000Y-104025000D01*
X63504850Y-104025964D01*
G37*
G36*
X69929850Y-101050962D02*
G01*
X69980040Y-101056785D01*
X69997189Y-101064357D01*
X70020671Y-101069028D01*
X70045810Y-101085825D01*
X70065696Y-101094606D01*
X70079277Y-101108187D01*
X70101777Y-101123221D01*
X70116810Y-101145720D01*
X70130391Y-101159301D01*
X70139170Y-101179184D01*
X70155970Y-101204327D01*
X70160641Y-101227810D01*
X70168212Y-101244957D01*
X70174033Y-101295137D01*
X70175000Y-101299998D01*
X70175000Y-104199998D01*
X70174032Y-104204861D01*
X70168212Y-104255038D01*
X70160641Y-104272183D01*
X70155970Y-104295669D01*
X70139169Y-104320813D01*
X70130391Y-104340694D01*
X70116812Y-104354272D01*
X70101777Y-104376775D01*
X70079274Y-104391810D01*
X70065696Y-104405389D01*
X70045815Y-104414167D01*
X70020671Y-104430968D01*
X69997185Y-104435639D01*
X69980040Y-104443210D01*
X69929861Y-104449030D01*
X69925000Y-104449998D01*
X69300000Y-104449998D01*
X69295138Y-104449030D01*
X69244959Y-104443210D01*
X69227812Y-104435639D01*
X69204329Y-104430968D01*
X69179186Y-104414168D01*
X69159303Y-104405389D01*
X69145722Y-104391808D01*
X69123223Y-104376775D01*
X69108189Y-104354275D01*
X69094608Y-104340694D01*
X69085827Y-104320808D01*
X69069030Y-104295669D01*
X69064359Y-104272187D01*
X69056787Y-104255038D01*
X69050964Y-104204847D01*
X69050000Y-104199998D01*
X69050000Y-101299998D01*
X69050964Y-101295148D01*
X69056787Y-101244957D01*
X69064359Y-101227806D01*
X69069030Y-101204327D01*
X69085826Y-101179189D01*
X69094608Y-101159301D01*
X69108191Y-101145717D01*
X69123223Y-101123221D01*
X69145719Y-101108189D01*
X69159303Y-101094606D01*
X69179191Y-101085824D01*
X69204329Y-101069028D01*
X69227808Y-101064357D01*
X69244959Y-101056785D01*
X69295151Y-101050962D01*
X69300000Y-101049998D01*
X69925000Y-101049998D01*
X69929850Y-101050962D01*
G37*
G36*
X74204850Y-101050962D02*
G01*
X74255040Y-101056785D01*
X74272189Y-101064357D01*
X74295671Y-101069028D01*
X74320810Y-101085825D01*
X74340696Y-101094606D01*
X74354277Y-101108187D01*
X74376777Y-101123221D01*
X74391810Y-101145720D01*
X74405391Y-101159301D01*
X74414170Y-101179184D01*
X74430970Y-101204327D01*
X74435641Y-101227810D01*
X74443212Y-101244957D01*
X74449033Y-101295137D01*
X74450000Y-101299998D01*
X74450000Y-104199998D01*
X74449032Y-104204861D01*
X74443212Y-104255038D01*
X74435641Y-104272183D01*
X74430970Y-104295669D01*
X74414169Y-104320813D01*
X74405391Y-104340694D01*
X74391812Y-104354272D01*
X74376777Y-104376775D01*
X74354274Y-104391810D01*
X74340696Y-104405389D01*
X74320815Y-104414167D01*
X74295671Y-104430968D01*
X74272185Y-104435639D01*
X74255040Y-104443210D01*
X74204861Y-104449030D01*
X74200000Y-104449998D01*
X73575000Y-104449998D01*
X73570138Y-104449030D01*
X73519959Y-104443210D01*
X73502812Y-104435639D01*
X73479329Y-104430968D01*
X73454186Y-104414168D01*
X73434303Y-104405389D01*
X73420722Y-104391808D01*
X73398223Y-104376775D01*
X73383189Y-104354275D01*
X73369608Y-104340694D01*
X73360827Y-104320808D01*
X73344030Y-104295669D01*
X73339359Y-104272187D01*
X73331787Y-104255038D01*
X73325964Y-104204847D01*
X73325000Y-104199998D01*
X73325000Y-101299998D01*
X73325964Y-101295148D01*
X73331787Y-101244957D01*
X73339359Y-101227806D01*
X73344030Y-101204327D01*
X73360826Y-101179189D01*
X73369608Y-101159301D01*
X73383191Y-101145717D01*
X73398223Y-101123221D01*
X73420719Y-101108189D01*
X73434303Y-101094606D01*
X73454191Y-101085824D01*
X73479329Y-101069028D01*
X73502808Y-101064357D01*
X73519959Y-101056785D01*
X73570151Y-101050962D01*
X73575000Y-101049998D01*
X74200000Y-101049998D01*
X74204850Y-101050962D01*
G37*
G36*
X90409850Y-103515964D02*
G01*
X90454317Y-103521123D01*
X90469510Y-103527831D01*
X90491104Y-103532127D01*
X90514222Y-103547574D01*
X90531567Y-103555233D01*
X90543412Y-103567078D01*
X90564099Y-103580901D01*
X90577921Y-103601587D01*
X90589766Y-103613432D01*
X90597423Y-103630774D01*
X90612873Y-103653896D01*
X90617168Y-103675491D01*
X90623876Y-103690682D01*
X90629033Y-103735139D01*
X90630000Y-103740000D01*
X90630000Y-104190000D01*
X90629032Y-104194862D01*
X90623876Y-104239317D01*
X90617168Y-104254506D01*
X90612873Y-104276104D01*
X90597422Y-104299227D01*
X90589766Y-104316567D01*
X90577923Y-104328409D01*
X90564099Y-104349099D01*
X90543409Y-104362923D01*
X90531567Y-104374766D01*
X90514227Y-104382422D01*
X90491104Y-104397873D01*
X90469506Y-104402168D01*
X90454317Y-104408876D01*
X90409861Y-104414032D01*
X90405000Y-104415000D01*
X89905000Y-104415000D01*
X89900138Y-104414033D01*
X89855682Y-104408876D01*
X89840491Y-104402168D01*
X89818896Y-104397873D01*
X89795774Y-104382423D01*
X89778432Y-104374766D01*
X89766587Y-104362921D01*
X89745901Y-104349099D01*
X89732078Y-104328412D01*
X89720233Y-104316567D01*
X89712574Y-104299222D01*
X89697127Y-104276104D01*
X89692831Y-104254510D01*
X89686123Y-104239317D01*
X89680964Y-104194849D01*
X89680000Y-104190000D01*
X89680000Y-103740000D01*
X89680964Y-103735150D01*
X89686123Y-103690682D01*
X89692832Y-103675487D01*
X89697127Y-103653896D01*
X89712573Y-103630779D01*
X89720233Y-103613432D01*
X89732080Y-103601584D01*
X89745901Y-103580901D01*
X89766584Y-103567080D01*
X89778432Y-103555233D01*
X89795779Y-103547573D01*
X89818896Y-103532127D01*
X89840487Y-103527832D01*
X89855682Y-103521123D01*
X89900151Y-103515964D01*
X89905000Y-103515000D01*
X90405000Y-103515000D01*
X90409850Y-103515964D01*
G37*
G36*
X54100000Y-104349998D02*
G01*
X52400000Y-104349998D01*
X52400000Y-102649998D01*
X54100000Y-102649998D01*
X54100000Y-104349998D01*
G37*
G36*
X83006537Y-103530224D02*
G01*
X83071421Y-103573579D01*
X83114776Y-103638463D01*
X83130000Y-103715000D01*
X83130000Y-104115000D01*
X83114776Y-104191537D01*
X83071421Y-104256421D01*
X83006537Y-104299776D01*
X82930000Y-104315000D01*
X82380000Y-104315000D01*
X82303463Y-104299776D01*
X82238579Y-104256421D01*
X82195224Y-104191537D01*
X82180000Y-104115000D01*
X82180000Y-103715000D01*
X82195224Y-103638463D01*
X82238579Y-103573579D01*
X82303463Y-103530224D01*
X82380000Y-103515000D01*
X82930000Y-103515000D01*
X83006537Y-103530224D01*
G37*
G36*
X89006537Y-103530224D02*
G01*
X89071421Y-103573579D01*
X89114776Y-103638463D01*
X89130000Y-103715000D01*
X89130000Y-104115000D01*
X89114776Y-104191537D01*
X89071421Y-104256421D01*
X89006537Y-104299776D01*
X88930000Y-104315000D01*
X88380000Y-104315000D01*
X88303463Y-104299776D01*
X88238579Y-104256421D01*
X88195224Y-104191537D01*
X88180000Y-104115000D01*
X88180000Y-103715000D01*
X88195224Y-103638463D01*
X88238579Y-103573579D01*
X88303463Y-103530224D01*
X88380000Y-103515000D01*
X88930000Y-103515000D01*
X89006537Y-103530224D01*
G37*
G36*
X85182403Y-103511418D02*
G01*
X85231066Y-103543934D01*
X85263582Y-103592597D01*
X85275000Y-103650000D01*
X85275000Y-103950000D01*
X85263582Y-104007403D01*
X85231066Y-104056066D01*
X85182403Y-104088582D01*
X85125000Y-104100000D01*
X84100000Y-104100000D01*
X84042597Y-104088582D01*
X83993934Y-104056066D01*
X83961418Y-104007403D01*
X83950000Y-103950000D01*
X83950000Y-103650000D01*
X83961418Y-103592597D01*
X83993934Y-103543934D01*
X84042597Y-103511418D01*
X84100000Y-103500000D01*
X85125000Y-103500000D01*
X85182403Y-103511418D01*
G37*
G36*
X87457403Y-103511418D02*
G01*
X87506066Y-103543934D01*
X87538582Y-103592597D01*
X87550000Y-103650000D01*
X87550000Y-103950000D01*
X87538582Y-104007403D01*
X87506066Y-104056066D01*
X87457403Y-104088582D01*
X87400000Y-104100000D01*
X86375000Y-104100000D01*
X86317597Y-104088582D01*
X86268934Y-104056066D01*
X86236418Y-104007403D01*
X86225000Y-103950000D01*
X86225000Y-103650000D01*
X86236418Y-103592597D01*
X86268934Y-103543934D01*
X86317597Y-103511418D01*
X86375000Y-103500000D01*
X87400000Y-103500000D01*
X87457403Y-103511418D01*
G37*
G36*
X66069903Y-103211416D02*
G01*
X66118566Y-103243932D01*
X66151082Y-103292595D01*
X66162500Y-103349998D01*
X66162500Y-103649998D01*
X66151082Y-103707401D01*
X66118566Y-103756064D01*
X66069903Y-103788580D01*
X66012500Y-103799998D01*
X64987500Y-103799998D01*
X64930097Y-103788580D01*
X64881434Y-103756064D01*
X64848918Y-103707401D01*
X64837500Y-103649998D01*
X64837500Y-103349998D01*
X64848918Y-103292595D01*
X64881434Y-103243932D01*
X64930097Y-103211416D01*
X64987500Y-103199998D01*
X66012500Y-103199998D01*
X66069903Y-103211416D01*
G37*
G36*
X68344903Y-103211416D02*
G01*
X68393566Y-103243932D01*
X68426082Y-103292595D01*
X68437500Y-103349998D01*
X68437500Y-103649998D01*
X68426082Y-103707401D01*
X68393566Y-103756064D01*
X68344903Y-103788580D01*
X68287500Y-103799998D01*
X67262500Y-103799998D01*
X67205097Y-103788580D01*
X67156434Y-103756064D01*
X67123918Y-103707401D01*
X67112500Y-103649998D01*
X67112500Y-103349998D01*
X67123918Y-103292595D01*
X67156434Y-103243932D01*
X67205097Y-103211416D01*
X67262500Y-103199998D01*
X68287500Y-103199998D01*
X68344903Y-103211416D01*
G37*
G36*
X63711100Y-102450964D02*
G01*
X63759860Y-102456621D01*
X63776520Y-102463977D01*
X63799529Y-102468554D01*
X63824161Y-102485013D01*
X63843414Y-102493514D01*
X63856564Y-102506664D01*
X63878607Y-102521393D01*
X63893335Y-102543435D01*
X63906485Y-102556585D01*
X63914985Y-102575836D01*
X63931446Y-102600471D01*
X63936023Y-102623481D01*
X63943378Y-102640139D01*
X63949033Y-102688889D01*
X63950000Y-102693750D01*
X63950000Y-103181250D01*
X63949032Y-103186112D01*
X63943378Y-103234860D01*
X63936023Y-103251516D01*
X63931446Y-103274529D01*
X63914983Y-103299165D01*
X63906485Y-103318414D01*
X63893337Y-103331561D01*
X63878607Y-103353607D01*
X63856561Y-103368337D01*
X63843414Y-103381485D01*
X63824165Y-103389983D01*
X63799529Y-103406446D01*
X63776516Y-103411023D01*
X63759860Y-103418378D01*
X63711111Y-103424032D01*
X63706250Y-103425000D01*
X62793750Y-103425000D01*
X62788888Y-103424032D01*
X62740139Y-103418378D01*
X62723481Y-103411023D01*
X62700471Y-103406446D01*
X62675836Y-103389985D01*
X62656585Y-103381485D01*
X62643435Y-103368335D01*
X62621393Y-103353607D01*
X62606664Y-103331564D01*
X62593514Y-103318414D01*
X62585013Y-103299161D01*
X62568554Y-103274529D01*
X62563977Y-103251520D01*
X62556621Y-103234860D01*
X62550964Y-103186099D01*
X62550000Y-103181250D01*
X62550000Y-102693750D01*
X62550964Y-102688900D01*
X62556621Y-102640139D01*
X62563977Y-102623477D01*
X62568554Y-102600471D01*
X62585011Y-102575840D01*
X62593514Y-102556585D01*
X62606666Y-102543432D01*
X62621393Y-102521393D01*
X62643432Y-102506666D01*
X62656585Y-102493514D01*
X62675840Y-102485011D01*
X62700471Y-102468554D01*
X62723477Y-102463977D01*
X62740139Y-102456621D01*
X62788901Y-102450964D01*
X62793750Y-102450000D01*
X63706250Y-102450000D01*
X63711100Y-102450964D01*
G37*
G36*
X105610000Y-103350000D02*
G01*
X103810000Y-103350000D01*
X103810000Y-101350000D01*
X105610000Y-101350000D01*
X105610000Y-103350000D01*
G37*
G36*
X110690000Y-103350000D02*
G01*
X108890000Y-103350000D01*
X108890000Y-101350000D01*
X110690000Y-101350000D01*
X110690000Y-103350000D01*
G37*
G36*
X61769903Y-102661416D02*
G01*
X61818566Y-102693932D01*
X61851082Y-102742595D01*
X61862500Y-102799998D01*
X61862500Y-103099998D01*
X61851082Y-103157401D01*
X61818566Y-103206064D01*
X61769903Y-103238580D01*
X61712500Y-103249998D01*
X60537500Y-103249998D01*
X60480097Y-103238580D01*
X60431434Y-103206064D01*
X60398918Y-103157401D01*
X60387500Y-103099998D01*
X60387500Y-102799998D01*
X60398918Y-102742595D01*
X60431434Y-102693932D01*
X60480097Y-102661416D01*
X60537500Y-102649998D01*
X61712500Y-102649998D01*
X61769903Y-102661416D01*
G37*
G36*
X66069903Y-102261416D02*
G01*
X66118566Y-102293932D01*
X66151082Y-102342595D01*
X66162500Y-102399998D01*
X66162500Y-102699998D01*
X66151082Y-102757401D01*
X66118566Y-102806064D01*
X66069903Y-102838580D01*
X66012500Y-102849998D01*
X64987500Y-102849998D01*
X64930097Y-102838580D01*
X64881434Y-102806064D01*
X64848918Y-102757401D01*
X64837500Y-102699998D01*
X64837500Y-102399998D01*
X64848918Y-102342595D01*
X64881434Y-102293932D01*
X64930097Y-102261416D01*
X64987500Y-102249998D01*
X66012500Y-102249998D01*
X66069903Y-102261416D01*
G37*
G36*
X68344903Y-102261416D02*
G01*
X68393566Y-102293932D01*
X68426082Y-102342595D01*
X68437500Y-102399998D01*
X68437500Y-102699998D01*
X68426082Y-102757401D01*
X68393566Y-102806064D01*
X68344903Y-102838580D01*
X68287500Y-102849998D01*
X67262500Y-102849998D01*
X67205097Y-102838580D01*
X67156434Y-102806064D01*
X67123918Y-102757401D01*
X67112500Y-102699998D01*
X67112500Y-102399998D01*
X67123918Y-102342595D01*
X67156434Y-102293932D01*
X67205097Y-102261416D01*
X67262500Y-102249998D01*
X68287500Y-102249998D01*
X68344903Y-102261416D01*
G37*
G36*
X59894903Y-101711416D02*
G01*
X59943566Y-101743932D01*
X59976082Y-101792595D01*
X59987500Y-101849998D01*
X59987500Y-102149998D01*
X59976082Y-102207401D01*
X59943566Y-102256064D01*
X59894903Y-102288580D01*
X59837500Y-102299998D01*
X58662500Y-102299998D01*
X58605097Y-102288580D01*
X58556434Y-102256064D01*
X58523918Y-102207401D01*
X58512500Y-102149998D01*
X58512500Y-101849998D01*
X58523918Y-101792595D01*
X58556434Y-101743932D01*
X58605097Y-101711416D01*
X58662500Y-101699998D01*
X59837500Y-101699998D01*
X59894903Y-101711416D01*
G37*
G36*
X66069903Y-101311416D02*
G01*
X66118566Y-101343932D01*
X66151082Y-101392595D01*
X66162500Y-101449998D01*
X66162500Y-101749998D01*
X66151082Y-101807401D01*
X66118566Y-101856064D01*
X66069903Y-101888580D01*
X66012500Y-101899998D01*
X64987500Y-101899998D01*
X64930097Y-101888580D01*
X64881434Y-101856064D01*
X64848918Y-101807401D01*
X64837500Y-101749998D01*
X64837500Y-101449998D01*
X64848918Y-101392595D01*
X64881434Y-101343932D01*
X64930097Y-101311416D01*
X64987500Y-101299998D01*
X66012500Y-101299998D01*
X66069903Y-101311416D01*
G37*
G36*
X68344903Y-101311416D02*
G01*
X68393566Y-101343932D01*
X68426082Y-101392595D01*
X68437500Y-101449998D01*
X68437500Y-101749998D01*
X68426082Y-101807401D01*
X68393566Y-101856064D01*
X68344903Y-101888580D01*
X68287500Y-101899998D01*
X67262500Y-101899998D01*
X67205097Y-101888580D01*
X67156434Y-101856064D01*
X67123918Y-101807401D01*
X67112500Y-101749998D01*
X67112500Y-101449998D01*
X67123918Y-101392595D01*
X67156434Y-101343932D01*
X67205097Y-101311416D01*
X67262500Y-101299998D01*
X68287500Y-101299998D01*
X68344903Y-101311416D01*
G37*
G36*
X53496742Y-100146599D02*
G01*
X53650687Y-100210365D01*
X53789234Y-100302939D01*
X53907059Y-100420764D01*
X53999633Y-100559311D01*
X54063399Y-100713256D01*
X54095907Y-100876683D01*
X54095907Y-101043313D01*
X54063399Y-101206740D01*
X53999633Y-101360685D01*
X53907059Y-101499232D01*
X53789234Y-101617057D01*
X53650687Y-101709631D01*
X53496742Y-101773397D01*
X53333315Y-101805905D01*
X53166685Y-101805905D01*
X53003258Y-101773397D01*
X52849313Y-101709631D01*
X52710766Y-101617057D01*
X52592941Y-101499232D01*
X52500367Y-101360685D01*
X52436601Y-101206740D01*
X52404093Y-101043313D01*
X52404093Y-100876683D01*
X52436601Y-100713256D01*
X52500367Y-100559311D01*
X52592941Y-100420764D01*
X52710766Y-100302939D01*
X52849313Y-100210365D01*
X53003258Y-100146599D01*
X53166685Y-100114091D01*
X53333315Y-100114091D01*
X53496742Y-100146599D01*
G37*
G36*
X63711100Y-100575964D02*
G01*
X63759860Y-100581621D01*
X63776520Y-100588977D01*
X63799529Y-100593554D01*
X63824161Y-100610013D01*
X63843414Y-100618514D01*
X63856564Y-100631664D01*
X63878607Y-100646393D01*
X63893335Y-100668435D01*
X63906485Y-100681585D01*
X63914985Y-100700836D01*
X63931446Y-100725471D01*
X63936023Y-100748481D01*
X63943378Y-100765139D01*
X63949033Y-100813889D01*
X63950000Y-100818750D01*
X63950000Y-101306250D01*
X63949032Y-101311112D01*
X63943378Y-101359860D01*
X63936023Y-101376516D01*
X63931446Y-101399529D01*
X63914983Y-101424165D01*
X63906485Y-101443414D01*
X63893337Y-101456561D01*
X63878607Y-101478607D01*
X63856561Y-101493337D01*
X63843414Y-101506485D01*
X63824165Y-101514983D01*
X63799529Y-101531446D01*
X63776516Y-101536023D01*
X63759860Y-101543378D01*
X63711111Y-101549032D01*
X63706250Y-101550000D01*
X62793750Y-101550000D01*
X62788888Y-101549032D01*
X62740139Y-101543378D01*
X62723481Y-101536023D01*
X62700471Y-101531446D01*
X62675836Y-101514985D01*
X62656585Y-101506485D01*
X62643435Y-101493335D01*
X62621393Y-101478607D01*
X62606664Y-101456564D01*
X62593514Y-101443414D01*
X62585013Y-101424161D01*
X62568554Y-101399529D01*
X62563977Y-101376520D01*
X62556621Y-101359860D01*
X62550964Y-101311099D01*
X62550000Y-101306250D01*
X62550000Y-100818750D01*
X62550964Y-100813900D01*
X62556621Y-100765139D01*
X62563977Y-100748477D01*
X62568554Y-100725471D01*
X62585011Y-100700840D01*
X62593514Y-100681585D01*
X62606666Y-100668432D01*
X62621393Y-100646393D01*
X62643432Y-100631666D01*
X62656585Y-100618514D01*
X62675840Y-100610011D01*
X62700471Y-100593554D01*
X62723477Y-100588977D01*
X62740139Y-100581621D01*
X62788901Y-100575964D01*
X62793750Y-100575000D01*
X63706250Y-100575000D01*
X63711100Y-100575964D01*
G37*
G36*
X102504850Y-100575964D02*
G01*
X102549317Y-100581123D01*
X102564510Y-100587831D01*
X102586104Y-100592127D01*
X102609222Y-100607574D01*
X102626567Y-100615233D01*
X102638412Y-100627078D01*
X102659099Y-100640901D01*
X102672921Y-100661587D01*
X102684766Y-100673432D01*
X102692423Y-100690774D01*
X102707873Y-100713896D01*
X102712168Y-100735491D01*
X102718876Y-100750682D01*
X102724033Y-100795139D01*
X102725000Y-100800000D01*
X102725000Y-101250000D01*
X102724032Y-101254862D01*
X102718876Y-101299317D01*
X102712168Y-101314506D01*
X102707873Y-101336104D01*
X102692422Y-101359227D01*
X102684766Y-101376567D01*
X102672923Y-101388409D01*
X102659099Y-101409099D01*
X102638409Y-101422923D01*
X102626567Y-101434766D01*
X102609227Y-101442422D01*
X102586104Y-101457873D01*
X102564506Y-101462168D01*
X102549317Y-101468876D01*
X102504861Y-101474032D01*
X102500000Y-101475000D01*
X102000000Y-101475000D01*
X101995138Y-101474033D01*
X101950682Y-101468876D01*
X101935491Y-101462168D01*
X101913896Y-101457873D01*
X101890774Y-101442423D01*
X101873432Y-101434766D01*
X101861587Y-101422921D01*
X101840901Y-101409099D01*
X101827078Y-101388412D01*
X101815233Y-101376567D01*
X101807574Y-101359222D01*
X101792127Y-101336104D01*
X101787831Y-101314510D01*
X101781123Y-101299317D01*
X101775964Y-101254849D01*
X101775000Y-101250000D01*
X101775000Y-100800000D01*
X101775964Y-100795150D01*
X101781123Y-100750682D01*
X101787832Y-100735487D01*
X101792127Y-100713896D01*
X101807573Y-100690779D01*
X101815233Y-100673432D01*
X101827080Y-100661584D01*
X101840901Y-100640901D01*
X101861584Y-100627080D01*
X101873432Y-100615233D01*
X101890779Y-100607573D01*
X101913896Y-100592127D01*
X101935487Y-100587832D01*
X101950682Y-100581123D01*
X101995151Y-100575964D01*
X102000000Y-100575000D01*
X102500000Y-100575000D01*
X102504850Y-100575964D01*
G37*
G36*
X61769903Y-100761416D02*
G01*
X61818566Y-100793932D01*
X61851082Y-100842595D01*
X61862500Y-100899998D01*
X61862500Y-101199998D01*
X61851082Y-101257401D01*
X61818566Y-101306064D01*
X61769903Y-101338580D01*
X61712500Y-101349998D01*
X60537500Y-101349998D01*
X60480097Y-101338580D01*
X60431434Y-101306064D01*
X60398918Y-101257401D01*
X60387500Y-101199998D01*
X60387500Y-100899998D01*
X60398918Y-100842595D01*
X60431434Y-100793932D01*
X60480097Y-100761416D01*
X60537500Y-100749998D01*
X61712500Y-100749998D01*
X61769903Y-100761416D01*
G37*
G36*
X68729850Y-99275962D02*
G01*
X68774317Y-99281121D01*
X68789510Y-99287829D01*
X68811104Y-99292125D01*
X68834222Y-99307572D01*
X68851567Y-99315231D01*
X68863412Y-99327076D01*
X68884099Y-99340899D01*
X68897921Y-99361585D01*
X68909766Y-99373430D01*
X68917423Y-99390772D01*
X68932873Y-99413894D01*
X68937168Y-99435489D01*
X68943876Y-99450680D01*
X68949033Y-99495137D01*
X68950000Y-99499998D01*
X68950000Y-99999998D01*
X68949032Y-100004860D01*
X68943876Y-100049315D01*
X68937168Y-100064504D01*
X68932873Y-100086102D01*
X68917422Y-100109225D01*
X68909766Y-100126565D01*
X68897923Y-100138407D01*
X68884099Y-100159097D01*
X68863409Y-100172921D01*
X68851567Y-100184764D01*
X68834227Y-100192420D01*
X68811104Y-100207871D01*
X68789506Y-100212166D01*
X68774317Y-100218874D01*
X68729861Y-100224030D01*
X68725000Y-100224998D01*
X68275000Y-100224998D01*
X68270138Y-100224031D01*
X68225682Y-100218874D01*
X68210491Y-100212166D01*
X68188896Y-100207871D01*
X68165774Y-100192421D01*
X68148432Y-100184764D01*
X68136587Y-100172919D01*
X68115901Y-100159097D01*
X68102078Y-100138410D01*
X68090233Y-100126565D01*
X68082574Y-100109220D01*
X68067127Y-100086102D01*
X68062831Y-100064508D01*
X68056123Y-100049315D01*
X68050964Y-100004847D01*
X68050000Y-99999998D01*
X68050000Y-99499998D01*
X68050964Y-99495148D01*
X68056123Y-99450680D01*
X68062832Y-99435485D01*
X68067127Y-99413894D01*
X68082573Y-99390777D01*
X68090233Y-99373430D01*
X68102080Y-99361582D01*
X68115901Y-99340899D01*
X68136584Y-99327078D01*
X68148432Y-99315231D01*
X68165779Y-99307571D01*
X68188896Y-99292125D01*
X68210487Y-99287830D01*
X68225682Y-99281121D01*
X68270151Y-99275962D01*
X68275000Y-99274998D01*
X68725000Y-99274998D01*
X68729850Y-99275962D01*
G37*
G36*
X70279850Y-99275962D02*
G01*
X70324317Y-99281121D01*
X70339510Y-99287829D01*
X70361104Y-99292125D01*
X70384222Y-99307572D01*
X70401567Y-99315231D01*
X70413412Y-99327076D01*
X70434099Y-99340899D01*
X70447921Y-99361585D01*
X70459766Y-99373430D01*
X70467423Y-99390772D01*
X70482873Y-99413894D01*
X70487168Y-99435489D01*
X70493876Y-99450680D01*
X70499033Y-99495137D01*
X70500000Y-99499998D01*
X70500000Y-99999998D01*
X70499032Y-100004860D01*
X70493876Y-100049315D01*
X70487168Y-100064504D01*
X70482873Y-100086102D01*
X70467422Y-100109225D01*
X70459766Y-100126565D01*
X70447923Y-100138407D01*
X70434099Y-100159097D01*
X70413409Y-100172921D01*
X70401567Y-100184764D01*
X70384227Y-100192420D01*
X70361104Y-100207871D01*
X70339506Y-100212166D01*
X70324317Y-100218874D01*
X70279861Y-100224030D01*
X70275000Y-100224998D01*
X69825000Y-100224998D01*
X69820138Y-100224031D01*
X69775682Y-100218874D01*
X69760491Y-100212166D01*
X69738896Y-100207871D01*
X69715774Y-100192421D01*
X69698432Y-100184764D01*
X69686587Y-100172919D01*
X69665901Y-100159097D01*
X69652078Y-100138410D01*
X69640233Y-100126565D01*
X69632574Y-100109220D01*
X69617127Y-100086102D01*
X69612831Y-100064508D01*
X69606123Y-100049315D01*
X69600964Y-100004847D01*
X69600000Y-99999998D01*
X69600000Y-99499998D01*
X69600964Y-99495148D01*
X69606123Y-99450680D01*
X69612832Y-99435485D01*
X69617127Y-99413894D01*
X69632573Y-99390777D01*
X69640233Y-99373430D01*
X69652080Y-99361582D01*
X69665901Y-99340899D01*
X69686584Y-99327078D01*
X69698432Y-99315231D01*
X69715779Y-99307571D01*
X69738896Y-99292125D01*
X69760487Y-99287830D01*
X69775682Y-99281121D01*
X69820151Y-99275962D01*
X69825000Y-99274998D01*
X70275000Y-99274998D01*
X70279850Y-99275962D01*
G37*
G36*
X72704850Y-99275962D02*
G01*
X72749317Y-99281121D01*
X72764510Y-99287829D01*
X72786104Y-99292125D01*
X72809222Y-99307572D01*
X72826567Y-99315231D01*
X72838412Y-99327076D01*
X72859099Y-99340899D01*
X72872921Y-99361585D01*
X72884766Y-99373430D01*
X72892423Y-99390772D01*
X72907873Y-99413894D01*
X72912168Y-99435489D01*
X72918876Y-99450680D01*
X72924033Y-99495137D01*
X72925000Y-99499998D01*
X72925000Y-99999998D01*
X72924032Y-100004860D01*
X72918876Y-100049315D01*
X72912168Y-100064504D01*
X72907873Y-100086102D01*
X72892422Y-100109225D01*
X72884766Y-100126565D01*
X72872923Y-100138407D01*
X72859099Y-100159097D01*
X72838409Y-100172921D01*
X72826567Y-100184764D01*
X72809227Y-100192420D01*
X72786104Y-100207871D01*
X72764506Y-100212166D01*
X72749317Y-100218874D01*
X72704861Y-100224030D01*
X72700000Y-100224998D01*
X72250000Y-100224998D01*
X72245138Y-100224031D01*
X72200682Y-100218874D01*
X72185491Y-100212166D01*
X72163896Y-100207871D01*
X72140774Y-100192421D01*
X72123432Y-100184764D01*
X72111587Y-100172919D01*
X72090901Y-100159097D01*
X72077078Y-100138410D01*
X72065233Y-100126565D01*
X72057574Y-100109220D01*
X72042127Y-100086102D01*
X72037831Y-100064508D01*
X72031123Y-100049315D01*
X72025964Y-100004847D01*
X72025000Y-99999998D01*
X72025000Y-99499998D01*
X72025964Y-99495148D01*
X72031123Y-99450680D01*
X72037832Y-99435485D01*
X72042127Y-99413894D01*
X72057573Y-99390777D01*
X72065233Y-99373430D01*
X72077080Y-99361582D01*
X72090901Y-99340899D01*
X72111584Y-99327078D01*
X72123432Y-99315231D01*
X72140779Y-99307571D01*
X72163896Y-99292125D01*
X72185487Y-99287830D01*
X72200682Y-99281121D01*
X72245151Y-99275962D01*
X72250000Y-99274998D01*
X72700000Y-99274998D01*
X72704850Y-99275962D01*
G37*
G36*
X74254850Y-99275962D02*
G01*
X74299317Y-99281121D01*
X74314510Y-99287829D01*
X74336104Y-99292125D01*
X74359222Y-99307572D01*
X74376567Y-99315231D01*
X74388412Y-99327076D01*
X74409099Y-99340899D01*
X74422921Y-99361585D01*
X74434766Y-99373430D01*
X74442423Y-99390772D01*
X74457873Y-99413894D01*
X74462168Y-99435489D01*
X74468876Y-99450680D01*
X74474033Y-99495137D01*
X74475000Y-99499998D01*
X74475000Y-99999998D01*
X74474032Y-100004860D01*
X74468876Y-100049315D01*
X74462168Y-100064504D01*
X74457873Y-100086102D01*
X74442422Y-100109225D01*
X74434766Y-100126565D01*
X74422923Y-100138407D01*
X74409099Y-100159097D01*
X74388409Y-100172921D01*
X74376567Y-100184764D01*
X74359227Y-100192420D01*
X74336104Y-100207871D01*
X74314506Y-100212166D01*
X74299317Y-100218874D01*
X74254861Y-100224030D01*
X74250000Y-100224998D01*
X73800000Y-100224998D01*
X73795138Y-100224031D01*
X73750682Y-100218874D01*
X73735491Y-100212166D01*
X73713896Y-100207871D01*
X73690774Y-100192421D01*
X73673432Y-100184764D01*
X73661587Y-100172919D01*
X73640901Y-100159097D01*
X73627078Y-100138410D01*
X73615233Y-100126565D01*
X73607574Y-100109220D01*
X73592127Y-100086102D01*
X73587831Y-100064508D01*
X73581123Y-100049315D01*
X73575964Y-100004847D01*
X73575000Y-99999998D01*
X73575000Y-99499998D01*
X73575964Y-99495148D01*
X73581123Y-99450680D01*
X73587832Y-99435485D01*
X73592127Y-99413894D01*
X73607573Y-99390777D01*
X73615233Y-99373430D01*
X73627080Y-99361582D01*
X73640901Y-99340899D01*
X73661584Y-99327078D01*
X73673432Y-99315231D01*
X73690779Y-99307571D01*
X73713896Y-99292125D01*
X73735487Y-99287830D01*
X73750682Y-99281121D01*
X73795151Y-99275962D01*
X73800000Y-99274998D01*
X74250000Y-99274998D01*
X74254850Y-99275962D01*
G37*
G36*
X102504850Y-99025964D02*
G01*
X102549317Y-99031123D01*
X102564510Y-99037831D01*
X102586104Y-99042127D01*
X102609222Y-99057574D01*
X102626567Y-99065233D01*
X102638412Y-99077078D01*
X102659099Y-99090901D01*
X102672921Y-99111587D01*
X102684766Y-99123432D01*
X102692423Y-99140774D01*
X102707873Y-99163896D01*
X102712168Y-99185491D01*
X102718876Y-99200682D01*
X102724033Y-99245139D01*
X102725000Y-99250000D01*
X102725000Y-99700000D01*
X102724032Y-99704862D01*
X102718876Y-99749317D01*
X102712168Y-99764506D01*
X102707873Y-99786104D01*
X102692422Y-99809227D01*
X102684766Y-99826567D01*
X102672923Y-99838409D01*
X102659099Y-99859099D01*
X102638409Y-99872923D01*
X102626567Y-99884766D01*
X102609227Y-99892422D01*
X102586104Y-99907873D01*
X102564506Y-99912168D01*
X102549317Y-99918876D01*
X102504861Y-99924032D01*
X102500000Y-99925000D01*
X102000000Y-99925000D01*
X101995138Y-99924033D01*
X101950682Y-99918876D01*
X101935491Y-99912168D01*
X101913896Y-99907873D01*
X101890774Y-99892423D01*
X101873432Y-99884766D01*
X101861587Y-99872921D01*
X101840901Y-99859099D01*
X101827078Y-99838412D01*
X101815233Y-99826567D01*
X101807574Y-99809222D01*
X101792127Y-99786104D01*
X101787831Y-99764510D01*
X101781123Y-99749317D01*
X101775964Y-99704849D01*
X101775000Y-99700000D01*
X101775000Y-99250000D01*
X101775964Y-99245150D01*
X101781123Y-99200682D01*
X101787832Y-99185487D01*
X101792127Y-99163896D01*
X101807573Y-99140779D01*
X101815233Y-99123432D01*
X101827080Y-99111584D01*
X101840901Y-99090901D01*
X101861584Y-99077080D01*
X101873432Y-99065233D01*
X101890779Y-99057573D01*
X101913896Y-99042127D01*
X101935487Y-99037832D01*
X101950682Y-99031123D01*
X101995151Y-99025964D01*
X102000000Y-99025000D01*
X102500000Y-99025000D01*
X102504850Y-99025964D01*
G37*
G36*
X105610000Y-99150000D02*
G01*
X103810000Y-99150000D01*
X103810000Y-97150000D01*
X105610000Y-97150000D01*
X105610000Y-99150000D01*
G37*
G36*
X110690000Y-99150000D02*
G01*
X108890000Y-99150000D01*
X108890000Y-97150000D01*
X110690000Y-97150000D01*
X110690000Y-99150000D01*
G37*
G36*
X95290285Y-96043060D02*
G01*
X95471397Y-96118079D01*
X95634393Y-96226990D01*
X95773010Y-96365607D01*
X95881921Y-96528603D01*
X95956940Y-96709715D01*
X95995185Y-96901983D01*
X95995185Y-97098017D01*
X95956940Y-97290285D01*
X95881921Y-97471397D01*
X95773010Y-97634393D01*
X95634393Y-97773010D01*
X95471397Y-97881921D01*
X95290285Y-97956940D01*
X95098017Y-97995185D01*
X94901983Y-97995185D01*
X94709715Y-97956940D01*
X94528603Y-97881921D01*
X94365607Y-97773010D01*
X94226990Y-97634393D01*
X94118079Y-97471397D01*
X94043060Y-97290285D01*
X94004815Y-97098017D01*
X94004815Y-96901983D01*
X94043060Y-96709715D01*
X94118079Y-96528603D01*
X94226990Y-96365607D01*
X94365607Y-96226990D01*
X94528603Y-96118079D01*
X94709715Y-96043060D01*
X94901983Y-96004815D01*
X95098017Y-96004815D01*
X95290285Y-96043060D01*
G37*
G36*
X53961100Y-96700964D02*
G01*
X54009860Y-96706621D01*
X54026520Y-96713977D01*
X54049529Y-96718554D01*
X54074161Y-96735013D01*
X54093414Y-96743514D01*
X54106564Y-96756664D01*
X54128607Y-96771393D01*
X54143335Y-96793435D01*
X54156485Y-96806585D01*
X54164985Y-96825836D01*
X54181446Y-96850471D01*
X54186023Y-96873481D01*
X54193378Y-96890139D01*
X54199033Y-96938889D01*
X54200000Y-96943750D01*
X54200000Y-97431250D01*
X54199032Y-97436112D01*
X54193378Y-97484860D01*
X54186023Y-97501516D01*
X54181446Y-97524529D01*
X54164983Y-97549165D01*
X54156485Y-97568414D01*
X54143337Y-97581561D01*
X54128607Y-97603607D01*
X54106561Y-97618337D01*
X54093414Y-97631485D01*
X54074165Y-97639983D01*
X54049529Y-97656446D01*
X54026516Y-97661023D01*
X54009860Y-97668378D01*
X53961111Y-97674032D01*
X53956250Y-97675000D01*
X53043750Y-97675000D01*
X53038888Y-97674032D01*
X52990139Y-97668378D01*
X52973481Y-97661023D01*
X52950471Y-97656446D01*
X52925836Y-97639985D01*
X52906585Y-97631485D01*
X52893435Y-97618335D01*
X52871393Y-97603607D01*
X52856664Y-97581564D01*
X52843514Y-97568414D01*
X52835013Y-97549161D01*
X52818554Y-97524529D01*
X52813977Y-97501520D01*
X52806621Y-97484860D01*
X52800964Y-97436099D01*
X52800000Y-97431250D01*
X52800000Y-96943750D01*
X52800964Y-96938900D01*
X52806621Y-96890139D01*
X52813977Y-96873477D01*
X52818554Y-96850471D01*
X52835011Y-96825840D01*
X52843514Y-96806585D01*
X52856666Y-96793432D01*
X52871393Y-96771393D01*
X52893432Y-96756666D01*
X52906585Y-96743514D01*
X52925840Y-96735011D01*
X52950471Y-96718554D01*
X52973477Y-96713977D01*
X52990139Y-96706621D01*
X53038901Y-96700964D01*
X53043750Y-96700000D01*
X53956250Y-96700000D01*
X53961100Y-96700964D01*
G37*
G36*
X104204850Y-95525964D02*
G01*
X104249317Y-95531123D01*
X104264510Y-95537831D01*
X104286104Y-95542127D01*
X104309222Y-95557574D01*
X104326567Y-95565233D01*
X104338412Y-95577078D01*
X104359099Y-95590901D01*
X104372921Y-95611587D01*
X104384766Y-95623432D01*
X104392423Y-95640774D01*
X104407873Y-95663896D01*
X104412168Y-95685491D01*
X104418876Y-95700682D01*
X104424033Y-95745139D01*
X104425000Y-95750000D01*
X104425000Y-96250000D01*
X104424032Y-96254862D01*
X104418876Y-96299317D01*
X104412168Y-96314506D01*
X104407873Y-96336104D01*
X104392422Y-96359227D01*
X104384766Y-96376567D01*
X104372923Y-96388409D01*
X104359099Y-96409099D01*
X104338409Y-96422923D01*
X104326567Y-96434766D01*
X104309227Y-96442422D01*
X104286104Y-96457873D01*
X104264506Y-96462168D01*
X104249317Y-96468876D01*
X104204861Y-96474032D01*
X104200000Y-96475000D01*
X103750000Y-96475000D01*
X103745138Y-96474033D01*
X103700682Y-96468876D01*
X103685491Y-96462168D01*
X103663896Y-96457873D01*
X103640774Y-96442423D01*
X103623432Y-96434766D01*
X103611587Y-96422921D01*
X103590901Y-96409099D01*
X103577078Y-96388412D01*
X103565233Y-96376567D01*
X103557574Y-96359222D01*
X103542127Y-96336104D01*
X103537831Y-96314510D01*
X103531123Y-96299317D01*
X103525964Y-96254849D01*
X103525000Y-96250000D01*
X103525000Y-95750000D01*
X103525964Y-95745150D01*
X103531123Y-95700682D01*
X103537832Y-95685487D01*
X103542127Y-95663896D01*
X103557573Y-95640779D01*
X103565233Y-95623432D01*
X103577080Y-95611584D01*
X103590901Y-95590901D01*
X103611584Y-95577080D01*
X103623432Y-95565233D01*
X103640779Y-95557573D01*
X103663896Y-95542127D01*
X103685487Y-95537832D01*
X103700682Y-95531123D01*
X103745151Y-95525964D01*
X103750000Y-95525000D01*
X104200000Y-95525000D01*
X104204850Y-95525964D01*
G37*
G36*
X105754850Y-95525964D02*
G01*
X105799317Y-95531123D01*
X105814510Y-95537831D01*
X105836104Y-95542127D01*
X105859222Y-95557574D01*
X105876567Y-95565233D01*
X105888412Y-95577078D01*
X105909099Y-95590901D01*
X105922921Y-95611587D01*
X105934766Y-95623432D01*
X105942423Y-95640774D01*
X105957873Y-95663896D01*
X105962168Y-95685491D01*
X105968876Y-95700682D01*
X105974033Y-95745139D01*
X105975000Y-95750000D01*
X105975000Y-96250000D01*
X105974032Y-96254862D01*
X105968876Y-96299317D01*
X105962168Y-96314506D01*
X105957873Y-96336104D01*
X105942422Y-96359227D01*
X105934766Y-96376567D01*
X105922923Y-96388409D01*
X105909099Y-96409099D01*
X105888409Y-96422923D01*
X105876567Y-96434766D01*
X105859227Y-96442422D01*
X105836104Y-96457873D01*
X105814506Y-96462168D01*
X105799317Y-96468876D01*
X105754861Y-96474032D01*
X105750000Y-96475000D01*
X105300000Y-96475000D01*
X105295138Y-96474033D01*
X105250682Y-96468876D01*
X105235491Y-96462168D01*
X105213896Y-96457873D01*
X105190774Y-96442423D01*
X105173432Y-96434766D01*
X105161587Y-96422921D01*
X105140901Y-96409099D01*
X105127078Y-96388412D01*
X105115233Y-96376567D01*
X105107574Y-96359222D01*
X105092127Y-96336104D01*
X105087831Y-96314510D01*
X105081123Y-96299317D01*
X105075964Y-96254849D01*
X105075000Y-96250000D01*
X105075000Y-95750000D01*
X105075964Y-95745150D01*
X105081123Y-95700682D01*
X105087832Y-95685487D01*
X105092127Y-95663896D01*
X105107573Y-95640779D01*
X105115233Y-95623432D01*
X105127080Y-95611584D01*
X105140901Y-95590901D01*
X105161584Y-95577080D01*
X105173432Y-95565233D01*
X105190779Y-95557573D01*
X105213896Y-95542127D01*
X105235487Y-95537832D01*
X105250682Y-95531123D01*
X105295151Y-95525964D01*
X105300000Y-95525000D01*
X105750000Y-95525000D01*
X105754850Y-95525964D01*
G37*
G36*
X53961100Y-94825964D02*
G01*
X54009860Y-94831621D01*
X54026520Y-94838977D01*
X54049529Y-94843554D01*
X54074161Y-94860013D01*
X54093414Y-94868514D01*
X54106564Y-94881664D01*
X54128607Y-94896393D01*
X54143335Y-94918435D01*
X54156485Y-94931585D01*
X54164985Y-94950836D01*
X54181446Y-94975471D01*
X54186023Y-94998481D01*
X54193378Y-95015139D01*
X54199033Y-95063889D01*
X54200000Y-95068750D01*
X54200000Y-95556250D01*
X54199032Y-95561112D01*
X54193378Y-95609860D01*
X54186023Y-95626516D01*
X54181446Y-95649529D01*
X54164983Y-95674165D01*
X54156485Y-95693414D01*
X54143337Y-95706561D01*
X54128607Y-95728607D01*
X54106561Y-95743337D01*
X54093414Y-95756485D01*
X54074165Y-95764983D01*
X54049529Y-95781446D01*
X54026516Y-95786023D01*
X54009860Y-95793378D01*
X53961111Y-95799032D01*
X53956250Y-95800000D01*
X53043750Y-95800000D01*
X53038888Y-95799032D01*
X52990139Y-95793378D01*
X52973481Y-95786023D01*
X52950471Y-95781446D01*
X52925836Y-95764985D01*
X52906585Y-95756485D01*
X52893435Y-95743335D01*
X52871393Y-95728607D01*
X52856664Y-95706564D01*
X52843514Y-95693414D01*
X52835013Y-95674161D01*
X52818554Y-95649529D01*
X52813977Y-95626520D01*
X52806621Y-95609860D01*
X52800964Y-95561099D01*
X52800000Y-95556250D01*
X52800000Y-95068750D01*
X52800964Y-95063900D01*
X52806621Y-95015139D01*
X52813977Y-94998477D01*
X52818554Y-94975471D01*
X52835011Y-94950840D01*
X52843514Y-94931585D01*
X52856666Y-94918432D01*
X52871393Y-94896393D01*
X52893432Y-94881666D01*
X52906585Y-94868514D01*
X52925840Y-94860011D01*
X52950471Y-94843554D01*
X52973477Y-94838977D01*
X52990139Y-94831621D01*
X53038901Y-94825964D01*
X53043750Y-94825000D01*
X53956250Y-94825000D01*
X53961100Y-94825964D01*
G37*
G36*
X55701537Y-94790224D02*
G01*
X55766421Y-94833579D01*
X55809776Y-94898463D01*
X55825000Y-94975000D01*
X55825000Y-95525000D01*
X55809776Y-95601537D01*
X55766421Y-95666421D01*
X55701537Y-95709776D01*
X55625000Y-95725000D01*
X55225000Y-95725000D01*
X55148463Y-95709776D01*
X55083579Y-95666421D01*
X55040224Y-95601537D01*
X55025000Y-95525000D01*
X55025000Y-94975000D01*
X55040224Y-94898463D01*
X55083579Y-94833579D01*
X55148463Y-94790224D01*
X55225000Y-94775000D01*
X55625000Y-94775000D01*
X55701537Y-94790224D01*
G37*
G36*
X57351537Y-94790224D02*
G01*
X57416421Y-94833579D01*
X57459776Y-94898463D01*
X57475000Y-94975000D01*
X57475000Y-95525000D01*
X57459776Y-95601537D01*
X57416421Y-95666421D01*
X57351537Y-95709776D01*
X57275000Y-95725000D01*
X56875000Y-95725000D01*
X56798463Y-95709776D01*
X56733579Y-95666421D01*
X56690224Y-95601537D01*
X56675000Y-95525000D01*
X56675000Y-94975000D01*
X56690224Y-94898463D01*
X56733579Y-94833579D01*
X56798463Y-94790224D01*
X56875000Y-94775000D01*
X57275000Y-94775000D01*
X57351537Y-94790224D01*
G37*
G36*
X104254850Y-93775964D02*
G01*
X104299317Y-93781123D01*
X104314510Y-93787831D01*
X104336104Y-93792127D01*
X104359222Y-93807574D01*
X104376567Y-93815233D01*
X104388412Y-93827078D01*
X104409099Y-93840901D01*
X104422921Y-93861587D01*
X104434766Y-93873432D01*
X104442423Y-93890774D01*
X104457873Y-93913896D01*
X104462168Y-93935491D01*
X104468876Y-93950682D01*
X104474033Y-93995139D01*
X104475000Y-94000000D01*
X104475000Y-94500000D01*
X104474032Y-94504862D01*
X104468876Y-94549317D01*
X104462168Y-94564506D01*
X104457873Y-94586104D01*
X104442422Y-94609227D01*
X104434766Y-94626567D01*
X104422923Y-94638409D01*
X104409099Y-94659099D01*
X104388409Y-94672923D01*
X104376567Y-94684766D01*
X104359227Y-94692422D01*
X104336104Y-94707873D01*
X104314506Y-94712168D01*
X104299317Y-94718876D01*
X104254861Y-94724032D01*
X104250000Y-94725000D01*
X103800000Y-94725000D01*
X103795138Y-94724033D01*
X103750682Y-94718876D01*
X103735491Y-94712168D01*
X103713896Y-94707873D01*
X103690774Y-94692423D01*
X103673432Y-94684766D01*
X103661587Y-94672921D01*
X103640901Y-94659099D01*
X103627078Y-94638412D01*
X103615233Y-94626567D01*
X103607574Y-94609222D01*
X103592127Y-94586104D01*
X103587831Y-94564510D01*
X103581123Y-94549317D01*
X103575964Y-94504849D01*
X103575000Y-94500000D01*
X103575000Y-94000000D01*
X103575964Y-93995150D01*
X103581123Y-93950682D01*
X103587832Y-93935487D01*
X103592127Y-93913896D01*
X103607573Y-93890779D01*
X103615233Y-93873432D01*
X103627080Y-93861584D01*
X103640901Y-93840901D01*
X103661584Y-93827080D01*
X103673432Y-93815233D01*
X103690779Y-93807573D01*
X103713896Y-93792127D01*
X103735487Y-93787832D01*
X103750682Y-93781123D01*
X103795151Y-93775964D01*
X103800000Y-93775000D01*
X104250000Y-93775000D01*
X104254850Y-93775964D01*
G37*
G36*
X105804850Y-93775964D02*
G01*
X105849317Y-93781123D01*
X105864510Y-93787831D01*
X105886104Y-93792127D01*
X105909222Y-93807574D01*
X105926567Y-93815233D01*
X105938412Y-93827078D01*
X105959099Y-93840901D01*
X105972921Y-93861587D01*
X105984766Y-93873432D01*
X105992423Y-93890774D01*
X106007873Y-93913896D01*
X106012168Y-93935491D01*
X106018876Y-93950682D01*
X106024033Y-93995139D01*
X106025000Y-94000000D01*
X106025000Y-94500000D01*
X106024032Y-94504862D01*
X106018876Y-94549317D01*
X106012168Y-94564506D01*
X106007873Y-94586104D01*
X105992422Y-94609227D01*
X105984766Y-94626567D01*
X105972923Y-94638409D01*
X105959099Y-94659099D01*
X105938409Y-94672923D01*
X105926567Y-94684766D01*
X105909227Y-94692422D01*
X105886104Y-94707873D01*
X105864506Y-94712168D01*
X105849317Y-94718876D01*
X105804861Y-94724032D01*
X105800000Y-94725000D01*
X105350000Y-94725000D01*
X105345138Y-94724033D01*
X105300682Y-94718876D01*
X105285491Y-94712168D01*
X105263896Y-94707873D01*
X105240774Y-94692423D01*
X105223432Y-94684766D01*
X105211587Y-94672921D01*
X105190901Y-94659099D01*
X105177078Y-94638412D01*
X105165233Y-94626567D01*
X105157574Y-94609222D01*
X105142127Y-94586104D01*
X105137831Y-94564510D01*
X105131123Y-94549317D01*
X105125964Y-94504849D01*
X105125000Y-94500000D01*
X105125000Y-94000000D01*
X105125964Y-93995150D01*
X105131123Y-93950682D01*
X105137832Y-93935487D01*
X105142127Y-93913896D01*
X105157573Y-93890779D01*
X105165233Y-93873432D01*
X105177080Y-93861584D01*
X105190901Y-93840901D01*
X105211584Y-93827080D01*
X105223432Y-93815233D01*
X105240779Y-93807573D01*
X105263896Y-93792127D01*
X105285487Y-93787832D01*
X105300682Y-93781123D01*
X105345151Y-93775964D01*
X105350000Y-93775000D01*
X105800000Y-93775000D01*
X105804850Y-93775964D01*
G37*
G36*
X118825000Y-94100000D02*
G01*
X117125000Y-94100000D01*
X117125000Y-92400000D01*
X118825000Y-92400000D01*
X118825000Y-94100000D01*
G37*
G36*
X104229850Y-92025964D02*
G01*
X104274317Y-92031123D01*
X104289510Y-92037831D01*
X104311104Y-92042127D01*
X104334222Y-92057574D01*
X104351567Y-92065233D01*
X104363412Y-92077078D01*
X104384099Y-92090901D01*
X104397921Y-92111587D01*
X104409766Y-92123432D01*
X104417423Y-92140774D01*
X104432873Y-92163896D01*
X104437168Y-92185491D01*
X104443876Y-92200682D01*
X104449033Y-92245139D01*
X104450000Y-92250000D01*
X104450000Y-92750000D01*
X104449032Y-92754862D01*
X104443876Y-92799317D01*
X104437168Y-92814506D01*
X104432873Y-92836104D01*
X104417422Y-92859227D01*
X104409766Y-92876567D01*
X104397923Y-92888409D01*
X104384099Y-92909099D01*
X104363409Y-92922923D01*
X104351567Y-92934766D01*
X104334227Y-92942422D01*
X104311104Y-92957873D01*
X104289506Y-92962168D01*
X104274317Y-92968876D01*
X104229861Y-92974032D01*
X104225000Y-92975000D01*
X103775000Y-92975000D01*
X103770138Y-92974033D01*
X103725682Y-92968876D01*
X103710491Y-92962168D01*
X103688896Y-92957873D01*
X103665774Y-92942423D01*
X103648432Y-92934766D01*
X103636587Y-92922921D01*
X103615901Y-92909099D01*
X103602078Y-92888412D01*
X103590233Y-92876567D01*
X103582574Y-92859222D01*
X103567127Y-92836104D01*
X103562831Y-92814510D01*
X103556123Y-92799317D01*
X103550964Y-92754849D01*
X103550000Y-92750000D01*
X103550000Y-92250000D01*
X103550964Y-92245150D01*
X103556123Y-92200682D01*
X103562832Y-92185487D01*
X103567127Y-92163896D01*
X103582573Y-92140779D01*
X103590233Y-92123432D01*
X103602080Y-92111584D01*
X103615901Y-92090901D01*
X103636584Y-92077080D01*
X103648432Y-92065233D01*
X103665779Y-92057573D01*
X103688896Y-92042127D01*
X103710487Y-92037832D01*
X103725682Y-92031123D01*
X103770151Y-92025964D01*
X103775000Y-92025000D01*
X104225000Y-92025000D01*
X104229850Y-92025964D01*
G37*
G36*
X105779850Y-92025964D02*
G01*
X105824317Y-92031123D01*
X105839510Y-92037831D01*
X105861104Y-92042127D01*
X105884222Y-92057574D01*
X105901567Y-92065233D01*
X105913412Y-92077078D01*
X105934099Y-92090901D01*
X105947921Y-92111587D01*
X105959766Y-92123432D01*
X105967423Y-92140774D01*
X105982873Y-92163896D01*
X105987168Y-92185491D01*
X105993876Y-92200682D01*
X105999033Y-92245139D01*
X106000000Y-92250000D01*
X106000000Y-92750000D01*
X105999032Y-92754862D01*
X105993876Y-92799317D01*
X105987168Y-92814506D01*
X105982873Y-92836104D01*
X105967422Y-92859227D01*
X105959766Y-92876567D01*
X105947923Y-92888409D01*
X105934099Y-92909099D01*
X105913409Y-92922923D01*
X105901567Y-92934766D01*
X105884227Y-92942422D01*
X105861104Y-92957873D01*
X105839506Y-92962168D01*
X105824317Y-92968876D01*
X105779861Y-92974032D01*
X105775000Y-92975000D01*
X105325000Y-92975000D01*
X105320138Y-92974033D01*
X105275682Y-92968876D01*
X105260491Y-92962168D01*
X105238896Y-92957873D01*
X105215774Y-92942423D01*
X105198432Y-92934766D01*
X105186587Y-92922921D01*
X105165901Y-92909099D01*
X105152078Y-92888412D01*
X105140233Y-92876567D01*
X105132574Y-92859222D01*
X105117127Y-92836104D01*
X105112831Y-92814510D01*
X105106123Y-92799317D01*
X105100964Y-92754849D01*
X105100000Y-92750000D01*
X105100000Y-92250000D01*
X105100964Y-92245150D01*
X105106123Y-92200682D01*
X105112832Y-92185487D01*
X105117127Y-92163896D01*
X105132573Y-92140779D01*
X105140233Y-92123432D01*
X105152080Y-92111584D01*
X105165901Y-92090901D01*
X105186584Y-92077080D01*
X105198432Y-92065233D01*
X105215779Y-92057573D01*
X105238896Y-92042127D01*
X105260487Y-92037832D01*
X105275682Y-92031123D01*
X105320151Y-92025964D01*
X105325000Y-92025000D01*
X105775000Y-92025000D01*
X105779850Y-92025964D01*
G37*
G36*
X86290285Y-90543060D02*
G01*
X86471397Y-90618079D01*
X86634393Y-90726990D01*
X86773010Y-90865607D01*
X86881921Y-91028603D01*
X86956940Y-91209715D01*
X86995185Y-91401983D01*
X86995185Y-91598017D01*
X86956940Y-91790285D01*
X86881921Y-91971397D01*
X86773010Y-92134393D01*
X86634393Y-92273010D01*
X86471397Y-92381921D01*
X86290285Y-92456940D01*
X86098017Y-92495185D01*
X85901983Y-92495185D01*
X85709715Y-92456940D01*
X85528603Y-92381921D01*
X85365607Y-92273010D01*
X85226990Y-92134393D01*
X85118079Y-91971397D01*
X85043060Y-91790285D01*
X85004815Y-91598017D01*
X85004815Y-91401983D01*
X85043060Y-91209715D01*
X85118079Y-91028603D01*
X85226990Y-90865607D01*
X85365607Y-90726990D01*
X85528603Y-90618079D01*
X85709715Y-90543060D01*
X85901983Y-90504815D01*
X86098017Y-90504815D01*
X86290285Y-90543060D01*
G37*
G36*
X118221742Y-89896601D02*
G01*
X118375687Y-89960367D01*
X118514234Y-90052941D01*
X118632059Y-90170766D01*
X118724633Y-90309313D01*
X118788399Y-90463258D01*
X118820907Y-90626685D01*
X118820907Y-90793315D01*
X118788399Y-90956742D01*
X118724633Y-91110687D01*
X118632059Y-91249234D01*
X118514234Y-91367059D01*
X118375687Y-91459633D01*
X118221742Y-91523399D01*
X118058315Y-91555907D01*
X117891685Y-91555907D01*
X117728258Y-91523399D01*
X117574313Y-91459633D01*
X117435766Y-91367059D01*
X117317941Y-91249234D01*
X117225367Y-91110687D01*
X117161601Y-90956742D01*
X117129093Y-90793315D01*
X117129093Y-90626685D01*
X117161601Y-90463258D01*
X117225367Y-90309313D01*
X117317941Y-90170766D01*
X117435766Y-90052941D01*
X117574313Y-89960367D01*
X117728258Y-89896601D01*
X117891685Y-89864093D01*
X118058315Y-89864093D01*
X118221742Y-89896601D01*
G37*
G36*
X104254850Y-90285964D02*
G01*
X104299317Y-90291123D01*
X104314510Y-90297831D01*
X104336104Y-90302127D01*
X104359222Y-90317574D01*
X104376567Y-90325233D01*
X104388412Y-90337078D01*
X104409099Y-90350901D01*
X104422921Y-90371587D01*
X104434766Y-90383432D01*
X104442423Y-90400774D01*
X104457873Y-90423896D01*
X104462168Y-90445491D01*
X104468876Y-90460682D01*
X104474033Y-90505139D01*
X104475000Y-90510000D01*
X104475000Y-91010000D01*
X104474032Y-91014862D01*
X104468876Y-91059317D01*
X104462168Y-91074506D01*
X104457873Y-91096104D01*
X104442422Y-91119227D01*
X104434766Y-91136567D01*
X104422923Y-91148409D01*
X104409099Y-91169099D01*
X104388409Y-91182923D01*
X104376567Y-91194766D01*
X104359227Y-91202422D01*
X104336104Y-91217873D01*
X104314506Y-91222168D01*
X104299317Y-91228876D01*
X104254861Y-91234032D01*
X104250000Y-91235000D01*
X103800000Y-91235000D01*
X103795138Y-91234033D01*
X103750682Y-91228876D01*
X103735491Y-91222168D01*
X103713896Y-91217873D01*
X103690774Y-91202423D01*
X103673432Y-91194766D01*
X103661587Y-91182921D01*
X103640901Y-91169099D01*
X103627078Y-91148412D01*
X103615233Y-91136567D01*
X103607574Y-91119222D01*
X103592127Y-91096104D01*
X103587831Y-91074510D01*
X103581123Y-91059317D01*
X103575964Y-91014849D01*
X103575000Y-91010000D01*
X103575000Y-90510000D01*
X103575964Y-90505150D01*
X103581123Y-90460682D01*
X103587832Y-90445487D01*
X103592127Y-90423896D01*
X103607573Y-90400779D01*
X103615233Y-90383432D01*
X103627080Y-90371584D01*
X103640901Y-90350901D01*
X103661584Y-90337080D01*
X103673432Y-90325233D01*
X103690779Y-90317573D01*
X103713896Y-90302127D01*
X103735487Y-90297832D01*
X103750682Y-90291123D01*
X103795151Y-90285964D01*
X103800000Y-90285000D01*
X104250000Y-90285000D01*
X104254850Y-90285964D01*
G37*
G36*
X105804850Y-90285964D02*
G01*
X105849317Y-90291123D01*
X105864510Y-90297831D01*
X105886104Y-90302127D01*
X105909222Y-90317574D01*
X105926567Y-90325233D01*
X105938412Y-90337078D01*
X105959099Y-90350901D01*
X105972921Y-90371587D01*
X105984766Y-90383432D01*
X105992423Y-90400774D01*
X106007873Y-90423896D01*
X106012168Y-90445491D01*
X106018876Y-90460682D01*
X106024033Y-90505139D01*
X106025000Y-90510000D01*
X106025000Y-91010000D01*
X106024032Y-91014862D01*
X106018876Y-91059317D01*
X106012168Y-91074506D01*
X106007873Y-91096104D01*
X105992422Y-91119227D01*
X105984766Y-91136567D01*
X105972923Y-91148409D01*
X105959099Y-91169099D01*
X105938409Y-91182923D01*
X105926567Y-91194766D01*
X105909227Y-91202422D01*
X105886104Y-91217873D01*
X105864506Y-91222168D01*
X105849317Y-91228876D01*
X105804861Y-91234032D01*
X105800000Y-91235000D01*
X105350000Y-91235000D01*
X105345138Y-91234033D01*
X105300682Y-91228876D01*
X105285491Y-91222168D01*
X105263896Y-91217873D01*
X105240774Y-91202423D01*
X105223432Y-91194766D01*
X105211587Y-91182921D01*
X105190901Y-91169099D01*
X105177078Y-91148412D01*
X105165233Y-91136567D01*
X105157574Y-91119222D01*
X105142127Y-91096104D01*
X105137831Y-91074510D01*
X105131123Y-91059317D01*
X105125964Y-91014849D01*
X105125000Y-91010000D01*
X105125000Y-90510000D01*
X105125964Y-90505150D01*
X105131123Y-90460682D01*
X105137832Y-90445487D01*
X105142127Y-90423896D01*
X105157573Y-90400779D01*
X105165233Y-90383432D01*
X105177080Y-90371584D01*
X105190901Y-90350901D01*
X105211584Y-90337080D01*
X105223432Y-90325233D01*
X105240779Y-90317573D01*
X105263896Y-90302127D01*
X105285487Y-90297832D01*
X105300682Y-90291123D01*
X105345151Y-90285964D01*
X105350000Y-90285000D01*
X105800000Y-90285000D01*
X105804850Y-90285964D01*
G37*
G36*
X105250000Y-89440000D02*
G01*
X104950000Y-89440000D01*
X104950000Y-88040000D01*
X105250000Y-88040000D01*
X105250000Y-89440000D01*
G37*
G36*
X105750000Y-89440000D02*
G01*
X105450000Y-89440000D01*
X105450000Y-88040000D01*
X105750000Y-88040000D01*
X105750000Y-89440000D01*
G37*
G36*
X106250000Y-89440000D02*
G01*
X105950000Y-89440000D01*
X105950000Y-88040000D01*
X106250000Y-88040000D01*
X106250000Y-89440000D01*
G37*
G36*
X106750000Y-89440000D02*
G01*
X106450000Y-89440000D01*
X106450000Y-88040000D01*
X106750000Y-88040000D01*
X106750000Y-89440000D01*
G37*
G36*
X107250000Y-89440000D02*
G01*
X106950000Y-89440000D01*
X106950000Y-88040000D01*
X107250000Y-88040000D01*
X107250000Y-89440000D01*
G37*
G36*
X117996742Y-85436601D02*
G01*
X118150687Y-85500367D01*
X118289234Y-85592941D01*
X118407059Y-85710766D01*
X118499633Y-85849313D01*
X118563399Y-86003258D01*
X118595907Y-86166685D01*
X118595907Y-86333315D01*
X118563399Y-86496742D01*
X118499633Y-86650687D01*
X118407059Y-86789234D01*
X118289234Y-86907059D01*
X118150687Y-86999633D01*
X117996742Y-87063399D01*
X117833315Y-87095907D01*
X117666685Y-87095907D01*
X117503258Y-87063399D01*
X117349313Y-86999633D01*
X117210766Y-86907059D01*
X117092941Y-86789234D01*
X117000367Y-86650687D01*
X116936601Y-86496742D01*
X116904093Y-86333315D01*
X116904093Y-86166685D01*
X116936601Y-86003258D01*
X117000367Y-85849313D01*
X117092941Y-85710766D01*
X117210766Y-85592941D01*
X117349313Y-85500367D01*
X117503258Y-85436601D01*
X117666685Y-85404093D01*
X117833315Y-85404093D01*
X117996742Y-85436601D01*
G37*
G36*
X105250000Y-85040000D02*
G01*
X104950000Y-85040000D01*
X104950000Y-83640000D01*
X105250000Y-83640000D01*
X105250000Y-85040000D01*
G37*
G36*
X105750000Y-85040000D02*
G01*
X105450000Y-85040000D01*
X105450000Y-83640000D01*
X105750000Y-83640000D01*
X105750000Y-85040000D01*
G37*
G36*
X106250000Y-85040000D02*
G01*
X105950000Y-85040000D01*
X105950000Y-83640000D01*
X106250000Y-83640000D01*
X106250000Y-85040000D01*
G37*
G36*
X106750000Y-85040000D02*
G01*
X106450000Y-85040000D01*
X106450000Y-83640000D01*
X106750000Y-83640000D01*
X106750000Y-85040000D01*
G37*
G36*
X107250000Y-85040000D02*
G01*
X106950000Y-85040000D01*
X106950000Y-83640000D01*
X107250000Y-83640000D01*
X107250000Y-85040000D01*
G37*
G36*
X117996742Y-82896601D02*
G01*
X118150687Y-82960367D01*
X118289234Y-83052941D01*
X118407059Y-83170766D01*
X118499633Y-83309313D01*
X118563399Y-83463258D01*
X118595907Y-83626685D01*
X118595907Y-83793315D01*
X118563399Y-83956742D01*
X118499633Y-84110687D01*
X118407059Y-84249234D01*
X118289234Y-84367059D01*
X118150687Y-84459633D01*
X117996742Y-84523399D01*
X117833315Y-84555907D01*
X117666685Y-84555907D01*
X117503258Y-84523399D01*
X117349313Y-84459633D01*
X117210766Y-84367059D01*
X117092941Y-84249234D01*
X117000367Y-84110687D01*
X116936601Y-83956742D01*
X116904093Y-83793315D01*
X116904093Y-83626685D01*
X116936601Y-83463258D01*
X117000367Y-83309313D01*
X117092941Y-83170766D01*
X117210766Y-83052941D01*
X117349313Y-82960367D01*
X117503258Y-82896601D01*
X117666685Y-82864093D01*
X117833315Y-82864093D01*
X117996742Y-82896601D01*
G37*
G36*
X118600000Y-82020000D02*
G01*
X116900000Y-82020000D01*
X116900000Y-80320000D01*
X118600000Y-80320000D01*
X118600000Y-82020000D01*
G37*
G36*
X60851537Y-78440224D02*
G01*
X60916421Y-78483579D01*
X60959776Y-78548463D01*
X60975000Y-78625000D01*
X60975000Y-79025000D01*
X60959776Y-79101537D01*
X60916421Y-79166421D01*
X60851537Y-79209776D01*
X60775000Y-79225000D01*
X60225000Y-79225000D01*
X60148463Y-79209776D01*
X60083579Y-79166421D01*
X60040224Y-79101537D01*
X60025000Y-79025000D01*
X60025000Y-78625000D01*
X60040224Y-78548463D01*
X60083579Y-78483579D01*
X60148463Y-78440224D01*
X60225000Y-78425000D01*
X60775000Y-78425000D01*
X60851537Y-78440224D01*
G37*
G36*
X53613973Y-76278469D02*
G01*
X53750532Y-76335033D01*
X53873431Y-76417152D01*
X53977948Y-76521669D01*
X54060067Y-76644568D01*
X54116631Y-76781127D01*
X54145467Y-76926096D01*
X54145467Y-77073906D01*
X54116631Y-77218875D01*
X54060067Y-77355434D01*
X53977948Y-77478333D01*
X53873431Y-77582850D01*
X53750532Y-77664969D01*
X53613973Y-77721533D01*
X53469004Y-77750369D01*
X53321194Y-77750369D01*
X53176225Y-77721533D01*
X53039666Y-77664969D01*
X52916767Y-77582850D01*
X52812250Y-77478333D01*
X52730131Y-77355434D01*
X52673567Y-77218875D01*
X52644731Y-77073906D01*
X52644731Y-76926096D01*
X52673567Y-76781127D01*
X52730131Y-76644568D01*
X52812250Y-76521669D01*
X52916767Y-76417152D01*
X53039666Y-76335033D01*
X53176225Y-76278469D01*
X53321194Y-76249633D01*
X53469004Y-76249633D01*
X53613973Y-76278469D01*
G37*
G36*
X58113974Y-76278469D02*
G01*
X58250533Y-76335033D01*
X58373432Y-76417152D01*
X58477949Y-76521669D01*
X58560068Y-76644568D01*
X58616632Y-76781127D01*
X58645468Y-76926096D01*
X58645468Y-77073906D01*
X58616632Y-77218875D01*
X58560068Y-77355434D01*
X58477949Y-77478333D01*
X58373432Y-77582850D01*
X58250533Y-77664969D01*
X58113974Y-77721533D01*
X57969005Y-77750369D01*
X57821195Y-77750369D01*
X57676226Y-77721533D01*
X57539667Y-77664969D01*
X57416768Y-77582850D01*
X57312251Y-77478333D01*
X57230132Y-77355434D01*
X57173568Y-77218875D01*
X57144732Y-77073906D01*
X57144732Y-76926096D01*
X57173568Y-76781127D01*
X57230132Y-76644568D01*
X57312251Y-76521669D01*
X57416768Y-76417152D01*
X57539667Y-76335033D01*
X57676226Y-76278469D01*
X57821195Y-76249633D01*
X57969005Y-76249633D01*
X58113974Y-76278469D01*
G37*
G36*
X60851537Y-76790224D02*
G01*
X60916421Y-76833579D01*
X60959776Y-76898463D01*
X60975000Y-76975000D01*
X60975000Y-77375000D01*
X60959776Y-77451537D01*
X60916421Y-77516421D01*
X60851537Y-77559776D01*
X60775000Y-77575000D01*
X60225000Y-77575000D01*
X60148463Y-77559776D01*
X60083579Y-77516421D01*
X60040224Y-77451537D01*
X60025000Y-77375000D01*
X60025000Y-76975000D01*
X60040224Y-76898463D01*
X60083579Y-76833579D01*
X60148463Y-76790224D01*
X60225000Y-76775000D01*
X60775000Y-76775000D01*
X60851537Y-76790224D01*
G37*
G36*
X93918750Y-74300964D02*
G01*
X93963217Y-74306123D01*
X93978410Y-74312831D01*
X94000004Y-74317127D01*
X94023122Y-74332574D01*
X94040467Y-74340233D01*
X94052312Y-74352078D01*
X94072999Y-74365901D01*
X94086821Y-74386587D01*
X94098666Y-74398432D01*
X94106323Y-74415774D01*
X94121773Y-74438896D01*
X94126068Y-74460491D01*
X94132776Y-74475682D01*
X94137933Y-74520139D01*
X94138900Y-74525000D01*
X94138900Y-74975000D01*
X94137932Y-74979862D01*
X94132776Y-75024317D01*
X94126068Y-75039506D01*
X94121773Y-75061104D01*
X94106322Y-75084227D01*
X94098666Y-75101567D01*
X94086823Y-75113409D01*
X94072999Y-75134099D01*
X94052309Y-75147923D01*
X94040467Y-75159766D01*
X94023127Y-75167422D01*
X94000004Y-75182873D01*
X93978406Y-75187168D01*
X93963217Y-75193876D01*
X93918761Y-75199032D01*
X93913900Y-75200000D01*
X93413900Y-75200000D01*
X93409038Y-75199033D01*
X93364582Y-75193876D01*
X93349391Y-75187168D01*
X93327796Y-75182873D01*
X93304674Y-75167423D01*
X93287332Y-75159766D01*
X93275487Y-75147921D01*
X93254801Y-75134099D01*
X93240978Y-75113412D01*
X93229133Y-75101567D01*
X93221474Y-75084222D01*
X93206027Y-75061104D01*
X93201731Y-75039510D01*
X93195023Y-75024317D01*
X93189864Y-74979849D01*
X93188900Y-74975000D01*
X93188900Y-74525000D01*
X93189864Y-74520150D01*
X93195023Y-74475682D01*
X93201732Y-74460487D01*
X93206027Y-74438896D01*
X93221473Y-74415779D01*
X93229133Y-74398432D01*
X93240980Y-74386584D01*
X93254801Y-74365901D01*
X93275484Y-74352080D01*
X93287332Y-74340233D01*
X93304679Y-74332573D01*
X93327796Y-74317127D01*
X93349387Y-74312832D01*
X93364582Y-74306123D01*
X93409051Y-74300964D01*
X93413900Y-74300000D01*
X93913900Y-74300000D01*
X93918750Y-74300964D01*
G37*
G36*
X95668750Y-74300964D02*
G01*
X95713217Y-74306123D01*
X95728410Y-74312831D01*
X95750004Y-74317127D01*
X95773122Y-74332574D01*
X95790467Y-74340233D01*
X95802312Y-74352078D01*
X95822999Y-74365901D01*
X95836821Y-74386587D01*
X95848666Y-74398432D01*
X95856323Y-74415774D01*
X95871773Y-74438896D01*
X95876068Y-74460491D01*
X95882776Y-74475682D01*
X95887933Y-74520139D01*
X95888900Y-74525000D01*
X95888900Y-74975000D01*
X95887932Y-74979862D01*
X95882776Y-75024317D01*
X95876068Y-75039506D01*
X95871773Y-75061104D01*
X95856322Y-75084227D01*
X95848666Y-75101567D01*
X95836823Y-75113409D01*
X95822999Y-75134099D01*
X95802309Y-75147923D01*
X95790467Y-75159766D01*
X95773127Y-75167422D01*
X95750004Y-75182873D01*
X95728406Y-75187168D01*
X95713217Y-75193876D01*
X95668761Y-75199032D01*
X95663900Y-75200000D01*
X95163900Y-75200000D01*
X95159038Y-75199033D01*
X95114582Y-75193876D01*
X95099391Y-75187168D01*
X95077796Y-75182873D01*
X95054674Y-75167423D01*
X95037332Y-75159766D01*
X95025487Y-75147921D01*
X95004801Y-75134099D01*
X94990978Y-75113412D01*
X94979133Y-75101567D01*
X94971474Y-75084222D01*
X94956027Y-75061104D01*
X94951731Y-75039510D01*
X94945023Y-75024317D01*
X94939864Y-74979849D01*
X94938900Y-74975000D01*
X94938900Y-74525000D01*
X94939864Y-74520150D01*
X94945023Y-74475682D01*
X94951732Y-74460487D01*
X94956027Y-74438896D01*
X94971473Y-74415779D01*
X94979133Y-74398432D01*
X94990980Y-74386584D01*
X95004801Y-74365901D01*
X95025484Y-74352080D01*
X95037332Y-74340233D01*
X95054679Y-74332573D01*
X95077796Y-74317127D01*
X95099387Y-74312832D01*
X95114582Y-74306123D01*
X95159051Y-74300964D01*
X95163900Y-74300000D01*
X95663900Y-74300000D01*
X95668750Y-74300964D01*
G37*
G36*
X98402850Y-75152904D02*
G01*
X97424950Y-75152904D01*
X97424950Y-74848104D01*
X98402850Y-74848104D01*
X98402850Y-75152904D01*
G37*
G36*
X101488950Y-75152904D02*
G01*
X100511050Y-75152904D01*
X100511050Y-74848104D01*
X101488950Y-74848104D01*
X101488950Y-75152904D01*
G37*
G36*
X98402850Y-74652778D02*
G01*
X97424950Y-74652778D01*
X97424950Y-74347978D01*
X98402850Y-74347978D01*
X98402850Y-74652778D01*
G37*
G36*
X101488950Y-74652778D02*
G01*
X100511050Y-74652778D01*
X100511050Y-74347978D01*
X101488950Y-74347978D01*
X101488950Y-74652778D01*
G37*
G36*
X117746742Y-72506601D02*
G01*
X117900687Y-72570367D01*
X118039234Y-72662941D01*
X118157059Y-72780766D01*
X118249633Y-72919313D01*
X118313399Y-73073258D01*
X118345907Y-73236685D01*
X118345907Y-73403315D01*
X118313399Y-73566742D01*
X118249633Y-73720687D01*
X118157059Y-73859234D01*
X118039234Y-73977059D01*
X117900687Y-74069633D01*
X117746742Y-74133399D01*
X117583315Y-74165907D01*
X117416685Y-74165907D01*
X117253258Y-74133399D01*
X117099313Y-74069633D01*
X116960766Y-73977059D01*
X116842941Y-73859234D01*
X116750367Y-73720687D01*
X116686601Y-73566742D01*
X116654093Y-73403315D01*
X116654093Y-73236685D01*
X116686601Y-73073258D01*
X116750367Y-72919313D01*
X116842941Y-72780766D01*
X116960766Y-72662941D01*
X117099313Y-72570367D01*
X117253258Y-72506601D01*
X117416685Y-72474093D01*
X117583315Y-72474093D01*
X117746742Y-72506601D01*
G37*
G36*
X98402850Y-74152652D02*
G01*
X97424950Y-74152652D01*
X97424950Y-73847852D01*
X98402850Y-73847852D01*
X98402850Y-74152652D01*
G37*
G36*
X101488950Y-74152652D02*
G01*
X100511050Y-74152652D01*
X100511050Y-73847852D01*
X101488950Y-73847852D01*
X101488950Y-74152652D01*
G37*
G36*
X98402850Y-73652526D02*
G01*
X97424950Y-73652526D01*
X97424950Y-73347726D01*
X98402850Y-73347726D01*
X98402850Y-73652526D01*
G37*
G36*
X101488950Y-73652526D02*
G01*
X100511050Y-73652526D01*
X100511050Y-73347726D01*
X101488950Y-73347726D01*
X101488950Y-73652526D01*
G37*
G36*
X93918750Y-72750964D02*
G01*
X93963217Y-72756123D01*
X93978410Y-72762831D01*
X94000004Y-72767127D01*
X94023122Y-72782574D01*
X94040467Y-72790233D01*
X94052312Y-72802078D01*
X94072999Y-72815901D01*
X94086821Y-72836587D01*
X94098666Y-72848432D01*
X94106323Y-72865774D01*
X94121773Y-72888896D01*
X94126068Y-72910491D01*
X94132776Y-72925682D01*
X94137933Y-72970139D01*
X94138900Y-72975000D01*
X94138900Y-73425000D01*
X94137932Y-73429862D01*
X94132776Y-73474317D01*
X94126068Y-73489506D01*
X94121773Y-73511104D01*
X94106322Y-73534227D01*
X94098666Y-73551567D01*
X94086823Y-73563409D01*
X94072999Y-73584099D01*
X94052309Y-73597923D01*
X94040467Y-73609766D01*
X94023127Y-73617422D01*
X94000004Y-73632873D01*
X93978406Y-73637168D01*
X93963217Y-73643876D01*
X93918761Y-73649032D01*
X93913900Y-73650000D01*
X93413900Y-73650000D01*
X93409038Y-73649033D01*
X93364582Y-73643876D01*
X93349391Y-73637168D01*
X93327796Y-73632873D01*
X93304674Y-73617423D01*
X93287332Y-73609766D01*
X93275487Y-73597921D01*
X93254801Y-73584099D01*
X93240978Y-73563412D01*
X93229133Y-73551567D01*
X93221474Y-73534222D01*
X93206027Y-73511104D01*
X93201731Y-73489510D01*
X93195023Y-73474317D01*
X93189864Y-73429849D01*
X93188900Y-73425000D01*
X93188900Y-72975000D01*
X93189864Y-72970150D01*
X93195023Y-72925682D01*
X93201732Y-72910487D01*
X93206027Y-72888896D01*
X93221473Y-72865779D01*
X93229133Y-72848432D01*
X93240980Y-72836584D01*
X93254801Y-72815901D01*
X93275484Y-72802080D01*
X93287332Y-72790233D01*
X93304679Y-72782573D01*
X93327796Y-72767127D01*
X93349387Y-72762832D01*
X93364582Y-72756123D01*
X93409051Y-72750964D01*
X93413900Y-72750000D01*
X93913900Y-72750000D01*
X93918750Y-72750964D01*
G37*
G36*
X95668750Y-72750964D02*
G01*
X95713217Y-72756123D01*
X95728410Y-72762831D01*
X95750004Y-72767127D01*
X95773122Y-72782574D01*
X95790467Y-72790233D01*
X95802312Y-72802078D01*
X95822999Y-72815901D01*
X95836821Y-72836587D01*
X95848666Y-72848432D01*
X95856323Y-72865774D01*
X95871773Y-72888896D01*
X95876068Y-72910491D01*
X95882776Y-72925682D01*
X95887933Y-72970139D01*
X95888900Y-72975000D01*
X95888900Y-73425000D01*
X95887932Y-73429862D01*
X95882776Y-73474317D01*
X95876068Y-73489506D01*
X95871773Y-73511104D01*
X95856322Y-73534227D01*
X95848666Y-73551567D01*
X95836823Y-73563409D01*
X95822999Y-73584099D01*
X95802309Y-73597923D01*
X95790467Y-73609766D01*
X95773127Y-73617422D01*
X95750004Y-73632873D01*
X95728406Y-73637168D01*
X95713217Y-73643876D01*
X95668761Y-73649032D01*
X95663900Y-73650000D01*
X95163900Y-73650000D01*
X95159038Y-73649033D01*
X95114582Y-73643876D01*
X95099391Y-73637168D01*
X95077796Y-73632873D01*
X95054674Y-73617423D01*
X95037332Y-73609766D01*
X95025487Y-73597921D01*
X95004801Y-73584099D01*
X94990978Y-73563412D01*
X94979133Y-73551567D01*
X94971474Y-73534222D01*
X94956027Y-73511104D01*
X94951731Y-73489510D01*
X94945023Y-73474317D01*
X94939864Y-73429849D01*
X94938900Y-73425000D01*
X94938900Y-72975000D01*
X94939864Y-72970150D01*
X94945023Y-72925682D01*
X94951732Y-72910487D01*
X94956027Y-72888896D01*
X94971473Y-72865779D01*
X94979133Y-72848432D01*
X94990980Y-72836584D01*
X95004801Y-72815901D01*
X95025484Y-72802080D01*
X95037332Y-72790233D01*
X95054679Y-72782573D01*
X95077796Y-72767127D01*
X95099387Y-72762832D01*
X95114582Y-72756123D01*
X95159051Y-72750964D01*
X95163900Y-72750000D01*
X95663900Y-72750000D01*
X95668750Y-72750964D01*
G37*
G36*
X98402850Y-73152400D02*
G01*
X97424950Y-73152400D01*
X97424950Y-72847600D01*
X98402850Y-72847600D01*
X98402850Y-73152400D01*
G37*
G36*
X101488950Y-73152400D02*
G01*
X100511050Y-73152400D01*
X100511050Y-72847600D01*
X101488950Y-72847600D01*
X101488950Y-73152400D01*
G37*
G36*
X98402850Y-72652274D02*
G01*
X97424950Y-72652274D01*
X97424950Y-72347474D01*
X98402850Y-72347474D01*
X98402850Y-72652274D01*
G37*
G36*
X101488950Y-72652274D02*
G01*
X100511050Y-72652274D01*
X100511050Y-72347474D01*
X101488950Y-72347474D01*
X101488950Y-72652274D01*
G37*
G36*
X98402850Y-72152148D02*
G01*
X97424950Y-72152148D01*
X97424950Y-71847348D01*
X98402850Y-71847348D01*
X98402850Y-72152148D01*
G37*
G36*
X101488950Y-72152148D02*
G01*
X100511050Y-72152148D01*
X100511050Y-71847348D01*
X101488950Y-71847348D01*
X101488950Y-72152148D01*
G37*
G36*
X98402850Y-71652022D02*
G01*
X97424950Y-71652022D01*
X97424950Y-71347222D01*
X98402850Y-71347222D01*
X98402850Y-71652022D01*
G37*
G36*
X101488950Y-71652022D02*
G01*
X100511050Y-71652022D01*
X100511050Y-71347222D01*
X101488950Y-71347222D01*
X101488950Y-71652022D01*
G37*
G36*
X117746742Y-69966601D02*
G01*
X117900687Y-70030367D01*
X118039234Y-70122941D01*
X118157059Y-70240766D01*
X118249633Y-70379313D01*
X118313399Y-70533258D01*
X118345907Y-70696685D01*
X118345907Y-70863315D01*
X118313399Y-71026742D01*
X118249633Y-71180687D01*
X118157059Y-71319234D01*
X118039234Y-71437059D01*
X117900687Y-71529633D01*
X117746742Y-71593399D01*
X117583315Y-71625907D01*
X117416685Y-71625907D01*
X117253258Y-71593399D01*
X117099313Y-71529633D01*
X116960766Y-71437059D01*
X116842941Y-71319234D01*
X116750367Y-71180687D01*
X116686601Y-71026742D01*
X116654093Y-70863315D01*
X116654093Y-70696685D01*
X116686601Y-70533258D01*
X116750367Y-70379313D01*
X116842941Y-70240766D01*
X116960766Y-70122941D01*
X117099313Y-70030367D01*
X117253258Y-69966601D01*
X117416685Y-69934093D01*
X117583315Y-69934093D01*
X117746742Y-69966601D01*
G37*
G36*
X53613973Y-69778467D02*
G01*
X53750532Y-69835031D01*
X53873431Y-69917150D01*
X53977948Y-70021667D01*
X54060067Y-70144566D01*
X54116631Y-70281125D01*
X54145467Y-70426094D01*
X54145467Y-70573904D01*
X54116631Y-70718873D01*
X54060067Y-70855432D01*
X53977948Y-70978331D01*
X53873431Y-71082848D01*
X53750532Y-71164967D01*
X53613973Y-71221531D01*
X53469004Y-71250367D01*
X53321194Y-71250367D01*
X53176225Y-71221531D01*
X53039666Y-71164967D01*
X52916767Y-71082848D01*
X52812250Y-70978331D01*
X52730131Y-70855432D01*
X52673567Y-70718873D01*
X52644731Y-70573904D01*
X52644731Y-70426094D01*
X52673567Y-70281125D01*
X52730131Y-70144566D01*
X52812250Y-70021667D01*
X52916767Y-69917150D01*
X53039666Y-69835031D01*
X53176225Y-69778467D01*
X53321194Y-69749631D01*
X53469004Y-69749631D01*
X53613973Y-69778467D01*
G37*
G36*
X58113974Y-69778467D02*
G01*
X58250533Y-69835031D01*
X58373432Y-69917150D01*
X58477949Y-70021667D01*
X58560068Y-70144566D01*
X58616632Y-70281125D01*
X58645468Y-70426094D01*
X58645468Y-70573904D01*
X58616632Y-70718873D01*
X58560068Y-70855432D01*
X58477949Y-70978331D01*
X58373432Y-71082848D01*
X58250533Y-71164967D01*
X58113974Y-71221531D01*
X57969005Y-71250367D01*
X57821195Y-71250367D01*
X57676226Y-71221531D01*
X57539667Y-71164967D01*
X57416768Y-71082848D01*
X57312251Y-70978331D01*
X57230132Y-70855432D01*
X57173568Y-70718873D01*
X57144732Y-70573904D01*
X57144732Y-70426094D01*
X57173568Y-70281125D01*
X57230132Y-70144566D01*
X57312251Y-70021667D01*
X57416768Y-69917150D01*
X57539667Y-69835031D01*
X57676226Y-69778467D01*
X57821195Y-69749631D01*
X57969005Y-69749631D01*
X58113974Y-69778467D01*
G37*
G36*
X117746742Y-67426601D02*
G01*
X117900687Y-67490367D01*
X118039234Y-67582941D01*
X118157059Y-67700766D01*
X118249633Y-67839313D01*
X118313399Y-67993258D01*
X118345907Y-68156685D01*
X118345907Y-68323315D01*
X118313399Y-68486742D01*
X118249633Y-68640687D01*
X118157059Y-68779234D01*
X118039234Y-68897059D01*
X117900687Y-68989633D01*
X117746742Y-69053399D01*
X117583315Y-69085907D01*
X117416685Y-69085907D01*
X117253258Y-69053399D01*
X117099313Y-68989633D01*
X116960766Y-68897059D01*
X116842941Y-68779234D01*
X116750367Y-68640687D01*
X116686601Y-68486742D01*
X116654093Y-68323315D01*
X116654093Y-68156685D01*
X116686601Y-67993258D01*
X116750367Y-67839313D01*
X116842941Y-67700766D01*
X116960766Y-67582941D01*
X117099313Y-67490367D01*
X117253258Y-67426601D01*
X117416685Y-67394093D01*
X117583315Y-67394093D01*
X117746742Y-67426601D01*
G37*
G36*
X66290285Y-66043060D02*
G01*
X66471397Y-66118079D01*
X66634393Y-66226990D01*
X66773010Y-66365607D01*
X66881921Y-66528603D01*
X66956940Y-66709715D01*
X66995185Y-66901983D01*
X66995185Y-67098017D01*
X66956940Y-67290285D01*
X66881921Y-67471397D01*
X66773010Y-67634393D01*
X66634393Y-67773010D01*
X66471397Y-67881921D01*
X66290285Y-67956940D01*
X66098017Y-67995185D01*
X65901983Y-67995185D01*
X65709715Y-67956940D01*
X65528603Y-67881921D01*
X65365607Y-67773010D01*
X65226990Y-67634393D01*
X65118079Y-67471397D01*
X65043060Y-67290285D01*
X65004815Y-67098017D01*
X65004815Y-66901983D01*
X65043060Y-66709715D01*
X65118079Y-66528603D01*
X65226990Y-66365607D01*
X65365607Y-66226990D01*
X65528603Y-66118079D01*
X65709715Y-66043060D01*
X65901983Y-66004815D01*
X66098017Y-66004815D01*
X66290285Y-66043060D01*
G37*
G36*
X58454850Y-66525964D02*
G01*
X58499317Y-66531123D01*
X58514510Y-66537831D01*
X58536104Y-66542127D01*
X58559222Y-66557574D01*
X58576567Y-66565233D01*
X58588412Y-66577078D01*
X58609099Y-66590901D01*
X58622921Y-66611587D01*
X58634766Y-66623432D01*
X58642423Y-66640774D01*
X58657873Y-66663896D01*
X58662168Y-66685491D01*
X58668876Y-66700682D01*
X58674033Y-66745139D01*
X58675000Y-66750000D01*
X58675000Y-67250000D01*
X58674032Y-67254862D01*
X58668876Y-67299317D01*
X58662168Y-67314506D01*
X58657873Y-67336104D01*
X58642422Y-67359227D01*
X58634766Y-67376567D01*
X58622923Y-67388409D01*
X58609099Y-67409099D01*
X58588409Y-67422923D01*
X58576567Y-67434766D01*
X58559227Y-67442422D01*
X58536104Y-67457873D01*
X58514506Y-67462168D01*
X58499317Y-67468876D01*
X58454861Y-67474032D01*
X58450000Y-67475000D01*
X58000000Y-67475000D01*
X57995138Y-67474033D01*
X57950682Y-67468876D01*
X57935491Y-67462168D01*
X57913896Y-67457873D01*
X57890774Y-67442423D01*
X57873432Y-67434766D01*
X57861587Y-67422921D01*
X57840901Y-67409099D01*
X57827078Y-67388412D01*
X57815233Y-67376567D01*
X57807574Y-67359222D01*
X57792127Y-67336104D01*
X57787831Y-67314510D01*
X57781123Y-67299317D01*
X57775964Y-67254849D01*
X57775000Y-67250000D01*
X57775000Y-66750000D01*
X57775964Y-66745150D01*
X57781123Y-66700682D01*
X57787832Y-66685487D01*
X57792127Y-66663896D01*
X57807573Y-66640779D01*
X57815233Y-66623432D01*
X57827080Y-66611584D01*
X57840901Y-66590901D01*
X57861584Y-66577080D01*
X57873432Y-66565233D01*
X57890779Y-66557573D01*
X57913896Y-66542127D01*
X57935487Y-66537832D01*
X57950682Y-66531123D01*
X57995151Y-66525964D01*
X58000000Y-66525000D01*
X58450000Y-66525000D01*
X58454850Y-66525964D01*
G37*
G36*
X60004850Y-66525964D02*
G01*
X60049317Y-66531123D01*
X60064510Y-66537831D01*
X60086104Y-66542127D01*
X60109222Y-66557574D01*
X60126567Y-66565233D01*
X60138412Y-66577078D01*
X60159099Y-66590901D01*
X60172921Y-66611587D01*
X60184766Y-66623432D01*
X60192423Y-66640774D01*
X60207873Y-66663896D01*
X60212168Y-66685491D01*
X60218876Y-66700682D01*
X60224033Y-66745139D01*
X60225000Y-66750000D01*
X60225000Y-67250000D01*
X60224032Y-67254862D01*
X60218876Y-67299317D01*
X60212168Y-67314506D01*
X60207873Y-67336104D01*
X60192422Y-67359227D01*
X60184766Y-67376567D01*
X60172923Y-67388409D01*
X60159099Y-67409099D01*
X60138409Y-67422923D01*
X60126567Y-67434766D01*
X60109227Y-67442422D01*
X60086104Y-67457873D01*
X60064506Y-67462168D01*
X60049317Y-67468876D01*
X60004861Y-67474032D01*
X60000000Y-67475000D01*
X59550000Y-67475000D01*
X59545138Y-67474033D01*
X59500682Y-67468876D01*
X59485491Y-67462168D01*
X59463896Y-67457873D01*
X59440774Y-67442423D01*
X59423432Y-67434766D01*
X59411587Y-67422921D01*
X59390901Y-67409099D01*
X59377078Y-67388412D01*
X59365233Y-67376567D01*
X59357574Y-67359222D01*
X59342127Y-67336104D01*
X59337831Y-67314510D01*
X59331123Y-67299317D01*
X59325964Y-67254849D01*
X59325000Y-67250000D01*
X59325000Y-66750000D01*
X59325964Y-66745150D01*
X59331123Y-66700682D01*
X59337832Y-66685487D01*
X59342127Y-66663896D01*
X59357573Y-66640779D01*
X59365233Y-66623432D01*
X59377080Y-66611584D01*
X59390901Y-66590901D01*
X59411584Y-66577080D01*
X59423432Y-66565233D01*
X59440779Y-66557573D01*
X59463896Y-66542127D01*
X59485487Y-66537832D01*
X59500682Y-66531123D01*
X59545151Y-66525964D01*
X59550000Y-66525000D01*
X60000000Y-66525000D01*
X60004850Y-66525964D01*
G37*
G36*
X118350000Y-66550000D02*
G01*
X116650000Y-66550000D01*
X116650000Y-64850000D01*
X118350000Y-64850000D01*
X118350000Y-66550000D01*
G37*
G36*
X87026537Y-58165224D02*
G01*
X87091421Y-58208579D01*
X87134776Y-58273463D01*
X87150000Y-58350000D01*
X87150000Y-58750000D01*
X87134776Y-58826537D01*
X87091421Y-58891421D01*
X87026537Y-58934776D01*
X86950000Y-58950000D01*
X86400000Y-58950000D01*
X86323463Y-58934776D01*
X86258579Y-58891421D01*
X86215224Y-58826537D01*
X86200000Y-58750000D01*
X86200000Y-58350000D01*
X86215224Y-58273463D01*
X86258579Y-58208579D01*
X86323463Y-58165224D01*
X86400000Y-58150000D01*
X86950000Y-58150000D01*
X87026537Y-58165224D01*
G37*
G36*
X88929850Y-58050964D02*
G01*
X88974317Y-58056123D01*
X88989510Y-58062831D01*
X89011104Y-58067127D01*
X89034222Y-58082574D01*
X89051567Y-58090233D01*
X89063412Y-58102078D01*
X89084099Y-58115901D01*
X89097921Y-58136587D01*
X89109766Y-58148432D01*
X89117423Y-58165774D01*
X89132873Y-58188896D01*
X89137168Y-58210491D01*
X89143876Y-58225682D01*
X89149033Y-58270139D01*
X89150000Y-58275000D01*
X89150000Y-58725000D01*
X89149032Y-58729862D01*
X89143876Y-58774317D01*
X89137168Y-58789506D01*
X89132873Y-58811104D01*
X89117422Y-58834227D01*
X89109766Y-58851567D01*
X89097923Y-58863409D01*
X89084099Y-58884099D01*
X89063409Y-58897923D01*
X89051567Y-58909766D01*
X89034227Y-58917422D01*
X89011104Y-58932873D01*
X88989506Y-58937168D01*
X88974317Y-58943876D01*
X88929861Y-58949032D01*
X88925000Y-58950000D01*
X88425000Y-58950000D01*
X88420138Y-58949033D01*
X88375682Y-58943876D01*
X88360491Y-58937168D01*
X88338896Y-58932873D01*
X88315774Y-58917423D01*
X88298432Y-58909766D01*
X88286587Y-58897921D01*
X88265901Y-58884099D01*
X88252078Y-58863412D01*
X88240233Y-58851567D01*
X88232574Y-58834222D01*
X88217127Y-58811104D01*
X88212831Y-58789510D01*
X88206123Y-58774317D01*
X88200964Y-58729849D01*
X88200000Y-58725000D01*
X88200000Y-58275000D01*
X88200964Y-58270150D01*
X88206123Y-58225682D01*
X88212832Y-58210487D01*
X88217127Y-58188896D01*
X88232573Y-58165779D01*
X88240233Y-58148432D01*
X88252080Y-58136584D01*
X88265901Y-58115901D01*
X88286584Y-58102080D01*
X88298432Y-58090233D01*
X88315779Y-58082573D01*
X88338896Y-58067127D01*
X88360487Y-58062832D01*
X88375682Y-58056123D01*
X88420151Y-58050964D01*
X88425000Y-58050000D01*
X88925000Y-58050000D01*
X88929850Y-58050964D01*
G37*
G36*
X72711100Y-57950964D02*
G01*
X72759860Y-57956621D01*
X72776520Y-57963977D01*
X72799529Y-57968554D01*
X72824161Y-57985013D01*
X72843414Y-57993514D01*
X72856564Y-58006664D01*
X72878607Y-58021393D01*
X72893335Y-58043435D01*
X72906485Y-58056585D01*
X72914985Y-58075836D01*
X72931446Y-58100471D01*
X72936023Y-58123481D01*
X72943378Y-58140139D01*
X72949033Y-58188889D01*
X72950000Y-58193750D01*
X72950000Y-58681250D01*
X72949032Y-58686112D01*
X72943378Y-58734860D01*
X72936023Y-58751516D01*
X72931446Y-58774529D01*
X72914983Y-58799165D01*
X72906485Y-58818414D01*
X72893337Y-58831561D01*
X72878607Y-58853607D01*
X72856561Y-58868337D01*
X72843414Y-58881485D01*
X72824165Y-58889983D01*
X72799529Y-58906446D01*
X72776516Y-58911023D01*
X72759860Y-58918378D01*
X72711111Y-58924032D01*
X72706250Y-58925000D01*
X71793750Y-58925000D01*
X71788888Y-58924032D01*
X71740139Y-58918378D01*
X71723481Y-58911023D01*
X71700471Y-58906446D01*
X71675836Y-58889985D01*
X71656585Y-58881485D01*
X71643435Y-58868335D01*
X71621393Y-58853607D01*
X71606664Y-58831564D01*
X71593514Y-58818414D01*
X71585013Y-58799161D01*
X71568554Y-58774529D01*
X71563977Y-58751520D01*
X71556621Y-58734860D01*
X71550964Y-58686099D01*
X71550000Y-58681250D01*
X71550000Y-58193750D01*
X71550964Y-58188900D01*
X71556621Y-58140139D01*
X71563977Y-58123477D01*
X71568554Y-58100471D01*
X71585011Y-58075840D01*
X71593514Y-58056585D01*
X71606666Y-58043432D01*
X71621393Y-58021393D01*
X71643432Y-58006666D01*
X71656585Y-57993514D01*
X71675840Y-57985011D01*
X71700471Y-57968554D01*
X71723477Y-57963977D01*
X71740139Y-57956621D01*
X71788901Y-57950964D01*
X71793750Y-57950000D01*
X72706250Y-57950000D01*
X72711100Y-57950964D01*
G37*
G36*
X55168254Y-51805034D02*
G01*
X55179425Y-51805034D01*
X55257008Y-51813775D01*
X55469527Y-51834707D01*
X55504477Y-51841658D01*
X55536020Y-51845213D01*
X55628748Y-51866377D01*
X55777521Y-51895970D01*
X55835630Y-51913597D01*
X55885874Y-51925065D01*
X55966903Y-51953418D01*
X56078017Y-51987124D01*
X56158482Y-52020454D01*
X56224587Y-52043585D01*
X56287694Y-52073976D01*
X56368152Y-52107303D01*
X56470533Y-52162026D01*
X56547900Y-52199285D01*
X56591547Y-52226710D01*
X56645087Y-52255328D01*
X56771194Y-52339590D01*
X56851748Y-52390205D01*
X56876565Y-52409996D01*
X56906192Y-52429792D01*
X57071284Y-52565279D01*
X57132309Y-52613945D01*
X57140205Y-52621841D01*
X57148938Y-52629008D01*
X57370991Y-52851061D01*
X57378157Y-52859793D01*
X57386055Y-52867691D01*
X57434726Y-52928723D01*
X57570207Y-53093807D01*
X57590001Y-53123431D01*
X57609795Y-53148252D01*
X57660415Y-53228813D01*
X57744671Y-53354912D01*
X57773286Y-53408447D01*
X57800715Y-53452100D01*
X57837977Y-53529475D01*
X57892696Y-53631847D01*
X57926019Y-53712296D01*
X57956415Y-53775413D01*
X57979549Y-53841527D01*
X58012875Y-53921982D01*
X58046576Y-54033081D01*
X58074935Y-54114126D01*
X58086404Y-54164378D01*
X58104029Y-54222478D01*
X58133616Y-54371224D01*
X58154787Y-54463980D01*
X58158342Y-54495531D01*
X58165292Y-54530472D01*
X58186222Y-54742975D01*
X58194966Y-54820575D01*
X58194966Y-54831745D01*
X58196073Y-54842985D01*
X58196073Y-55157014D01*
X58194966Y-55168253D01*
X58194966Y-55179425D01*
X58186221Y-55257031D01*
X58165292Y-55469527D01*
X58158342Y-55504465D01*
X58154787Y-55536020D01*
X58133614Y-55628782D01*
X58104029Y-55777521D01*
X58086405Y-55835617D01*
X58074935Y-55885874D01*
X58046574Y-55966925D01*
X58012875Y-56078017D01*
X57979551Y-56158466D01*
X57956415Y-56224587D01*
X57926016Y-56287709D01*
X57892696Y-56368152D01*
X57837982Y-56470514D01*
X57800715Y-56547900D01*
X57773282Y-56591558D01*
X57744671Y-56645087D01*
X57660425Y-56771169D01*
X57609795Y-56851748D01*
X57589997Y-56876573D01*
X57570207Y-56906192D01*
X57434755Y-57071241D01*
X57386055Y-57132309D01*
X57378153Y-57140210D01*
X57370991Y-57148938D01*
X57148938Y-57370991D01*
X57140210Y-57378153D01*
X57132309Y-57386055D01*
X57071241Y-57434755D01*
X56906192Y-57570207D01*
X56876573Y-57589997D01*
X56851748Y-57609795D01*
X56771169Y-57660425D01*
X56645087Y-57744671D01*
X56591558Y-57773282D01*
X56547900Y-57800715D01*
X56470514Y-57837982D01*
X56368152Y-57892696D01*
X56287709Y-57926016D01*
X56224587Y-57956415D01*
X56158466Y-57979551D01*
X56078017Y-58012875D01*
X55966925Y-58046574D01*
X55885874Y-58074935D01*
X55835617Y-58086405D01*
X55777521Y-58104029D01*
X55628782Y-58133614D01*
X55536020Y-58154787D01*
X55504465Y-58158342D01*
X55469527Y-58165292D01*
X55257031Y-58186221D01*
X55179425Y-58194966D01*
X55168253Y-58194966D01*
X55157014Y-58196073D01*
X54842986Y-58196073D01*
X54831747Y-58194966D01*
X54820575Y-58194966D01*
X54742971Y-58186222D01*
X54530472Y-58165292D01*
X54495531Y-58158342D01*
X54463980Y-58154787D01*
X54371224Y-58133616D01*
X54222478Y-58104029D01*
X54164378Y-58086404D01*
X54114126Y-58074935D01*
X54033081Y-58046576D01*
X53921982Y-58012875D01*
X53841527Y-57979549D01*
X53775413Y-57956415D01*
X53712296Y-57926019D01*
X53631847Y-57892696D01*
X53529475Y-57837977D01*
X53452100Y-57800715D01*
X53408447Y-57773286D01*
X53354912Y-57744671D01*
X53228813Y-57660415D01*
X53148252Y-57609795D01*
X53123431Y-57590001D01*
X53093807Y-57570207D01*
X52928723Y-57434726D01*
X52867691Y-57386055D01*
X52859793Y-57378157D01*
X52851061Y-57370991D01*
X52629008Y-57148938D01*
X52621841Y-57140205D01*
X52613945Y-57132309D01*
X52565279Y-57071284D01*
X52429792Y-56906192D01*
X52409996Y-56876565D01*
X52390205Y-56851748D01*
X52339590Y-56771194D01*
X52255328Y-56645087D01*
X52226710Y-56591547D01*
X52199285Y-56547900D01*
X52162026Y-56470533D01*
X52107303Y-56368152D01*
X52073976Y-56287694D01*
X52043585Y-56224587D01*
X52020454Y-56158482D01*
X51987124Y-56078017D01*
X51953418Y-55966903D01*
X51925065Y-55885874D01*
X51913597Y-55835630D01*
X51895970Y-55777521D01*
X51866377Y-55628748D01*
X51845213Y-55536020D01*
X51841658Y-55504477D01*
X51834707Y-55469527D01*
X51813775Y-55257008D01*
X51805034Y-55179425D01*
X51805034Y-55168253D01*
X51803927Y-55157014D01*
X51803927Y-54842985D01*
X51805034Y-54831745D01*
X51805034Y-54820575D01*
X51813774Y-54742998D01*
X51834707Y-54530472D01*
X51841659Y-54495520D01*
X51845213Y-54463980D01*
X51866376Y-54371258D01*
X51895970Y-54222478D01*
X51913598Y-54164365D01*
X51925065Y-54114126D01*
X51953416Y-54033102D01*
X51987124Y-53921982D01*
X52020456Y-53841511D01*
X52043585Y-53775413D01*
X52073973Y-53712311D01*
X52107303Y-53631847D01*
X52162031Y-53529456D01*
X52199285Y-53452100D01*
X52226707Y-53408457D01*
X52255328Y-53354912D01*
X52339600Y-53228788D01*
X52390205Y-53148252D01*
X52409992Y-53123439D01*
X52429792Y-53093807D01*
X52565307Y-52928680D01*
X52613945Y-52867691D01*
X52621836Y-52859799D01*
X52629008Y-52851061D01*
X52851061Y-52629008D01*
X52859799Y-52621836D01*
X52867691Y-52613945D01*
X52928680Y-52565307D01*
X53093807Y-52429792D01*
X53123439Y-52409992D01*
X53148252Y-52390205D01*
X53228788Y-52339600D01*
X53354912Y-52255328D01*
X53408457Y-52226707D01*
X53452100Y-52199285D01*
X53529456Y-52162031D01*
X53631847Y-52107303D01*
X53712311Y-52073973D01*
X53775413Y-52043585D01*
X53841511Y-52020456D01*
X53921982Y-51987124D01*
X54033102Y-51953416D01*
X54114126Y-51925065D01*
X54164365Y-51913598D01*
X54222478Y-51895970D01*
X54371258Y-51866376D01*
X54463980Y-51845213D01*
X54495520Y-51841659D01*
X54530472Y-51834707D01*
X54742993Y-51813775D01*
X54820575Y-51805034D01*
X54831746Y-51805034D01*
X54842986Y-51803927D01*
X55157014Y-51803927D01*
X55168254Y-51805034D01*
G37*
G36*
X115168254Y-51805034D02*
G01*
X115179425Y-51805034D01*
X115257008Y-51813775D01*
X115469527Y-51834707D01*
X115504477Y-51841658D01*
X115536020Y-51845213D01*
X115628748Y-51866377D01*
X115777521Y-51895970D01*
X115835630Y-51913597D01*
X115885874Y-51925065D01*
X115966903Y-51953418D01*
X116078017Y-51987124D01*
X116158482Y-52020454D01*
X116224587Y-52043585D01*
X116287694Y-52073976D01*
X116368152Y-52107303D01*
X116470533Y-52162026D01*
X116547900Y-52199285D01*
X116591547Y-52226710D01*
X116645087Y-52255328D01*
X116771194Y-52339590D01*
X116851748Y-52390205D01*
X116876565Y-52409996D01*
X116906192Y-52429792D01*
X117071284Y-52565279D01*
X117132309Y-52613945D01*
X117140205Y-52621841D01*
X117148938Y-52629008D01*
X117370991Y-52851061D01*
X117378157Y-52859793D01*
X117386055Y-52867691D01*
X117434726Y-52928723D01*
X117570207Y-53093807D01*
X117590001Y-53123431D01*
X117609795Y-53148252D01*
X117660415Y-53228813D01*
X117744671Y-53354912D01*
X117773286Y-53408447D01*
X117800715Y-53452100D01*
X117837977Y-53529475D01*
X117892696Y-53631847D01*
X117926019Y-53712296D01*
X117956415Y-53775413D01*
X117979549Y-53841527D01*
X118012875Y-53921982D01*
X118046576Y-54033081D01*
X118074935Y-54114126D01*
X118086404Y-54164378D01*
X118104029Y-54222478D01*
X118133616Y-54371224D01*
X118154787Y-54463980D01*
X118158342Y-54495531D01*
X118165292Y-54530472D01*
X118186222Y-54742975D01*
X118194966Y-54820575D01*
X118194966Y-54831745D01*
X118196073Y-54842985D01*
X118196073Y-55157014D01*
X118194966Y-55168253D01*
X118194966Y-55179425D01*
X118186221Y-55257031D01*
X118165292Y-55469527D01*
X118158342Y-55504465D01*
X118154787Y-55536020D01*
X118133614Y-55628782D01*
X118104029Y-55777521D01*
X118086405Y-55835617D01*
X118074935Y-55885874D01*
X118046574Y-55966925D01*
X118012875Y-56078017D01*
X117979551Y-56158466D01*
X117956415Y-56224587D01*
X117926016Y-56287709D01*
X117892696Y-56368152D01*
X117837982Y-56470514D01*
X117800715Y-56547900D01*
X117773282Y-56591558D01*
X117744671Y-56645087D01*
X117660425Y-56771169D01*
X117609795Y-56851748D01*
X117589997Y-56876573D01*
X117570207Y-56906192D01*
X117434755Y-57071241D01*
X117386055Y-57132309D01*
X117378153Y-57140210D01*
X117370991Y-57148938D01*
X117148938Y-57370991D01*
X117140210Y-57378153D01*
X117132309Y-57386055D01*
X117071241Y-57434755D01*
X116906192Y-57570207D01*
X116876573Y-57589997D01*
X116851748Y-57609795D01*
X116771169Y-57660425D01*
X116645087Y-57744671D01*
X116591558Y-57773282D01*
X116547900Y-57800715D01*
X116470514Y-57837982D01*
X116368152Y-57892696D01*
X116287709Y-57926016D01*
X116224587Y-57956415D01*
X116158466Y-57979551D01*
X116078017Y-58012875D01*
X115966925Y-58046574D01*
X115885874Y-58074935D01*
X115835617Y-58086405D01*
X115777521Y-58104029D01*
X115628782Y-58133614D01*
X115536020Y-58154787D01*
X115504465Y-58158342D01*
X115469527Y-58165292D01*
X115257031Y-58186221D01*
X115179425Y-58194966D01*
X115168253Y-58194966D01*
X115157014Y-58196073D01*
X114842986Y-58196073D01*
X114831747Y-58194966D01*
X114820575Y-58194966D01*
X114742971Y-58186222D01*
X114530472Y-58165292D01*
X114495531Y-58158342D01*
X114463980Y-58154787D01*
X114371224Y-58133616D01*
X114222478Y-58104029D01*
X114164378Y-58086404D01*
X114114126Y-58074935D01*
X114033081Y-58046576D01*
X113921982Y-58012875D01*
X113841527Y-57979549D01*
X113775413Y-57956415D01*
X113712296Y-57926019D01*
X113631847Y-57892696D01*
X113529475Y-57837977D01*
X113452100Y-57800715D01*
X113408447Y-57773286D01*
X113354912Y-57744671D01*
X113228813Y-57660415D01*
X113148252Y-57609795D01*
X113123431Y-57590001D01*
X113093807Y-57570207D01*
X112928723Y-57434726D01*
X112867691Y-57386055D01*
X112859793Y-57378157D01*
X112851061Y-57370991D01*
X112629008Y-57148938D01*
X112621841Y-57140205D01*
X112613945Y-57132309D01*
X112565279Y-57071284D01*
X112429792Y-56906192D01*
X112409996Y-56876565D01*
X112390205Y-56851748D01*
X112339590Y-56771194D01*
X112255328Y-56645087D01*
X112226710Y-56591547D01*
X112199285Y-56547900D01*
X112162026Y-56470533D01*
X112107303Y-56368152D01*
X112073976Y-56287694D01*
X112043585Y-56224587D01*
X112020454Y-56158482D01*
X111987124Y-56078017D01*
X111953418Y-55966903D01*
X111925065Y-55885874D01*
X111913597Y-55835630D01*
X111895970Y-55777521D01*
X111866377Y-55628748D01*
X111845213Y-55536020D01*
X111841658Y-55504477D01*
X111834707Y-55469527D01*
X111813775Y-55257008D01*
X111805034Y-55179425D01*
X111805034Y-55168253D01*
X111803927Y-55157014D01*
X111803927Y-54842985D01*
X111805034Y-54831745D01*
X111805034Y-54820575D01*
X111813774Y-54742998D01*
X111834707Y-54530472D01*
X111841659Y-54495520D01*
X111845213Y-54463980D01*
X111866376Y-54371258D01*
X111895970Y-54222478D01*
X111913598Y-54164365D01*
X111925065Y-54114126D01*
X111953416Y-54033102D01*
X111987124Y-53921982D01*
X112020456Y-53841511D01*
X112043585Y-53775413D01*
X112073973Y-53712311D01*
X112107303Y-53631847D01*
X112162031Y-53529456D01*
X112199285Y-53452100D01*
X112226707Y-53408457D01*
X112255328Y-53354912D01*
X112339600Y-53228788D01*
X112390205Y-53148252D01*
X112409992Y-53123439D01*
X112429792Y-53093807D01*
X112565307Y-52928680D01*
X112613945Y-52867691D01*
X112621836Y-52859799D01*
X112629008Y-52851061D01*
X112851061Y-52629008D01*
X112859799Y-52621836D01*
X112867691Y-52613945D01*
X112928680Y-52565307D01*
X113093807Y-52429792D01*
X113123439Y-52409992D01*
X113148252Y-52390205D01*
X113228788Y-52339600D01*
X113354912Y-52255328D01*
X113408457Y-52226707D01*
X113452100Y-52199285D01*
X113529456Y-52162031D01*
X113631847Y-52107303D01*
X113712311Y-52073973D01*
X113775413Y-52043585D01*
X113841511Y-52020456D01*
X113921982Y-51987124D01*
X114033102Y-51953416D01*
X114114126Y-51925065D01*
X114164365Y-51913598D01*
X114222478Y-51895970D01*
X114371258Y-51866376D01*
X114463980Y-51845213D01*
X114495520Y-51841659D01*
X114530472Y-51834707D01*
X114742993Y-51813775D01*
X114820575Y-51805034D01*
X114831746Y-51805034D01*
X114842986Y-51803927D01*
X115157014Y-51803927D01*
X115168254Y-51805034D01*
G37*
G36*
X83376537Y-56540224D02*
G01*
X83441421Y-56583579D01*
X83484776Y-56648463D01*
X83500000Y-56725000D01*
X83500000Y-57275000D01*
X83484776Y-57351537D01*
X83441421Y-57416421D01*
X83376537Y-57459776D01*
X83300000Y-57475000D01*
X82900000Y-57475000D01*
X82823463Y-57459776D01*
X82758579Y-57416421D01*
X82715224Y-57351537D01*
X82700000Y-57275000D01*
X82700000Y-56725000D01*
X82715224Y-56648463D01*
X82758579Y-56583579D01*
X82823463Y-56540224D01*
X82900000Y-56525000D01*
X83300000Y-56525000D01*
X83376537Y-56540224D01*
G37*
G36*
X85026537Y-56540224D02*
G01*
X85091421Y-56583579D01*
X85134776Y-56648463D01*
X85150000Y-56725000D01*
X85150000Y-57275000D01*
X85134776Y-57351537D01*
X85091421Y-57416421D01*
X85026537Y-57459776D01*
X84950000Y-57475000D01*
X84550000Y-57475000D01*
X84473463Y-57459776D01*
X84408579Y-57416421D01*
X84365224Y-57351537D01*
X84350000Y-57275000D01*
X84350000Y-56725000D01*
X84365224Y-56648463D01*
X84408579Y-56583579D01*
X84473463Y-56540224D01*
X84550000Y-56525000D01*
X84950000Y-56525000D01*
X85026537Y-56540224D01*
G37*
G36*
X88929850Y-56500964D02*
G01*
X88974317Y-56506123D01*
X88989510Y-56512831D01*
X89011104Y-56517127D01*
X89034222Y-56532574D01*
X89051567Y-56540233D01*
X89063412Y-56552078D01*
X89084099Y-56565901D01*
X89097921Y-56586587D01*
X89109766Y-56598432D01*
X89117423Y-56615774D01*
X89132873Y-56638896D01*
X89137168Y-56660491D01*
X89143876Y-56675682D01*
X89149033Y-56720139D01*
X89150000Y-56725000D01*
X89150000Y-57175000D01*
X89149032Y-57179862D01*
X89143876Y-57224317D01*
X89137168Y-57239506D01*
X89132873Y-57261104D01*
X89117422Y-57284227D01*
X89109766Y-57301567D01*
X89097923Y-57313409D01*
X89084099Y-57334099D01*
X89063409Y-57347923D01*
X89051567Y-57359766D01*
X89034227Y-57367422D01*
X89011104Y-57382873D01*
X88989506Y-57387168D01*
X88974317Y-57393876D01*
X88929861Y-57399032D01*
X88925000Y-57400000D01*
X88425000Y-57400000D01*
X88420138Y-57399033D01*
X88375682Y-57393876D01*
X88360491Y-57387168D01*
X88338896Y-57382873D01*
X88315774Y-57367423D01*
X88298432Y-57359766D01*
X88286587Y-57347921D01*
X88265901Y-57334099D01*
X88252078Y-57313412D01*
X88240233Y-57301567D01*
X88232574Y-57284222D01*
X88217127Y-57261104D01*
X88212831Y-57239510D01*
X88206123Y-57224317D01*
X88200964Y-57179849D01*
X88200000Y-57175000D01*
X88200000Y-56725000D01*
X88200964Y-56720150D01*
X88206123Y-56675682D01*
X88212832Y-56660487D01*
X88217127Y-56638896D01*
X88232573Y-56615779D01*
X88240233Y-56598432D01*
X88252080Y-56586584D01*
X88265901Y-56565901D01*
X88286584Y-56552080D01*
X88298432Y-56540233D01*
X88315779Y-56532573D01*
X88338896Y-56517127D01*
X88360487Y-56512832D01*
X88375682Y-56506123D01*
X88420151Y-56500964D01*
X88425000Y-56500000D01*
X88925000Y-56500000D01*
X88929850Y-56500964D01*
G37*
G36*
X87026537Y-56515224D02*
G01*
X87091421Y-56558579D01*
X87134776Y-56623463D01*
X87150000Y-56700000D01*
X87150000Y-57100000D01*
X87134776Y-57176537D01*
X87091421Y-57241421D01*
X87026537Y-57284776D01*
X86950000Y-57300000D01*
X86400000Y-57300000D01*
X86323463Y-57284776D01*
X86258579Y-57241421D01*
X86215224Y-57176537D01*
X86200000Y-57100000D01*
X86200000Y-56700000D01*
X86215224Y-56623463D01*
X86258579Y-56558579D01*
X86323463Y-56515224D01*
X86400000Y-56500000D01*
X86950000Y-56500000D01*
X87026537Y-56515224D01*
G37*
G36*
X72711100Y-56075964D02*
G01*
X72759860Y-56081621D01*
X72776520Y-56088977D01*
X72799529Y-56093554D01*
X72824161Y-56110013D01*
X72843414Y-56118514D01*
X72856564Y-56131664D01*
X72878607Y-56146393D01*
X72893335Y-56168435D01*
X72906485Y-56181585D01*
X72914985Y-56200836D01*
X72931446Y-56225471D01*
X72936023Y-56248481D01*
X72943378Y-56265139D01*
X72949033Y-56313889D01*
X72950000Y-56318750D01*
X72950000Y-56806250D01*
X72949032Y-56811112D01*
X72943378Y-56859860D01*
X72936023Y-56876516D01*
X72931446Y-56899529D01*
X72914983Y-56924165D01*
X72906485Y-56943414D01*
X72893337Y-56956561D01*
X72878607Y-56978607D01*
X72856561Y-56993337D01*
X72843414Y-57006485D01*
X72824165Y-57014983D01*
X72799529Y-57031446D01*
X72776516Y-57036023D01*
X72759860Y-57043378D01*
X72711111Y-57049032D01*
X72706250Y-57050000D01*
X71793750Y-57050000D01*
X71788888Y-57049032D01*
X71740139Y-57043378D01*
X71723481Y-57036023D01*
X71700471Y-57031446D01*
X71675836Y-57014985D01*
X71656585Y-57006485D01*
X71643435Y-56993335D01*
X71621393Y-56978607D01*
X71606664Y-56956564D01*
X71593514Y-56943414D01*
X71585013Y-56924161D01*
X71568554Y-56899529D01*
X71563977Y-56876520D01*
X71556621Y-56859860D01*
X71550964Y-56811099D01*
X71550000Y-56806250D01*
X71550000Y-56318750D01*
X71550964Y-56313900D01*
X71556621Y-56265139D01*
X71563977Y-56248477D01*
X71568554Y-56225471D01*
X71585011Y-56200840D01*
X71593514Y-56181585D01*
X71606666Y-56168432D01*
X71621393Y-56146393D01*
X71643432Y-56131666D01*
X71656585Y-56118514D01*
X71675840Y-56110011D01*
X71700471Y-56093554D01*
X71723477Y-56088977D01*
X71740139Y-56081621D01*
X71788901Y-56075964D01*
X71793750Y-56075000D01*
X72706250Y-56075000D01*
X72711100Y-56075964D01*
G37*
G36*
X86942350Y-53800964D02*
G01*
X86992540Y-53806787D01*
X87009689Y-53814359D01*
X87033171Y-53819030D01*
X87058310Y-53835827D01*
X87078196Y-53844608D01*
X87091777Y-53858189D01*
X87114277Y-53873223D01*
X87129310Y-53895722D01*
X87142891Y-53909303D01*
X87151670Y-53929186D01*
X87168470Y-53954329D01*
X87173141Y-53977812D01*
X87180712Y-53994959D01*
X87186533Y-54045139D01*
X87187500Y-54050000D01*
X87187500Y-54950000D01*
X87186532Y-54954863D01*
X87180712Y-55005040D01*
X87173141Y-55022185D01*
X87168470Y-55045671D01*
X87151669Y-55070815D01*
X87142891Y-55090696D01*
X87129312Y-55104274D01*
X87114277Y-55126777D01*
X87091774Y-55141812D01*
X87078196Y-55155391D01*
X87058315Y-55164169D01*
X87033171Y-55180970D01*
X87009685Y-55185641D01*
X86992540Y-55193212D01*
X86942361Y-55199032D01*
X86937500Y-55200000D01*
X86412500Y-55200000D01*
X86407638Y-55199032D01*
X86357459Y-55193212D01*
X86340312Y-55185641D01*
X86316829Y-55180970D01*
X86291686Y-55164170D01*
X86271803Y-55155391D01*
X86258222Y-55141810D01*
X86235723Y-55126777D01*
X86220689Y-55104277D01*
X86207108Y-55090696D01*
X86198327Y-55070810D01*
X86181530Y-55045671D01*
X86176859Y-55022189D01*
X86169287Y-55005040D01*
X86163464Y-54954849D01*
X86162500Y-54950000D01*
X86162500Y-54050000D01*
X86163464Y-54045150D01*
X86169287Y-53994959D01*
X86176859Y-53977808D01*
X86181530Y-53954329D01*
X86198326Y-53929191D01*
X86207108Y-53909303D01*
X86220691Y-53895719D01*
X86235723Y-53873223D01*
X86258219Y-53858191D01*
X86271803Y-53844608D01*
X86291691Y-53835826D01*
X86316829Y-53819030D01*
X86340308Y-53814359D01*
X86357459Y-53806787D01*
X86407651Y-53800964D01*
X86412500Y-53800000D01*
X86937500Y-53800000D01*
X86942350Y-53800964D01*
G37*
G36*
X88767350Y-53800964D02*
G01*
X88817540Y-53806787D01*
X88834689Y-53814359D01*
X88858171Y-53819030D01*
X88883310Y-53835827D01*
X88903196Y-53844608D01*
X88916777Y-53858189D01*
X88939277Y-53873223D01*
X88954310Y-53895722D01*
X88967891Y-53909303D01*
X88976670Y-53929186D01*
X88993470Y-53954329D01*
X88998141Y-53977812D01*
X89005712Y-53994959D01*
X89011533Y-54045139D01*
X89012500Y-54050000D01*
X89012500Y-54950000D01*
X89011532Y-54954863D01*
X89005712Y-55005040D01*
X88998141Y-55022185D01*
X88993470Y-55045671D01*
X88976669Y-55070815D01*
X88967891Y-55090696D01*
X88954312Y-55104274D01*
X88939277Y-55126777D01*
X88916774Y-55141812D01*
X88903196Y-55155391D01*
X88883315Y-55164169D01*
X88858171Y-55180970D01*
X88834685Y-55185641D01*
X88817540Y-55193212D01*
X88767361Y-55199032D01*
X88762500Y-55200000D01*
X88237500Y-55200000D01*
X88232638Y-55199032D01*
X88182459Y-55193212D01*
X88165312Y-55185641D01*
X88141829Y-55180970D01*
X88116686Y-55164170D01*
X88096803Y-55155391D01*
X88083222Y-55141810D01*
X88060723Y-55126777D01*
X88045689Y-55104277D01*
X88032108Y-55090696D01*
X88023327Y-55070810D01*
X88006530Y-55045671D01*
X88001859Y-55022189D01*
X87994287Y-55005040D01*
X87988464Y-54954849D01*
X87987500Y-54950000D01*
X87987500Y-54050000D01*
X87988464Y-54045150D01*
X87994287Y-53994959D01*
X88001859Y-53977808D01*
X88006530Y-53954329D01*
X88023326Y-53929191D01*
X88032108Y-53909303D01*
X88045691Y-53895719D01*
X88060723Y-53873223D01*
X88083219Y-53858191D01*
X88096803Y-53844608D01*
X88116691Y-53835826D01*
X88141829Y-53819030D01*
X88165308Y-53814359D01*
X88182459Y-53806787D01*
X88232651Y-53800964D01*
X88237500Y-53800000D01*
X88762500Y-53800000D01*
X88767350Y-53800964D01*
G37*
G36*
X83790285Y-53043060D02*
G01*
X83971397Y-53118079D01*
X84134393Y-53226990D01*
X84273010Y-53365607D01*
X84381921Y-53528603D01*
X84456940Y-53709715D01*
X84495185Y-53901983D01*
X84495185Y-54098017D01*
X84456940Y-54290285D01*
X84381921Y-54471397D01*
X84273010Y-54634393D01*
X84134393Y-54773010D01*
X83971397Y-54881921D01*
X83790285Y-54956940D01*
X83598017Y-54995185D01*
X83401983Y-54995185D01*
X83209715Y-54956940D01*
X83028603Y-54881921D01*
X82865607Y-54773010D01*
X82726990Y-54634393D01*
X82618079Y-54471397D01*
X82543060Y-54290285D01*
X82504815Y-54098017D01*
X82504815Y-53901983D01*
X82543060Y-53709715D01*
X82618079Y-53528603D01*
X82726990Y-53365607D01*
X82865607Y-53226990D01*
X83028603Y-53118079D01*
X83209715Y-53043060D01*
X83401983Y-53004815D01*
X83598017Y-53004815D01*
X83790285Y-53043060D01*
G37*
G36*
X72451537Y-53977724D02*
G01*
X72516421Y-54021079D01*
X72559776Y-54085963D01*
X72575000Y-54162500D01*
X72575000Y-54712500D01*
X72559776Y-54789037D01*
X72516421Y-54853921D01*
X72451537Y-54897276D01*
X72375000Y-54912500D01*
X71975000Y-54912500D01*
X71898463Y-54897276D01*
X71833579Y-54853921D01*
X71790224Y-54789037D01*
X71775000Y-54712500D01*
X71775000Y-54162500D01*
X71790224Y-54085963D01*
X71833579Y-54021079D01*
X71898463Y-53977724D01*
X71975000Y-53962500D01*
X72375000Y-53962500D01*
X72451537Y-53977724D01*
G37*
G36*
X74101537Y-53977724D02*
G01*
X74166421Y-54021079D01*
X74209776Y-54085963D01*
X74225000Y-54162500D01*
X74225000Y-54712500D01*
X74209776Y-54789037D01*
X74166421Y-54853921D01*
X74101537Y-54897276D01*
X74025000Y-54912500D01*
X73625000Y-54912500D01*
X73548463Y-54897276D01*
X73483579Y-54853921D01*
X73440224Y-54789037D01*
X73425000Y-54712500D01*
X73425000Y-54162500D01*
X73440224Y-54085963D01*
X73483579Y-54021079D01*
X73548463Y-53977724D01*
X73625000Y-53962500D01*
X74025000Y-53962500D01*
X74101537Y-53977724D01*
G37*
M02*
