%TF.GenerationSoftware,KiCad,Pcbnew,9.0.1*%
%TF.CreationDate,2025-04-02T11:20:32-04:00*%
%TF.ProjectId,Colossus_TI_rev_A,436f6c6f-7373-4757-935f-54495f726576,rev?*%
%TF.SameCoordinates,Original*%
%TF.FileFunction,Drillmap*%
%TF.FilePolarity,Positive*%
%FSLAX45Y45*%
G04 Gerber Fmt 4.5, Leading zero omitted, Abs format (unit mm)*
G04 Created by KiCad (PCBNEW 9.0.1) date 2025-04-02 11:20:32*
%MOMM*%
%LPD*%
G01*
G04 APERTURE LIST*
%ADD10C,0.038100*%
%ADD11C,0.200000*%
%ADD12C,0.100000*%
%ADD13C,0.160020*%
%ADD14C,0.320000*%
G04 APERTURE END LIST*
D10*
X5000000Y-5000000D02*
X12000000Y-5000000D01*
X12000000Y-12000000D01*
X5000000Y-12000000D01*
X5000000Y-5000000D01*
D11*
D12*
X5485000Y-9710000D02*
X5515000Y-9740000D01*
X5515000Y-9710000D02*
X5485000Y-9740000D01*
X5910000Y-7885000D02*
X5940000Y-7915000D01*
X5940000Y-7885000D02*
X5910000Y-7915000D01*
X5960000Y-9510000D02*
X5990000Y-9540000D01*
X5990000Y-9510000D02*
X5960000Y-9540000D01*
X6135000Y-6685000D02*
X6165000Y-6715000D01*
X6165000Y-6685000D02*
X6135000Y-6715000D01*
X6535000Y-10010000D02*
X6565000Y-10040000D01*
X6565000Y-10010000D02*
X6535000Y-10040000D01*
X6660000Y-10335000D02*
X6690000Y-10365000D01*
X6690000Y-10335000D02*
X6660000Y-10365000D01*
X7060000Y-11460000D02*
X7090000Y-11490000D01*
X7090000Y-11460000D02*
X7060000Y-11490000D01*
X7535000Y-9960000D02*
X7565000Y-9990000D01*
X7565000Y-9960000D02*
X7535000Y-9990000D01*
X7535000Y-10160000D02*
X7565000Y-10190000D01*
X7565000Y-10160000D02*
X7535000Y-10190000D01*
X7535000Y-10360000D02*
X7565000Y-10390000D01*
X7565000Y-10360000D02*
X7535000Y-10390000D01*
X7535000Y-10560000D02*
X7565000Y-10590000D01*
X7565000Y-10560000D02*
X7535000Y-10590000D01*
X7610000Y-5360000D02*
X7640000Y-5390000D01*
X7640000Y-5360000D02*
X7610000Y-5390000D01*
X7635000Y-10060000D02*
X7665000Y-10090000D01*
X7665000Y-10060000D02*
X7635000Y-10090000D01*
X7635000Y-10260000D02*
X7665000Y-10290000D01*
X7665000Y-10260000D02*
X7635000Y-10290000D01*
X7635000Y-10460000D02*
X7665000Y-10490000D01*
X7665000Y-10460000D02*
X7635000Y-10490000D01*
X7735000Y-9960000D02*
X7765000Y-9990000D01*
X7765000Y-9960000D02*
X7735000Y-9990000D01*
X7735000Y-10160000D02*
X7765000Y-10190000D01*
X7765000Y-10160000D02*
X7735000Y-10190000D01*
X7735000Y-10360000D02*
X7765000Y-10390000D01*
X7765000Y-10360000D02*
X7735000Y-10390000D01*
X7735000Y-10560000D02*
X7765000Y-10590000D01*
X7765000Y-10560000D02*
X7735000Y-10590000D01*
X8285000Y-5810000D02*
X8315000Y-5840000D01*
X8315000Y-5810000D02*
X8285000Y-5840000D01*
X8435000Y-10660000D02*
X8465000Y-10690000D01*
X8465000Y-10660000D02*
X8435000Y-10690000D01*
X8460000Y-10460000D02*
X8490000Y-10490000D01*
X8490000Y-10460000D02*
X8460000Y-10490000D01*
X8568085Y-10390587D02*
X8598085Y-10420587D01*
X8598085Y-10390587D02*
X8568085Y-10420587D01*
X9060000Y-5610000D02*
X9090000Y-5640000D01*
X9090000Y-5610000D02*
X9060000Y-5640000D01*
X9135000Y-10510000D02*
X9165000Y-10540000D01*
X9165000Y-10510000D02*
X9135000Y-10540000D01*
X9160000Y-7310000D02*
X9190000Y-7340000D01*
X9190000Y-7310000D02*
X9160000Y-7340000D01*
X9160000Y-7460000D02*
X9190000Y-7490000D01*
X9190000Y-7460000D02*
X9160000Y-7490000D01*
X9660000Y-7560000D02*
X9690000Y-7590000D01*
X9690000Y-7560000D02*
X9660000Y-7590000D01*
X9910000Y-7410000D02*
X9940000Y-7440000D01*
X9940000Y-7410000D02*
X9910000Y-7440000D01*
X9985000Y-7135000D02*
X10015000Y-7165000D01*
X10015000Y-7135000D02*
X9985000Y-7165000D01*
X10210000Y-9810000D02*
X10240000Y-9840000D01*
X10240000Y-9810000D02*
X10210000Y-9840000D01*
X10260000Y-7035000D02*
X10290000Y-7065000D01*
X10290000Y-7035000D02*
X10260000Y-7065000D01*
X10260000Y-9235000D02*
X10290000Y-9265000D01*
X10290000Y-9235000D02*
X10260000Y-9265000D01*
X10260000Y-9410000D02*
X10290000Y-9440000D01*
X10290000Y-9410000D02*
X10260000Y-9440000D01*
X10260000Y-9585000D02*
X10290000Y-9615000D01*
X10290000Y-9585000D02*
X10260000Y-9615000D01*
X10285000Y-7185000D02*
X10315000Y-7215000D01*
X10315000Y-7185000D02*
X10285000Y-7215000D01*
X10335000Y-7085000D02*
X10365000Y-7115000D01*
X10365000Y-7085000D02*
X10335000Y-7115000D01*
X10385000Y-8035000D02*
X10415000Y-8065000D01*
X10415000Y-8035000D02*
X10385000Y-8065000D01*
X10635000Y-9135000D02*
X10665000Y-9165000D01*
X10665000Y-9135000D02*
X10635000Y-9165000D01*
X10635000Y-9710000D02*
X10665000Y-9740000D01*
X10665000Y-9710000D02*
X10635000Y-9740000D01*
X5285000Y-5500000D02*
G75*
G02*
X5235000Y-5500000I-25000J0D01*
G01*
X5235000Y-5500000D02*
G75*
G02*
X5285000Y-5500000I25000J0D01*
G01*
X5285000Y-11500000D02*
G75*
G02*
X5235000Y-11500000I-25000J0D01*
G01*
X5235000Y-11500000D02*
G75*
G02*
X5285000Y-11500000I25000J0D01*
G01*
X5355294Y-5330294D02*
G75*
G02*
X5305294Y-5330294I-25000J0D01*
G01*
X5305294Y-5330294D02*
G75*
G02*
X5355294Y-5330294I25000J0D01*
G01*
X5355294Y-5669706D02*
G75*
G02*
X5305294Y-5669706I-25000J0D01*
G01*
X5305294Y-5669706D02*
G75*
G02*
X5355294Y-5669706I25000J0D01*
G01*
X5355294Y-11330294D02*
G75*
G02*
X5305294Y-11330294I-25000J0D01*
G01*
X5305294Y-11330294D02*
G75*
G02*
X5355294Y-11330294I25000J0D01*
G01*
X5355294Y-11669706D02*
G75*
G02*
X5305294Y-11669706I-25000J0D01*
G01*
X5305294Y-11669706D02*
G75*
G02*
X5355294Y-11669706I25000J0D01*
G01*
X5525000Y-5260000D02*
G75*
G02*
X5475000Y-5260000I-25000J0D01*
G01*
X5475000Y-5260000D02*
G75*
G02*
X5525000Y-5260000I25000J0D01*
G01*
X5525000Y-5740000D02*
G75*
G02*
X5475000Y-5740000I-25000J0D01*
G01*
X5475000Y-5740000D02*
G75*
G02*
X5525000Y-5740000I25000J0D01*
G01*
X5525000Y-11260000D02*
G75*
G02*
X5475000Y-11260000I-25000J0D01*
G01*
X5475000Y-11260000D02*
G75*
G02*
X5525000Y-11260000I25000J0D01*
G01*
X5525000Y-11740000D02*
G75*
G02*
X5475000Y-11740000I-25000J0D01*
G01*
X5475000Y-11740000D02*
G75*
G02*
X5525000Y-11740000I25000J0D01*
G01*
X5694706Y-5330294D02*
G75*
G02*
X5644706Y-5330294I-25000J0D01*
G01*
X5644706Y-5330294D02*
G75*
G02*
X5694706Y-5330294I25000J0D01*
G01*
X5694706Y-5669706D02*
G75*
G02*
X5644706Y-5669706I-25000J0D01*
G01*
X5644706Y-5669706D02*
G75*
G02*
X5694706Y-5669706I25000J0D01*
G01*
X5694706Y-11330294D02*
G75*
G02*
X5644706Y-11330294I-25000J0D01*
G01*
X5644706Y-11330294D02*
G75*
G02*
X5694706Y-11330294I25000J0D01*
G01*
X5694706Y-11669706D02*
G75*
G02*
X5644706Y-11669706I-25000J0D01*
G01*
X5644706Y-11669706D02*
G75*
G02*
X5694706Y-11669706I25000J0D01*
G01*
X5765000Y-5500000D02*
G75*
G02*
X5715000Y-5500000I-25000J0D01*
G01*
X5715000Y-5500000D02*
G75*
G02*
X5765000Y-5500000I25000J0D01*
G01*
X5765000Y-11500000D02*
G75*
G02*
X5715000Y-11500000I-25000J0D01*
G01*
X5715000Y-11500000D02*
G75*
G02*
X5765000Y-11500000I25000J0D01*
G01*
X11285000Y-5500000D02*
G75*
G02*
X11235000Y-5500000I-25000J0D01*
G01*
X11235000Y-5500000D02*
G75*
G02*
X11285000Y-5500000I25000J0D01*
G01*
X11285000Y-11500000D02*
G75*
G02*
X11235000Y-11500000I-25000J0D01*
G01*
X11235000Y-11500000D02*
G75*
G02*
X11285000Y-11500000I25000J0D01*
G01*
X11355294Y-5330294D02*
G75*
G02*
X11305294Y-5330294I-25000J0D01*
G01*
X11305294Y-5330294D02*
G75*
G02*
X11355294Y-5330294I25000J0D01*
G01*
X11355294Y-5669706D02*
G75*
G02*
X11305294Y-5669706I-25000J0D01*
G01*
X11305294Y-5669706D02*
G75*
G02*
X11355294Y-5669706I25000J0D01*
G01*
X11355294Y-11330294D02*
G75*
G02*
X11305294Y-11330294I-25000J0D01*
G01*
X11305294Y-11330294D02*
G75*
G02*
X11355294Y-11330294I25000J0D01*
G01*
X11355294Y-11669706D02*
G75*
G02*
X11305294Y-11669706I-25000J0D01*
G01*
X11305294Y-11669706D02*
G75*
G02*
X11355294Y-11669706I25000J0D01*
G01*
X11525000Y-5260000D02*
G75*
G02*
X11475000Y-5260000I-25000J0D01*
G01*
X11475000Y-5260000D02*
G75*
G02*
X11525000Y-5260000I25000J0D01*
G01*
X11525000Y-5740000D02*
G75*
G02*
X11475000Y-5740000I-25000J0D01*
G01*
X11475000Y-5740000D02*
G75*
G02*
X11525000Y-5740000I25000J0D01*
G01*
X11525000Y-11260000D02*
G75*
G02*
X11475000Y-11260000I-25000J0D01*
G01*
X11475000Y-11260000D02*
G75*
G02*
X11525000Y-11260000I25000J0D01*
G01*
X11525000Y-11740000D02*
G75*
G02*
X11475000Y-11740000I-25000J0D01*
G01*
X11475000Y-11740000D02*
G75*
G02*
X11525000Y-11740000I25000J0D01*
G01*
X11694706Y-5330294D02*
G75*
G02*
X11644706Y-5330294I-25000J0D01*
G01*
X11644706Y-5330294D02*
G75*
G02*
X11694706Y-5330294I25000J0D01*
G01*
X11694706Y-5669706D02*
G75*
G02*
X11644706Y-5669706I-25000J0D01*
G01*
X11644706Y-5669706D02*
G75*
G02*
X11694706Y-5669706I25000J0D01*
G01*
X11694706Y-11330294D02*
G75*
G02*
X11644706Y-11330294I-25000J0D01*
G01*
X11644706Y-11330294D02*
G75*
G02*
X11694706Y-11330294I25000J0D01*
G01*
X11694706Y-11669706D02*
G75*
G02*
X11644706Y-11669706I-25000J0D01*
G01*
X11644706Y-11669706D02*
G75*
G02*
X11694706Y-11669706I25000J0D01*
G01*
X11765000Y-5500000D02*
G75*
G02*
X11715000Y-5500000I-25000J0D01*
G01*
X11715000Y-5500000D02*
G75*
G02*
X11765000Y-5500000I25000J0D01*
G01*
X11765000Y-11500000D02*
G75*
G02*
X11715000Y-11500000I-25000J0D01*
G01*
X11715000Y-11500000D02*
G75*
G02*
X11765000Y-11500000I25000J0D01*
G01*
X5339510Y-7000000D02*
X5339510Y-7100000D01*
X5289510Y-7050000D02*
X5389510Y-7050000D01*
X5339510Y-7650000D02*
X5339510Y-7750000D01*
X5289510Y-7700000D02*
X5389510Y-7700000D01*
X5789510Y-7000000D02*
X5789510Y-7100000D01*
X5739510Y-7050000D02*
X5839510Y-7050000D01*
X5789510Y-7650000D02*
X5789510Y-7750000D01*
X5739510Y-7700000D02*
X5839510Y-7700000D01*
X5360356Y-10131356D02*
X5360356Y-10060644D01*
X5289644Y-10060644D01*
X5289644Y-10131356D01*
X5360356Y-10131356D01*
X5360356Y-10385356D02*
X5360356Y-10314644D01*
X5289644Y-10314644D01*
X5289644Y-10385356D01*
X5360356Y-10385356D01*
X6635356Y-6735356D02*
X6635356Y-6664644D01*
X6564644Y-6664644D01*
X6564644Y-6735356D01*
X6635356Y-6735356D01*
X7110356Y-11785356D02*
X7110356Y-11714644D01*
X7039644Y-11714644D01*
X7039644Y-11785356D01*
X7110356Y-11785356D01*
X7364356Y-11785356D02*
X7364356Y-11714644D01*
X7293644Y-11714644D01*
X7293644Y-11785356D01*
X7364356Y-11785356D01*
X7735356Y-11285356D02*
X7735356Y-11214644D01*
X7664644Y-11214644D01*
X7664644Y-11285356D01*
X7735356Y-11285356D01*
X8385356Y-5435356D02*
X8385356Y-5364644D01*
X8314644Y-5364644D01*
X8314644Y-5435356D01*
X8385356Y-5435356D01*
X8635356Y-9185356D02*
X8635356Y-9114644D01*
X8564644Y-9114644D01*
X8564644Y-9185356D01*
X8635356Y-9185356D01*
X9535356Y-9735356D02*
X9535356Y-9664644D01*
X9464644Y-9664644D01*
X9464644Y-9735356D01*
X9535356Y-9735356D01*
X11785356Y-6605356D02*
X11785356Y-6534644D01*
X11714644Y-6534644D01*
X11714644Y-6605356D01*
X11785356Y-6605356D01*
X11785356Y-6859356D02*
X11785356Y-6788644D01*
X11714644Y-6788644D01*
X11714644Y-6859356D01*
X11785356Y-6859356D01*
X11785356Y-7113356D02*
X11785356Y-7042644D01*
X11714644Y-7042644D01*
X11714644Y-7113356D01*
X11785356Y-7113356D01*
X11785356Y-7367356D02*
X11785356Y-7296644D01*
X11714644Y-7296644D01*
X11714644Y-7367356D01*
X11785356Y-7367356D01*
X11810356Y-8152356D02*
X11810356Y-8081644D01*
X11739644Y-8081644D01*
X11739644Y-8152356D01*
X11810356Y-8152356D01*
X11810356Y-8406356D02*
X11810356Y-8335644D01*
X11739644Y-8335644D01*
X11739644Y-8406356D01*
X11810356Y-8406356D01*
X11810356Y-8660356D02*
X11810356Y-8589644D01*
X11739644Y-8589644D01*
X11739644Y-8660356D01*
X11810356Y-8660356D01*
X11832856Y-9106356D02*
X11832856Y-9035644D01*
X11762144Y-9035644D01*
X11762144Y-9106356D01*
X11832856Y-9106356D01*
X11832856Y-9360356D02*
X11832856Y-9289644D01*
X11762144Y-9289644D01*
X11762144Y-9360356D01*
X11832856Y-9360356D01*
D13*
X8185200Y-11655010D02*
X8265210Y-11575000D01*
X8185200Y-11494990D01*
X8105190Y-11575000D01*
X8185200Y-11655010D01*
X8655100Y-11655010D02*
X8735110Y-11575000D01*
X8655100Y-11494990D01*
X8575090Y-11575000D01*
X8655100Y-11655010D01*
X9125000Y-11655010D02*
X9205010Y-11575000D01*
X9125000Y-11494990D01*
X9044990Y-11575000D01*
X9125000Y-11655010D01*
D14*
X5340000Y-5340000D02*
X5660000Y-5660000D01*
X5660000Y-5340000D02*
X5340000Y-5660000D01*
X5660000Y-5500000D02*
G75*
G02*
X5340000Y-5500000I-160000J0D01*
G01*
X5340000Y-5500000D02*
G75*
G02*
X5660000Y-5500000I160000J0D01*
G01*
X5340000Y-11340000D02*
X5660000Y-11660000D01*
X5660000Y-11340000D02*
X5340000Y-11660000D01*
X5660000Y-11500000D02*
G75*
G02*
X5340000Y-11500000I-160000J0D01*
G01*
X5340000Y-11500000D02*
G75*
G02*
X5660000Y-11500000I160000J0D01*
G01*
X11340000Y-5340000D02*
X11660000Y-5660000D01*
X11660000Y-5340000D02*
X11340000Y-5660000D01*
X11660000Y-5500000D02*
G75*
G02*
X11340000Y-5500000I-160000J0D01*
G01*
X11340000Y-5500000D02*
G75*
G02*
X11660000Y-5500000I160000J0D01*
G01*
X11340000Y-11340000D02*
X11660000Y-11660000D01*
X11660000Y-11340000D02*
X11340000Y-11660000D01*
X11660000Y-11500000D02*
G75*
G02*
X11340000Y-11500000I-160000J0D01*
G01*
X11340000Y-11500000D02*
G75*
G02*
X11660000Y-11500000I160000J0D01*
G01*
D11*
X5258872Y-12313389D02*
X5258872Y-12113389D01*
X5258872Y-12113389D02*
X5306491Y-12113389D01*
X5306491Y-12113389D02*
X5335062Y-12122913D01*
X5335062Y-12122913D02*
X5354110Y-12141960D01*
X5354110Y-12141960D02*
X5363634Y-12161008D01*
X5363634Y-12161008D02*
X5373158Y-12199103D01*
X5373158Y-12199103D02*
X5373158Y-12227674D01*
X5373158Y-12227674D02*
X5363634Y-12265770D01*
X5363634Y-12265770D02*
X5354110Y-12284817D01*
X5354110Y-12284817D02*
X5335062Y-12303865D01*
X5335062Y-12303865D02*
X5306491Y-12313389D01*
X5306491Y-12313389D02*
X5258872Y-12313389D01*
X5458872Y-12313389D02*
X5458872Y-12180055D01*
X5458872Y-12218151D02*
X5468396Y-12199103D01*
X5468396Y-12199103D02*
X5477919Y-12189579D01*
X5477919Y-12189579D02*
X5496967Y-12180055D01*
X5496967Y-12180055D02*
X5516015Y-12180055D01*
X5582681Y-12313389D02*
X5582681Y-12180055D01*
X5582681Y-12113389D02*
X5573158Y-12122913D01*
X5573158Y-12122913D02*
X5582681Y-12132436D01*
X5582681Y-12132436D02*
X5592205Y-12122913D01*
X5592205Y-12122913D02*
X5582681Y-12113389D01*
X5582681Y-12113389D02*
X5582681Y-12132436D01*
X5706491Y-12313389D02*
X5687443Y-12303865D01*
X5687443Y-12303865D02*
X5677919Y-12284817D01*
X5677919Y-12284817D02*
X5677919Y-12113389D01*
X5811253Y-12313389D02*
X5792205Y-12303865D01*
X5792205Y-12303865D02*
X5782681Y-12284817D01*
X5782681Y-12284817D02*
X5782681Y-12113389D01*
X6039824Y-12313389D02*
X6039824Y-12113389D01*
X6039824Y-12113389D02*
X6106491Y-12256246D01*
X6106491Y-12256246D02*
X6173157Y-12113389D01*
X6173157Y-12113389D02*
X6173157Y-12313389D01*
X6354110Y-12313389D02*
X6354110Y-12208627D01*
X6354110Y-12208627D02*
X6344586Y-12189579D01*
X6344586Y-12189579D02*
X6325538Y-12180055D01*
X6325538Y-12180055D02*
X6287443Y-12180055D01*
X6287443Y-12180055D02*
X6268396Y-12189579D01*
X6354110Y-12303865D02*
X6335062Y-12313389D01*
X6335062Y-12313389D02*
X6287443Y-12313389D01*
X6287443Y-12313389D02*
X6268396Y-12303865D01*
X6268396Y-12303865D02*
X6258872Y-12284817D01*
X6258872Y-12284817D02*
X6258872Y-12265770D01*
X6258872Y-12265770D02*
X6268396Y-12246722D01*
X6268396Y-12246722D02*
X6287443Y-12237198D01*
X6287443Y-12237198D02*
X6335062Y-12237198D01*
X6335062Y-12237198D02*
X6354110Y-12227674D01*
X6449348Y-12180055D02*
X6449348Y-12380055D01*
X6449348Y-12189579D02*
X6468396Y-12180055D01*
X6468396Y-12180055D02*
X6506491Y-12180055D01*
X6506491Y-12180055D02*
X6525538Y-12189579D01*
X6525538Y-12189579D02*
X6535062Y-12199103D01*
X6535062Y-12199103D02*
X6544586Y-12218151D01*
X6544586Y-12218151D02*
X6544586Y-12275293D01*
X6544586Y-12275293D02*
X6535062Y-12294341D01*
X6535062Y-12294341D02*
X6525538Y-12303865D01*
X6525538Y-12303865D02*
X6506491Y-12313389D01*
X6506491Y-12313389D02*
X6468396Y-12313389D01*
X6468396Y-12313389D02*
X6449348Y-12303865D01*
X6630300Y-12294341D02*
X6639824Y-12303865D01*
X6639824Y-12303865D02*
X6630300Y-12313389D01*
X6630300Y-12313389D02*
X6620777Y-12303865D01*
X6620777Y-12303865D02*
X6630300Y-12294341D01*
X6630300Y-12294341D02*
X6630300Y-12313389D01*
X6630300Y-12189579D02*
X6639824Y-12199103D01*
X6639824Y-12199103D02*
X6630300Y-12208627D01*
X6630300Y-12208627D02*
X6620777Y-12199103D01*
X6620777Y-12199103D02*
X6630300Y-12189579D01*
X6630300Y-12189579D02*
X6630300Y-12208627D01*
D12*
X4968095Y-12626905D02*
X4998095Y-12656905D01*
X4998095Y-12626905D02*
X4968095Y-12656905D01*
D11*
X5296967Y-12533389D02*
X5316015Y-12533389D01*
X5316015Y-12533389D02*
X5335062Y-12542913D01*
X5335062Y-12542913D02*
X5344586Y-12552436D01*
X5344586Y-12552436D02*
X5354110Y-12571484D01*
X5354110Y-12571484D02*
X5363634Y-12609579D01*
X5363634Y-12609579D02*
X5363634Y-12657198D01*
X5363634Y-12657198D02*
X5354110Y-12695293D01*
X5354110Y-12695293D02*
X5344586Y-12714341D01*
X5344586Y-12714341D02*
X5335062Y-12723865D01*
X5335062Y-12723865D02*
X5316015Y-12733389D01*
X5316015Y-12733389D02*
X5296967Y-12733389D01*
X5296967Y-12733389D02*
X5277919Y-12723865D01*
X5277919Y-12723865D02*
X5268396Y-12714341D01*
X5268396Y-12714341D02*
X5258872Y-12695293D01*
X5258872Y-12695293D02*
X5249348Y-12657198D01*
X5249348Y-12657198D02*
X5249348Y-12609579D01*
X5249348Y-12609579D02*
X5258872Y-12571484D01*
X5258872Y-12571484D02*
X5268396Y-12552436D01*
X5268396Y-12552436D02*
X5277919Y-12542913D01*
X5277919Y-12542913D02*
X5296967Y-12533389D01*
X5449348Y-12714341D02*
X5458872Y-12723865D01*
X5458872Y-12723865D02*
X5449348Y-12733389D01*
X5449348Y-12733389D02*
X5439824Y-12723865D01*
X5439824Y-12723865D02*
X5449348Y-12714341D01*
X5449348Y-12714341D02*
X5449348Y-12733389D01*
X5525539Y-12533389D02*
X5649348Y-12533389D01*
X5649348Y-12533389D02*
X5582681Y-12609579D01*
X5582681Y-12609579D02*
X5611253Y-12609579D01*
X5611253Y-12609579D02*
X5630300Y-12619103D01*
X5630300Y-12619103D02*
X5639824Y-12628627D01*
X5639824Y-12628627D02*
X5649348Y-12647674D01*
X5649348Y-12647674D02*
X5649348Y-12695293D01*
X5649348Y-12695293D02*
X5639824Y-12714341D01*
X5639824Y-12714341D02*
X5630300Y-12723865D01*
X5630300Y-12723865D02*
X5611253Y-12733389D01*
X5611253Y-12733389D02*
X5554110Y-12733389D01*
X5554110Y-12733389D02*
X5535062Y-12723865D01*
X5535062Y-12723865D02*
X5525539Y-12714341D01*
X5773157Y-12533389D02*
X5792205Y-12533389D01*
X5792205Y-12533389D02*
X5811253Y-12542913D01*
X5811253Y-12542913D02*
X5820777Y-12552436D01*
X5820777Y-12552436D02*
X5830300Y-12571484D01*
X5830300Y-12571484D02*
X5839824Y-12609579D01*
X5839824Y-12609579D02*
X5839824Y-12657198D01*
X5839824Y-12657198D02*
X5830300Y-12695293D01*
X5830300Y-12695293D02*
X5820777Y-12714341D01*
X5820777Y-12714341D02*
X5811253Y-12723865D01*
X5811253Y-12723865D02*
X5792205Y-12733389D01*
X5792205Y-12733389D02*
X5773157Y-12733389D01*
X5773157Y-12733389D02*
X5754110Y-12723865D01*
X5754110Y-12723865D02*
X5744586Y-12714341D01*
X5744586Y-12714341D02*
X5735062Y-12695293D01*
X5735062Y-12695293D02*
X5725538Y-12657198D01*
X5725538Y-12657198D02*
X5725538Y-12609579D01*
X5725538Y-12609579D02*
X5735062Y-12571484D01*
X5735062Y-12571484D02*
X5744586Y-12552436D01*
X5744586Y-12552436D02*
X5754110Y-12542913D01*
X5754110Y-12542913D02*
X5773157Y-12533389D01*
X5963634Y-12533389D02*
X5982681Y-12533389D01*
X5982681Y-12533389D02*
X6001729Y-12542913D01*
X6001729Y-12542913D02*
X6011253Y-12552436D01*
X6011253Y-12552436D02*
X6020777Y-12571484D01*
X6020777Y-12571484D02*
X6030300Y-12609579D01*
X6030300Y-12609579D02*
X6030300Y-12657198D01*
X6030300Y-12657198D02*
X6020777Y-12695293D01*
X6020777Y-12695293D02*
X6011253Y-12714341D01*
X6011253Y-12714341D02*
X6001729Y-12723865D01*
X6001729Y-12723865D02*
X5982681Y-12733389D01*
X5982681Y-12733389D02*
X5963634Y-12733389D01*
X5963634Y-12733389D02*
X5944586Y-12723865D01*
X5944586Y-12723865D02*
X5935062Y-12714341D01*
X5935062Y-12714341D02*
X5925538Y-12695293D01*
X5925538Y-12695293D02*
X5916015Y-12657198D01*
X5916015Y-12657198D02*
X5916015Y-12609579D01*
X5916015Y-12609579D02*
X5925538Y-12571484D01*
X5925538Y-12571484D02*
X5935062Y-12552436D01*
X5935062Y-12552436D02*
X5944586Y-12542913D01*
X5944586Y-12542913D02*
X5963634Y-12533389D01*
X6116015Y-12733389D02*
X6116015Y-12600055D01*
X6116015Y-12619103D02*
X6125538Y-12609579D01*
X6125538Y-12609579D02*
X6144586Y-12600055D01*
X6144586Y-12600055D02*
X6173158Y-12600055D01*
X6173158Y-12600055D02*
X6192205Y-12609579D01*
X6192205Y-12609579D02*
X6201729Y-12628627D01*
X6201729Y-12628627D02*
X6201729Y-12733389D01*
X6201729Y-12628627D02*
X6211253Y-12609579D01*
X6211253Y-12609579D02*
X6230300Y-12600055D01*
X6230300Y-12600055D02*
X6258872Y-12600055D01*
X6258872Y-12600055D02*
X6277919Y-12609579D01*
X6277919Y-12609579D02*
X6287443Y-12628627D01*
X6287443Y-12628627D02*
X6287443Y-12733389D01*
X6382681Y-12733389D02*
X6382681Y-12600055D01*
X6382681Y-12619103D02*
X6392205Y-12609579D01*
X6392205Y-12609579D02*
X6411253Y-12600055D01*
X6411253Y-12600055D02*
X6439824Y-12600055D01*
X6439824Y-12600055D02*
X6458872Y-12609579D01*
X6458872Y-12609579D02*
X6468396Y-12628627D01*
X6468396Y-12628627D02*
X6468396Y-12733389D01*
X6468396Y-12628627D02*
X6477919Y-12609579D01*
X6477919Y-12609579D02*
X6496967Y-12600055D01*
X6496967Y-12600055D02*
X6525538Y-12600055D01*
X6525538Y-12600055D02*
X6544586Y-12609579D01*
X6544586Y-12609579D02*
X6554110Y-12628627D01*
X6554110Y-12628627D02*
X6554110Y-12733389D01*
X6944586Y-12523865D02*
X6773158Y-12781008D01*
X7201729Y-12533389D02*
X7220777Y-12533389D01*
X7220777Y-12533389D02*
X7239824Y-12542913D01*
X7239824Y-12542913D02*
X7249348Y-12552436D01*
X7249348Y-12552436D02*
X7258872Y-12571484D01*
X7258872Y-12571484D02*
X7268396Y-12609579D01*
X7268396Y-12609579D02*
X7268396Y-12657198D01*
X7268396Y-12657198D02*
X7258872Y-12695293D01*
X7258872Y-12695293D02*
X7249348Y-12714341D01*
X7249348Y-12714341D02*
X7239824Y-12723865D01*
X7239824Y-12723865D02*
X7220777Y-12733389D01*
X7220777Y-12733389D02*
X7201729Y-12733389D01*
X7201729Y-12733389D02*
X7182681Y-12723865D01*
X7182681Y-12723865D02*
X7173158Y-12714341D01*
X7173158Y-12714341D02*
X7163634Y-12695293D01*
X7163634Y-12695293D02*
X7154110Y-12657198D01*
X7154110Y-12657198D02*
X7154110Y-12609579D01*
X7154110Y-12609579D02*
X7163634Y-12571484D01*
X7163634Y-12571484D02*
X7173158Y-12552436D01*
X7173158Y-12552436D02*
X7182681Y-12542913D01*
X7182681Y-12542913D02*
X7201729Y-12533389D01*
X7354110Y-12714341D02*
X7363634Y-12723865D01*
X7363634Y-12723865D02*
X7354110Y-12733389D01*
X7354110Y-12733389D02*
X7344586Y-12723865D01*
X7344586Y-12723865D02*
X7354110Y-12714341D01*
X7354110Y-12714341D02*
X7354110Y-12733389D01*
X7487443Y-12533389D02*
X7506491Y-12533389D01*
X7506491Y-12533389D02*
X7525539Y-12542913D01*
X7525539Y-12542913D02*
X7535062Y-12552436D01*
X7535062Y-12552436D02*
X7544586Y-12571484D01*
X7544586Y-12571484D02*
X7554110Y-12609579D01*
X7554110Y-12609579D02*
X7554110Y-12657198D01*
X7554110Y-12657198D02*
X7544586Y-12695293D01*
X7544586Y-12695293D02*
X7535062Y-12714341D01*
X7535062Y-12714341D02*
X7525539Y-12723865D01*
X7525539Y-12723865D02*
X7506491Y-12733389D01*
X7506491Y-12733389D02*
X7487443Y-12733389D01*
X7487443Y-12733389D02*
X7468396Y-12723865D01*
X7468396Y-12723865D02*
X7458872Y-12714341D01*
X7458872Y-12714341D02*
X7449348Y-12695293D01*
X7449348Y-12695293D02*
X7439824Y-12657198D01*
X7439824Y-12657198D02*
X7439824Y-12609579D01*
X7439824Y-12609579D02*
X7449348Y-12571484D01*
X7449348Y-12571484D02*
X7458872Y-12552436D01*
X7458872Y-12552436D02*
X7468396Y-12542913D01*
X7468396Y-12542913D02*
X7487443Y-12533389D01*
X7744586Y-12733389D02*
X7630301Y-12733389D01*
X7687443Y-12733389D02*
X7687443Y-12533389D01*
X7687443Y-12533389D02*
X7668396Y-12561960D01*
X7668396Y-12561960D02*
X7649348Y-12581008D01*
X7649348Y-12581008D02*
X7630301Y-12590532D01*
X7935062Y-12733389D02*
X7820777Y-12733389D01*
X7877920Y-12733389D02*
X7877920Y-12533389D01*
X7877920Y-12533389D02*
X7858872Y-12561960D01*
X7858872Y-12561960D02*
X7839824Y-12581008D01*
X7839824Y-12581008D02*
X7820777Y-12590532D01*
X8049348Y-12619103D02*
X8030301Y-12609579D01*
X8030301Y-12609579D02*
X8020777Y-12600055D01*
X8020777Y-12600055D02*
X8011253Y-12581008D01*
X8011253Y-12581008D02*
X8011253Y-12571484D01*
X8011253Y-12571484D02*
X8020777Y-12552436D01*
X8020777Y-12552436D02*
X8030301Y-12542913D01*
X8030301Y-12542913D02*
X8049348Y-12533389D01*
X8049348Y-12533389D02*
X8087443Y-12533389D01*
X8087443Y-12533389D02*
X8106491Y-12542913D01*
X8106491Y-12542913D02*
X8116015Y-12552436D01*
X8116015Y-12552436D02*
X8125539Y-12571484D01*
X8125539Y-12571484D02*
X8125539Y-12581008D01*
X8125539Y-12581008D02*
X8116015Y-12600055D01*
X8116015Y-12600055D02*
X8106491Y-12609579D01*
X8106491Y-12609579D02*
X8087443Y-12619103D01*
X8087443Y-12619103D02*
X8049348Y-12619103D01*
X8049348Y-12619103D02*
X8030301Y-12628627D01*
X8030301Y-12628627D02*
X8020777Y-12638151D01*
X8020777Y-12638151D02*
X8011253Y-12657198D01*
X8011253Y-12657198D02*
X8011253Y-12695293D01*
X8011253Y-12695293D02*
X8020777Y-12714341D01*
X8020777Y-12714341D02*
X8030301Y-12723865D01*
X8030301Y-12723865D02*
X8049348Y-12733389D01*
X8049348Y-12733389D02*
X8087443Y-12733389D01*
X8087443Y-12733389D02*
X8106491Y-12723865D01*
X8106491Y-12723865D02*
X8116015Y-12714341D01*
X8116015Y-12714341D02*
X8125539Y-12695293D01*
X8125539Y-12695293D02*
X8125539Y-12657198D01*
X8125539Y-12657198D02*
X8116015Y-12638151D01*
X8116015Y-12638151D02*
X8106491Y-12628627D01*
X8106491Y-12628627D02*
X8087443Y-12619103D01*
X8201729Y-12533389D02*
X8201729Y-12571484D01*
X8277920Y-12533389D02*
X8277920Y-12571484D01*
X8573158Y-12809579D02*
X8563634Y-12800055D01*
X8563634Y-12800055D02*
X8544586Y-12771484D01*
X8544586Y-12771484D02*
X8535063Y-12752436D01*
X8535063Y-12752436D02*
X8525539Y-12723865D01*
X8525539Y-12723865D02*
X8516015Y-12676246D01*
X8516015Y-12676246D02*
X8516015Y-12638151D01*
X8516015Y-12638151D02*
X8525539Y-12590532D01*
X8525539Y-12590532D02*
X8535063Y-12561960D01*
X8535063Y-12561960D02*
X8544586Y-12542913D01*
X8544586Y-12542913D02*
X8563634Y-12514341D01*
X8563634Y-12514341D02*
X8573158Y-12504817D01*
X8735063Y-12600055D02*
X8735063Y-12733389D01*
X8687444Y-12523865D02*
X8639825Y-12666722D01*
X8639825Y-12666722D02*
X8763634Y-12666722D01*
X8877920Y-12533389D02*
X8896967Y-12533389D01*
X8896967Y-12533389D02*
X8916015Y-12542913D01*
X8916015Y-12542913D02*
X8925539Y-12552436D01*
X8925539Y-12552436D02*
X8935063Y-12571484D01*
X8935063Y-12571484D02*
X8944586Y-12609579D01*
X8944586Y-12609579D02*
X8944586Y-12657198D01*
X8944586Y-12657198D02*
X8935063Y-12695293D01*
X8935063Y-12695293D02*
X8925539Y-12714341D01*
X8925539Y-12714341D02*
X8916015Y-12723865D01*
X8916015Y-12723865D02*
X8896967Y-12733389D01*
X8896967Y-12733389D02*
X8877920Y-12733389D01*
X8877920Y-12733389D02*
X8858872Y-12723865D01*
X8858872Y-12723865D02*
X8849348Y-12714341D01*
X8849348Y-12714341D02*
X8839825Y-12695293D01*
X8839825Y-12695293D02*
X8830301Y-12657198D01*
X8830301Y-12657198D02*
X8830301Y-12609579D01*
X8830301Y-12609579D02*
X8839825Y-12571484D01*
X8839825Y-12571484D02*
X8849348Y-12552436D01*
X8849348Y-12552436D02*
X8858872Y-12542913D01*
X8858872Y-12542913D02*
X8877920Y-12533389D01*
X9182682Y-12733389D02*
X9182682Y-12533389D01*
X9268396Y-12733389D02*
X9268396Y-12628627D01*
X9268396Y-12628627D02*
X9258872Y-12609579D01*
X9258872Y-12609579D02*
X9239825Y-12600055D01*
X9239825Y-12600055D02*
X9211253Y-12600055D01*
X9211253Y-12600055D02*
X9192206Y-12609579D01*
X9192206Y-12609579D02*
X9182682Y-12619103D01*
X9392206Y-12733389D02*
X9373158Y-12723865D01*
X9373158Y-12723865D02*
X9363634Y-12714341D01*
X9363634Y-12714341D02*
X9354110Y-12695293D01*
X9354110Y-12695293D02*
X9354110Y-12638151D01*
X9354110Y-12638151D02*
X9363634Y-12619103D01*
X9363634Y-12619103D02*
X9373158Y-12609579D01*
X9373158Y-12609579D02*
X9392206Y-12600055D01*
X9392206Y-12600055D02*
X9420777Y-12600055D01*
X9420777Y-12600055D02*
X9439825Y-12609579D01*
X9439825Y-12609579D02*
X9449348Y-12619103D01*
X9449348Y-12619103D02*
X9458872Y-12638151D01*
X9458872Y-12638151D02*
X9458872Y-12695293D01*
X9458872Y-12695293D02*
X9449348Y-12714341D01*
X9449348Y-12714341D02*
X9439825Y-12723865D01*
X9439825Y-12723865D02*
X9420777Y-12733389D01*
X9420777Y-12733389D02*
X9392206Y-12733389D01*
X9573158Y-12733389D02*
X9554110Y-12723865D01*
X9554110Y-12723865D02*
X9544587Y-12704817D01*
X9544587Y-12704817D02*
X9544587Y-12533389D01*
X9725539Y-12723865D02*
X9706491Y-12733389D01*
X9706491Y-12733389D02*
X9668396Y-12733389D01*
X9668396Y-12733389D02*
X9649348Y-12723865D01*
X9649348Y-12723865D02*
X9639825Y-12704817D01*
X9639825Y-12704817D02*
X9639825Y-12628627D01*
X9639825Y-12628627D02*
X9649348Y-12609579D01*
X9649348Y-12609579D02*
X9668396Y-12600055D01*
X9668396Y-12600055D02*
X9706491Y-12600055D01*
X9706491Y-12600055D02*
X9725539Y-12609579D01*
X9725539Y-12609579D02*
X9735063Y-12628627D01*
X9735063Y-12628627D02*
X9735063Y-12647674D01*
X9735063Y-12647674D02*
X9639825Y-12666722D01*
X9811253Y-12723865D02*
X9830301Y-12733389D01*
X9830301Y-12733389D02*
X9868396Y-12733389D01*
X9868396Y-12733389D02*
X9887444Y-12723865D01*
X9887444Y-12723865D02*
X9896968Y-12704817D01*
X9896968Y-12704817D02*
X9896968Y-12695293D01*
X9896968Y-12695293D02*
X9887444Y-12676246D01*
X9887444Y-12676246D02*
X9868396Y-12666722D01*
X9868396Y-12666722D02*
X9839825Y-12666722D01*
X9839825Y-12666722D02*
X9820777Y-12657198D01*
X9820777Y-12657198D02*
X9811253Y-12638151D01*
X9811253Y-12638151D02*
X9811253Y-12628627D01*
X9811253Y-12628627D02*
X9820777Y-12609579D01*
X9820777Y-12609579D02*
X9839825Y-12600055D01*
X9839825Y-12600055D02*
X9868396Y-12600055D01*
X9868396Y-12600055D02*
X9887444Y-12609579D01*
X9963634Y-12809579D02*
X9973158Y-12800055D01*
X9973158Y-12800055D02*
X9992206Y-12771484D01*
X9992206Y-12771484D02*
X10001729Y-12752436D01*
X10001729Y-12752436D02*
X10011253Y-12723865D01*
X10011253Y-12723865D02*
X10020777Y-12676246D01*
X10020777Y-12676246D02*
X10020777Y-12638151D01*
X10020777Y-12638151D02*
X10011253Y-12590532D01*
X10011253Y-12590532D02*
X10001729Y-12561960D01*
X10001729Y-12561960D02*
X9992206Y-12542913D01*
X9992206Y-12542913D02*
X9973158Y-12514341D01*
X9973158Y-12514341D02*
X9963634Y-12504817D01*
D12*
X4998095Y-12905905D02*
G75*
G02*
X4948095Y-12905905I-25000J0D01*
G01*
X4948095Y-12905905D02*
G75*
G02*
X4998095Y-12905905I25000J0D01*
G01*
D11*
X5296967Y-12797389D02*
X5316015Y-12797389D01*
X5316015Y-12797389D02*
X5335062Y-12806913D01*
X5335062Y-12806913D02*
X5344586Y-12816436D01*
X5344586Y-12816436D02*
X5354110Y-12835484D01*
X5354110Y-12835484D02*
X5363634Y-12873579D01*
X5363634Y-12873579D02*
X5363634Y-12921198D01*
X5363634Y-12921198D02*
X5354110Y-12959293D01*
X5354110Y-12959293D02*
X5344586Y-12978341D01*
X5344586Y-12978341D02*
X5335062Y-12987865D01*
X5335062Y-12987865D02*
X5316015Y-12997389D01*
X5316015Y-12997389D02*
X5296967Y-12997389D01*
X5296967Y-12997389D02*
X5277919Y-12987865D01*
X5277919Y-12987865D02*
X5268396Y-12978341D01*
X5268396Y-12978341D02*
X5258872Y-12959293D01*
X5258872Y-12959293D02*
X5249348Y-12921198D01*
X5249348Y-12921198D02*
X5249348Y-12873579D01*
X5249348Y-12873579D02*
X5258872Y-12835484D01*
X5258872Y-12835484D02*
X5268396Y-12816436D01*
X5268396Y-12816436D02*
X5277919Y-12806913D01*
X5277919Y-12806913D02*
X5296967Y-12797389D01*
X5449348Y-12978341D02*
X5458872Y-12987865D01*
X5458872Y-12987865D02*
X5449348Y-12997389D01*
X5449348Y-12997389D02*
X5439824Y-12987865D01*
X5439824Y-12987865D02*
X5449348Y-12978341D01*
X5449348Y-12978341D02*
X5449348Y-12997389D01*
X5639824Y-12797389D02*
X5544586Y-12797389D01*
X5544586Y-12797389D02*
X5535062Y-12892627D01*
X5535062Y-12892627D02*
X5544586Y-12883103D01*
X5544586Y-12883103D02*
X5563634Y-12873579D01*
X5563634Y-12873579D02*
X5611253Y-12873579D01*
X5611253Y-12873579D02*
X5630300Y-12883103D01*
X5630300Y-12883103D02*
X5639824Y-12892627D01*
X5639824Y-12892627D02*
X5649348Y-12911674D01*
X5649348Y-12911674D02*
X5649348Y-12959293D01*
X5649348Y-12959293D02*
X5639824Y-12978341D01*
X5639824Y-12978341D02*
X5630300Y-12987865D01*
X5630300Y-12987865D02*
X5611253Y-12997389D01*
X5611253Y-12997389D02*
X5563634Y-12997389D01*
X5563634Y-12997389D02*
X5544586Y-12987865D01*
X5544586Y-12987865D02*
X5535062Y-12978341D01*
X5773157Y-12797389D02*
X5792205Y-12797389D01*
X5792205Y-12797389D02*
X5811253Y-12806913D01*
X5811253Y-12806913D02*
X5820777Y-12816436D01*
X5820777Y-12816436D02*
X5830300Y-12835484D01*
X5830300Y-12835484D02*
X5839824Y-12873579D01*
X5839824Y-12873579D02*
X5839824Y-12921198D01*
X5839824Y-12921198D02*
X5830300Y-12959293D01*
X5830300Y-12959293D02*
X5820777Y-12978341D01*
X5820777Y-12978341D02*
X5811253Y-12987865D01*
X5811253Y-12987865D02*
X5792205Y-12997389D01*
X5792205Y-12997389D02*
X5773157Y-12997389D01*
X5773157Y-12997389D02*
X5754110Y-12987865D01*
X5754110Y-12987865D02*
X5744586Y-12978341D01*
X5744586Y-12978341D02*
X5735062Y-12959293D01*
X5735062Y-12959293D02*
X5725538Y-12921198D01*
X5725538Y-12921198D02*
X5725538Y-12873579D01*
X5725538Y-12873579D02*
X5735062Y-12835484D01*
X5735062Y-12835484D02*
X5744586Y-12816436D01*
X5744586Y-12816436D02*
X5754110Y-12806913D01*
X5754110Y-12806913D02*
X5773157Y-12797389D01*
X5963634Y-12797389D02*
X5982681Y-12797389D01*
X5982681Y-12797389D02*
X6001729Y-12806913D01*
X6001729Y-12806913D02*
X6011253Y-12816436D01*
X6011253Y-12816436D02*
X6020777Y-12835484D01*
X6020777Y-12835484D02*
X6030300Y-12873579D01*
X6030300Y-12873579D02*
X6030300Y-12921198D01*
X6030300Y-12921198D02*
X6020777Y-12959293D01*
X6020777Y-12959293D02*
X6011253Y-12978341D01*
X6011253Y-12978341D02*
X6001729Y-12987865D01*
X6001729Y-12987865D02*
X5982681Y-12997389D01*
X5982681Y-12997389D02*
X5963634Y-12997389D01*
X5963634Y-12997389D02*
X5944586Y-12987865D01*
X5944586Y-12987865D02*
X5935062Y-12978341D01*
X5935062Y-12978341D02*
X5925538Y-12959293D01*
X5925538Y-12959293D02*
X5916015Y-12921198D01*
X5916015Y-12921198D02*
X5916015Y-12873579D01*
X5916015Y-12873579D02*
X5925538Y-12835484D01*
X5925538Y-12835484D02*
X5935062Y-12816436D01*
X5935062Y-12816436D02*
X5944586Y-12806913D01*
X5944586Y-12806913D02*
X5963634Y-12797389D01*
X6116015Y-12997389D02*
X6116015Y-12864055D01*
X6116015Y-12883103D02*
X6125538Y-12873579D01*
X6125538Y-12873579D02*
X6144586Y-12864055D01*
X6144586Y-12864055D02*
X6173158Y-12864055D01*
X6173158Y-12864055D02*
X6192205Y-12873579D01*
X6192205Y-12873579D02*
X6201729Y-12892627D01*
X6201729Y-12892627D02*
X6201729Y-12997389D01*
X6201729Y-12892627D02*
X6211253Y-12873579D01*
X6211253Y-12873579D02*
X6230300Y-12864055D01*
X6230300Y-12864055D02*
X6258872Y-12864055D01*
X6258872Y-12864055D02*
X6277919Y-12873579D01*
X6277919Y-12873579D02*
X6287443Y-12892627D01*
X6287443Y-12892627D02*
X6287443Y-12997389D01*
X6382681Y-12997389D02*
X6382681Y-12864055D01*
X6382681Y-12883103D02*
X6392205Y-12873579D01*
X6392205Y-12873579D02*
X6411253Y-12864055D01*
X6411253Y-12864055D02*
X6439824Y-12864055D01*
X6439824Y-12864055D02*
X6458872Y-12873579D01*
X6458872Y-12873579D02*
X6468396Y-12892627D01*
X6468396Y-12892627D02*
X6468396Y-12997389D01*
X6468396Y-12892627D02*
X6477919Y-12873579D01*
X6477919Y-12873579D02*
X6496967Y-12864055D01*
X6496967Y-12864055D02*
X6525538Y-12864055D01*
X6525538Y-12864055D02*
X6544586Y-12873579D01*
X6544586Y-12873579D02*
X6554110Y-12892627D01*
X6554110Y-12892627D02*
X6554110Y-12997389D01*
X6944586Y-12787865D02*
X6773158Y-13045008D01*
X7201729Y-12797389D02*
X7220777Y-12797389D01*
X7220777Y-12797389D02*
X7239824Y-12806913D01*
X7239824Y-12806913D02*
X7249348Y-12816436D01*
X7249348Y-12816436D02*
X7258872Y-12835484D01*
X7258872Y-12835484D02*
X7268396Y-12873579D01*
X7268396Y-12873579D02*
X7268396Y-12921198D01*
X7268396Y-12921198D02*
X7258872Y-12959293D01*
X7258872Y-12959293D02*
X7249348Y-12978341D01*
X7249348Y-12978341D02*
X7239824Y-12987865D01*
X7239824Y-12987865D02*
X7220777Y-12997389D01*
X7220777Y-12997389D02*
X7201729Y-12997389D01*
X7201729Y-12997389D02*
X7182681Y-12987865D01*
X7182681Y-12987865D02*
X7173158Y-12978341D01*
X7173158Y-12978341D02*
X7163634Y-12959293D01*
X7163634Y-12959293D02*
X7154110Y-12921198D01*
X7154110Y-12921198D02*
X7154110Y-12873579D01*
X7154110Y-12873579D02*
X7163634Y-12835484D01*
X7163634Y-12835484D02*
X7173158Y-12816436D01*
X7173158Y-12816436D02*
X7182681Y-12806913D01*
X7182681Y-12806913D02*
X7201729Y-12797389D01*
X7354110Y-12978341D02*
X7363634Y-12987865D01*
X7363634Y-12987865D02*
X7354110Y-12997389D01*
X7354110Y-12997389D02*
X7344586Y-12987865D01*
X7344586Y-12987865D02*
X7354110Y-12978341D01*
X7354110Y-12978341D02*
X7354110Y-12997389D01*
X7487443Y-12797389D02*
X7506491Y-12797389D01*
X7506491Y-12797389D02*
X7525539Y-12806913D01*
X7525539Y-12806913D02*
X7535062Y-12816436D01*
X7535062Y-12816436D02*
X7544586Y-12835484D01*
X7544586Y-12835484D02*
X7554110Y-12873579D01*
X7554110Y-12873579D02*
X7554110Y-12921198D01*
X7554110Y-12921198D02*
X7544586Y-12959293D01*
X7544586Y-12959293D02*
X7535062Y-12978341D01*
X7535062Y-12978341D02*
X7525539Y-12987865D01*
X7525539Y-12987865D02*
X7506491Y-12997389D01*
X7506491Y-12997389D02*
X7487443Y-12997389D01*
X7487443Y-12997389D02*
X7468396Y-12987865D01*
X7468396Y-12987865D02*
X7458872Y-12978341D01*
X7458872Y-12978341D02*
X7449348Y-12959293D01*
X7449348Y-12959293D02*
X7439824Y-12921198D01*
X7439824Y-12921198D02*
X7439824Y-12873579D01*
X7439824Y-12873579D02*
X7449348Y-12835484D01*
X7449348Y-12835484D02*
X7458872Y-12816436D01*
X7458872Y-12816436D02*
X7468396Y-12806913D01*
X7468396Y-12806913D02*
X7487443Y-12797389D01*
X7744586Y-12997389D02*
X7630301Y-12997389D01*
X7687443Y-12997389D02*
X7687443Y-12797389D01*
X7687443Y-12797389D02*
X7668396Y-12825960D01*
X7668396Y-12825960D02*
X7649348Y-12845008D01*
X7649348Y-12845008D02*
X7630301Y-12854532D01*
X7839824Y-12997389D02*
X7877920Y-12997389D01*
X7877920Y-12997389D02*
X7896967Y-12987865D01*
X7896967Y-12987865D02*
X7906491Y-12978341D01*
X7906491Y-12978341D02*
X7925539Y-12949770D01*
X7925539Y-12949770D02*
X7935062Y-12911674D01*
X7935062Y-12911674D02*
X7935062Y-12835484D01*
X7935062Y-12835484D02*
X7925539Y-12816436D01*
X7925539Y-12816436D02*
X7916015Y-12806913D01*
X7916015Y-12806913D02*
X7896967Y-12797389D01*
X7896967Y-12797389D02*
X7858872Y-12797389D01*
X7858872Y-12797389D02*
X7839824Y-12806913D01*
X7839824Y-12806913D02*
X7830301Y-12816436D01*
X7830301Y-12816436D02*
X7820777Y-12835484D01*
X7820777Y-12835484D02*
X7820777Y-12883103D01*
X7820777Y-12883103D02*
X7830301Y-12902151D01*
X7830301Y-12902151D02*
X7839824Y-12911674D01*
X7839824Y-12911674D02*
X7858872Y-12921198D01*
X7858872Y-12921198D02*
X7896967Y-12921198D01*
X7896967Y-12921198D02*
X7916015Y-12911674D01*
X7916015Y-12911674D02*
X7925539Y-12902151D01*
X7925539Y-12902151D02*
X7935062Y-12883103D01*
X8001729Y-12797389D02*
X8135062Y-12797389D01*
X8135062Y-12797389D02*
X8049348Y-12997389D01*
X8201729Y-12797389D02*
X8201729Y-12835484D01*
X8277920Y-12797389D02*
X8277920Y-12835484D01*
X8573158Y-13073579D02*
X8563634Y-13064055D01*
X8563634Y-13064055D02*
X8544586Y-13035484D01*
X8544586Y-13035484D02*
X8535063Y-13016436D01*
X8535063Y-13016436D02*
X8525539Y-12987865D01*
X8525539Y-12987865D02*
X8516015Y-12940246D01*
X8516015Y-12940246D02*
X8516015Y-12902151D01*
X8516015Y-12902151D02*
X8525539Y-12854532D01*
X8525539Y-12854532D02*
X8535063Y-12825960D01*
X8535063Y-12825960D02*
X8544586Y-12806913D01*
X8544586Y-12806913D02*
X8563634Y-12778341D01*
X8563634Y-12778341D02*
X8573158Y-12768817D01*
X8630301Y-12797389D02*
X8754110Y-12797389D01*
X8754110Y-12797389D02*
X8687444Y-12873579D01*
X8687444Y-12873579D02*
X8716015Y-12873579D01*
X8716015Y-12873579D02*
X8735063Y-12883103D01*
X8735063Y-12883103D02*
X8744586Y-12892627D01*
X8744586Y-12892627D02*
X8754110Y-12911674D01*
X8754110Y-12911674D02*
X8754110Y-12959293D01*
X8754110Y-12959293D02*
X8744586Y-12978341D01*
X8744586Y-12978341D02*
X8735063Y-12987865D01*
X8735063Y-12987865D02*
X8716015Y-12997389D01*
X8716015Y-12997389D02*
X8658872Y-12997389D01*
X8658872Y-12997389D02*
X8639825Y-12987865D01*
X8639825Y-12987865D02*
X8630301Y-12978341D01*
X8830301Y-12816436D02*
X8839825Y-12806913D01*
X8839825Y-12806913D02*
X8858872Y-12797389D01*
X8858872Y-12797389D02*
X8906491Y-12797389D01*
X8906491Y-12797389D02*
X8925539Y-12806913D01*
X8925539Y-12806913D02*
X8935063Y-12816436D01*
X8935063Y-12816436D02*
X8944586Y-12835484D01*
X8944586Y-12835484D02*
X8944586Y-12854532D01*
X8944586Y-12854532D02*
X8935063Y-12883103D01*
X8935063Y-12883103D02*
X8820777Y-12997389D01*
X8820777Y-12997389D02*
X8944586Y-12997389D01*
X9182682Y-12997389D02*
X9182682Y-12797389D01*
X9268396Y-12997389D02*
X9268396Y-12892627D01*
X9268396Y-12892627D02*
X9258872Y-12873579D01*
X9258872Y-12873579D02*
X9239825Y-12864055D01*
X9239825Y-12864055D02*
X9211253Y-12864055D01*
X9211253Y-12864055D02*
X9192206Y-12873579D01*
X9192206Y-12873579D02*
X9182682Y-12883103D01*
X9392206Y-12997389D02*
X9373158Y-12987865D01*
X9373158Y-12987865D02*
X9363634Y-12978341D01*
X9363634Y-12978341D02*
X9354110Y-12959293D01*
X9354110Y-12959293D02*
X9354110Y-12902151D01*
X9354110Y-12902151D02*
X9363634Y-12883103D01*
X9363634Y-12883103D02*
X9373158Y-12873579D01*
X9373158Y-12873579D02*
X9392206Y-12864055D01*
X9392206Y-12864055D02*
X9420777Y-12864055D01*
X9420777Y-12864055D02*
X9439825Y-12873579D01*
X9439825Y-12873579D02*
X9449348Y-12883103D01*
X9449348Y-12883103D02*
X9458872Y-12902151D01*
X9458872Y-12902151D02*
X9458872Y-12959293D01*
X9458872Y-12959293D02*
X9449348Y-12978341D01*
X9449348Y-12978341D02*
X9439825Y-12987865D01*
X9439825Y-12987865D02*
X9420777Y-12997389D01*
X9420777Y-12997389D02*
X9392206Y-12997389D01*
X9573158Y-12997389D02*
X9554110Y-12987865D01*
X9554110Y-12987865D02*
X9544587Y-12968817D01*
X9544587Y-12968817D02*
X9544587Y-12797389D01*
X9725539Y-12987865D02*
X9706491Y-12997389D01*
X9706491Y-12997389D02*
X9668396Y-12997389D01*
X9668396Y-12997389D02*
X9649348Y-12987865D01*
X9649348Y-12987865D02*
X9639825Y-12968817D01*
X9639825Y-12968817D02*
X9639825Y-12892627D01*
X9639825Y-12892627D02*
X9649348Y-12873579D01*
X9649348Y-12873579D02*
X9668396Y-12864055D01*
X9668396Y-12864055D02*
X9706491Y-12864055D01*
X9706491Y-12864055D02*
X9725539Y-12873579D01*
X9725539Y-12873579D02*
X9735063Y-12892627D01*
X9735063Y-12892627D02*
X9735063Y-12911674D01*
X9735063Y-12911674D02*
X9639825Y-12930722D01*
X9811253Y-12987865D02*
X9830301Y-12997389D01*
X9830301Y-12997389D02*
X9868396Y-12997389D01*
X9868396Y-12997389D02*
X9887444Y-12987865D01*
X9887444Y-12987865D02*
X9896968Y-12968817D01*
X9896968Y-12968817D02*
X9896968Y-12959293D01*
X9896968Y-12959293D02*
X9887444Y-12940246D01*
X9887444Y-12940246D02*
X9868396Y-12930722D01*
X9868396Y-12930722D02*
X9839825Y-12930722D01*
X9839825Y-12930722D02*
X9820777Y-12921198D01*
X9820777Y-12921198D02*
X9811253Y-12902151D01*
X9811253Y-12902151D02*
X9811253Y-12892627D01*
X9811253Y-12892627D02*
X9820777Y-12873579D01*
X9820777Y-12873579D02*
X9839825Y-12864055D01*
X9839825Y-12864055D02*
X9868396Y-12864055D01*
X9868396Y-12864055D02*
X9887444Y-12873579D01*
X9963634Y-13073579D02*
X9973158Y-13064055D01*
X9973158Y-13064055D02*
X9992206Y-13035484D01*
X9992206Y-13035484D02*
X10001729Y-13016436D01*
X10001729Y-13016436D02*
X10011253Y-12987865D01*
X10011253Y-12987865D02*
X10020777Y-12940246D01*
X10020777Y-12940246D02*
X10020777Y-12902151D01*
X10020777Y-12902151D02*
X10011253Y-12854532D01*
X10011253Y-12854532D02*
X10001729Y-12825960D01*
X10001729Y-12825960D02*
X9992206Y-12806913D01*
X9992206Y-12806913D02*
X9973158Y-12778341D01*
X9973158Y-12778341D02*
X9963634Y-12768817D01*
D12*
X4948095Y-13119905D02*
X4948095Y-13219905D01*
X4898095Y-13169905D02*
X4998095Y-13169905D01*
D11*
X5363634Y-13261389D02*
X5249348Y-13261389D01*
X5306491Y-13261389D02*
X5306491Y-13061389D01*
X5306491Y-13061389D02*
X5287443Y-13089960D01*
X5287443Y-13089960D02*
X5268396Y-13109008D01*
X5268396Y-13109008D02*
X5249348Y-13118532D01*
X5449348Y-13242341D02*
X5458872Y-13251865D01*
X5458872Y-13251865D02*
X5449348Y-13261389D01*
X5449348Y-13261389D02*
X5439824Y-13251865D01*
X5439824Y-13251865D02*
X5449348Y-13242341D01*
X5449348Y-13242341D02*
X5449348Y-13261389D01*
X5582681Y-13061389D02*
X5601729Y-13061389D01*
X5601729Y-13061389D02*
X5620777Y-13070913D01*
X5620777Y-13070913D02*
X5630300Y-13080436D01*
X5630300Y-13080436D02*
X5639824Y-13099484D01*
X5639824Y-13099484D02*
X5649348Y-13137579D01*
X5649348Y-13137579D02*
X5649348Y-13185198D01*
X5649348Y-13185198D02*
X5639824Y-13223293D01*
X5639824Y-13223293D02*
X5630300Y-13242341D01*
X5630300Y-13242341D02*
X5620777Y-13251865D01*
X5620777Y-13251865D02*
X5601729Y-13261389D01*
X5601729Y-13261389D02*
X5582681Y-13261389D01*
X5582681Y-13261389D02*
X5563634Y-13251865D01*
X5563634Y-13251865D02*
X5554110Y-13242341D01*
X5554110Y-13242341D02*
X5544586Y-13223293D01*
X5544586Y-13223293D02*
X5535062Y-13185198D01*
X5535062Y-13185198D02*
X5535062Y-13137579D01*
X5535062Y-13137579D02*
X5544586Y-13099484D01*
X5544586Y-13099484D02*
X5554110Y-13080436D01*
X5554110Y-13080436D02*
X5563634Y-13070913D01*
X5563634Y-13070913D02*
X5582681Y-13061389D01*
X5773157Y-13061389D02*
X5792205Y-13061389D01*
X5792205Y-13061389D02*
X5811253Y-13070913D01*
X5811253Y-13070913D02*
X5820777Y-13080436D01*
X5820777Y-13080436D02*
X5830300Y-13099484D01*
X5830300Y-13099484D02*
X5839824Y-13137579D01*
X5839824Y-13137579D02*
X5839824Y-13185198D01*
X5839824Y-13185198D02*
X5830300Y-13223293D01*
X5830300Y-13223293D02*
X5820777Y-13242341D01*
X5820777Y-13242341D02*
X5811253Y-13251865D01*
X5811253Y-13251865D02*
X5792205Y-13261389D01*
X5792205Y-13261389D02*
X5773157Y-13261389D01*
X5773157Y-13261389D02*
X5754110Y-13251865D01*
X5754110Y-13251865D02*
X5744586Y-13242341D01*
X5744586Y-13242341D02*
X5735062Y-13223293D01*
X5735062Y-13223293D02*
X5725538Y-13185198D01*
X5725538Y-13185198D02*
X5725538Y-13137579D01*
X5725538Y-13137579D02*
X5735062Y-13099484D01*
X5735062Y-13099484D02*
X5744586Y-13080436D01*
X5744586Y-13080436D02*
X5754110Y-13070913D01*
X5754110Y-13070913D02*
X5773157Y-13061389D01*
X5963634Y-13061389D02*
X5982681Y-13061389D01*
X5982681Y-13061389D02*
X6001729Y-13070913D01*
X6001729Y-13070913D02*
X6011253Y-13080436D01*
X6011253Y-13080436D02*
X6020777Y-13099484D01*
X6020777Y-13099484D02*
X6030300Y-13137579D01*
X6030300Y-13137579D02*
X6030300Y-13185198D01*
X6030300Y-13185198D02*
X6020777Y-13223293D01*
X6020777Y-13223293D02*
X6011253Y-13242341D01*
X6011253Y-13242341D02*
X6001729Y-13251865D01*
X6001729Y-13251865D02*
X5982681Y-13261389D01*
X5982681Y-13261389D02*
X5963634Y-13261389D01*
X5963634Y-13261389D02*
X5944586Y-13251865D01*
X5944586Y-13251865D02*
X5935062Y-13242341D01*
X5935062Y-13242341D02*
X5925538Y-13223293D01*
X5925538Y-13223293D02*
X5916015Y-13185198D01*
X5916015Y-13185198D02*
X5916015Y-13137579D01*
X5916015Y-13137579D02*
X5925538Y-13099484D01*
X5925538Y-13099484D02*
X5935062Y-13080436D01*
X5935062Y-13080436D02*
X5944586Y-13070913D01*
X5944586Y-13070913D02*
X5963634Y-13061389D01*
X6116015Y-13261389D02*
X6116015Y-13128055D01*
X6116015Y-13147103D02*
X6125538Y-13137579D01*
X6125538Y-13137579D02*
X6144586Y-13128055D01*
X6144586Y-13128055D02*
X6173158Y-13128055D01*
X6173158Y-13128055D02*
X6192205Y-13137579D01*
X6192205Y-13137579D02*
X6201729Y-13156627D01*
X6201729Y-13156627D02*
X6201729Y-13261389D01*
X6201729Y-13156627D02*
X6211253Y-13137579D01*
X6211253Y-13137579D02*
X6230300Y-13128055D01*
X6230300Y-13128055D02*
X6258872Y-13128055D01*
X6258872Y-13128055D02*
X6277919Y-13137579D01*
X6277919Y-13137579D02*
X6287443Y-13156627D01*
X6287443Y-13156627D02*
X6287443Y-13261389D01*
X6382681Y-13261389D02*
X6382681Y-13128055D01*
X6382681Y-13147103D02*
X6392205Y-13137579D01*
X6392205Y-13137579D02*
X6411253Y-13128055D01*
X6411253Y-13128055D02*
X6439824Y-13128055D01*
X6439824Y-13128055D02*
X6458872Y-13137579D01*
X6458872Y-13137579D02*
X6468396Y-13156627D01*
X6468396Y-13156627D02*
X6468396Y-13261389D01*
X6468396Y-13156627D02*
X6477919Y-13137579D01*
X6477919Y-13137579D02*
X6496967Y-13128055D01*
X6496967Y-13128055D02*
X6525538Y-13128055D01*
X6525538Y-13128055D02*
X6544586Y-13137579D01*
X6544586Y-13137579D02*
X6554110Y-13156627D01*
X6554110Y-13156627D02*
X6554110Y-13261389D01*
X6944586Y-13051865D02*
X6773158Y-13309008D01*
X7201729Y-13061389D02*
X7220777Y-13061389D01*
X7220777Y-13061389D02*
X7239824Y-13070913D01*
X7239824Y-13070913D02*
X7249348Y-13080436D01*
X7249348Y-13080436D02*
X7258872Y-13099484D01*
X7258872Y-13099484D02*
X7268396Y-13137579D01*
X7268396Y-13137579D02*
X7268396Y-13185198D01*
X7268396Y-13185198D02*
X7258872Y-13223293D01*
X7258872Y-13223293D02*
X7249348Y-13242341D01*
X7249348Y-13242341D02*
X7239824Y-13251865D01*
X7239824Y-13251865D02*
X7220777Y-13261389D01*
X7220777Y-13261389D02*
X7201729Y-13261389D01*
X7201729Y-13261389D02*
X7182681Y-13251865D01*
X7182681Y-13251865D02*
X7173158Y-13242341D01*
X7173158Y-13242341D02*
X7163634Y-13223293D01*
X7163634Y-13223293D02*
X7154110Y-13185198D01*
X7154110Y-13185198D02*
X7154110Y-13137579D01*
X7154110Y-13137579D02*
X7163634Y-13099484D01*
X7163634Y-13099484D02*
X7173158Y-13080436D01*
X7173158Y-13080436D02*
X7182681Y-13070913D01*
X7182681Y-13070913D02*
X7201729Y-13061389D01*
X7354110Y-13242341D02*
X7363634Y-13251865D01*
X7363634Y-13251865D02*
X7354110Y-13261389D01*
X7354110Y-13261389D02*
X7344586Y-13251865D01*
X7344586Y-13251865D02*
X7354110Y-13242341D01*
X7354110Y-13242341D02*
X7354110Y-13261389D01*
X7487443Y-13061389D02*
X7506491Y-13061389D01*
X7506491Y-13061389D02*
X7525539Y-13070913D01*
X7525539Y-13070913D02*
X7535062Y-13080436D01*
X7535062Y-13080436D02*
X7544586Y-13099484D01*
X7544586Y-13099484D02*
X7554110Y-13137579D01*
X7554110Y-13137579D02*
X7554110Y-13185198D01*
X7554110Y-13185198D02*
X7544586Y-13223293D01*
X7544586Y-13223293D02*
X7535062Y-13242341D01*
X7535062Y-13242341D02*
X7525539Y-13251865D01*
X7525539Y-13251865D02*
X7506491Y-13261389D01*
X7506491Y-13261389D02*
X7487443Y-13261389D01*
X7487443Y-13261389D02*
X7468396Y-13251865D01*
X7468396Y-13251865D02*
X7458872Y-13242341D01*
X7458872Y-13242341D02*
X7449348Y-13223293D01*
X7449348Y-13223293D02*
X7439824Y-13185198D01*
X7439824Y-13185198D02*
X7439824Y-13137579D01*
X7439824Y-13137579D02*
X7449348Y-13099484D01*
X7449348Y-13099484D02*
X7458872Y-13080436D01*
X7458872Y-13080436D02*
X7468396Y-13070913D01*
X7468396Y-13070913D02*
X7487443Y-13061389D01*
X7620777Y-13061389D02*
X7744586Y-13061389D01*
X7744586Y-13061389D02*
X7677920Y-13137579D01*
X7677920Y-13137579D02*
X7706491Y-13137579D01*
X7706491Y-13137579D02*
X7725539Y-13147103D01*
X7725539Y-13147103D02*
X7735062Y-13156627D01*
X7735062Y-13156627D02*
X7744586Y-13175674D01*
X7744586Y-13175674D02*
X7744586Y-13223293D01*
X7744586Y-13223293D02*
X7735062Y-13242341D01*
X7735062Y-13242341D02*
X7725539Y-13251865D01*
X7725539Y-13251865D02*
X7706491Y-13261389D01*
X7706491Y-13261389D02*
X7649348Y-13261389D01*
X7649348Y-13261389D02*
X7630301Y-13251865D01*
X7630301Y-13251865D02*
X7620777Y-13242341D01*
X7839824Y-13261389D02*
X7877920Y-13261389D01*
X7877920Y-13261389D02*
X7896967Y-13251865D01*
X7896967Y-13251865D02*
X7906491Y-13242341D01*
X7906491Y-13242341D02*
X7925539Y-13213770D01*
X7925539Y-13213770D02*
X7935062Y-13175674D01*
X7935062Y-13175674D02*
X7935062Y-13099484D01*
X7935062Y-13099484D02*
X7925539Y-13080436D01*
X7925539Y-13080436D02*
X7916015Y-13070913D01*
X7916015Y-13070913D02*
X7896967Y-13061389D01*
X7896967Y-13061389D02*
X7858872Y-13061389D01*
X7858872Y-13061389D02*
X7839824Y-13070913D01*
X7839824Y-13070913D02*
X7830301Y-13080436D01*
X7830301Y-13080436D02*
X7820777Y-13099484D01*
X7820777Y-13099484D02*
X7820777Y-13147103D01*
X7820777Y-13147103D02*
X7830301Y-13166151D01*
X7830301Y-13166151D02*
X7839824Y-13175674D01*
X7839824Y-13175674D02*
X7858872Y-13185198D01*
X7858872Y-13185198D02*
X7896967Y-13185198D01*
X7896967Y-13185198D02*
X7916015Y-13175674D01*
X7916015Y-13175674D02*
X7925539Y-13166151D01*
X7925539Y-13166151D02*
X7935062Y-13147103D01*
X8106491Y-13128055D02*
X8106491Y-13261389D01*
X8058872Y-13051865D02*
X8011253Y-13194722D01*
X8011253Y-13194722D02*
X8135062Y-13194722D01*
X8201729Y-13061389D02*
X8201729Y-13099484D01*
X8277920Y-13061389D02*
X8277920Y-13099484D01*
X8573158Y-13337579D02*
X8563634Y-13328055D01*
X8563634Y-13328055D02*
X8544586Y-13299484D01*
X8544586Y-13299484D02*
X8535063Y-13280436D01*
X8535063Y-13280436D02*
X8525539Y-13251865D01*
X8525539Y-13251865D02*
X8516015Y-13204246D01*
X8516015Y-13204246D02*
X8516015Y-13166151D01*
X8516015Y-13166151D02*
X8525539Y-13118532D01*
X8525539Y-13118532D02*
X8535063Y-13089960D01*
X8535063Y-13089960D02*
X8544586Y-13070913D01*
X8544586Y-13070913D02*
X8563634Y-13042341D01*
X8563634Y-13042341D02*
X8573158Y-13032817D01*
X8735063Y-13128055D02*
X8735063Y-13261389D01*
X8687444Y-13051865D02*
X8639825Y-13194722D01*
X8639825Y-13194722D02*
X8763634Y-13194722D01*
X8992206Y-13261389D02*
X8992206Y-13061389D01*
X9077920Y-13261389D02*
X9077920Y-13156627D01*
X9077920Y-13156627D02*
X9068396Y-13137579D01*
X9068396Y-13137579D02*
X9049348Y-13128055D01*
X9049348Y-13128055D02*
X9020777Y-13128055D01*
X9020777Y-13128055D02*
X9001729Y-13137579D01*
X9001729Y-13137579D02*
X8992206Y-13147103D01*
X9201729Y-13261389D02*
X9182682Y-13251865D01*
X9182682Y-13251865D02*
X9173158Y-13242341D01*
X9173158Y-13242341D02*
X9163634Y-13223293D01*
X9163634Y-13223293D02*
X9163634Y-13166151D01*
X9163634Y-13166151D02*
X9173158Y-13147103D01*
X9173158Y-13147103D02*
X9182682Y-13137579D01*
X9182682Y-13137579D02*
X9201729Y-13128055D01*
X9201729Y-13128055D02*
X9230301Y-13128055D01*
X9230301Y-13128055D02*
X9249348Y-13137579D01*
X9249348Y-13137579D02*
X9258872Y-13147103D01*
X9258872Y-13147103D02*
X9268396Y-13166151D01*
X9268396Y-13166151D02*
X9268396Y-13223293D01*
X9268396Y-13223293D02*
X9258872Y-13242341D01*
X9258872Y-13242341D02*
X9249348Y-13251865D01*
X9249348Y-13251865D02*
X9230301Y-13261389D01*
X9230301Y-13261389D02*
X9201729Y-13261389D01*
X9382682Y-13261389D02*
X9363634Y-13251865D01*
X9363634Y-13251865D02*
X9354110Y-13232817D01*
X9354110Y-13232817D02*
X9354110Y-13061389D01*
X9535063Y-13251865D02*
X9516015Y-13261389D01*
X9516015Y-13261389D02*
X9477920Y-13261389D01*
X9477920Y-13261389D02*
X9458872Y-13251865D01*
X9458872Y-13251865D02*
X9449348Y-13232817D01*
X9449348Y-13232817D02*
X9449348Y-13156627D01*
X9449348Y-13156627D02*
X9458872Y-13137579D01*
X9458872Y-13137579D02*
X9477920Y-13128055D01*
X9477920Y-13128055D02*
X9516015Y-13128055D01*
X9516015Y-13128055D02*
X9535063Y-13137579D01*
X9535063Y-13137579D02*
X9544587Y-13156627D01*
X9544587Y-13156627D02*
X9544587Y-13175674D01*
X9544587Y-13175674D02*
X9449348Y-13194722D01*
X9620777Y-13251865D02*
X9639825Y-13261389D01*
X9639825Y-13261389D02*
X9677920Y-13261389D01*
X9677920Y-13261389D02*
X9696968Y-13251865D01*
X9696968Y-13251865D02*
X9706491Y-13232817D01*
X9706491Y-13232817D02*
X9706491Y-13223293D01*
X9706491Y-13223293D02*
X9696968Y-13204246D01*
X9696968Y-13204246D02*
X9677920Y-13194722D01*
X9677920Y-13194722D02*
X9649348Y-13194722D01*
X9649348Y-13194722D02*
X9630301Y-13185198D01*
X9630301Y-13185198D02*
X9620777Y-13166151D01*
X9620777Y-13166151D02*
X9620777Y-13156627D01*
X9620777Y-13156627D02*
X9630301Y-13137579D01*
X9630301Y-13137579D02*
X9649348Y-13128055D01*
X9649348Y-13128055D02*
X9677920Y-13128055D01*
X9677920Y-13128055D02*
X9696968Y-13137579D01*
X9773158Y-13337579D02*
X9782682Y-13328055D01*
X9782682Y-13328055D02*
X9801729Y-13299484D01*
X9801729Y-13299484D02*
X9811253Y-13280436D01*
X9811253Y-13280436D02*
X9820777Y-13251865D01*
X9820777Y-13251865D02*
X9830301Y-13204246D01*
X9830301Y-13204246D02*
X9830301Y-13166151D01*
X9830301Y-13166151D02*
X9820777Y-13118532D01*
X9820777Y-13118532D02*
X9811253Y-13089960D01*
X9811253Y-13089960D02*
X9801729Y-13070913D01*
X9801729Y-13070913D02*
X9782682Y-13042341D01*
X9782682Y-13042341D02*
X9773158Y-13032817D01*
D12*
X4983451Y-13469261D02*
X4983451Y-13398549D01*
X4912739Y-13398549D01*
X4912739Y-13469261D01*
X4983451Y-13469261D01*
D11*
X5363634Y-13525389D02*
X5249348Y-13525389D01*
X5306491Y-13525389D02*
X5306491Y-13325389D01*
X5306491Y-13325389D02*
X5287443Y-13353960D01*
X5287443Y-13353960D02*
X5268396Y-13373008D01*
X5268396Y-13373008D02*
X5249348Y-13382532D01*
X5449348Y-13506341D02*
X5458872Y-13515865D01*
X5458872Y-13515865D02*
X5449348Y-13525389D01*
X5449348Y-13525389D02*
X5439824Y-13515865D01*
X5439824Y-13515865D02*
X5449348Y-13506341D01*
X5449348Y-13506341D02*
X5449348Y-13525389D01*
X5582681Y-13325389D02*
X5601729Y-13325389D01*
X5601729Y-13325389D02*
X5620777Y-13334913D01*
X5620777Y-13334913D02*
X5630300Y-13344436D01*
X5630300Y-13344436D02*
X5639824Y-13363484D01*
X5639824Y-13363484D02*
X5649348Y-13401579D01*
X5649348Y-13401579D02*
X5649348Y-13449198D01*
X5649348Y-13449198D02*
X5639824Y-13487293D01*
X5639824Y-13487293D02*
X5630300Y-13506341D01*
X5630300Y-13506341D02*
X5620777Y-13515865D01*
X5620777Y-13515865D02*
X5601729Y-13525389D01*
X5601729Y-13525389D02*
X5582681Y-13525389D01*
X5582681Y-13525389D02*
X5563634Y-13515865D01*
X5563634Y-13515865D02*
X5554110Y-13506341D01*
X5554110Y-13506341D02*
X5544586Y-13487293D01*
X5544586Y-13487293D02*
X5535062Y-13449198D01*
X5535062Y-13449198D02*
X5535062Y-13401579D01*
X5535062Y-13401579D02*
X5544586Y-13363484D01*
X5544586Y-13363484D02*
X5554110Y-13344436D01*
X5554110Y-13344436D02*
X5563634Y-13334913D01*
X5563634Y-13334913D02*
X5582681Y-13325389D01*
X5773157Y-13325389D02*
X5792205Y-13325389D01*
X5792205Y-13325389D02*
X5811253Y-13334913D01*
X5811253Y-13334913D02*
X5820777Y-13344436D01*
X5820777Y-13344436D02*
X5830300Y-13363484D01*
X5830300Y-13363484D02*
X5839824Y-13401579D01*
X5839824Y-13401579D02*
X5839824Y-13449198D01*
X5839824Y-13449198D02*
X5830300Y-13487293D01*
X5830300Y-13487293D02*
X5820777Y-13506341D01*
X5820777Y-13506341D02*
X5811253Y-13515865D01*
X5811253Y-13515865D02*
X5792205Y-13525389D01*
X5792205Y-13525389D02*
X5773157Y-13525389D01*
X5773157Y-13525389D02*
X5754110Y-13515865D01*
X5754110Y-13515865D02*
X5744586Y-13506341D01*
X5744586Y-13506341D02*
X5735062Y-13487293D01*
X5735062Y-13487293D02*
X5725538Y-13449198D01*
X5725538Y-13449198D02*
X5725538Y-13401579D01*
X5725538Y-13401579D02*
X5735062Y-13363484D01*
X5735062Y-13363484D02*
X5744586Y-13344436D01*
X5744586Y-13344436D02*
X5754110Y-13334913D01*
X5754110Y-13334913D02*
X5773157Y-13325389D01*
X5963634Y-13325389D02*
X5982681Y-13325389D01*
X5982681Y-13325389D02*
X6001729Y-13334913D01*
X6001729Y-13334913D02*
X6011253Y-13344436D01*
X6011253Y-13344436D02*
X6020777Y-13363484D01*
X6020777Y-13363484D02*
X6030300Y-13401579D01*
X6030300Y-13401579D02*
X6030300Y-13449198D01*
X6030300Y-13449198D02*
X6020777Y-13487293D01*
X6020777Y-13487293D02*
X6011253Y-13506341D01*
X6011253Y-13506341D02*
X6001729Y-13515865D01*
X6001729Y-13515865D02*
X5982681Y-13525389D01*
X5982681Y-13525389D02*
X5963634Y-13525389D01*
X5963634Y-13525389D02*
X5944586Y-13515865D01*
X5944586Y-13515865D02*
X5935062Y-13506341D01*
X5935062Y-13506341D02*
X5925538Y-13487293D01*
X5925538Y-13487293D02*
X5916015Y-13449198D01*
X5916015Y-13449198D02*
X5916015Y-13401579D01*
X5916015Y-13401579D02*
X5925538Y-13363484D01*
X5925538Y-13363484D02*
X5935062Y-13344436D01*
X5935062Y-13344436D02*
X5944586Y-13334913D01*
X5944586Y-13334913D02*
X5963634Y-13325389D01*
X6116015Y-13525389D02*
X6116015Y-13392055D01*
X6116015Y-13411103D02*
X6125538Y-13401579D01*
X6125538Y-13401579D02*
X6144586Y-13392055D01*
X6144586Y-13392055D02*
X6173158Y-13392055D01*
X6173158Y-13392055D02*
X6192205Y-13401579D01*
X6192205Y-13401579D02*
X6201729Y-13420627D01*
X6201729Y-13420627D02*
X6201729Y-13525389D01*
X6201729Y-13420627D02*
X6211253Y-13401579D01*
X6211253Y-13401579D02*
X6230300Y-13392055D01*
X6230300Y-13392055D02*
X6258872Y-13392055D01*
X6258872Y-13392055D02*
X6277919Y-13401579D01*
X6277919Y-13401579D02*
X6287443Y-13420627D01*
X6287443Y-13420627D02*
X6287443Y-13525389D01*
X6382681Y-13525389D02*
X6382681Y-13392055D01*
X6382681Y-13411103D02*
X6392205Y-13401579D01*
X6392205Y-13401579D02*
X6411253Y-13392055D01*
X6411253Y-13392055D02*
X6439824Y-13392055D01*
X6439824Y-13392055D02*
X6458872Y-13401579D01*
X6458872Y-13401579D02*
X6468396Y-13420627D01*
X6468396Y-13420627D02*
X6468396Y-13525389D01*
X6468396Y-13420627D02*
X6477919Y-13401579D01*
X6477919Y-13401579D02*
X6496967Y-13392055D01*
X6496967Y-13392055D02*
X6525538Y-13392055D01*
X6525538Y-13392055D02*
X6544586Y-13401579D01*
X6544586Y-13401579D02*
X6554110Y-13420627D01*
X6554110Y-13420627D02*
X6554110Y-13525389D01*
X6944586Y-13315865D02*
X6773158Y-13573008D01*
X7201729Y-13325389D02*
X7220777Y-13325389D01*
X7220777Y-13325389D02*
X7239824Y-13334913D01*
X7239824Y-13334913D02*
X7249348Y-13344436D01*
X7249348Y-13344436D02*
X7258872Y-13363484D01*
X7258872Y-13363484D02*
X7268396Y-13401579D01*
X7268396Y-13401579D02*
X7268396Y-13449198D01*
X7268396Y-13449198D02*
X7258872Y-13487293D01*
X7258872Y-13487293D02*
X7249348Y-13506341D01*
X7249348Y-13506341D02*
X7239824Y-13515865D01*
X7239824Y-13515865D02*
X7220777Y-13525389D01*
X7220777Y-13525389D02*
X7201729Y-13525389D01*
X7201729Y-13525389D02*
X7182681Y-13515865D01*
X7182681Y-13515865D02*
X7173158Y-13506341D01*
X7173158Y-13506341D02*
X7163634Y-13487293D01*
X7163634Y-13487293D02*
X7154110Y-13449198D01*
X7154110Y-13449198D02*
X7154110Y-13401579D01*
X7154110Y-13401579D02*
X7163634Y-13363484D01*
X7163634Y-13363484D02*
X7173158Y-13344436D01*
X7173158Y-13344436D02*
X7182681Y-13334913D01*
X7182681Y-13334913D02*
X7201729Y-13325389D01*
X7354110Y-13506341D02*
X7363634Y-13515865D01*
X7363634Y-13515865D02*
X7354110Y-13525389D01*
X7354110Y-13525389D02*
X7344586Y-13515865D01*
X7344586Y-13515865D02*
X7354110Y-13506341D01*
X7354110Y-13506341D02*
X7354110Y-13525389D01*
X7487443Y-13325389D02*
X7506491Y-13325389D01*
X7506491Y-13325389D02*
X7525539Y-13334913D01*
X7525539Y-13334913D02*
X7535062Y-13344436D01*
X7535062Y-13344436D02*
X7544586Y-13363484D01*
X7544586Y-13363484D02*
X7554110Y-13401579D01*
X7554110Y-13401579D02*
X7554110Y-13449198D01*
X7554110Y-13449198D02*
X7544586Y-13487293D01*
X7544586Y-13487293D02*
X7535062Y-13506341D01*
X7535062Y-13506341D02*
X7525539Y-13515865D01*
X7525539Y-13515865D02*
X7506491Y-13525389D01*
X7506491Y-13525389D02*
X7487443Y-13525389D01*
X7487443Y-13525389D02*
X7468396Y-13515865D01*
X7468396Y-13515865D02*
X7458872Y-13506341D01*
X7458872Y-13506341D02*
X7449348Y-13487293D01*
X7449348Y-13487293D02*
X7439824Y-13449198D01*
X7439824Y-13449198D02*
X7439824Y-13401579D01*
X7439824Y-13401579D02*
X7449348Y-13363484D01*
X7449348Y-13363484D02*
X7458872Y-13344436D01*
X7458872Y-13344436D02*
X7468396Y-13334913D01*
X7468396Y-13334913D02*
X7487443Y-13325389D01*
X7620777Y-13325389D02*
X7744586Y-13325389D01*
X7744586Y-13325389D02*
X7677920Y-13401579D01*
X7677920Y-13401579D02*
X7706491Y-13401579D01*
X7706491Y-13401579D02*
X7725539Y-13411103D01*
X7725539Y-13411103D02*
X7735062Y-13420627D01*
X7735062Y-13420627D02*
X7744586Y-13439674D01*
X7744586Y-13439674D02*
X7744586Y-13487293D01*
X7744586Y-13487293D02*
X7735062Y-13506341D01*
X7735062Y-13506341D02*
X7725539Y-13515865D01*
X7725539Y-13515865D02*
X7706491Y-13525389D01*
X7706491Y-13525389D02*
X7649348Y-13525389D01*
X7649348Y-13525389D02*
X7630301Y-13515865D01*
X7630301Y-13515865D02*
X7620777Y-13506341D01*
X7839824Y-13525389D02*
X7877920Y-13525389D01*
X7877920Y-13525389D02*
X7896967Y-13515865D01*
X7896967Y-13515865D02*
X7906491Y-13506341D01*
X7906491Y-13506341D02*
X7925539Y-13477770D01*
X7925539Y-13477770D02*
X7935062Y-13439674D01*
X7935062Y-13439674D02*
X7935062Y-13363484D01*
X7935062Y-13363484D02*
X7925539Y-13344436D01*
X7925539Y-13344436D02*
X7916015Y-13334913D01*
X7916015Y-13334913D02*
X7896967Y-13325389D01*
X7896967Y-13325389D02*
X7858872Y-13325389D01*
X7858872Y-13325389D02*
X7839824Y-13334913D01*
X7839824Y-13334913D02*
X7830301Y-13344436D01*
X7830301Y-13344436D02*
X7820777Y-13363484D01*
X7820777Y-13363484D02*
X7820777Y-13411103D01*
X7820777Y-13411103D02*
X7830301Y-13430151D01*
X7830301Y-13430151D02*
X7839824Y-13439674D01*
X7839824Y-13439674D02*
X7858872Y-13449198D01*
X7858872Y-13449198D02*
X7896967Y-13449198D01*
X7896967Y-13449198D02*
X7916015Y-13439674D01*
X7916015Y-13439674D02*
X7925539Y-13430151D01*
X7925539Y-13430151D02*
X7935062Y-13411103D01*
X8106491Y-13392055D02*
X8106491Y-13525389D01*
X8058872Y-13315865D02*
X8011253Y-13458722D01*
X8011253Y-13458722D02*
X8135062Y-13458722D01*
X8201729Y-13325389D02*
X8201729Y-13363484D01*
X8277920Y-13325389D02*
X8277920Y-13363484D01*
X8573158Y-13601579D02*
X8563634Y-13592055D01*
X8563634Y-13592055D02*
X8544586Y-13563484D01*
X8544586Y-13563484D02*
X8535063Y-13544436D01*
X8535063Y-13544436D02*
X8525539Y-13515865D01*
X8525539Y-13515865D02*
X8516015Y-13468246D01*
X8516015Y-13468246D02*
X8516015Y-13430151D01*
X8516015Y-13430151D02*
X8525539Y-13382532D01*
X8525539Y-13382532D02*
X8535063Y-13353960D01*
X8535063Y-13353960D02*
X8544586Y-13334913D01*
X8544586Y-13334913D02*
X8563634Y-13306341D01*
X8563634Y-13306341D02*
X8573158Y-13296817D01*
X8754110Y-13525389D02*
X8639825Y-13525389D01*
X8696967Y-13525389D02*
X8696967Y-13325389D01*
X8696967Y-13325389D02*
X8677920Y-13353960D01*
X8677920Y-13353960D02*
X8658872Y-13373008D01*
X8658872Y-13373008D02*
X8639825Y-13382532D01*
X8868396Y-13411103D02*
X8849348Y-13401579D01*
X8849348Y-13401579D02*
X8839825Y-13392055D01*
X8839825Y-13392055D02*
X8830301Y-13373008D01*
X8830301Y-13373008D02*
X8830301Y-13363484D01*
X8830301Y-13363484D02*
X8839825Y-13344436D01*
X8839825Y-13344436D02*
X8849348Y-13334913D01*
X8849348Y-13334913D02*
X8868396Y-13325389D01*
X8868396Y-13325389D02*
X8906491Y-13325389D01*
X8906491Y-13325389D02*
X8925539Y-13334913D01*
X8925539Y-13334913D02*
X8935063Y-13344436D01*
X8935063Y-13344436D02*
X8944586Y-13363484D01*
X8944586Y-13363484D02*
X8944586Y-13373008D01*
X8944586Y-13373008D02*
X8935063Y-13392055D01*
X8935063Y-13392055D02*
X8925539Y-13401579D01*
X8925539Y-13401579D02*
X8906491Y-13411103D01*
X8906491Y-13411103D02*
X8868396Y-13411103D01*
X8868396Y-13411103D02*
X8849348Y-13420627D01*
X8849348Y-13420627D02*
X8839825Y-13430151D01*
X8839825Y-13430151D02*
X8830301Y-13449198D01*
X8830301Y-13449198D02*
X8830301Y-13487293D01*
X8830301Y-13487293D02*
X8839825Y-13506341D01*
X8839825Y-13506341D02*
X8849348Y-13515865D01*
X8849348Y-13515865D02*
X8868396Y-13525389D01*
X8868396Y-13525389D02*
X8906491Y-13525389D01*
X8906491Y-13525389D02*
X8925539Y-13515865D01*
X8925539Y-13515865D02*
X8935063Y-13506341D01*
X8935063Y-13506341D02*
X8944586Y-13487293D01*
X8944586Y-13487293D02*
X8944586Y-13449198D01*
X8944586Y-13449198D02*
X8935063Y-13430151D01*
X8935063Y-13430151D02*
X8925539Y-13420627D01*
X8925539Y-13420627D02*
X8906491Y-13411103D01*
X9182682Y-13525389D02*
X9182682Y-13325389D01*
X9268396Y-13525389D02*
X9268396Y-13420627D01*
X9268396Y-13420627D02*
X9258872Y-13401579D01*
X9258872Y-13401579D02*
X9239825Y-13392055D01*
X9239825Y-13392055D02*
X9211253Y-13392055D01*
X9211253Y-13392055D02*
X9192206Y-13401579D01*
X9192206Y-13401579D02*
X9182682Y-13411103D01*
X9392206Y-13525389D02*
X9373158Y-13515865D01*
X9373158Y-13515865D02*
X9363634Y-13506341D01*
X9363634Y-13506341D02*
X9354110Y-13487293D01*
X9354110Y-13487293D02*
X9354110Y-13430151D01*
X9354110Y-13430151D02*
X9363634Y-13411103D01*
X9363634Y-13411103D02*
X9373158Y-13401579D01*
X9373158Y-13401579D02*
X9392206Y-13392055D01*
X9392206Y-13392055D02*
X9420777Y-13392055D01*
X9420777Y-13392055D02*
X9439825Y-13401579D01*
X9439825Y-13401579D02*
X9449348Y-13411103D01*
X9449348Y-13411103D02*
X9458872Y-13430151D01*
X9458872Y-13430151D02*
X9458872Y-13487293D01*
X9458872Y-13487293D02*
X9449348Y-13506341D01*
X9449348Y-13506341D02*
X9439825Y-13515865D01*
X9439825Y-13515865D02*
X9420777Y-13525389D01*
X9420777Y-13525389D02*
X9392206Y-13525389D01*
X9573158Y-13525389D02*
X9554110Y-13515865D01*
X9554110Y-13515865D02*
X9544587Y-13496817D01*
X9544587Y-13496817D02*
X9544587Y-13325389D01*
X9725539Y-13515865D02*
X9706491Y-13525389D01*
X9706491Y-13525389D02*
X9668396Y-13525389D01*
X9668396Y-13525389D02*
X9649348Y-13515865D01*
X9649348Y-13515865D02*
X9639825Y-13496817D01*
X9639825Y-13496817D02*
X9639825Y-13420627D01*
X9639825Y-13420627D02*
X9649348Y-13401579D01*
X9649348Y-13401579D02*
X9668396Y-13392055D01*
X9668396Y-13392055D02*
X9706491Y-13392055D01*
X9706491Y-13392055D02*
X9725539Y-13401579D01*
X9725539Y-13401579D02*
X9735063Y-13420627D01*
X9735063Y-13420627D02*
X9735063Y-13439674D01*
X9735063Y-13439674D02*
X9639825Y-13458722D01*
X9811253Y-13515865D02*
X9830301Y-13525389D01*
X9830301Y-13525389D02*
X9868396Y-13525389D01*
X9868396Y-13525389D02*
X9887444Y-13515865D01*
X9887444Y-13515865D02*
X9896968Y-13496817D01*
X9896968Y-13496817D02*
X9896968Y-13487293D01*
X9896968Y-13487293D02*
X9887444Y-13468246D01*
X9887444Y-13468246D02*
X9868396Y-13458722D01*
X9868396Y-13458722D02*
X9839825Y-13458722D01*
X9839825Y-13458722D02*
X9820777Y-13449198D01*
X9820777Y-13449198D02*
X9811253Y-13430151D01*
X9811253Y-13430151D02*
X9811253Y-13420627D01*
X9811253Y-13420627D02*
X9820777Y-13401579D01*
X9820777Y-13401579D02*
X9839825Y-13392055D01*
X9839825Y-13392055D02*
X9868396Y-13392055D01*
X9868396Y-13392055D02*
X9887444Y-13401579D01*
X9963634Y-13601579D02*
X9973158Y-13592055D01*
X9973158Y-13592055D02*
X9992206Y-13563484D01*
X9992206Y-13563484D02*
X10001729Y-13544436D01*
X10001729Y-13544436D02*
X10011253Y-13515865D01*
X10011253Y-13515865D02*
X10020777Y-13468246D01*
X10020777Y-13468246D02*
X10020777Y-13430151D01*
X10020777Y-13430151D02*
X10011253Y-13382532D01*
X10011253Y-13382532D02*
X10001729Y-13353960D01*
X10001729Y-13353960D02*
X9992206Y-13334913D01*
X9992206Y-13334913D02*
X9973158Y-13306341D01*
X9973158Y-13306341D02*
X9963634Y-13296817D01*
D13*
X4918085Y-13777915D02*
X4998095Y-13697905D01*
X4918085Y-13617895D01*
X4838075Y-13697905D01*
X4918085Y-13777915D01*
D11*
X5363634Y-13789389D02*
X5249348Y-13789389D01*
X5306491Y-13789389D02*
X5306491Y-13589389D01*
X5306491Y-13589389D02*
X5287443Y-13617960D01*
X5287443Y-13617960D02*
X5268396Y-13637008D01*
X5268396Y-13637008D02*
X5249348Y-13646532D01*
X5449348Y-13770341D02*
X5458872Y-13779865D01*
X5458872Y-13779865D02*
X5449348Y-13789389D01*
X5449348Y-13789389D02*
X5439824Y-13779865D01*
X5439824Y-13779865D02*
X5449348Y-13770341D01*
X5449348Y-13770341D02*
X5449348Y-13789389D01*
X5630300Y-13589389D02*
X5592205Y-13589389D01*
X5592205Y-13589389D02*
X5573158Y-13598913D01*
X5573158Y-13598913D02*
X5563634Y-13608436D01*
X5563634Y-13608436D02*
X5544586Y-13637008D01*
X5544586Y-13637008D02*
X5535062Y-13675103D01*
X5535062Y-13675103D02*
X5535062Y-13751293D01*
X5535062Y-13751293D02*
X5544586Y-13770341D01*
X5544586Y-13770341D02*
X5554110Y-13779865D01*
X5554110Y-13779865D02*
X5573158Y-13789389D01*
X5573158Y-13789389D02*
X5611253Y-13789389D01*
X5611253Y-13789389D02*
X5630300Y-13779865D01*
X5630300Y-13779865D02*
X5639824Y-13770341D01*
X5639824Y-13770341D02*
X5649348Y-13751293D01*
X5649348Y-13751293D02*
X5649348Y-13703674D01*
X5649348Y-13703674D02*
X5639824Y-13684627D01*
X5639824Y-13684627D02*
X5630300Y-13675103D01*
X5630300Y-13675103D02*
X5611253Y-13665579D01*
X5611253Y-13665579D02*
X5573158Y-13665579D01*
X5573158Y-13665579D02*
X5554110Y-13675103D01*
X5554110Y-13675103D02*
X5544586Y-13684627D01*
X5544586Y-13684627D02*
X5535062Y-13703674D01*
X5773157Y-13589389D02*
X5792205Y-13589389D01*
X5792205Y-13589389D02*
X5811253Y-13598913D01*
X5811253Y-13598913D02*
X5820777Y-13608436D01*
X5820777Y-13608436D02*
X5830300Y-13627484D01*
X5830300Y-13627484D02*
X5839824Y-13665579D01*
X5839824Y-13665579D02*
X5839824Y-13713198D01*
X5839824Y-13713198D02*
X5830300Y-13751293D01*
X5830300Y-13751293D02*
X5820777Y-13770341D01*
X5820777Y-13770341D02*
X5811253Y-13779865D01*
X5811253Y-13779865D02*
X5792205Y-13789389D01*
X5792205Y-13789389D02*
X5773157Y-13789389D01*
X5773157Y-13789389D02*
X5754110Y-13779865D01*
X5754110Y-13779865D02*
X5744586Y-13770341D01*
X5744586Y-13770341D02*
X5735062Y-13751293D01*
X5735062Y-13751293D02*
X5725538Y-13713198D01*
X5725538Y-13713198D02*
X5725538Y-13665579D01*
X5725538Y-13665579D02*
X5735062Y-13627484D01*
X5735062Y-13627484D02*
X5744586Y-13608436D01*
X5744586Y-13608436D02*
X5754110Y-13598913D01*
X5754110Y-13598913D02*
X5773157Y-13589389D01*
X5963634Y-13589389D02*
X5982681Y-13589389D01*
X5982681Y-13589389D02*
X6001729Y-13598913D01*
X6001729Y-13598913D02*
X6011253Y-13608436D01*
X6011253Y-13608436D02*
X6020777Y-13627484D01*
X6020777Y-13627484D02*
X6030300Y-13665579D01*
X6030300Y-13665579D02*
X6030300Y-13713198D01*
X6030300Y-13713198D02*
X6020777Y-13751293D01*
X6020777Y-13751293D02*
X6011253Y-13770341D01*
X6011253Y-13770341D02*
X6001729Y-13779865D01*
X6001729Y-13779865D02*
X5982681Y-13789389D01*
X5982681Y-13789389D02*
X5963634Y-13789389D01*
X5963634Y-13789389D02*
X5944586Y-13779865D01*
X5944586Y-13779865D02*
X5935062Y-13770341D01*
X5935062Y-13770341D02*
X5925538Y-13751293D01*
X5925538Y-13751293D02*
X5916015Y-13713198D01*
X5916015Y-13713198D02*
X5916015Y-13665579D01*
X5916015Y-13665579D02*
X5925538Y-13627484D01*
X5925538Y-13627484D02*
X5935062Y-13608436D01*
X5935062Y-13608436D02*
X5944586Y-13598913D01*
X5944586Y-13598913D02*
X5963634Y-13589389D01*
X6116015Y-13789389D02*
X6116015Y-13656055D01*
X6116015Y-13675103D02*
X6125538Y-13665579D01*
X6125538Y-13665579D02*
X6144586Y-13656055D01*
X6144586Y-13656055D02*
X6173158Y-13656055D01*
X6173158Y-13656055D02*
X6192205Y-13665579D01*
X6192205Y-13665579D02*
X6201729Y-13684627D01*
X6201729Y-13684627D02*
X6201729Y-13789389D01*
X6201729Y-13684627D02*
X6211253Y-13665579D01*
X6211253Y-13665579D02*
X6230300Y-13656055D01*
X6230300Y-13656055D02*
X6258872Y-13656055D01*
X6258872Y-13656055D02*
X6277919Y-13665579D01*
X6277919Y-13665579D02*
X6287443Y-13684627D01*
X6287443Y-13684627D02*
X6287443Y-13789389D01*
X6382681Y-13789389D02*
X6382681Y-13656055D01*
X6382681Y-13675103D02*
X6392205Y-13665579D01*
X6392205Y-13665579D02*
X6411253Y-13656055D01*
X6411253Y-13656055D02*
X6439824Y-13656055D01*
X6439824Y-13656055D02*
X6458872Y-13665579D01*
X6458872Y-13665579D02*
X6468396Y-13684627D01*
X6468396Y-13684627D02*
X6468396Y-13789389D01*
X6468396Y-13684627D02*
X6477919Y-13665579D01*
X6477919Y-13665579D02*
X6496967Y-13656055D01*
X6496967Y-13656055D02*
X6525538Y-13656055D01*
X6525538Y-13656055D02*
X6544586Y-13665579D01*
X6544586Y-13665579D02*
X6554110Y-13684627D01*
X6554110Y-13684627D02*
X6554110Y-13789389D01*
X6944586Y-13579865D02*
X6773158Y-13837008D01*
X7201729Y-13589389D02*
X7220777Y-13589389D01*
X7220777Y-13589389D02*
X7239824Y-13598913D01*
X7239824Y-13598913D02*
X7249348Y-13608436D01*
X7249348Y-13608436D02*
X7258872Y-13627484D01*
X7258872Y-13627484D02*
X7268396Y-13665579D01*
X7268396Y-13665579D02*
X7268396Y-13713198D01*
X7268396Y-13713198D02*
X7258872Y-13751293D01*
X7258872Y-13751293D02*
X7249348Y-13770341D01*
X7249348Y-13770341D02*
X7239824Y-13779865D01*
X7239824Y-13779865D02*
X7220777Y-13789389D01*
X7220777Y-13789389D02*
X7201729Y-13789389D01*
X7201729Y-13789389D02*
X7182681Y-13779865D01*
X7182681Y-13779865D02*
X7173158Y-13770341D01*
X7173158Y-13770341D02*
X7163634Y-13751293D01*
X7163634Y-13751293D02*
X7154110Y-13713198D01*
X7154110Y-13713198D02*
X7154110Y-13665579D01*
X7154110Y-13665579D02*
X7163634Y-13627484D01*
X7163634Y-13627484D02*
X7173158Y-13608436D01*
X7173158Y-13608436D02*
X7182681Y-13598913D01*
X7182681Y-13598913D02*
X7201729Y-13589389D01*
X7354110Y-13770341D02*
X7363634Y-13779865D01*
X7363634Y-13779865D02*
X7354110Y-13789389D01*
X7354110Y-13789389D02*
X7344586Y-13779865D01*
X7344586Y-13779865D02*
X7354110Y-13770341D01*
X7354110Y-13770341D02*
X7354110Y-13789389D01*
X7487443Y-13589389D02*
X7506491Y-13589389D01*
X7506491Y-13589389D02*
X7525539Y-13598913D01*
X7525539Y-13598913D02*
X7535062Y-13608436D01*
X7535062Y-13608436D02*
X7544586Y-13627484D01*
X7544586Y-13627484D02*
X7554110Y-13665579D01*
X7554110Y-13665579D02*
X7554110Y-13713198D01*
X7554110Y-13713198D02*
X7544586Y-13751293D01*
X7544586Y-13751293D02*
X7535062Y-13770341D01*
X7535062Y-13770341D02*
X7525539Y-13779865D01*
X7525539Y-13779865D02*
X7506491Y-13789389D01*
X7506491Y-13789389D02*
X7487443Y-13789389D01*
X7487443Y-13789389D02*
X7468396Y-13779865D01*
X7468396Y-13779865D02*
X7458872Y-13770341D01*
X7458872Y-13770341D02*
X7449348Y-13751293D01*
X7449348Y-13751293D02*
X7439824Y-13713198D01*
X7439824Y-13713198D02*
X7439824Y-13665579D01*
X7439824Y-13665579D02*
X7449348Y-13627484D01*
X7449348Y-13627484D02*
X7458872Y-13608436D01*
X7458872Y-13608436D02*
X7468396Y-13598913D01*
X7468396Y-13598913D02*
X7487443Y-13589389D01*
X7725539Y-13589389D02*
X7687443Y-13589389D01*
X7687443Y-13589389D02*
X7668396Y-13598913D01*
X7668396Y-13598913D02*
X7658872Y-13608436D01*
X7658872Y-13608436D02*
X7639824Y-13637008D01*
X7639824Y-13637008D02*
X7630301Y-13675103D01*
X7630301Y-13675103D02*
X7630301Y-13751293D01*
X7630301Y-13751293D02*
X7639824Y-13770341D01*
X7639824Y-13770341D02*
X7649348Y-13779865D01*
X7649348Y-13779865D02*
X7668396Y-13789389D01*
X7668396Y-13789389D02*
X7706491Y-13789389D01*
X7706491Y-13789389D02*
X7725539Y-13779865D01*
X7725539Y-13779865D02*
X7735062Y-13770341D01*
X7735062Y-13770341D02*
X7744586Y-13751293D01*
X7744586Y-13751293D02*
X7744586Y-13703674D01*
X7744586Y-13703674D02*
X7735062Y-13684627D01*
X7735062Y-13684627D02*
X7725539Y-13675103D01*
X7725539Y-13675103D02*
X7706491Y-13665579D01*
X7706491Y-13665579D02*
X7668396Y-13665579D01*
X7668396Y-13665579D02*
X7649348Y-13675103D01*
X7649348Y-13675103D02*
X7639824Y-13684627D01*
X7639824Y-13684627D02*
X7630301Y-13703674D01*
X7811253Y-13589389D02*
X7935062Y-13589389D01*
X7935062Y-13589389D02*
X7868396Y-13665579D01*
X7868396Y-13665579D02*
X7896967Y-13665579D01*
X7896967Y-13665579D02*
X7916015Y-13675103D01*
X7916015Y-13675103D02*
X7925539Y-13684627D01*
X7925539Y-13684627D02*
X7935062Y-13703674D01*
X7935062Y-13703674D02*
X7935062Y-13751293D01*
X7935062Y-13751293D02*
X7925539Y-13770341D01*
X7925539Y-13770341D02*
X7916015Y-13779865D01*
X7916015Y-13779865D02*
X7896967Y-13789389D01*
X7896967Y-13789389D02*
X7839824Y-13789389D01*
X7839824Y-13789389D02*
X7820777Y-13779865D01*
X7820777Y-13779865D02*
X7811253Y-13770341D01*
X8058872Y-13589389D02*
X8077920Y-13589389D01*
X8077920Y-13589389D02*
X8096967Y-13598913D01*
X8096967Y-13598913D02*
X8106491Y-13608436D01*
X8106491Y-13608436D02*
X8116015Y-13627484D01*
X8116015Y-13627484D02*
X8125539Y-13665579D01*
X8125539Y-13665579D02*
X8125539Y-13713198D01*
X8125539Y-13713198D02*
X8116015Y-13751293D01*
X8116015Y-13751293D02*
X8106491Y-13770341D01*
X8106491Y-13770341D02*
X8096967Y-13779865D01*
X8096967Y-13779865D02*
X8077920Y-13789389D01*
X8077920Y-13789389D02*
X8058872Y-13789389D01*
X8058872Y-13789389D02*
X8039824Y-13779865D01*
X8039824Y-13779865D02*
X8030301Y-13770341D01*
X8030301Y-13770341D02*
X8020777Y-13751293D01*
X8020777Y-13751293D02*
X8011253Y-13713198D01*
X8011253Y-13713198D02*
X8011253Y-13665579D01*
X8011253Y-13665579D02*
X8020777Y-13627484D01*
X8020777Y-13627484D02*
X8030301Y-13608436D01*
X8030301Y-13608436D02*
X8039824Y-13598913D01*
X8039824Y-13598913D02*
X8058872Y-13589389D01*
X8201729Y-13589389D02*
X8201729Y-13627484D01*
X8277920Y-13589389D02*
X8277920Y-13627484D01*
X8573158Y-13865579D02*
X8563634Y-13856055D01*
X8563634Y-13856055D02*
X8544586Y-13827484D01*
X8544586Y-13827484D02*
X8535063Y-13808436D01*
X8535063Y-13808436D02*
X8525539Y-13779865D01*
X8525539Y-13779865D02*
X8516015Y-13732246D01*
X8516015Y-13732246D02*
X8516015Y-13694151D01*
X8516015Y-13694151D02*
X8525539Y-13646532D01*
X8525539Y-13646532D02*
X8535063Y-13617960D01*
X8535063Y-13617960D02*
X8544586Y-13598913D01*
X8544586Y-13598913D02*
X8563634Y-13570341D01*
X8563634Y-13570341D02*
X8573158Y-13560817D01*
X8630301Y-13589389D02*
X8754110Y-13589389D01*
X8754110Y-13589389D02*
X8687444Y-13665579D01*
X8687444Y-13665579D02*
X8716015Y-13665579D01*
X8716015Y-13665579D02*
X8735063Y-13675103D01*
X8735063Y-13675103D02*
X8744586Y-13684627D01*
X8744586Y-13684627D02*
X8754110Y-13703674D01*
X8754110Y-13703674D02*
X8754110Y-13751293D01*
X8754110Y-13751293D02*
X8744586Y-13770341D01*
X8744586Y-13770341D02*
X8735063Y-13779865D01*
X8735063Y-13779865D02*
X8716015Y-13789389D01*
X8716015Y-13789389D02*
X8658872Y-13789389D01*
X8658872Y-13789389D02*
X8639825Y-13779865D01*
X8639825Y-13779865D02*
X8630301Y-13770341D01*
X8992206Y-13789389D02*
X8992206Y-13589389D01*
X9077920Y-13789389D02*
X9077920Y-13684627D01*
X9077920Y-13684627D02*
X9068396Y-13665579D01*
X9068396Y-13665579D02*
X9049348Y-13656055D01*
X9049348Y-13656055D02*
X9020777Y-13656055D01*
X9020777Y-13656055D02*
X9001729Y-13665579D01*
X9001729Y-13665579D02*
X8992206Y-13675103D01*
X9201729Y-13789389D02*
X9182682Y-13779865D01*
X9182682Y-13779865D02*
X9173158Y-13770341D01*
X9173158Y-13770341D02*
X9163634Y-13751293D01*
X9163634Y-13751293D02*
X9163634Y-13694151D01*
X9163634Y-13694151D02*
X9173158Y-13675103D01*
X9173158Y-13675103D02*
X9182682Y-13665579D01*
X9182682Y-13665579D02*
X9201729Y-13656055D01*
X9201729Y-13656055D02*
X9230301Y-13656055D01*
X9230301Y-13656055D02*
X9249348Y-13665579D01*
X9249348Y-13665579D02*
X9258872Y-13675103D01*
X9258872Y-13675103D02*
X9268396Y-13694151D01*
X9268396Y-13694151D02*
X9268396Y-13751293D01*
X9268396Y-13751293D02*
X9258872Y-13770341D01*
X9258872Y-13770341D02*
X9249348Y-13779865D01*
X9249348Y-13779865D02*
X9230301Y-13789389D01*
X9230301Y-13789389D02*
X9201729Y-13789389D01*
X9382682Y-13789389D02*
X9363634Y-13779865D01*
X9363634Y-13779865D02*
X9354110Y-13760817D01*
X9354110Y-13760817D02*
X9354110Y-13589389D01*
X9535063Y-13779865D02*
X9516015Y-13789389D01*
X9516015Y-13789389D02*
X9477920Y-13789389D01*
X9477920Y-13789389D02*
X9458872Y-13779865D01*
X9458872Y-13779865D02*
X9449348Y-13760817D01*
X9449348Y-13760817D02*
X9449348Y-13684627D01*
X9449348Y-13684627D02*
X9458872Y-13665579D01*
X9458872Y-13665579D02*
X9477920Y-13656055D01*
X9477920Y-13656055D02*
X9516015Y-13656055D01*
X9516015Y-13656055D02*
X9535063Y-13665579D01*
X9535063Y-13665579D02*
X9544587Y-13684627D01*
X9544587Y-13684627D02*
X9544587Y-13703674D01*
X9544587Y-13703674D02*
X9449348Y-13722722D01*
X9620777Y-13779865D02*
X9639825Y-13789389D01*
X9639825Y-13789389D02*
X9677920Y-13789389D01*
X9677920Y-13789389D02*
X9696968Y-13779865D01*
X9696968Y-13779865D02*
X9706491Y-13760817D01*
X9706491Y-13760817D02*
X9706491Y-13751293D01*
X9706491Y-13751293D02*
X9696968Y-13732246D01*
X9696968Y-13732246D02*
X9677920Y-13722722D01*
X9677920Y-13722722D02*
X9649348Y-13722722D01*
X9649348Y-13722722D02*
X9630301Y-13713198D01*
X9630301Y-13713198D02*
X9620777Y-13694151D01*
X9620777Y-13694151D02*
X9620777Y-13684627D01*
X9620777Y-13684627D02*
X9630301Y-13665579D01*
X9630301Y-13665579D02*
X9649348Y-13656055D01*
X9649348Y-13656055D02*
X9677920Y-13656055D01*
X9677920Y-13656055D02*
X9696968Y-13665579D01*
X9773158Y-13865579D02*
X9782682Y-13856055D01*
X9782682Y-13856055D02*
X9801729Y-13827484D01*
X9801729Y-13827484D02*
X9811253Y-13808436D01*
X9811253Y-13808436D02*
X9820777Y-13779865D01*
X9820777Y-13779865D02*
X9830301Y-13732246D01*
X9830301Y-13732246D02*
X9830301Y-13694151D01*
X9830301Y-13694151D02*
X9820777Y-13646532D01*
X9820777Y-13646532D02*
X9811253Y-13617960D01*
X9811253Y-13617960D02*
X9801729Y-13598913D01*
X9801729Y-13598913D02*
X9782682Y-13570341D01*
X9782682Y-13570341D02*
X9773158Y-13560817D01*
X4798095Y-13877925D02*
X4998095Y-14077925D01*
X4998095Y-13877925D02*
X4798095Y-14077925D01*
X4998095Y-13977925D02*
G75*
G02*
X4798095Y-13977925I-100000J0D01*
G01*
X4798095Y-13977925D02*
G75*
G02*
X4998095Y-13977925I100000J0D01*
G01*
X5239824Y-13869409D02*
X5363634Y-13869409D01*
X5363634Y-13869409D02*
X5296967Y-13945599D01*
X5296967Y-13945599D02*
X5325539Y-13945599D01*
X5325539Y-13945599D02*
X5344586Y-13955123D01*
X5344586Y-13955123D02*
X5354110Y-13964647D01*
X5354110Y-13964647D02*
X5363634Y-13983694D01*
X5363634Y-13983694D02*
X5363634Y-14031313D01*
X5363634Y-14031313D02*
X5354110Y-14050361D01*
X5354110Y-14050361D02*
X5344586Y-14059885D01*
X5344586Y-14059885D02*
X5325539Y-14069409D01*
X5325539Y-14069409D02*
X5268396Y-14069409D01*
X5268396Y-14069409D02*
X5249348Y-14059885D01*
X5249348Y-14059885D02*
X5239824Y-14050361D01*
X5449348Y-14050361D02*
X5458872Y-14059885D01*
X5458872Y-14059885D02*
X5449348Y-14069409D01*
X5449348Y-14069409D02*
X5439824Y-14059885D01*
X5439824Y-14059885D02*
X5449348Y-14050361D01*
X5449348Y-14050361D02*
X5449348Y-14069409D01*
X5535062Y-13888456D02*
X5544586Y-13878933D01*
X5544586Y-13878933D02*
X5563634Y-13869409D01*
X5563634Y-13869409D02*
X5611253Y-13869409D01*
X5611253Y-13869409D02*
X5630300Y-13878933D01*
X5630300Y-13878933D02*
X5639824Y-13888456D01*
X5639824Y-13888456D02*
X5649348Y-13907504D01*
X5649348Y-13907504D02*
X5649348Y-13926552D01*
X5649348Y-13926552D02*
X5639824Y-13955123D01*
X5639824Y-13955123D02*
X5525539Y-14069409D01*
X5525539Y-14069409D02*
X5649348Y-14069409D01*
X5773157Y-13869409D02*
X5792205Y-13869409D01*
X5792205Y-13869409D02*
X5811253Y-13878933D01*
X5811253Y-13878933D02*
X5820777Y-13888456D01*
X5820777Y-13888456D02*
X5830300Y-13907504D01*
X5830300Y-13907504D02*
X5839824Y-13945599D01*
X5839824Y-13945599D02*
X5839824Y-13993218D01*
X5839824Y-13993218D02*
X5830300Y-14031313D01*
X5830300Y-14031313D02*
X5820777Y-14050361D01*
X5820777Y-14050361D02*
X5811253Y-14059885D01*
X5811253Y-14059885D02*
X5792205Y-14069409D01*
X5792205Y-14069409D02*
X5773157Y-14069409D01*
X5773157Y-14069409D02*
X5754110Y-14059885D01*
X5754110Y-14059885D02*
X5744586Y-14050361D01*
X5744586Y-14050361D02*
X5735062Y-14031313D01*
X5735062Y-14031313D02*
X5725538Y-13993218D01*
X5725538Y-13993218D02*
X5725538Y-13945599D01*
X5725538Y-13945599D02*
X5735062Y-13907504D01*
X5735062Y-13907504D02*
X5744586Y-13888456D01*
X5744586Y-13888456D02*
X5754110Y-13878933D01*
X5754110Y-13878933D02*
X5773157Y-13869409D01*
X5963634Y-13869409D02*
X5982681Y-13869409D01*
X5982681Y-13869409D02*
X6001729Y-13878933D01*
X6001729Y-13878933D02*
X6011253Y-13888456D01*
X6011253Y-13888456D02*
X6020777Y-13907504D01*
X6020777Y-13907504D02*
X6030300Y-13945599D01*
X6030300Y-13945599D02*
X6030300Y-13993218D01*
X6030300Y-13993218D02*
X6020777Y-14031313D01*
X6020777Y-14031313D02*
X6011253Y-14050361D01*
X6011253Y-14050361D02*
X6001729Y-14059885D01*
X6001729Y-14059885D02*
X5982681Y-14069409D01*
X5982681Y-14069409D02*
X5963634Y-14069409D01*
X5963634Y-14069409D02*
X5944586Y-14059885D01*
X5944586Y-14059885D02*
X5935062Y-14050361D01*
X5935062Y-14050361D02*
X5925538Y-14031313D01*
X5925538Y-14031313D02*
X5916015Y-13993218D01*
X5916015Y-13993218D02*
X5916015Y-13945599D01*
X5916015Y-13945599D02*
X5925538Y-13907504D01*
X5925538Y-13907504D02*
X5935062Y-13888456D01*
X5935062Y-13888456D02*
X5944586Y-13878933D01*
X5944586Y-13878933D02*
X5963634Y-13869409D01*
X6116015Y-14069409D02*
X6116015Y-13936075D01*
X6116015Y-13955123D02*
X6125538Y-13945599D01*
X6125538Y-13945599D02*
X6144586Y-13936075D01*
X6144586Y-13936075D02*
X6173158Y-13936075D01*
X6173158Y-13936075D02*
X6192205Y-13945599D01*
X6192205Y-13945599D02*
X6201729Y-13964647D01*
X6201729Y-13964647D02*
X6201729Y-14069409D01*
X6201729Y-13964647D02*
X6211253Y-13945599D01*
X6211253Y-13945599D02*
X6230300Y-13936075D01*
X6230300Y-13936075D02*
X6258872Y-13936075D01*
X6258872Y-13936075D02*
X6277919Y-13945599D01*
X6277919Y-13945599D02*
X6287443Y-13964647D01*
X6287443Y-13964647D02*
X6287443Y-14069409D01*
X6382681Y-14069409D02*
X6382681Y-13936075D01*
X6382681Y-13955123D02*
X6392205Y-13945599D01*
X6392205Y-13945599D02*
X6411253Y-13936075D01*
X6411253Y-13936075D02*
X6439824Y-13936075D01*
X6439824Y-13936075D02*
X6458872Y-13945599D01*
X6458872Y-13945599D02*
X6468396Y-13964647D01*
X6468396Y-13964647D02*
X6468396Y-14069409D01*
X6468396Y-13964647D02*
X6477919Y-13945599D01*
X6477919Y-13945599D02*
X6496967Y-13936075D01*
X6496967Y-13936075D02*
X6525538Y-13936075D01*
X6525538Y-13936075D02*
X6544586Y-13945599D01*
X6544586Y-13945599D02*
X6554110Y-13964647D01*
X6554110Y-13964647D02*
X6554110Y-14069409D01*
X6944586Y-13859885D02*
X6773158Y-14117028D01*
X7201729Y-13869409D02*
X7220777Y-13869409D01*
X7220777Y-13869409D02*
X7239824Y-13878933D01*
X7239824Y-13878933D02*
X7249348Y-13888456D01*
X7249348Y-13888456D02*
X7258872Y-13907504D01*
X7258872Y-13907504D02*
X7268396Y-13945599D01*
X7268396Y-13945599D02*
X7268396Y-13993218D01*
X7268396Y-13993218D02*
X7258872Y-14031313D01*
X7258872Y-14031313D02*
X7249348Y-14050361D01*
X7249348Y-14050361D02*
X7239824Y-14059885D01*
X7239824Y-14059885D02*
X7220777Y-14069409D01*
X7220777Y-14069409D02*
X7201729Y-14069409D01*
X7201729Y-14069409D02*
X7182681Y-14059885D01*
X7182681Y-14059885D02*
X7173158Y-14050361D01*
X7173158Y-14050361D02*
X7163634Y-14031313D01*
X7163634Y-14031313D02*
X7154110Y-13993218D01*
X7154110Y-13993218D02*
X7154110Y-13945599D01*
X7154110Y-13945599D02*
X7163634Y-13907504D01*
X7163634Y-13907504D02*
X7173158Y-13888456D01*
X7173158Y-13888456D02*
X7182681Y-13878933D01*
X7182681Y-13878933D02*
X7201729Y-13869409D01*
X7354110Y-14050361D02*
X7363634Y-14059885D01*
X7363634Y-14059885D02*
X7354110Y-14069409D01*
X7354110Y-14069409D02*
X7344586Y-14059885D01*
X7344586Y-14059885D02*
X7354110Y-14050361D01*
X7354110Y-14050361D02*
X7354110Y-14069409D01*
X7554110Y-14069409D02*
X7439824Y-14069409D01*
X7496967Y-14069409D02*
X7496967Y-13869409D01*
X7496967Y-13869409D02*
X7477920Y-13897980D01*
X7477920Y-13897980D02*
X7458872Y-13917028D01*
X7458872Y-13917028D02*
X7439824Y-13926552D01*
X7630301Y-13888456D02*
X7639824Y-13878933D01*
X7639824Y-13878933D02*
X7658872Y-13869409D01*
X7658872Y-13869409D02*
X7706491Y-13869409D01*
X7706491Y-13869409D02*
X7725539Y-13878933D01*
X7725539Y-13878933D02*
X7735062Y-13888456D01*
X7735062Y-13888456D02*
X7744586Y-13907504D01*
X7744586Y-13907504D02*
X7744586Y-13926552D01*
X7744586Y-13926552D02*
X7735062Y-13955123D01*
X7735062Y-13955123D02*
X7620777Y-14069409D01*
X7620777Y-14069409D02*
X7744586Y-14069409D01*
X7916015Y-13869409D02*
X7877920Y-13869409D01*
X7877920Y-13869409D02*
X7858872Y-13878933D01*
X7858872Y-13878933D02*
X7849348Y-13888456D01*
X7849348Y-13888456D02*
X7830301Y-13917028D01*
X7830301Y-13917028D02*
X7820777Y-13955123D01*
X7820777Y-13955123D02*
X7820777Y-14031313D01*
X7820777Y-14031313D02*
X7830301Y-14050361D01*
X7830301Y-14050361D02*
X7839824Y-14059885D01*
X7839824Y-14059885D02*
X7858872Y-14069409D01*
X7858872Y-14069409D02*
X7896967Y-14069409D01*
X7896967Y-14069409D02*
X7916015Y-14059885D01*
X7916015Y-14059885D02*
X7925539Y-14050361D01*
X7925539Y-14050361D02*
X7935062Y-14031313D01*
X7935062Y-14031313D02*
X7935062Y-13983694D01*
X7935062Y-13983694D02*
X7925539Y-13964647D01*
X7925539Y-13964647D02*
X7916015Y-13955123D01*
X7916015Y-13955123D02*
X7896967Y-13945599D01*
X7896967Y-13945599D02*
X7858872Y-13945599D01*
X7858872Y-13945599D02*
X7839824Y-13955123D01*
X7839824Y-13955123D02*
X7830301Y-13964647D01*
X7830301Y-13964647D02*
X7820777Y-13983694D01*
X8058872Y-13869409D02*
X8077920Y-13869409D01*
X8077920Y-13869409D02*
X8096967Y-13878933D01*
X8096967Y-13878933D02*
X8106491Y-13888456D01*
X8106491Y-13888456D02*
X8116015Y-13907504D01*
X8116015Y-13907504D02*
X8125539Y-13945599D01*
X8125539Y-13945599D02*
X8125539Y-13993218D01*
X8125539Y-13993218D02*
X8116015Y-14031313D01*
X8116015Y-14031313D02*
X8106491Y-14050361D01*
X8106491Y-14050361D02*
X8096967Y-14059885D01*
X8096967Y-14059885D02*
X8077920Y-14069409D01*
X8077920Y-14069409D02*
X8058872Y-14069409D01*
X8058872Y-14069409D02*
X8039824Y-14059885D01*
X8039824Y-14059885D02*
X8030301Y-14050361D01*
X8030301Y-14050361D02*
X8020777Y-14031313D01*
X8020777Y-14031313D02*
X8011253Y-13993218D01*
X8011253Y-13993218D02*
X8011253Y-13945599D01*
X8011253Y-13945599D02*
X8020777Y-13907504D01*
X8020777Y-13907504D02*
X8030301Y-13888456D01*
X8030301Y-13888456D02*
X8039824Y-13878933D01*
X8039824Y-13878933D02*
X8058872Y-13869409D01*
X8201729Y-13869409D02*
X8201729Y-13907504D01*
X8277920Y-13869409D02*
X8277920Y-13907504D01*
X8573158Y-14145599D02*
X8563634Y-14136075D01*
X8563634Y-14136075D02*
X8544586Y-14107504D01*
X8544586Y-14107504D02*
X8535063Y-14088456D01*
X8535063Y-14088456D02*
X8525539Y-14059885D01*
X8525539Y-14059885D02*
X8516015Y-14012266D01*
X8516015Y-14012266D02*
X8516015Y-13974171D01*
X8516015Y-13974171D02*
X8525539Y-13926552D01*
X8525539Y-13926552D02*
X8535063Y-13897980D01*
X8535063Y-13897980D02*
X8544586Y-13878933D01*
X8544586Y-13878933D02*
X8563634Y-13850361D01*
X8563634Y-13850361D02*
X8573158Y-13840837D01*
X8735063Y-13936075D02*
X8735063Y-14069409D01*
X8687444Y-13859885D02*
X8639825Y-14002742D01*
X8639825Y-14002742D02*
X8763634Y-14002742D01*
X8992206Y-14069409D02*
X8992206Y-13869409D01*
X9077920Y-14069409D02*
X9077920Y-13964647D01*
X9077920Y-13964647D02*
X9068396Y-13945599D01*
X9068396Y-13945599D02*
X9049348Y-13936075D01*
X9049348Y-13936075D02*
X9020777Y-13936075D01*
X9020777Y-13936075D02*
X9001729Y-13945599D01*
X9001729Y-13945599D02*
X8992206Y-13955123D01*
X9201729Y-14069409D02*
X9182682Y-14059885D01*
X9182682Y-14059885D02*
X9173158Y-14050361D01*
X9173158Y-14050361D02*
X9163634Y-14031313D01*
X9163634Y-14031313D02*
X9163634Y-13974171D01*
X9163634Y-13974171D02*
X9173158Y-13955123D01*
X9173158Y-13955123D02*
X9182682Y-13945599D01*
X9182682Y-13945599D02*
X9201729Y-13936075D01*
X9201729Y-13936075D02*
X9230301Y-13936075D01*
X9230301Y-13936075D02*
X9249348Y-13945599D01*
X9249348Y-13945599D02*
X9258872Y-13955123D01*
X9258872Y-13955123D02*
X9268396Y-13974171D01*
X9268396Y-13974171D02*
X9268396Y-14031313D01*
X9268396Y-14031313D02*
X9258872Y-14050361D01*
X9258872Y-14050361D02*
X9249348Y-14059885D01*
X9249348Y-14059885D02*
X9230301Y-14069409D01*
X9230301Y-14069409D02*
X9201729Y-14069409D01*
X9382682Y-14069409D02*
X9363634Y-14059885D01*
X9363634Y-14059885D02*
X9354110Y-14040837D01*
X9354110Y-14040837D02*
X9354110Y-13869409D01*
X9535063Y-14059885D02*
X9516015Y-14069409D01*
X9516015Y-14069409D02*
X9477920Y-14069409D01*
X9477920Y-14069409D02*
X9458872Y-14059885D01*
X9458872Y-14059885D02*
X9449348Y-14040837D01*
X9449348Y-14040837D02*
X9449348Y-13964647D01*
X9449348Y-13964647D02*
X9458872Y-13945599D01*
X9458872Y-13945599D02*
X9477920Y-13936075D01*
X9477920Y-13936075D02*
X9516015Y-13936075D01*
X9516015Y-13936075D02*
X9535063Y-13945599D01*
X9535063Y-13945599D02*
X9544587Y-13964647D01*
X9544587Y-13964647D02*
X9544587Y-13983694D01*
X9544587Y-13983694D02*
X9449348Y-14002742D01*
X9620777Y-14059885D02*
X9639825Y-14069409D01*
X9639825Y-14069409D02*
X9677920Y-14069409D01*
X9677920Y-14069409D02*
X9696968Y-14059885D01*
X9696968Y-14059885D02*
X9706491Y-14040837D01*
X9706491Y-14040837D02*
X9706491Y-14031313D01*
X9706491Y-14031313D02*
X9696968Y-14012266D01*
X9696968Y-14012266D02*
X9677920Y-14002742D01*
X9677920Y-14002742D02*
X9649348Y-14002742D01*
X9649348Y-14002742D02*
X9630301Y-13993218D01*
X9630301Y-13993218D02*
X9620777Y-13974171D01*
X9620777Y-13974171D02*
X9620777Y-13964647D01*
X9620777Y-13964647D02*
X9630301Y-13945599D01*
X9630301Y-13945599D02*
X9649348Y-13936075D01*
X9649348Y-13936075D02*
X9677920Y-13936075D01*
X9677920Y-13936075D02*
X9696968Y-13945599D01*
X9773158Y-14145599D02*
X9782682Y-14136075D01*
X9782682Y-14136075D02*
X9801729Y-14107504D01*
X9801729Y-14107504D02*
X9811253Y-14088456D01*
X9811253Y-14088456D02*
X9820777Y-14059885D01*
X9820777Y-14059885D02*
X9830301Y-14012266D01*
X9830301Y-14012266D02*
X9830301Y-13974171D01*
X9830301Y-13974171D02*
X9820777Y-13926552D01*
X9820777Y-13926552D02*
X9811253Y-13897980D01*
X9811253Y-13897980D02*
X9801729Y-13878933D01*
X9801729Y-13878933D02*
X9782682Y-13850361D01*
X9782682Y-13850361D02*
X9773158Y-13840837D01*
M02*
