%TF.GenerationSoftware,KiCad,Pcbnew,9.0.1*%
%TF.CreationDate,2025-04-02T11:20:32-04:00*%
%TF.ProjectId,Colossus_TI_rev_A,436f6c6f-7373-4757-935f-54495f726576,rev?*%
%TF.SameCoordinates,Original*%
%TF.FileFunction,Drillmap*%
%TF.FilePolarity,Positive*%
%FSLAX45Y45*%
G04 Gerber Fmt 4.5, Leading zero omitted, Abs format (unit mm)*
G04 Created by KiCad (PCBNEW 9.0.1) date 2025-04-02 11:20:32*
%MOMM*%
%LPD*%
G01*
G04 APERTURE LIST*
%ADD10C,0.038100*%
%ADD11C,0.200000*%
G04 APERTURE END LIST*
D10*
X5000000Y-5000000D02*
X12000000Y-5000000D01*
X12000000Y-12000000D01*
X5000000Y-12000000D01*
X5000000Y-5000000D01*
D11*
X5258872Y-12313389D02*
X5258872Y-12113389D01*
X5258872Y-12113389D02*
X5306491Y-12113389D01*
X5306491Y-12113389D02*
X5335062Y-12122913D01*
X5335062Y-12122913D02*
X5354110Y-12141960D01*
X5354110Y-12141960D02*
X5363634Y-12161008D01*
X5363634Y-12161008D02*
X5373158Y-12199103D01*
X5373158Y-12199103D02*
X5373158Y-12227674D01*
X5373158Y-12227674D02*
X5363634Y-12265770D01*
X5363634Y-12265770D02*
X5354110Y-12284817D01*
X5354110Y-12284817D02*
X5335062Y-12303865D01*
X5335062Y-12303865D02*
X5306491Y-12313389D01*
X5306491Y-12313389D02*
X5258872Y-12313389D01*
X5458872Y-12313389D02*
X5458872Y-12180055D01*
X5458872Y-12218151D02*
X5468396Y-12199103D01*
X5468396Y-12199103D02*
X5477919Y-12189579D01*
X5477919Y-12189579D02*
X5496967Y-12180055D01*
X5496967Y-12180055D02*
X5516015Y-12180055D01*
X5582681Y-12313389D02*
X5582681Y-12180055D01*
X5582681Y-12113389D02*
X5573158Y-12122913D01*
X5573158Y-12122913D02*
X5582681Y-12132436D01*
X5582681Y-12132436D02*
X5592205Y-12122913D01*
X5592205Y-12122913D02*
X5582681Y-12113389D01*
X5582681Y-12113389D02*
X5582681Y-12132436D01*
X5706491Y-12313389D02*
X5687443Y-12303865D01*
X5687443Y-12303865D02*
X5677919Y-12284817D01*
X5677919Y-12284817D02*
X5677919Y-12113389D01*
X5811253Y-12313389D02*
X5792205Y-12303865D01*
X5792205Y-12303865D02*
X5782681Y-12284817D01*
X5782681Y-12284817D02*
X5782681Y-12113389D01*
X6039824Y-12313389D02*
X6039824Y-12113389D01*
X6039824Y-12113389D02*
X6106491Y-12256246D01*
X6106491Y-12256246D02*
X6173157Y-12113389D01*
X6173157Y-12113389D02*
X6173157Y-12313389D01*
X6354110Y-12313389D02*
X6354110Y-12208627D01*
X6354110Y-12208627D02*
X6344586Y-12189579D01*
X6344586Y-12189579D02*
X6325538Y-12180055D01*
X6325538Y-12180055D02*
X6287443Y-12180055D01*
X6287443Y-12180055D02*
X6268396Y-12189579D01*
X6354110Y-12303865D02*
X6335062Y-12313389D01*
X6335062Y-12313389D02*
X6287443Y-12313389D01*
X6287443Y-12313389D02*
X6268396Y-12303865D01*
X6268396Y-12303865D02*
X6258872Y-12284817D01*
X6258872Y-12284817D02*
X6258872Y-12265770D01*
X6258872Y-12265770D02*
X6268396Y-12246722D01*
X6268396Y-12246722D02*
X6287443Y-12237198D01*
X6287443Y-12237198D02*
X6335062Y-12237198D01*
X6335062Y-12237198D02*
X6354110Y-12227674D01*
X6449348Y-12180055D02*
X6449348Y-12380055D01*
X6449348Y-12189579D02*
X6468396Y-12180055D01*
X6468396Y-12180055D02*
X6506491Y-12180055D01*
X6506491Y-12180055D02*
X6525538Y-12189579D01*
X6525538Y-12189579D02*
X6535062Y-12199103D01*
X6535062Y-12199103D02*
X6544586Y-12218151D01*
X6544586Y-12218151D02*
X6544586Y-12275293D01*
X6544586Y-12275293D02*
X6535062Y-12294341D01*
X6535062Y-12294341D02*
X6525538Y-12303865D01*
X6525538Y-12303865D02*
X6506491Y-12313389D01*
X6506491Y-12313389D02*
X6468396Y-12313389D01*
X6468396Y-12313389D02*
X6449348Y-12303865D01*
X6630300Y-12294341D02*
X6639824Y-12303865D01*
X6639824Y-12303865D02*
X6630300Y-12313389D01*
X6630300Y-12313389D02*
X6620777Y-12303865D01*
X6620777Y-12303865D02*
X6630300Y-12294341D01*
X6630300Y-12294341D02*
X6630300Y-12313389D01*
X6630300Y-12189579D02*
X6639824Y-12199103D01*
X6639824Y-12199103D02*
X6630300Y-12208627D01*
X6630300Y-12208627D02*
X6620777Y-12199103D01*
X6620777Y-12199103D02*
X6630300Y-12189579D01*
X6630300Y-12189579D02*
X6630300Y-12208627D01*
M02*
