%TF.GenerationSoftware,KiCad,Pcbnew,9.0.1*%
%TF.CreationDate,2025-04-02T11:20:44-04:00*%
%TF.ProjectId,Colossus_TI_rev_A,436f6c6f-7373-4757-935f-54495f726576,rev?*%
%TF.SameCoordinates,Original*%
%TF.FileFunction,Paste,Top*%
%TF.FilePolarity,Positive*%
%FSLAX46Y46*%
G04 Gerber Fmt 4.6, Leading zero omitted, Abs format (unit mm)*
G04 Created by KiCad (PCBNEW 9.0.1) date 2025-04-02 11:20:44*
%MOMM*%
%LPD*%
G01*
G04 APERTURE LIST*
G04 Aperture macros list*
%AMRoundRect*
0 Rectangle with rounded corners*
0 $1 Rounding radius*
0 $2 $3 $4 $5 $6 $7 $8 $9 X,Y pos of 4 corners*
0 Add a 4 corners polygon primitive as box body*
4,1,4,$2,$3,$4,$5,$6,$7,$8,$9,$2,$3,0*
0 Add four circle primitives for the rounded corners*
1,1,$1+$1,$2,$3*
1,1,$1+$1,$4,$5*
1,1,$1+$1,$6,$7*
1,1,$1+$1,$8,$9*
0 Add four rect primitives between the rounded corners*
20,1,$1+$1,$2,$3,$4,$5,0*
20,1,$1+$1,$4,$5,$6,$7,0*
20,1,$1+$1,$6,$7,$8,$9,0*
20,1,$1+$1,$8,$9,$2,$3,0*%
G04 Aperture macros list end*
%ADD10RoundRect,0.200000X-0.200000X-0.275000X0.200000X-0.275000X0.200000X0.275000X-0.200000X0.275000X0*%
%ADD11R,0.300000X1.400000*%
%ADD12RoundRect,0.150000X-0.512500X-0.150000X0.512500X-0.150000X0.512500X0.150000X-0.512500X0.150000X0*%
%ADD13RoundRect,0.250000X0.262500X0.450000X-0.262500X0.450000X-0.262500X-0.450000X0.262500X-0.450000X0*%
%ADD14RoundRect,0.150000X0.587500X0.150000X-0.587500X0.150000X-0.587500X-0.150000X0.587500X-0.150000X0*%
%ADD15RoundRect,0.225000X-0.225000X-0.250000X0.225000X-0.250000X0.225000X0.250000X-0.225000X0.250000X0*%
%ADD16RoundRect,0.250000X-0.312500X-1.450000X0.312500X-1.450000X0.312500X1.450000X-0.312500X1.450000X0*%
%ADD17RoundRect,0.200000X0.275000X-0.200000X0.275000X0.200000X-0.275000X0.200000X-0.275000X-0.200000X0*%
%ADD18RoundRect,0.243750X-0.456250X0.243750X-0.456250X-0.243750X0.456250X-0.243750X0.456250X0.243750X0*%
%ADD19RoundRect,0.225000X0.225000X0.250000X-0.225000X0.250000X-0.225000X-0.250000X0.225000X-0.250000X0*%
%ADD20RoundRect,0.225000X0.250000X-0.225000X0.250000X0.225000X-0.250000X0.225000X-0.250000X-0.225000X0*%
%ADD21RoundRect,0.150000X0.512500X0.150000X-0.512500X0.150000X-0.512500X-0.150000X0.512500X-0.150000X0*%
%ADD22R,1.800000X2.000000*%
%ADD23RoundRect,0.225000X-0.250000X0.225000X-0.250000X-0.225000X0.250000X-0.225000X0.250000X0.225000X0*%
%ADD24RoundRect,0.200000X-0.275000X0.200000X-0.275000X-0.200000X0.275000X-0.200000X0.275000X0.200000X0*%
%ADD25R,0.977900X0.304800*%
G04 APERTURE END LIST*
D10*
%TO.C,R6*%
X55425000Y-95250000D03*
X57075000Y-95250000D03*
%TD*%
D11*
%TO.C,U2*%
X105100000Y-88740000D03*
X105600000Y-88740000D03*
X106100000Y-88740000D03*
X106600000Y-88740000D03*
X107100000Y-88740000D03*
X107100000Y-84340000D03*
X106600000Y-84340000D03*
X106100000Y-84340000D03*
X105600000Y-84340000D03*
X105100000Y-84340000D03*
%TD*%
D12*
%TO.C,U4*%
X65500000Y-101599998D03*
X65500000Y-102549998D03*
X65500000Y-103499998D03*
X67775000Y-103499998D03*
X67775000Y-102549998D03*
X67775000Y-101599998D03*
%TD*%
D13*
%TO.C,TH1*%
X88500000Y-54500000D03*
X86675000Y-54500000D03*
%TD*%
D14*
%TO.C,Q1*%
X61125000Y-102949998D03*
X61125000Y-101049998D03*
X59250000Y-101999998D03*
%TD*%
D10*
%TO.C,R5*%
X72175000Y-54437500D03*
X73825000Y-54437500D03*
%TD*%
D15*
%TO.C,C5*%
X103975000Y-96000000D03*
X105525000Y-96000000D03*
%TD*%
D16*
%TO.C,L1*%
X69612500Y-102749998D03*
X73887500Y-102749998D03*
%TD*%
D17*
%TO.C,R3*%
X82655000Y-105565000D03*
X82655000Y-103915000D03*
%TD*%
D15*
%TO.C,C4*%
X104025000Y-90760000D03*
X105575000Y-90760000D03*
%TD*%
D18*
%TO.C,F1*%
X63250000Y-101062500D03*
X63250000Y-102937500D03*
%TD*%
D17*
%TO.C,R2*%
X86675000Y-58550000D03*
X86675000Y-56900000D03*
%TD*%
D19*
%TO.C,C11*%
X63275000Y-104500000D03*
X61725000Y-104500000D03*
%TD*%
D20*
%TO.C,C3*%
X102250000Y-101025000D03*
X102250000Y-99475000D03*
%TD*%
D19*
%TO.C,C10*%
X59775000Y-67000000D03*
X58225000Y-67000000D03*
%TD*%
D21*
%TO.C,U3*%
X86887500Y-105700000D03*
X86887500Y-104750000D03*
X86887500Y-103800000D03*
X84612500Y-103800000D03*
X84612500Y-105700000D03*
%TD*%
D18*
%TO.C,D1*%
X72250000Y-56562500D03*
X72250000Y-58437500D03*
%TD*%
D19*
%TO.C,C13*%
X74025000Y-105749998D03*
X72475000Y-105749998D03*
%TD*%
D22*
%TO.C,Y1*%
X104710000Y-102350000D03*
X109790000Y-102350000D03*
X109790000Y-98150000D03*
X104710000Y-98150000D03*
%TD*%
D19*
%TO.C,C7*%
X105550000Y-92500000D03*
X104000000Y-92500000D03*
%TD*%
D17*
%TO.C,R7*%
X60500000Y-78825000D03*
X60500000Y-77175000D03*
%TD*%
D23*
%TO.C,C8*%
X88675000Y-56950000D03*
X88675000Y-58500000D03*
%TD*%
%TO.C,C2*%
X93663900Y-73200000D03*
X93663900Y-74750000D03*
%TD*%
D19*
%TO.C,C14*%
X74025000Y-99749998D03*
X72475000Y-99749998D03*
%TD*%
D10*
%TO.C,R1*%
X83100000Y-57000000D03*
X84750000Y-57000000D03*
%TD*%
D15*
%TO.C,C12*%
X68500000Y-99749998D03*
X70050000Y-99749998D03*
%TD*%
D23*
%TO.C,C9*%
X90155000Y-103965000D03*
X90155000Y-105515000D03*
%TD*%
D24*
%TO.C,R4*%
X88655000Y-103915000D03*
X88655000Y-105565000D03*
%TD*%
D18*
%TO.C,D2*%
X53500000Y-95312500D03*
X53500000Y-97187500D03*
%TD*%
D23*
%TO.C,C1*%
X95413900Y-73200000D03*
X95413900Y-74750000D03*
%TD*%
D15*
%TO.C,C6*%
X104025000Y-94250000D03*
X105575000Y-94250000D03*
%TD*%
D25*
%TO.C,U1*%
X97913900Y-71499622D03*
X97913900Y-71999748D03*
X97913900Y-72499874D03*
X97913900Y-73000000D03*
X97913900Y-73500126D03*
X97913900Y-74000252D03*
X97913900Y-74500378D03*
X97913900Y-75000504D03*
X101000000Y-75000504D03*
X101000000Y-74500378D03*
X101000000Y-74000252D03*
X101000000Y-73500126D03*
X101000000Y-73000000D03*
X101000000Y-72499874D03*
X101000000Y-71999748D03*
X101000000Y-71499622D03*
%TD*%
M02*
