M48
; DRILL file {KiCad 9.0.1} date 2025-04-02T11:20:32-0400
; FORMAT={-:-/ absolute / metric / decimal}
; #@! TF.CreationDate,2025-04-02T11:20:32-04:00
; #@! TF.GenerationSoftware,Kicad,Pcbnew,9.0.1
; #@! TF.FileFunction,Plated,1,4,PTH
FMAT,2
METRIC
; #@! TA.AperFunction,Plated,PTH,ViaDrill
T1C0.300
; #@! TA.AperFunction,Plated,PTH,ComponentDrill
T2C0.500
; #@! TA.AperFunction,Plated,PTH,ComponentDrill
T3C1.000
; #@! TA.AperFunction,Plated,PTH,ComponentDrill
T4C1.000
; #@! TA.AperFunction,Plated,PTH,ComponentDrill
T5C1.600
; #@! TA.AperFunction,Plated,PTH,ComponentDrill
T6C3.200
%
G90
G05
T1
X55.0Y-97.25
X59.25Y-79.0
X59.75Y-95.25
X61.5Y-67.0
X65.5Y-100.25
X66.75Y-103.5
X70.75Y-114.75
X75.5Y-99.75
X75.5Y-101.75
X75.5Y-103.75
X75.5Y-105.75
X76.25Y-53.75
X76.5Y-100.75
X76.5Y-102.75
X76.5Y-104.75
X77.5Y-99.75
X77.5Y-101.75
X77.5Y-103.75
X77.5Y-105.75
X83.0Y-58.25
X84.5Y-106.75
X84.75Y-104.75
X85.831Y-104.056
X90.75Y-56.25
X91.5Y-105.25
X91.75Y-73.25
X91.75Y-74.75
X96.75Y-75.75
X99.25Y-74.25
X100.0Y-71.5
X102.25Y-98.25
X102.75Y-70.5
X102.75Y-92.5
X102.75Y-94.25
X102.75Y-96.0
X103.0Y-72.0
X103.5Y-71.0
X104.0Y-80.5
X106.5Y-91.5
X106.5Y-97.25
T2
X52.6Y-55.0
X52.6Y-115.0
X53.303Y-53.303
X53.303Y-56.697
X53.303Y-113.303
X53.303Y-116.697
X55.0Y-52.6
X55.0Y-57.4
X55.0Y-112.6
X55.0Y-117.4
X56.697Y-53.303
X56.697Y-56.697
X56.697Y-113.303
X56.697Y-116.697
X57.4Y-55.0
X57.4Y-115.0
X112.6Y-55.0
X112.6Y-115.0
X113.303Y-53.303
X113.303Y-56.697
X113.303Y-113.303
X113.303Y-116.697
X115.0Y-52.6
X115.0Y-57.4
X115.0Y-112.6
X115.0Y-117.4
X116.697Y-53.303
X116.697Y-56.697
X116.697Y-113.303
X116.697Y-116.697
X117.4Y-55.0
X117.4Y-115.0
T3
X53.395Y-70.5
X53.395Y-77.0
X57.895Y-70.5
X57.895Y-77.0
T4
X53.25Y-100.96
X53.25Y-103.5
X66.0Y-67.0
X70.75Y-117.5
X73.29Y-117.5
X77.0Y-112.5
X83.5Y-54.0
X86.0Y-91.5
X95.0Y-97.0
X117.5Y-65.7
X117.5Y-68.24
X117.5Y-70.78
X117.5Y-73.32
X117.75Y-81.17
X117.75Y-83.71
X117.75Y-86.25
X117.975Y-90.71
X117.975Y-93.25
T5
X81.852Y-115.75
X86.551Y-115.75
X91.25Y-115.75
T6
X55.0Y-55.0
X55.0Y-115.0
X115.0Y-55.0
X115.0Y-115.0
M30
