%TF.GenerationSoftware,KiCad,Pcbnew,9.0.1*%
%TF.CreationDate,2025-04-02T11:20:44-04:00*%
%TF.ProjectId,Colossus_TI_rev_A,436f6c6f-7373-4757-935f-54495f726576,rev?*%
%TF.SameCoordinates,Original*%
%TF.FileFunction,Copper,L3,Inr*%
%TF.FilePolarity,Positive*%
%FSLAX46Y46*%
G04 Gerber Fmt 4.6, Leading zero omitted, Abs format (unit mm)*
G04 Created by KiCad (PCBNEW 9.0.1) date 2025-04-02 11:20:44*
%MOMM*%
%LPD*%
G01*
G04 APERTURE LIST*
%TA.AperFunction,ComponentPad*%
%ADD10R,1.700000X1.700000*%
%TD*%
%TA.AperFunction,ComponentPad*%
%ADD11O,1.700000X1.700000*%
%TD*%
%TA.AperFunction,ComponentPad*%
%ADD12C,2.000000*%
%TD*%
%TA.AperFunction,ComponentPad*%
%ADD13R,2.108200X2.108200*%
%TD*%
%TA.AperFunction,ComponentPad*%
%ADD14C,2.108200*%
%TD*%
%TA.AperFunction,ComponentPad*%
%ADD15C,0.800000*%
%TD*%
%TA.AperFunction,ComponentPad*%
%ADD16C,6.400000*%
%TD*%
%TA.AperFunction,ComponentPad*%
%ADD17C,1.507998*%
%TD*%
%TA.AperFunction,ViaPad*%
%ADD18C,0.600000*%
%TD*%
G04 APERTURE END LIST*
D10*
%TO.N,Vdd*%
%TO.C,J1*%
X117500000Y-65700000D03*
D11*
%TO.N,SWCLK*%
X117500000Y-68240000D03*
%TO.N,SWDIO*%
X117500000Y-70780000D03*
%TO.N,Vss*%
X117500000Y-73320000D03*
%TD*%
D10*
%TO.N,Vss*%
%TO.C,J5*%
X53250000Y-103499998D03*
D11*
%TO.N,Net-(J5-Pin_2)*%
X53250000Y-100959998D03*
%TD*%
D12*
%TO.N,Charge Amp In*%
%TO.C,MFCin*%
X77000000Y-112500000D03*
%TD*%
D13*
%TO.N,FMout*%
%TO.C,SW1*%
X91250000Y-115750000D03*
D14*
%TO.N,MFC IN*%
X86551000Y-115750000D03*
%TO.N,Charge Amp In*%
X81852000Y-115750000D03*
%TD*%
D15*
%TO.N,N/C*%
%TO.C,H2*%
X112600000Y-55000000D03*
X113302944Y-53302944D03*
X113302944Y-56697056D03*
X115000000Y-52600000D03*
D16*
X115000000Y-55000000D03*
D15*
X115000000Y-57400000D03*
X116697056Y-53302944D03*
X116697056Y-56697056D03*
X117400000Y-55000000D03*
%TD*%
D12*
%TO.N,Temp Read*%
%TO.C,Temp Read*%
X83500000Y-54000000D03*
%TD*%
D10*
%TO.N,PA2*%
%TO.C,J4*%
X117975000Y-93250000D03*
D11*
%TO.N,PA23*%
X117975000Y-90710000D03*
%TD*%
D12*
%TO.N,Strain Read*%
%TO.C,Charge Amp Out*%
X86000000Y-91500000D03*
%TD*%
D17*
%TO.N,Net-(C10-Pad2)*%
%TO.C,SW2*%
X57895100Y-70499999D03*
%TO.N,NRST*%
X57895100Y-77000001D03*
%TO.N,N/C*%
X53395099Y-70499999D03*
X53395099Y-77000001D03*
%TD*%
D15*
%TO.N,N/C*%
%TO.C,H3*%
X52600000Y-115000000D03*
X53302944Y-113302944D03*
X53302944Y-116697056D03*
X55000000Y-112600000D03*
D16*
X55000000Y-115000000D03*
D15*
X55000000Y-117400000D03*
X56697056Y-113302944D03*
X56697056Y-116697056D03*
X57400000Y-115000000D03*
%TD*%
D10*
%TO.N,Vss*%
%TO.C,J2*%
X70750000Y-117500000D03*
D11*
%TO.N,MFC IN*%
X73290000Y-117500000D03*
%TD*%
D15*
%TO.N,N/C*%
%TO.C,H4*%
X112600000Y-115000000D03*
X113302944Y-113302944D03*
X113302944Y-116697056D03*
X115000000Y-112600000D03*
D16*
X115000000Y-115000000D03*
D15*
X115000000Y-117400000D03*
X116697056Y-113302944D03*
X116697056Y-116697056D03*
X117400000Y-115000000D03*
%TD*%
D12*
%TO.N,FMout*%
%TO.C,FMout*%
X95000000Y-97000000D03*
%TD*%
D15*
%TO.N,N/C*%
%TO.C,H1*%
X52600000Y-55000000D03*
X53302944Y-53302944D03*
X53302944Y-56697056D03*
X55000000Y-52600000D03*
D16*
X55000000Y-55000000D03*
D15*
X55000000Y-57400000D03*
X56697056Y-53302944D03*
X56697056Y-56697056D03*
X57400000Y-55000000D03*
%TD*%
D12*
%TO.N,Vss*%
%TO.C,Example*%
X66000000Y-67000000D03*
%TD*%
D10*
%TO.N,A3*%
%TO.C,J3*%
X117750000Y-81170000D03*
D11*
%TO.N,A4*%
X117750000Y-83710000D03*
%TO.N,A5*%
X117750000Y-86250000D03*
%TD*%
D18*
%TO.N,Vss*%
X91750000Y-74750000D03*
X102750000Y-92500000D03*
X102750000Y-94250000D03*
X90750000Y-56250000D03*
X61500000Y-67000000D03*
X85830845Y-104055867D03*
X70750000Y-114750000D03*
X102750000Y-96000000D03*
X76250000Y-53750000D03*
X66750000Y-103500000D03*
X84500000Y-106750000D03*
X59750000Y-95250000D03*
X104000000Y-80500000D03*
X106500000Y-91500000D03*
%TO.N,Vdd*%
X77500000Y-105750000D03*
X91750000Y-73250000D03*
X77500000Y-103750000D03*
X76500000Y-100750000D03*
X75500000Y-101750000D03*
X83000000Y-58250000D03*
X106500000Y-97250000D03*
X75500000Y-105750000D03*
X75500000Y-99750000D03*
X59250000Y-79000000D03*
X84750000Y-104750000D03*
X76500000Y-104750000D03*
X65500000Y-100250000D03*
X102250000Y-98250000D03*
X76500000Y-102750000D03*
X75500000Y-103750000D03*
X55000000Y-97250000D03*
X77500000Y-99750000D03*
X77500000Y-101750000D03*
%TO.N,Strain Read*%
X102750000Y-70500000D03*
X91500000Y-105250000D03*
%TO.N,A4*%
X103000000Y-72000000D03*
%TO.N,A5*%
X100000000Y-71500000D03*
%TO.N,A3*%
X103500000Y-71000000D03*
%TO.N,PA2*%
X96750000Y-75750000D03*
%TO.N,PA23*%
X99250000Y-74250000D03*
%TD*%
%TA.AperFunction,Conductor*%
%TO.N,Vdd*%
G36*
X119442539Y-50520185D02*
G01*
X119488294Y-50572989D01*
X119499500Y-50624500D01*
X119499500Y-90248715D01*
X119479815Y-90315754D01*
X119427011Y-90361509D01*
X119357853Y-90371453D01*
X119294297Y-90342428D01*
X119257569Y-90287033D01*
X119226557Y-90191588D01*
X119130051Y-90002184D01*
X119130049Y-90002181D01*
X119130048Y-90002179D01*
X119005109Y-89830213D01*
X118854786Y-89679890D01*
X118682820Y-89554951D01*
X118493414Y-89458444D01*
X118493413Y-89458443D01*
X118493412Y-89458443D01*
X118291243Y-89392754D01*
X118291241Y-89392753D01*
X118291240Y-89392753D01*
X118129957Y-89367208D01*
X118081287Y-89359500D01*
X117868713Y-89359500D01*
X117820042Y-89367208D01*
X117658760Y-89392753D01*
X117456585Y-89458444D01*
X117267179Y-89554951D01*
X117095213Y-89679890D01*
X116944890Y-89830213D01*
X116819951Y-90002179D01*
X116723444Y-90191585D01*
X116657753Y-90393760D01*
X116624500Y-90603713D01*
X116624500Y-90816287D01*
X116657754Y-91026243D01*
X116697520Y-91148631D01*
X116723444Y-91228414D01*
X116819951Y-91417820D01*
X116944890Y-91589786D01*
X117058430Y-91703326D01*
X117091915Y-91764649D01*
X117086931Y-91834341D01*
X117045059Y-91890274D01*
X117014083Y-91907189D01*
X116882669Y-91956203D01*
X116882664Y-91956206D01*
X116767455Y-92042452D01*
X116767452Y-92042455D01*
X116681206Y-92157664D01*
X116681202Y-92157671D01*
X116630908Y-92292517D01*
X116624501Y-92352116D01*
X116624500Y-92352135D01*
X116624500Y-94147870D01*
X116624501Y-94147876D01*
X116630908Y-94207483D01*
X116681202Y-94342328D01*
X116681206Y-94342335D01*
X116767452Y-94457544D01*
X116767455Y-94457547D01*
X116882664Y-94543793D01*
X116882671Y-94543797D01*
X117017517Y-94594091D01*
X117017516Y-94594091D01*
X117024444Y-94594835D01*
X117077127Y-94600500D01*
X118872872Y-94600499D01*
X118932483Y-94594091D01*
X119067331Y-94543796D01*
X119182546Y-94457546D01*
X119221392Y-94405655D01*
X119274112Y-94335231D01*
X119276145Y-94336753D01*
X119316063Y-94296828D01*
X119384335Y-94281970D01*
X119449801Y-94306381D01*
X119491678Y-94362311D01*
X119499500Y-94405655D01*
X119499500Y-119375500D01*
X119479815Y-119442539D01*
X119427011Y-119488294D01*
X119375500Y-119499500D01*
X50624500Y-119499500D01*
X50557461Y-119479815D01*
X50511706Y-119427011D01*
X50500500Y-119375500D01*
X50500500Y-114818206D01*
X51299500Y-114818206D01*
X51299500Y-115181794D01*
X51310337Y-115291829D01*
X51335137Y-115543630D01*
X51406064Y-115900212D01*
X51406067Y-115900223D01*
X51511614Y-116248165D01*
X51650754Y-116584078D01*
X51650756Y-116584083D01*
X51822140Y-116904720D01*
X51822151Y-116904738D01*
X52024140Y-117207035D01*
X52024150Y-117207049D01*
X52254807Y-117488106D01*
X52511893Y-117745192D01*
X52511898Y-117745196D01*
X52511899Y-117745197D01*
X52792956Y-117975854D01*
X53095268Y-118177853D01*
X53095277Y-118177858D01*
X53095279Y-118177859D01*
X53415916Y-118349243D01*
X53415918Y-118349243D01*
X53415924Y-118349247D01*
X53751836Y-118488386D01*
X54099767Y-118593930D01*
X54099773Y-118593931D01*
X54099776Y-118593932D01*
X54099787Y-118593935D01*
X54407030Y-118655048D01*
X54456369Y-118664862D01*
X54818206Y-118700500D01*
X54818209Y-118700500D01*
X55181791Y-118700500D01*
X55181794Y-118700500D01*
X55543631Y-118664862D01*
X55613045Y-118651054D01*
X55900212Y-118593935D01*
X55900223Y-118593932D01*
X55900223Y-118593931D01*
X55900233Y-118593930D01*
X56248164Y-118488386D01*
X56584076Y-118349247D01*
X56904732Y-118177853D01*
X57207044Y-117975854D01*
X57488101Y-117745197D01*
X57745197Y-117488101D01*
X57975854Y-117207044D01*
X58177853Y-116904732D01*
X58339594Y-116602135D01*
X69399500Y-116602135D01*
X69399500Y-118397870D01*
X69399501Y-118397876D01*
X69405908Y-118457483D01*
X69456202Y-118592328D01*
X69456206Y-118592335D01*
X69542452Y-118707544D01*
X69542455Y-118707547D01*
X69657664Y-118793793D01*
X69657671Y-118793797D01*
X69792517Y-118844091D01*
X69792516Y-118844091D01*
X69799444Y-118844835D01*
X69852127Y-118850500D01*
X71647872Y-118850499D01*
X71707483Y-118844091D01*
X71842331Y-118793796D01*
X71957546Y-118707546D01*
X72043796Y-118592331D01*
X72092810Y-118460916D01*
X72134681Y-118404984D01*
X72200145Y-118380566D01*
X72268418Y-118395417D01*
X72296673Y-118416569D01*
X72410213Y-118530109D01*
X72582179Y-118655048D01*
X72582181Y-118655049D01*
X72582184Y-118655051D01*
X72771588Y-118751557D01*
X72973757Y-118817246D01*
X73183713Y-118850500D01*
X73183714Y-118850500D01*
X73396286Y-118850500D01*
X73396287Y-118850500D01*
X73606243Y-118817246D01*
X73808412Y-118751557D01*
X73997816Y-118655051D01*
X74081940Y-118593932D01*
X74169786Y-118530109D01*
X74169788Y-118530106D01*
X74169792Y-118530104D01*
X74320104Y-118379792D01*
X74320106Y-118379788D01*
X74320109Y-118379786D01*
X74445048Y-118207820D01*
X74445047Y-118207820D01*
X74445051Y-118207816D01*
X74541557Y-118018412D01*
X74607246Y-117816243D01*
X74640500Y-117606287D01*
X74640500Y-117393713D01*
X74607246Y-117183757D01*
X74541557Y-116981588D01*
X74445051Y-116792184D01*
X74445049Y-116792181D01*
X74445048Y-116792179D01*
X74320109Y-116620213D01*
X74169786Y-116469890D01*
X73997820Y-116344951D01*
X73808414Y-116248444D01*
X73808413Y-116248443D01*
X73808412Y-116248443D01*
X73606243Y-116182754D01*
X73606241Y-116182753D01*
X73606240Y-116182753D01*
X73444957Y-116157208D01*
X73396287Y-116149500D01*
X73183713Y-116149500D01*
X73135042Y-116157208D01*
X72973760Y-116182753D01*
X72771585Y-116248444D01*
X72582179Y-116344951D01*
X72410215Y-116469889D01*
X72296673Y-116583431D01*
X72235350Y-116616915D01*
X72165658Y-116611931D01*
X72109725Y-116570059D01*
X72092810Y-116539082D01*
X72043797Y-116407671D01*
X72043793Y-116407664D01*
X71957547Y-116292455D01*
X71957544Y-116292452D01*
X71842335Y-116206206D01*
X71842328Y-116206202D01*
X71707482Y-116155908D01*
X71707483Y-116155908D01*
X71647883Y-116149501D01*
X71647881Y-116149500D01*
X71647873Y-116149500D01*
X71647864Y-116149500D01*
X69852129Y-116149500D01*
X69852123Y-116149501D01*
X69792516Y-116155908D01*
X69657671Y-116206202D01*
X69657664Y-116206206D01*
X69542455Y-116292452D01*
X69542452Y-116292455D01*
X69456206Y-116407664D01*
X69456202Y-116407671D01*
X69405908Y-116542517D01*
X69399501Y-116602116D01*
X69399500Y-116602135D01*
X58339594Y-116602135D01*
X58349247Y-116584076D01*
X58488386Y-116248164D01*
X58593930Y-115900233D01*
X58593932Y-115900223D01*
X58593935Y-115900212D01*
X58648150Y-115627650D01*
X80297400Y-115627650D01*
X80297400Y-115872349D01*
X80335680Y-116114037D01*
X80335680Y-116114040D01*
X80411294Y-116346756D01*
X80411296Y-116346759D01*
X80522387Y-116564788D01*
X80666218Y-116762754D01*
X80839246Y-116935782D01*
X81037212Y-117079613D01*
X81255241Y-117190704D01*
X81255243Y-117190705D01*
X81472311Y-117261234D01*
X81487964Y-117266320D01*
X81729650Y-117304600D01*
X81729651Y-117304600D01*
X81974349Y-117304600D01*
X81974350Y-117304600D01*
X82216036Y-117266320D01*
X82216039Y-117266319D01*
X82216040Y-117266319D01*
X82448756Y-117190705D01*
X82448756Y-117190704D01*
X82448759Y-117190704D01*
X82666788Y-117079613D01*
X82864754Y-116935782D01*
X83037782Y-116762754D01*
X83181613Y-116564788D01*
X83292704Y-116346759D01*
X83310349Y-116292452D01*
X83368319Y-116114040D01*
X83368319Y-116114039D01*
X83368320Y-116114036D01*
X83406600Y-115872350D01*
X83406600Y-115627650D01*
X84996400Y-115627650D01*
X84996400Y-115872349D01*
X85034680Y-116114037D01*
X85034680Y-116114040D01*
X85110294Y-116346756D01*
X85110296Y-116346759D01*
X85221387Y-116564788D01*
X85365218Y-116762754D01*
X85538246Y-116935782D01*
X85736212Y-117079613D01*
X85954241Y-117190704D01*
X85954243Y-117190705D01*
X86171311Y-117261234D01*
X86186964Y-117266320D01*
X86428650Y-117304600D01*
X86428651Y-117304600D01*
X86673349Y-117304600D01*
X86673350Y-117304600D01*
X86915036Y-117266320D01*
X86915039Y-117266319D01*
X86915040Y-117266319D01*
X87147756Y-117190705D01*
X87147756Y-117190704D01*
X87147759Y-117190704D01*
X87365788Y-117079613D01*
X87563754Y-116935782D01*
X87736782Y-116762754D01*
X87880613Y-116564788D01*
X87991704Y-116346759D01*
X88009349Y-116292452D01*
X88067319Y-116114040D01*
X88067319Y-116114039D01*
X88067320Y-116114036D01*
X88105600Y-115872350D01*
X88105600Y-115627650D01*
X88067320Y-115385964D01*
X88067319Y-115385960D01*
X88067319Y-115385959D01*
X87991705Y-115153243D01*
X87991703Y-115153240D01*
X87979447Y-115129185D01*
X87880613Y-114935212D01*
X87736782Y-114737246D01*
X87647571Y-114648035D01*
X89695400Y-114648035D01*
X89695400Y-116851970D01*
X89695401Y-116851976D01*
X89701808Y-116911583D01*
X89752102Y-117046428D01*
X89752106Y-117046435D01*
X89838352Y-117161644D01*
X89838355Y-117161647D01*
X89953564Y-117247893D01*
X89953571Y-117247897D01*
X90088417Y-117298191D01*
X90088416Y-117298191D01*
X90095344Y-117298935D01*
X90148027Y-117304600D01*
X92351972Y-117304599D01*
X92411583Y-117298191D01*
X92546431Y-117247896D01*
X92661646Y-117161646D01*
X92747896Y-117046431D01*
X92798191Y-116911583D01*
X92804600Y-116851973D01*
X92804599Y-114818206D01*
X111299500Y-114818206D01*
X111299500Y-115181794D01*
X111310337Y-115291829D01*
X111335137Y-115543630D01*
X111406064Y-115900212D01*
X111406067Y-115900223D01*
X111511614Y-116248165D01*
X111650754Y-116584078D01*
X111650756Y-116584083D01*
X111822140Y-116904720D01*
X111822151Y-116904738D01*
X112024140Y-117207035D01*
X112024150Y-117207049D01*
X112254807Y-117488106D01*
X112511893Y-117745192D01*
X112511898Y-117745196D01*
X112511899Y-117745197D01*
X112792956Y-117975854D01*
X113095268Y-118177853D01*
X113095277Y-118177858D01*
X113095279Y-118177859D01*
X113415916Y-118349243D01*
X113415918Y-118349243D01*
X113415924Y-118349247D01*
X113751836Y-118488386D01*
X114099767Y-118593930D01*
X114099773Y-118593931D01*
X114099776Y-118593932D01*
X114099787Y-118593935D01*
X114407030Y-118655048D01*
X114456369Y-118664862D01*
X114818206Y-118700500D01*
X114818209Y-118700500D01*
X115181791Y-118700500D01*
X115181794Y-118700500D01*
X115543631Y-118664862D01*
X115613045Y-118651054D01*
X115900212Y-118593935D01*
X115900223Y-118593932D01*
X115900223Y-118593931D01*
X115900233Y-118593930D01*
X116248164Y-118488386D01*
X116584076Y-118349247D01*
X116904732Y-118177853D01*
X117207044Y-117975854D01*
X117488101Y-117745197D01*
X117745197Y-117488101D01*
X117975854Y-117207044D01*
X118177853Y-116904732D01*
X118349247Y-116584076D01*
X118488386Y-116248164D01*
X118593930Y-115900233D01*
X118593932Y-115900223D01*
X118593935Y-115900212D01*
X118664862Y-115543630D01*
X118667215Y-115519737D01*
X118700500Y-115181794D01*
X118700500Y-114818206D01*
X118664862Y-114456369D01*
X118635608Y-114309296D01*
X118593935Y-114099787D01*
X118593932Y-114099776D01*
X118593931Y-114099773D01*
X118593930Y-114099767D01*
X118488386Y-113751836D01*
X118349247Y-113415924D01*
X118177853Y-113095268D01*
X117975854Y-112792956D01*
X117745197Y-112511899D01*
X117745196Y-112511898D01*
X117745192Y-112511893D01*
X117488106Y-112254807D01*
X117207049Y-112024150D01*
X117207048Y-112024149D01*
X117207044Y-112024146D01*
X116904732Y-111822147D01*
X116904727Y-111822144D01*
X116904720Y-111822140D01*
X116584083Y-111650756D01*
X116584078Y-111650754D01*
X116248165Y-111511614D01*
X115900223Y-111406067D01*
X115900212Y-111406064D01*
X115543630Y-111335137D01*
X115271111Y-111308296D01*
X115181794Y-111299500D01*
X114818206Y-111299500D01*
X114735679Y-111307628D01*
X114456369Y-111335137D01*
X114099787Y-111406064D01*
X114099776Y-111406067D01*
X113751834Y-111511614D01*
X113415921Y-111650754D01*
X113415916Y-111650756D01*
X113095279Y-111822140D01*
X113095261Y-111822151D01*
X112792964Y-112024140D01*
X112792950Y-112024150D01*
X112511893Y-112254807D01*
X112254807Y-112511893D01*
X112024150Y-112792950D01*
X112024140Y-112792964D01*
X111822151Y-113095261D01*
X111822140Y-113095279D01*
X111650756Y-113415916D01*
X111650754Y-113415921D01*
X111511614Y-113751834D01*
X111406067Y-114099776D01*
X111406064Y-114099787D01*
X111335137Y-114456369D01*
X111313983Y-114671155D01*
X111299500Y-114818206D01*
X92804599Y-114818206D01*
X92804599Y-114648028D01*
X92798191Y-114588417D01*
X92789165Y-114564218D01*
X92747897Y-114453571D01*
X92747893Y-114453564D01*
X92661647Y-114338355D01*
X92661644Y-114338352D01*
X92546435Y-114252106D01*
X92546428Y-114252102D01*
X92411582Y-114201808D01*
X92411583Y-114201808D01*
X92351983Y-114195401D01*
X92351981Y-114195400D01*
X92351973Y-114195400D01*
X92351964Y-114195400D01*
X90148029Y-114195400D01*
X90148023Y-114195401D01*
X90088416Y-114201808D01*
X89953571Y-114252102D01*
X89953564Y-114252106D01*
X89838355Y-114338352D01*
X89838352Y-114338355D01*
X89752106Y-114453564D01*
X89752102Y-114453571D01*
X89701808Y-114588417D01*
X89695401Y-114648016D01*
X89695401Y-114648023D01*
X89695400Y-114648035D01*
X87647571Y-114648035D01*
X87563754Y-114564218D01*
X87365788Y-114420387D01*
X87147759Y-114309296D01*
X87147756Y-114309294D01*
X86915038Y-114233680D01*
X86713814Y-114201809D01*
X86673350Y-114195400D01*
X86428650Y-114195400D01*
X86388186Y-114201809D01*
X86186962Y-114233680D01*
X86186959Y-114233680D01*
X85954243Y-114309294D01*
X85954240Y-114309296D01*
X85736211Y-114420387D01*
X85690538Y-114453571D01*
X85538246Y-114564218D01*
X85538244Y-114564220D01*
X85538243Y-114564220D01*
X85365220Y-114737243D01*
X85365220Y-114737244D01*
X85365218Y-114737246D01*
X85306397Y-114818206D01*
X85221387Y-114935211D01*
X85110296Y-115153240D01*
X85110294Y-115153243D01*
X85034680Y-115385959D01*
X85034680Y-115385962D01*
X84996400Y-115627650D01*
X83406600Y-115627650D01*
X83368320Y-115385964D01*
X83368319Y-115385960D01*
X83368319Y-115385959D01*
X83292705Y-115153243D01*
X83292703Y-115153240D01*
X83280447Y-115129185D01*
X83181613Y-114935212D01*
X83037782Y-114737246D01*
X82864754Y-114564218D01*
X82666788Y-114420387D01*
X82448759Y-114309296D01*
X82448756Y-114309294D01*
X82216038Y-114233680D01*
X82014814Y-114201809D01*
X81974350Y-114195400D01*
X81729650Y-114195400D01*
X81689186Y-114201809D01*
X81487962Y-114233680D01*
X81487959Y-114233680D01*
X81255243Y-114309294D01*
X81255240Y-114309296D01*
X81037211Y-114420387D01*
X80991538Y-114453571D01*
X80839246Y-114564218D01*
X80839244Y-114564220D01*
X80839243Y-114564220D01*
X80666220Y-114737243D01*
X80666220Y-114737244D01*
X80666218Y-114737246D01*
X80607397Y-114818206D01*
X80522387Y-114935211D01*
X80411296Y-115153240D01*
X80411294Y-115153243D01*
X80335680Y-115385959D01*
X80335680Y-115385962D01*
X80297400Y-115627650D01*
X58648150Y-115627650D01*
X58664862Y-115543630D01*
X58667215Y-115519737D01*
X58700500Y-115181794D01*
X58700500Y-114818206D01*
X58686016Y-114671153D01*
X69949500Y-114671153D01*
X69949500Y-114828846D01*
X69980261Y-114983489D01*
X69980264Y-114983501D01*
X70040602Y-115129172D01*
X70040609Y-115129185D01*
X70128210Y-115260288D01*
X70128213Y-115260292D01*
X70239707Y-115371786D01*
X70239711Y-115371789D01*
X70370814Y-115459390D01*
X70370827Y-115459397D01*
X70488691Y-115508217D01*
X70516503Y-115519737D01*
X70671153Y-115550499D01*
X70671156Y-115550500D01*
X70671158Y-115550500D01*
X70828844Y-115550500D01*
X70828845Y-115550499D01*
X70983497Y-115519737D01*
X70995780Y-115514648D01*
X71011310Y-115508217D01*
X71129172Y-115459397D01*
X71129172Y-115459396D01*
X71129179Y-115459394D01*
X71260289Y-115371789D01*
X71371789Y-115260289D01*
X71459394Y-115129179D01*
X71519737Y-114983497D01*
X71550500Y-114828842D01*
X71550500Y-114671158D01*
X71550500Y-114671155D01*
X71550499Y-114671153D01*
X71519737Y-114516503D01*
X71479925Y-114420387D01*
X71459397Y-114370827D01*
X71459390Y-114370814D01*
X71371789Y-114239711D01*
X71371786Y-114239707D01*
X71260292Y-114128213D01*
X71260288Y-114128210D01*
X71129185Y-114040609D01*
X71129172Y-114040602D01*
X70983501Y-113980264D01*
X70983489Y-113980261D01*
X70828845Y-113949500D01*
X70828842Y-113949500D01*
X70671158Y-113949500D01*
X70671155Y-113949500D01*
X70516510Y-113980261D01*
X70516498Y-113980264D01*
X70370827Y-114040602D01*
X70370814Y-114040609D01*
X70239711Y-114128210D01*
X70239707Y-114128213D01*
X70128213Y-114239707D01*
X70128210Y-114239711D01*
X70040609Y-114370814D01*
X70040602Y-114370827D01*
X69980264Y-114516498D01*
X69980261Y-114516510D01*
X69949500Y-114671153D01*
X58686016Y-114671153D01*
X58664862Y-114456369D01*
X58593935Y-114099787D01*
X58593932Y-114099776D01*
X58593931Y-114099773D01*
X58593930Y-114099767D01*
X58488386Y-113751836D01*
X58349247Y-113415924D01*
X58177853Y-113095268D01*
X57975854Y-112792956D01*
X57745197Y-112511899D01*
X57745196Y-112511898D01*
X57745192Y-112511893D01*
X57615201Y-112381902D01*
X75499500Y-112381902D01*
X75499500Y-112618097D01*
X75536446Y-112851368D01*
X75609433Y-113075996D01*
X75716657Y-113286433D01*
X75855483Y-113477510D01*
X76022490Y-113644517D01*
X76213567Y-113783343D01*
X76312991Y-113834002D01*
X76424003Y-113890566D01*
X76424005Y-113890566D01*
X76424008Y-113890568D01*
X76544412Y-113929689D01*
X76648631Y-113963553D01*
X76881903Y-114000500D01*
X76881908Y-114000500D01*
X77118097Y-114000500D01*
X77351368Y-113963553D01*
X77575992Y-113890568D01*
X77786433Y-113783343D01*
X77977510Y-113644517D01*
X78144517Y-113477510D01*
X78283343Y-113286433D01*
X78390568Y-113075992D01*
X78463553Y-112851368D01*
X78472803Y-112792964D01*
X78500500Y-112618097D01*
X78500500Y-112381902D01*
X78463553Y-112148631D01*
X78390566Y-111924003D01*
X78283342Y-111713566D01*
X78144517Y-111522490D01*
X77977510Y-111355483D01*
X77786433Y-111216657D01*
X77575996Y-111109433D01*
X77351368Y-111036446D01*
X77118097Y-110999500D01*
X77118092Y-110999500D01*
X76881908Y-110999500D01*
X76881903Y-110999500D01*
X76648631Y-111036446D01*
X76424003Y-111109433D01*
X76213566Y-111216657D01*
X76104550Y-111295862D01*
X76022490Y-111355483D01*
X76022488Y-111355485D01*
X76022487Y-111355485D01*
X75855485Y-111522487D01*
X75855485Y-111522488D01*
X75855483Y-111522490D01*
X75795862Y-111604550D01*
X75716657Y-111713566D01*
X75609433Y-111924003D01*
X75536446Y-112148631D01*
X75499500Y-112381902D01*
X57615201Y-112381902D01*
X57488106Y-112254807D01*
X57207049Y-112024150D01*
X57207048Y-112024149D01*
X57207044Y-112024146D01*
X56904732Y-111822147D01*
X56904727Y-111822144D01*
X56904720Y-111822140D01*
X56584083Y-111650756D01*
X56584078Y-111650754D01*
X56248165Y-111511614D01*
X55900223Y-111406067D01*
X55900212Y-111406064D01*
X55543630Y-111335137D01*
X55271111Y-111308296D01*
X55181794Y-111299500D01*
X54818206Y-111299500D01*
X54735679Y-111307628D01*
X54456369Y-111335137D01*
X54099787Y-111406064D01*
X54099776Y-111406067D01*
X53751834Y-111511614D01*
X53415921Y-111650754D01*
X53415916Y-111650756D01*
X53095279Y-111822140D01*
X53095261Y-111822151D01*
X52792964Y-112024140D01*
X52792950Y-112024150D01*
X52511893Y-112254807D01*
X52254807Y-112511893D01*
X52024150Y-112792950D01*
X52024140Y-112792964D01*
X51822151Y-113095261D01*
X51822140Y-113095279D01*
X51650756Y-113415916D01*
X51650754Y-113415921D01*
X51511614Y-113751834D01*
X51406067Y-114099776D01*
X51406064Y-114099787D01*
X51335137Y-114456369D01*
X51313983Y-114671155D01*
X51299500Y-114818206D01*
X50500500Y-114818206D01*
X50500500Y-106671153D01*
X83699500Y-106671153D01*
X83699500Y-106828846D01*
X83730261Y-106983489D01*
X83730264Y-106983501D01*
X83790602Y-107129172D01*
X83790609Y-107129185D01*
X83878210Y-107260288D01*
X83878213Y-107260292D01*
X83989707Y-107371786D01*
X83989711Y-107371789D01*
X84120814Y-107459390D01*
X84120827Y-107459397D01*
X84266498Y-107519735D01*
X84266503Y-107519737D01*
X84421153Y-107550499D01*
X84421156Y-107550500D01*
X84421158Y-107550500D01*
X84578844Y-107550500D01*
X84578845Y-107550499D01*
X84733497Y-107519737D01*
X84879179Y-107459394D01*
X85010289Y-107371789D01*
X85121789Y-107260289D01*
X85209394Y-107129179D01*
X85269737Y-106983497D01*
X85300500Y-106828842D01*
X85300500Y-106671158D01*
X85300500Y-106671155D01*
X85300499Y-106671153D01*
X85269738Y-106516510D01*
X85269737Y-106516503D01*
X85269735Y-106516498D01*
X85209397Y-106370827D01*
X85209390Y-106370814D01*
X85121789Y-106239711D01*
X85121786Y-106239707D01*
X85010292Y-106128213D01*
X85010288Y-106128210D01*
X84879185Y-106040609D01*
X84879172Y-106040602D01*
X84733501Y-105980264D01*
X84733489Y-105980261D01*
X84578845Y-105949500D01*
X84578842Y-105949500D01*
X84421158Y-105949500D01*
X84421155Y-105949500D01*
X84266510Y-105980261D01*
X84266498Y-105980264D01*
X84120827Y-106040602D01*
X84120814Y-106040609D01*
X83989711Y-106128210D01*
X83989707Y-106128213D01*
X83878213Y-106239707D01*
X83878210Y-106239711D01*
X83790609Y-106370814D01*
X83790602Y-106370827D01*
X83730264Y-106516498D01*
X83730261Y-106516510D01*
X83699500Y-106671153D01*
X50500500Y-106671153D01*
X50500500Y-105171153D01*
X90699500Y-105171153D01*
X90699500Y-105328846D01*
X90730261Y-105483489D01*
X90730264Y-105483501D01*
X90790602Y-105629172D01*
X90790609Y-105629185D01*
X90878210Y-105760288D01*
X90878213Y-105760292D01*
X90989707Y-105871786D01*
X90989711Y-105871789D01*
X91120814Y-105959390D01*
X91120827Y-105959397D01*
X91266498Y-106019735D01*
X91266503Y-106019737D01*
X91421153Y-106050499D01*
X91421156Y-106050500D01*
X91421158Y-106050500D01*
X91578844Y-106050500D01*
X91578845Y-106050499D01*
X91733497Y-106019737D01*
X91879179Y-105959394D01*
X92010289Y-105871789D01*
X92121789Y-105760289D01*
X92209394Y-105629179D01*
X92269737Y-105483497D01*
X92300500Y-105328842D01*
X92300500Y-105171158D01*
X92300500Y-105171155D01*
X92300499Y-105171153D01*
X92269738Y-105016510D01*
X92269737Y-105016503D01*
X92269735Y-105016498D01*
X92209397Y-104870827D01*
X92209390Y-104870814D01*
X92121789Y-104739711D01*
X92121786Y-104739707D01*
X92010292Y-104628213D01*
X92010288Y-104628210D01*
X91879185Y-104540609D01*
X91879172Y-104540602D01*
X91733501Y-104480264D01*
X91733489Y-104480261D01*
X91578845Y-104449500D01*
X91578842Y-104449500D01*
X91421158Y-104449500D01*
X91421155Y-104449500D01*
X91266510Y-104480261D01*
X91266498Y-104480264D01*
X91120827Y-104540602D01*
X91120814Y-104540609D01*
X90989711Y-104628210D01*
X90989707Y-104628213D01*
X90878213Y-104739707D01*
X90878210Y-104739711D01*
X90790609Y-104870814D01*
X90790602Y-104870827D01*
X90730264Y-105016498D01*
X90730261Y-105016510D01*
X90699500Y-105171153D01*
X50500500Y-105171153D01*
X50500500Y-100853711D01*
X51899500Y-100853711D01*
X51899500Y-101066284D01*
X51932753Y-101276237D01*
X51998444Y-101478412D01*
X52094951Y-101667818D01*
X52219890Y-101839784D01*
X52333430Y-101953324D01*
X52366915Y-102014647D01*
X52361931Y-102084339D01*
X52320059Y-102140272D01*
X52289083Y-102157187D01*
X52157669Y-102206201D01*
X52157664Y-102206204D01*
X52042455Y-102292450D01*
X52042452Y-102292453D01*
X51956206Y-102407662D01*
X51956202Y-102407669D01*
X51905908Y-102542515D01*
X51899501Y-102602114D01*
X51899501Y-102602121D01*
X51899500Y-102602133D01*
X51899500Y-104397868D01*
X51899501Y-104397874D01*
X51905908Y-104457481D01*
X51956202Y-104592326D01*
X51956206Y-104592333D01*
X52042452Y-104707542D01*
X52042455Y-104707545D01*
X52157664Y-104793791D01*
X52157671Y-104793795D01*
X52292517Y-104844089D01*
X52292516Y-104844089D01*
X52299444Y-104844833D01*
X52352127Y-104850498D01*
X54147872Y-104850497D01*
X54207483Y-104844089D01*
X54342331Y-104793794D01*
X54457546Y-104707544D01*
X54543796Y-104592329D01*
X54594091Y-104457481D01*
X54600500Y-104397871D01*
X54600499Y-103421153D01*
X65949500Y-103421153D01*
X65949500Y-103578846D01*
X65980261Y-103733489D01*
X65980264Y-103733501D01*
X66040602Y-103879172D01*
X66040609Y-103879185D01*
X66128210Y-104010288D01*
X66128213Y-104010292D01*
X66239707Y-104121786D01*
X66239711Y-104121789D01*
X66370814Y-104209390D01*
X66370827Y-104209397D01*
X66516498Y-104269735D01*
X66516503Y-104269737D01*
X66671153Y-104300499D01*
X66671156Y-104300500D01*
X66671158Y-104300500D01*
X66828844Y-104300500D01*
X66828845Y-104300499D01*
X66983497Y-104269737D01*
X67129179Y-104209394D01*
X67260289Y-104121789D01*
X67371789Y-104010289D01*
X67394018Y-103977020D01*
X85030345Y-103977020D01*
X85030345Y-104134713D01*
X85061106Y-104289356D01*
X85061109Y-104289368D01*
X85121447Y-104435039D01*
X85121454Y-104435052D01*
X85209055Y-104566155D01*
X85209058Y-104566159D01*
X85320552Y-104677653D01*
X85320556Y-104677656D01*
X85451659Y-104765257D01*
X85451672Y-104765264D01*
X85597343Y-104825602D01*
X85597348Y-104825604D01*
X85722488Y-104850496D01*
X85751998Y-104856366D01*
X85752001Y-104856367D01*
X85752003Y-104856367D01*
X85909689Y-104856367D01*
X85909690Y-104856366D01*
X86064342Y-104825604D01*
X86210024Y-104765261D01*
X86341134Y-104677656D01*
X86452634Y-104566156D01*
X86540239Y-104435046D01*
X86600582Y-104289364D01*
X86631345Y-104134709D01*
X86631345Y-103977025D01*
X86631345Y-103977022D01*
X86631344Y-103977020D01*
X86611882Y-103879179D01*
X86600582Y-103822370D01*
X86563767Y-103733489D01*
X86540242Y-103676694D01*
X86540235Y-103676681D01*
X86452634Y-103545578D01*
X86452631Y-103545574D01*
X86341137Y-103434080D01*
X86341133Y-103434077D01*
X86210030Y-103346476D01*
X86210017Y-103346469D01*
X86064346Y-103286131D01*
X86064334Y-103286128D01*
X85909690Y-103255367D01*
X85909687Y-103255367D01*
X85752003Y-103255367D01*
X85752000Y-103255367D01*
X85597355Y-103286128D01*
X85597343Y-103286131D01*
X85451672Y-103346469D01*
X85451659Y-103346476D01*
X85320556Y-103434077D01*
X85320552Y-103434080D01*
X85209058Y-103545574D01*
X85209055Y-103545578D01*
X85121454Y-103676681D01*
X85121447Y-103676694D01*
X85061109Y-103822365D01*
X85061106Y-103822377D01*
X85030345Y-103977020D01*
X67394018Y-103977020D01*
X67410340Y-103952592D01*
X67444118Y-103902042D01*
X67459390Y-103879185D01*
X67459390Y-103879184D01*
X67459394Y-103879179D01*
X67519737Y-103733497D01*
X67550500Y-103578842D01*
X67550500Y-103421158D01*
X67550500Y-103421155D01*
X67550499Y-103421153D01*
X67523641Y-103286130D01*
X67519737Y-103266503D01*
X67515124Y-103255367D01*
X67459397Y-103120827D01*
X67459390Y-103120814D01*
X67371789Y-102989711D01*
X67371786Y-102989707D01*
X67260292Y-102878213D01*
X67260288Y-102878210D01*
X67129185Y-102790609D01*
X67129172Y-102790602D01*
X66983501Y-102730264D01*
X66983489Y-102730261D01*
X66828845Y-102699500D01*
X66828842Y-102699500D01*
X66671158Y-102699500D01*
X66671155Y-102699500D01*
X66516510Y-102730261D01*
X66516498Y-102730264D01*
X66370827Y-102790602D01*
X66370814Y-102790609D01*
X66239711Y-102878210D01*
X66239707Y-102878213D01*
X66128213Y-102989707D01*
X66128210Y-102989711D01*
X66040609Y-103120814D01*
X66040602Y-103120827D01*
X65980264Y-103266498D01*
X65980261Y-103266510D01*
X65949500Y-103421153D01*
X54600499Y-103421153D01*
X54600499Y-102602126D01*
X54594091Y-102542515D01*
X54543796Y-102407667D01*
X54543795Y-102407666D01*
X54543793Y-102407662D01*
X54457547Y-102292453D01*
X54457544Y-102292450D01*
X54342335Y-102206204D01*
X54342328Y-102206200D01*
X54210917Y-102157187D01*
X54154983Y-102115316D01*
X54130566Y-102049851D01*
X54145418Y-101981578D01*
X54166563Y-101953330D01*
X54280104Y-101839790D01*
X54405051Y-101667814D01*
X54501557Y-101478410D01*
X54567246Y-101276241D01*
X54600500Y-101066285D01*
X54600500Y-100853711D01*
X54567246Y-100643755D01*
X54501557Y-100441586D01*
X54405051Y-100252182D01*
X54405049Y-100252179D01*
X54405048Y-100252177D01*
X54280109Y-100080211D01*
X54129786Y-99929888D01*
X53957820Y-99804949D01*
X53768414Y-99708442D01*
X53768413Y-99708441D01*
X53768412Y-99708441D01*
X53566243Y-99642752D01*
X53566241Y-99642751D01*
X53566240Y-99642751D01*
X53404957Y-99617206D01*
X53356287Y-99609498D01*
X53143713Y-99609498D01*
X53095042Y-99617206D01*
X52933760Y-99642751D01*
X52731585Y-99708442D01*
X52542179Y-99804949D01*
X52370213Y-99929888D01*
X52219890Y-100080211D01*
X52094951Y-100252177D01*
X51998444Y-100441583D01*
X51932753Y-100643758D01*
X51899500Y-100853711D01*
X50500500Y-100853711D01*
X50500500Y-96881902D01*
X93499500Y-96881902D01*
X93499500Y-97118097D01*
X93536446Y-97351368D01*
X93609433Y-97575996D01*
X93716657Y-97786433D01*
X93855483Y-97977510D01*
X94022490Y-98144517D01*
X94213567Y-98283343D01*
X94312991Y-98334002D01*
X94424003Y-98390566D01*
X94424005Y-98390566D01*
X94424008Y-98390568D01*
X94544412Y-98429689D01*
X94648631Y-98463553D01*
X94881903Y-98500500D01*
X94881908Y-98500500D01*
X95118097Y-98500500D01*
X95351368Y-98463553D01*
X95575992Y-98390568D01*
X95786433Y-98283343D01*
X95977510Y-98144517D01*
X96144517Y-97977510D01*
X96283343Y-97786433D01*
X96390568Y-97575992D01*
X96463553Y-97351368D01*
X96500500Y-97118097D01*
X96500500Y-96881902D01*
X96463553Y-96648631D01*
X96390566Y-96424003D01*
X96334002Y-96312991D01*
X96283343Y-96213567D01*
X96144517Y-96022490D01*
X95977510Y-95855483D01*
X95786433Y-95716657D01*
X95575996Y-95609433D01*
X95351368Y-95536446D01*
X95118097Y-95499500D01*
X95118092Y-95499500D01*
X94881908Y-95499500D01*
X94881903Y-95499500D01*
X94648631Y-95536446D01*
X94424003Y-95609433D01*
X94213566Y-95716657D01*
X94144967Y-95766498D01*
X94022490Y-95855483D01*
X94022488Y-95855485D01*
X94022487Y-95855485D01*
X93855485Y-96022487D01*
X93855485Y-96022488D01*
X93855483Y-96022490D01*
X93814541Y-96078842D01*
X93716657Y-96213566D01*
X93609433Y-96424003D01*
X93536446Y-96648631D01*
X93499500Y-96881902D01*
X50500500Y-96881902D01*
X50500500Y-95171153D01*
X58949500Y-95171153D01*
X58949500Y-95328846D01*
X58980261Y-95483489D01*
X58980264Y-95483501D01*
X59040602Y-95629172D01*
X59040609Y-95629185D01*
X59128210Y-95760288D01*
X59128213Y-95760292D01*
X59239707Y-95871786D01*
X59239711Y-95871789D01*
X59370814Y-95959390D01*
X59370827Y-95959397D01*
X59516498Y-96019735D01*
X59516503Y-96019737D01*
X59671153Y-96050499D01*
X59671156Y-96050500D01*
X59671158Y-96050500D01*
X59828844Y-96050500D01*
X59828845Y-96050499D01*
X59983497Y-96019737D01*
X60129179Y-95959394D01*
X60260289Y-95871789D01*
X60371789Y-95760289D01*
X60459394Y-95629179D01*
X60462854Y-95620827D01*
X60473067Y-95596166D01*
X60519737Y-95483497D01*
X60550500Y-95328842D01*
X60550500Y-95171158D01*
X60550500Y-95171155D01*
X60550499Y-95171153D01*
X60540438Y-95120574D01*
X60519737Y-95016503D01*
X60459794Y-94871786D01*
X60459397Y-94870827D01*
X60459390Y-94870814D01*
X60371789Y-94739711D01*
X60371786Y-94739707D01*
X60260292Y-94628213D01*
X60260288Y-94628210D01*
X60129185Y-94540609D01*
X60129172Y-94540602D01*
X59983501Y-94480264D01*
X59983489Y-94480261D01*
X59828845Y-94449500D01*
X59828842Y-94449500D01*
X59671158Y-94449500D01*
X59671155Y-94449500D01*
X59516510Y-94480261D01*
X59516498Y-94480264D01*
X59370827Y-94540602D01*
X59370814Y-94540609D01*
X59239711Y-94628210D01*
X59239707Y-94628213D01*
X59128213Y-94739707D01*
X59128210Y-94739711D01*
X59040609Y-94870814D01*
X59040602Y-94870827D01*
X58980264Y-95016498D01*
X58980261Y-95016510D01*
X58949500Y-95171153D01*
X50500500Y-95171153D01*
X50500500Y-91381902D01*
X84499500Y-91381902D01*
X84499500Y-91618097D01*
X84536446Y-91851368D01*
X84609433Y-92075996D01*
X84677405Y-92209397D01*
X84716657Y-92286433D01*
X84855483Y-92477510D01*
X85022490Y-92644517D01*
X85213567Y-92783343D01*
X85312991Y-92834002D01*
X85424003Y-92890566D01*
X85424005Y-92890566D01*
X85424008Y-92890568D01*
X85544412Y-92929689D01*
X85648631Y-92963553D01*
X85881903Y-93000500D01*
X85881908Y-93000500D01*
X86118097Y-93000500D01*
X86351368Y-92963553D01*
X86575992Y-92890568D01*
X86786433Y-92783343D01*
X86977510Y-92644517D01*
X87144517Y-92477510D01*
X87185463Y-92421153D01*
X101949500Y-92421153D01*
X101949500Y-92578846D01*
X101980261Y-92733489D01*
X101980264Y-92733501D01*
X102040602Y-92879172D01*
X102040609Y-92879185D01*
X102128210Y-93010288D01*
X102128213Y-93010292D01*
X102239707Y-93121786D01*
X102239711Y-93121789D01*
X102370814Y-93209390D01*
X102370827Y-93209397D01*
X102494054Y-93260439D01*
X102548458Y-93304280D01*
X102570523Y-93370574D01*
X102553244Y-93438273D01*
X102502107Y-93485884D01*
X102494054Y-93489561D01*
X102370827Y-93540602D01*
X102370814Y-93540609D01*
X102239711Y-93628210D01*
X102239707Y-93628213D01*
X102128213Y-93739707D01*
X102128210Y-93739711D01*
X102040609Y-93870814D01*
X102040602Y-93870827D01*
X101980264Y-94016498D01*
X101980261Y-94016510D01*
X101949500Y-94171153D01*
X101949500Y-94328846D01*
X101980261Y-94483489D01*
X101980264Y-94483501D01*
X102040602Y-94629172D01*
X102040609Y-94629185D01*
X102128210Y-94760288D01*
X102128213Y-94760292D01*
X102239707Y-94871786D01*
X102239711Y-94871789D01*
X102370814Y-94959390D01*
X102370827Y-94959397D01*
X102494054Y-95010439D01*
X102548458Y-95054280D01*
X102570523Y-95120574D01*
X102553244Y-95188273D01*
X102502107Y-95235884D01*
X102494054Y-95239561D01*
X102370827Y-95290602D01*
X102370814Y-95290609D01*
X102239711Y-95378210D01*
X102239707Y-95378213D01*
X102128213Y-95489707D01*
X102128210Y-95489711D01*
X102040609Y-95620814D01*
X102040602Y-95620827D01*
X101980264Y-95766498D01*
X101980261Y-95766510D01*
X101949500Y-95921153D01*
X101949500Y-96078846D01*
X101980261Y-96233489D01*
X101980264Y-96233501D01*
X102040602Y-96379172D01*
X102040609Y-96379185D01*
X102128210Y-96510288D01*
X102128213Y-96510292D01*
X102239707Y-96621786D01*
X102239711Y-96621789D01*
X102370814Y-96709390D01*
X102370827Y-96709397D01*
X102516498Y-96769735D01*
X102516503Y-96769737D01*
X102671153Y-96800499D01*
X102671156Y-96800500D01*
X102671158Y-96800500D01*
X102828844Y-96800500D01*
X102828845Y-96800499D01*
X102983497Y-96769737D01*
X103129179Y-96709394D01*
X103260289Y-96621789D01*
X103371789Y-96510289D01*
X103459394Y-96379179D01*
X103519737Y-96233497D01*
X103550500Y-96078842D01*
X103550500Y-95921158D01*
X103550500Y-95921155D01*
X103550499Y-95921153D01*
X103519738Y-95766510D01*
X103519737Y-95766503D01*
X103499090Y-95716657D01*
X103459397Y-95620827D01*
X103459390Y-95620814D01*
X103371789Y-95489711D01*
X103371786Y-95489707D01*
X103260292Y-95378213D01*
X103260288Y-95378210D01*
X103129185Y-95290609D01*
X103129172Y-95290602D01*
X103005945Y-95239561D01*
X102951541Y-95195721D01*
X102929476Y-95129427D01*
X102946755Y-95061727D01*
X102997892Y-95014116D01*
X103005945Y-95010439D01*
X103129172Y-94959397D01*
X103129172Y-94959396D01*
X103129179Y-94959394D01*
X103260289Y-94871789D01*
X103371789Y-94760289D01*
X103459394Y-94629179D01*
X103519737Y-94483497D01*
X103550500Y-94328842D01*
X103550500Y-94171158D01*
X103550500Y-94171155D01*
X103550499Y-94171153D01*
X103519738Y-94016510D01*
X103519737Y-94016503D01*
X103519735Y-94016498D01*
X103459397Y-93870827D01*
X103459390Y-93870814D01*
X103371789Y-93739711D01*
X103371786Y-93739707D01*
X103260292Y-93628213D01*
X103260288Y-93628210D01*
X103129185Y-93540609D01*
X103129172Y-93540602D01*
X103005945Y-93489561D01*
X102951541Y-93445721D01*
X102929476Y-93379427D01*
X102946755Y-93311727D01*
X102997892Y-93264116D01*
X103005945Y-93260439D01*
X103129172Y-93209397D01*
X103129172Y-93209396D01*
X103129179Y-93209394D01*
X103260289Y-93121789D01*
X103371789Y-93010289D01*
X103459394Y-92879179D01*
X103519737Y-92733497D01*
X103550500Y-92578842D01*
X103550500Y-92421158D01*
X103550500Y-92421155D01*
X103550499Y-92421153D01*
X103536769Y-92352127D01*
X103519737Y-92266503D01*
X103519735Y-92266498D01*
X103459397Y-92120827D01*
X103459390Y-92120814D01*
X103371789Y-91989711D01*
X103371786Y-91989707D01*
X103260292Y-91878213D01*
X103260288Y-91878210D01*
X103129185Y-91790609D01*
X103129172Y-91790602D01*
X102983501Y-91730264D01*
X102983489Y-91730261D01*
X102828845Y-91699500D01*
X102828842Y-91699500D01*
X102671158Y-91699500D01*
X102671155Y-91699500D01*
X102516510Y-91730261D01*
X102516498Y-91730264D01*
X102370827Y-91790602D01*
X102370814Y-91790609D01*
X102239711Y-91878210D01*
X102239707Y-91878213D01*
X102128213Y-91989707D01*
X102128210Y-91989711D01*
X102040609Y-92120814D01*
X102040602Y-92120827D01*
X101980264Y-92266498D01*
X101980261Y-92266510D01*
X101949500Y-92421153D01*
X87185463Y-92421153D01*
X87283343Y-92286433D01*
X87390568Y-92075992D01*
X87463553Y-91851368D01*
X87473177Y-91790606D01*
X87500500Y-91618097D01*
X87500500Y-91421153D01*
X105699500Y-91421153D01*
X105699500Y-91578846D01*
X105730261Y-91733489D01*
X105730264Y-91733501D01*
X105790602Y-91879172D01*
X105790609Y-91879185D01*
X105878210Y-92010288D01*
X105878213Y-92010292D01*
X105989707Y-92121786D01*
X105989711Y-92121789D01*
X106120814Y-92209390D01*
X106120827Y-92209397D01*
X106258683Y-92266498D01*
X106266503Y-92269737D01*
X106421153Y-92300499D01*
X106421156Y-92300500D01*
X106421158Y-92300500D01*
X106578844Y-92300500D01*
X106578845Y-92300499D01*
X106733497Y-92269737D01*
X106879179Y-92209394D01*
X107010289Y-92121789D01*
X107121789Y-92010289D01*
X107209394Y-91879179D01*
X107269737Y-91733497D01*
X107300500Y-91578842D01*
X107300500Y-91421158D01*
X107300500Y-91421155D01*
X107300499Y-91421153D01*
X107269738Y-91266510D01*
X107269737Y-91266503D01*
X107253959Y-91228412D01*
X107209397Y-91120827D01*
X107209390Y-91120814D01*
X107121789Y-90989711D01*
X107121786Y-90989707D01*
X107010292Y-90878213D01*
X107010288Y-90878210D01*
X106879185Y-90790609D01*
X106879172Y-90790602D01*
X106733501Y-90730264D01*
X106733489Y-90730261D01*
X106578845Y-90699500D01*
X106578842Y-90699500D01*
X106421158Y-90699500D01*
X106421155Y-90699500D01*
X106266510Y-90730261D01*
X106266498Y-90730264D01*
X106120827Y-90790602D01*
X106120814Y-90790609D01*
X105989711Y-90878210D01*
X105989707Y-90878213D01*
X105878213Y-90989707D01*
X105878210Y-90989711D01*
X105790609Y-91120814D01*
X105790602Y-91120827D01*
X105730264Y-91266498D01*
X105730261Y-91266510D01*
X105699500Y-91421153D01*
X87500500Y-91421153D01*
X87500500Y-91381902D01*
X87463553Y-91148631D01*
X87390566Y-90924003D01*
X87322594Y-90790602D01*
X87283343Y-90713567D01*
X87144517Y-90522490D01*
X86977510Y-90355483D01*
X86786433Y-90216657D01*
X86575996Y-90109433D01*
X86351368Y-90036446D01*
X86118097Y-89999500D01*
X86118092Y-89999500D01*
X85881908Y-89999500D01*
X85881903Y-89999500D01*
X85648631Y-90036446D01*
X85424003Y-90109433D01*
X85213566Y-90216657D01*
X85116703Y-90287033D01*
X85022490Y-90355483D01*
X85022488Y-90355485D01*
X85022487Y-90355485D01*
X84855485Y-90522487D01*
X84855485Y-90522488D01*
X84855483Y-90522490D01*
X84796471Y-90603713D01*
X84716657Y-90713566D01*
X84609433Y-90924003D01*
X84536446Y-91148631D01*
X84499500Y-91381902D01*
X50500500Y-91381902D01*
X50500500Y-80421153D01*
X103199500Y-80421153D01*
X103199500Y-80578846D01*
X103230261Y-80733489D01*
X103230264Y-80733501D01*
X103290602Y-80879172D01*
X103290609Y-80879185D01*
X103378210Y-81010288D01*
X103378213Y-81010292D01*
X103489707Y-81121786D01*
X103489711Y-81121789D01*
X103620814Y-81209390D01*
X103620827Y-81209397D01*
X103766498Y-81269735D01*
X103766503Y-81269737D01*
X103921153Y-81300499D01*
X103921156Y-81300500D01*
X103921158Y-81300500D01*
X104078844Y-81300500D01*
X104078845Y-81300499D01*
X104233497Y-81269737D01*
X104379179Y-81209394D01*
X104510289Y-81121789D01*
X104621789Y-81010289D01*
X104709394Y-80879179D01*
X104769737Y-80733497D01*
X104800500Y-80578842D01*
X104800500Y-80421158D01*
X104800500Y-80421155D01*
X104800499Y-80421153D01*
X104775008Y-80292997D01*
X104770857Y-80272130D01*
X116399500Y-80272130D01*
X116399500Y-82067870D01*
X116399501Y-82067876D01*
X116405908Y-82127483D01*
X116456202Y-82262328D01*
X116456206Y-82262335D01*
X116542452Y-82377544D01*
X116542455Y-82377547D01*
X116657664Y-82463793D01*
X116657671Y-82463797D01*
X116789082Y-82512810D01*
X116845016Y-82554681D01*
X116869433Y-82620145D01*
X116854582Y-82688418D01*
X116833431Y-82716673D01*
X116719889Y-82830215D01*
X116594951Y-83002179D01*
X116498444Y-83191585D01*
X116432753Y-83393760D01*
X116399500Y-83603713D01*
X116399500Y-83816286D01*
X116432753Y-84026239D01*
X116498444Y-84228414D01*
X116594951Y-84417820D01*
X116719890Y-84589786D01*
X116870213Y-84740109D01*
X117042182Y-84865050D01*
X117050946Y-84869516D01*
X117101742Y-84917491D01*
X117118536Y-84985312D01*
X117095998Y-85051447D01*
X117050946Y-85090484D01*
X117042182Y-85094949D01*
X116870213Y-85219890D01*
X116719890Y-85370213D01*
X116594951Y-85542179D01*
X116498444Y-85731585D01*
X116432753Y-85933760D01*
X116399500Y-86143713D01*
X116399500Y-86356286D01*
X116432753Y-86566239D01*
X116498444Y-86768414D01*
X116594951Y-86957820D01*
X116719890Y-87129786D01*
X116870213Y-87280109D01*
X117042179Y-87405048D01*
X117042181Y-87405049D01*
X117042184Y-87405051D01*
X117231588Y-87501557D01*
X117433757Y-87567246D01*
X117643713Y-87600500D01*
X117643714Y-87600500D01*
X117856286Y-87600500D01*
X117856287Y-87600500D01*
X118066243Y-87567246D01*
X118268412Y-87501557D01*
X118457816Y-87405051D01*
X118479789Y-87389086D01*
X118629786Y-87280109D01*
X118629788Y-87280106D01*
X118629792Y-87280104D01*
X118780104Y-87129792D01*
X118780106Y-87129788D01*
X118780109Y-87129786D01*
X118905048Y-86957820D01*
X118905047Y-86957820D01*
X118905051Y-86957816D01*
X119001557Y-86768412D01*
X119067246Y-86566243D01*
X119100500Y-86356287D01*
X119100500Y-86143713D01*
X119067246Y-85933757D01*
X119001557Y-85731588D01*
X118905051Y-85542184D01*
X118905049Y-85542181D01*
X118905048Y-85542179D01*
X118780109Y-85370213D01*
X118629786Y-85219890D01*
X118457820Y-85094951D01*
X118457115Y-85094591D01*
X118449054Y-85090485D01*
X118398259Y-85042512D01*
X118381463Y-84974692D01*
X118403999Y-84908556D01*
X118449054Y-84869515D01*
X118457816Y-84865051D01*
X118479789Y-84849086D01*
X118629786Y-84740109D01*
X118629788Y-84740106D01*
X118629792Y-84740104D01*
X118780104Y-84589792D01*
X118780106Y-84589788D01*
X118780109Y-84589786D01*
X118905048Y-84417820D01*
X118905047Y-84417820D01*
X118905051Y-84417816D01*
X119001557Y-84228412D01*
X119067246Y-84026243D01*
X119100500Y-83816287D01*
X119100500Y-83603713D01*
X119067246Y-83393757D01*
X119001557Y-83191588D01*
X118905051Y-83002184D01*
X118905049Y-83002181D01*
X118905048Y-83002179D01*
X118780109Y-82830213D01*
X118666569Y-82716673D01*
X118633084Y-82655350D01*
X118638068Y-82585658D01*
X118679940Y-82529725D01*
X118710915Y-82512810D01*
X118842331Y-82463796D01*
X118957546Y-82377546D01*
X119043796Y-82262331D01*
X119094091Y-82127483D01*
X119100500Y-82067873D01*
X119100499Y-80272128D01*
X119094091Y-80212517D01*
X119043796Y-80077669D01*
X119043795Y-80077668D01*
X119043793Y-80077664D01*
X118957547Y-79962455D01*
X118957544Y-79962452D01*
X118842335Y-79876206D01*
X118842328Y-79876202D01*
X118707482Y-79825908D01*
X118707483Y-79825908D01*
X118647883Y-79819501D01*
X118647881Y-79819500D01*
X118647873Y-79819500D01*
X118647864Y-79819500D01*
X116852129Y-79819500D01*
X116852123Y-79819501D01*
X116792516Y-79825908D01*
X116657671Y-79876202D01*
X116657664Y-79876206D01*
X116542455Y-79962452D01*
X116542452Y-79962455D01*
X116456206Y-80077664D01*
X116456202Y-80077671D01*
X116405908Y-80212517D01*
X116399501Y-80272116D01*
X116399500Y-80272130D01*
X104770857Y-80272130D01*
X104769738Y-80266507D01*
X104769735Y-80266498D01*
X104709397Y-80120827D01*
X104709390Y-80120814D01*
X104621789Y-79989711D01*
X104621786Y-79989707D01*
X104510292Y-79878213D01*
X104510288Y-79878210D01*
X104379185Y-79790609D01*
X104379172Y-79790602D01*
X104233501Y-79730264D01*
X104233489Y-79730261D01*
X104078845Y-79699500D01*
X104078842Y-79699500D01*
X103921158Y-79699500D01*
X103921155Y-79699500D01*
X103766510Y-79730261D01*
X103766498Y-79730264D01*
X103620827Y-79790602D01*
X103620814Y-79790609D01*
X103489711Y-79878210D01*
X103489707Y-79878213D01*
X103378213Y-79989707D01*
X103378210Y-79989711D01*
X103290609Y-80120814D01*
X103290602Y-80120827D01*
X103230264Y-80266498D01*
X103230261Y-80266510D01*
X103199500Y-80421153D01*
X50500500Y-80421153D01*
X50500500Y-76901264D01*
X52140600Y-76901264D01*
X52140600Y-77098737D01*
X52171489Y-77293764D01*
X52232510Y-77481565D01*
X52322155Y-77657502D01*
X52438221Y-77817252D01*
X52577848Y-77956879D01*
X52737598Y-78072945D01*
X52820723Y-78115299D01*
X52913534Y-78162589D01*
X52913536Y-78162589D01*
X52913539Y-78162591D01*
X53014202Y-78195298D01*
X53101335Y-78223610D01*
X53296363Y-78254500D01*
X53296368Y-78254500D01*
X53493835Y-78254500D01*
X53688862Y-78223610D01*
X53876659Y-78162591D01*
X54052600Y-78072945D01*
X54212350Y-77956879D01*
X54351977Y-77817252D01*
X54468043Y-77657502D01*
X54557689Y-77481561D01*
X54618708Y-77293764D01*
X54649598Y-77098737D01*
X54649598Y-76901264D01*
X56640601Y-76901264D01*
X56640601Y-77098737D01*
X56671490Y-77293764D01*
X56732511Y-77481565D01*
X56822156Y-77657502D01*
X56938222Y-77817252D01*
X57077849Y-77956879D01*
X57237599Y-78072945D01*
X57320724Y-78115299D01*
X57413535Y-78162589D01*
X57413537Y-78162589D01*
X57413540Y-78162591D01*
X57514203Y-78195298D01*
X57601336Y-78223610D01*
X57796364Y-78254500D01*
X57796369Y-78254500D01*
X57993836Y-78254500D01*
X58188863Y-78223610D01*
X58376660Y-78162591D01*
X58552601Y-78072945D01*
X58712351Y-77956879D01*
X58851978Y-77817252D01*
X58968044Y-77657502D01*
X59057690Y-77481561D01*
X59118709Y-77293764D01*
X59149599Y-77098737D01*
X59149599Y-76901264D01*
X59118709Y-76706237D01*
X59090397Y-76619104D01*
X59057690Y-76518441D01*
X59057688Y-76518438D01*
X59057688Y-76518436D01*
X58968043Y-76342499D01*
X58908316Y-76260292D01*
X58851978Y-76182750D01*
X58712351Y-76043123D01*
X58552601Y-75927057D01*
X58376664Y-75837412D01*
X58188863Y-75776391D01*
X57993836Y-75745502D01*
X57993831Y-75745502D01*
X57796369Y-75745502D01*
X57796364Y-75745502D01*
X57601336Y-75776391D01*
X57413535Y-75837412D01*
X57237598Y-75927057D01*
X57077847Y-76043124D01*
X56938223Y-76182748D01*
X56822156Y-76342499D01*
X56732511Y-76518436D01*
X56671490Y-76706237D01*
X56640601Y-76901264D01*
X54649598Y-76901264D01*
X54618708Y-76706237D01*
X54590396Y-76619104D01*
X54557689Y-76518441D01*
X54557687Y-76518438D01*
X54557687Y-76518436D01*
X54468042Y-76342499D01*
X54408315Y-76260292D01*
X54351977Y-76182750D01*
X54212350Y-76043123D01*
X54052600Y-75927057D01*
X53876663Y-75837412D01*
X53688862Y-75776391D01*
X53493835Y-75745502D01*
X53493830Y-75745502D01*
X53296368Y-75745502D01*
X53296363Y-75745502D01*
X53101335Y-75776391D01*
X52913534Y-75837412D01*
X52737597Y-75927057D01*
X52577846Y-76043124D01*
X52438222Y-76182748D01*
X52322155Y-76342499D01*
X52232510Y-76518436D01*
X52171489Y-76706237D01*
X52140600Y-76901264D01*
X50500500Y-76901264D01*
X50500500Y-75671153D01*
X95949500Y-75671153D01*
X95949500Y-75828846D01*
X95980261Y-75983489D01*
X95980264Y-75983501D01*
X96040602Y-76129172D01*
X96040609Y-76129185D01*
X96128210Y-76260288D01*
X96128213Y-76260292D01*
X96239707Y-76371786D01*
X96239711Y-76371789D01*
X96370814Y-76459390D01*
X96370827Y-76459397D01*
X96513362Y-76518436D01*
X96516503Y-76519737D01*
X96671153Y-76550499D01*
X96671156Y-76550500D01*
X96671158Y-76550500D01*
X96828844Y-76550500D01*
X96828845Y-76550499D01*
X96983497Y-76519737D01*
X97129179Y-76459394D01*
X97260289Y-76371789D01*
X97371789Y-76260289D01*
X97459394Y-76129179D01*
X97519737Y-75983497D01*
X97550500Y-75828842D01*
X97550500Y-75671158D01*
X97550500Y-75671155D01*
X97550499Y-75671153D01*
X97519738Y-75516510D01*
X97519737Y-75516503D01*
X97459794Y-75371786D01*
X97459397Y-75370827D01*
X97459390Y-75370814D01*
X97371789Y-75239711D01*
X97371786Y-75239707D01*
X97260292Y-75128213D01*
X97260288Y-75128210D01*
X97129185Y-75040609D01*
X97129172Y-75040602D01*
X96983501Y-74980264D01*
X96983489Y-74980261D01*
X96828845Y-74949500D01*
X96828842Y-74949500D01*
X96671158Y-74949500D01*
X96671155Y-74949500D01*
X96516510Y-74980261D01*
X96516498Y-74980264D01*
X96370827Y-75040602D01*
X96370814Y-75040609D01*
X96239711Y-75128210D01*
X96239707Y-75128213D01*
X96128213Y-75239707D01*
X96128210Y-75239711D01*
X96040609Y-75370814D01*
X96040602Y-75370827D01*
X95980264Y-75516498D01*
X95980261Y-75516510D01*
X95949500Y-75671153D01*
X50500500Y-75671153D01*
X50500500Y-74671153D01*
X90949500Y-74671153D01*
X90949500Y-74828846D01*
X90980261Y-74983489D01*
X90980264Y-74983501D01*
X91040602Y-75129172D01*
X91040609Y-75129185D01*
X91128210Y-75260288D01*
X91128213Y-75260292D01*
X91239707Y-75371786D01*
X91239711Y-75371789D01*
X91370814Y-75459390D01*
X91370827Y-75459397D01*
X91508683Y-75516498D01*
X91516503Y-75519737D01*
X91671153Y-75550499D01*
X91671156Y-75550500D01*
X91671158Y-75550500D01*
X91828844Y-75550500D01*
X91828845Y-75550499D01*
X91839179Y-75548443D01*
X91864287Y-75543450D01*
X91864292Y-75543449D01*
X91949800Y-75526439D01*
X91983497Y-75519737D01*
X92129179Y-75459394D01*
X92260289Y-75371789D01*
X92371789Y-75260289D01*
X92459394Y-75129179D01*
X92519737Y-74983497D01*
X92550500Y-74828842D01*
X92550500Y-74671158D01*
X92550500Y-74671155D01*
X92550499Y-74671153D01*
X92530688Y-74571557D01*
X92519737Y-74516503D01*
X92502566Y-74475048D01*
X92459397Y-74370827D01*
X92459390Y-74370814D01*
X92371790Y-74239712D01*
X92371784Y-74239705D01*
X92303232Y-74171153D01*
X98449500Y-74171153D01*
X98449500Y-74328846D01*
X98480261Y-74483489D01*
X98480264Y-74483501D01*
X98540602Y-74629172D01*
X98540609Y-74629185D01*
X98628210Y-74760288D01*
X98628213Y-74760292D01*
X98739707Y-74871786D01*
X98739711Y-74871789D01*
X98870814Y-74959390D01*
X98870827Y-74959397D01*
X99016498Y-75019735D01*
X99016503Y-75019737D01*
X99171153Y-75050499D01*
X99171156Y-75050500D01*
X99171158Y-75050500D01*
X99328844Y-75050500D01*
X99328845Y-75050499D01*
X99483497Y-75019737D01*
X99629179Y-74959394D01*
X99760289Y-74871789D01*
X99871789Y-74760289D01*
X99959394Y-74629179D01*
X100019737Y-74483497D01*
X100050500Y-74328842D01*
X100050500Y-74171158D01*
X100050500Y-74171155D01*
X100050499Y-74171153D01*
X100024531Y-74040606D01*
X100019737Y-74016503D01*
X100019735Y-74016498D01*
X99959397Y-73870827D01*
X99959390Y-73870814D01*
X99871789Y-73739711D01*
X99871786Y-73739707D01*
X99760292Y-73628213D01*
X99760288Y-73628210D01*
X99629185Y-73540609D01*
X99629172Y-73540602D01*
X99483501Y-73480264D01*
X99483489Y-73480261D01*
X99328845Y-73449500D01*
X99328842Y-73449500D01*
X99171158Y-73449500D01*
X99171155Y-73449500D01*
X99016510Y-73480261D01*
X99016498Y-73480264D01*
X98870827Y-73540602D01*
X98870814Y-73540609D01*
X98739711Y-73628210D01*
X98739707Y-73628213D01*
X98628213Y-73739707D01*
X98628210Y-73739711D01*
X98540609Y-73870814D01*
X98540602Y-73870827D01*
X98480264Y-74016498D01*
X98480261Y-74016510D01*
X98449500Y-74171153D01*
X92303232Y-74171153D01*
X92260292Y-74128213D01*
X92260288Y-74128210D01*
X92129185Y-74040609D01*
X92129172Y-74040602D01*
X91983501Y-73980264D01*
X91983489Y-73980261D01*
X91828845Y-73949500D01*
X91828842Y-73949500D01*
X91671158Y-73949500D01*
X91671155Y-73949500D01*
X91516510Y-73980261D01*
X91516498Y-73980264D01*
X91370827Y-74040602D01*
X91370814Y-74040609D01*
X91239711Y-74128210D01*
X91239707Y-74128213D01*
X91128213Y-74239707D01*
X91128210Y-74239711D01*
X91040609Y-74370814D01*
X91040602Y-74370827D01*
X90980264Y-74516498D01*
X90980261Y-74516510D01*
X90949500Y-74671153D01*
X50500500Y-74671153D01*
X50500500Y-70401262D01*
X52140600Y-70401262D01*
X52140600Y-70598735D01*
X52171489Y-70793762D01*
X52232510Y-70981563D01*
X52303466Y-71120821D01*
X52322155Y-71157500D01*
X52438221Y-71317250D01*
X52577848Y-71456877D01*
X52737598Y-71572943D01*
X52820723Y-71615297D01*
X52913534Y-71662587D01*
X52913536Y-71662587D01*
X52913539Y-71662589D01*
X53014202Y-71695296D01*
X53101335Y-71723608D01*
X53296363Y-71754498D01*
X53296368Y-71754498D01*
X53493835Y-71754498D01*
X53688862Y-71723608D01*
X53710196Y-71716676D01*
X53876659Y-71662589D01*
X54052600Y-71572943D01*
X54212350Y-71456877D01*
X54351977Y-71317250D01*
X54468043Y-71157500D01*
X54557689Y-70981559D01*
X54618708Y-70793762D01*
X54619208Y-70790606D01*
X54649598Y-70598735D01*
X54649598Y-70401262D01*
X56640601Y-70401262D01*
X56640601Y-70598735D01*
X56671490Y-70793762D01*
X56732511Y-70981563D01*
X56803467Y-71120821D01*
X56822156Y-71157500D01*
X56938222Y-71317250D01*
X57077849Y-71456877D01*
X57237599Y-71572943D01*
X57320724Y-71615297D01*
X57413535Y-71662587D01*
X57413537Y-71662587D01*
X57413540Y-71662589D01*
X57514203Y-71695296D01*
X57601336Y-71723608D01*
X57796364Y-71754498D01*
X57796369Y-71754498D01*
X57993836Y-71754498D01*
X58188863Y-71723608D01*
X58210197Y-71716676D01*
X58376660Y-71662589D01*
X58552601Y-71572943D01*
X58712351Y-71456877D01*
X58748075Y-71421153D01*
X99199500Y-71421153D01*
X99199500Y-71578846D01*
X99230261Y-71733489D01*
X99230264Y-71733501D01*
X99290602Y-71879172D01*
X99290609Y-71879185D01*
X99378210Y-72010288D01*
X99378213Y-72010292D01*
X99489707Y-72121786D01*
X99489711Y-72121789D01*
X99620814Y-72209390D01*
X99620827Y-72209397D01*
X99766498Y-72269735D01*
X99766503Y-72269737D01*
X99921153Y-72300499D01*
X99921156Y-72300500D01*
X99921158Y-72300500D01*
X100078844Y-72300500D01*
X100078845Y-72300499D01*
X100233497Y-72269737D01*
X100379179Y-72209394D01*
X100510289Y-72121789D01*
X100621789Y-72010289D01*
X100709394Y-71879179D01*
X100769737Y-71733497D01*
X100800500Y-71578842D01*
X100800500Y-71421158D01*
X100800500Y-71421155D01*
X100800499Y-71421153D01*
X100781847Y-71327385D01*
X100769737Y-71266503D01*
X100709794Y-71121786D01*
X100709397Y-71120827D01*
X100709390Y-71120814D01*
X100621789Y-70989711D01*
X100621786Y-70989707D01*
X100510292Y-70878213D01*
X100510288Y-70878210D01*
X100379185Y-70790609D01*
X100379172Y-70790602D01*
X100233501Y-70730264D01*
X100233489Y-70730261D01*
X100078845Y-70699500D01*
X100078842Y-70699500D01*
X99921158Y-70699500D01*
X99921155Y-70699500D01*
X99766510Y-70730261D01*
X99766498Y-70730264D01*
X99620827Y-70790602D01*
X99620814Y-70790609D01*
X99489711Y-70878210D01*
X99489707Y-70878213D01*
X99378213Y-70989707D01*
X99378210Y-70989711D01*
X99290609Y-71120814D01*
X99290602Y-71120827D01*
X99230264Y-71266498D01*
X99230261Y-71266510D01*
X99199500Y-71421153D01*
X58748075Y-71421153D01*
X58851978Y-71317250D01*
X58968044Y-71157500D01*
X59057690Y-70981559D01*
X59118709Y-70793762D01*
X59119209Y-70790606D01*
X59149599Y-70598735D01*
X59149599Y-70421153D01*
X101949500Y-70421153D01*
X101949500Y-70578846D01*
X101980261Y-70733489D01*
X101980264Y-70733501D01*
X102040602Y-70879172D01*
X102040609Y-70879185D01*
X102128210Y-71010288D01*
X102128213Y-71010292D01*
X102239707Y-71121786D01*
X102239711Y-71121789D01*
X102370814Y-71209390D01*
X102370827Y-71209397D01*
X102402806Y-71222643D01*
X102457210Y-71266483D01*
X102479275Y-71332778D01*
X102461996Y-71400477D01*
X102443036Y-71424885D01*
X102378210Y-71489711D01*
X102290609Y-71620814D01*
X102290602Y-71620827D01*
X102230264Y-71766498D01*
X102230261Y-71766510D01*
X102199500Y-71921153D01*
X102199500Y-72078846D01*
X102230261Y-72233489D01*
X102230264Y-72233501D01*
X102290602Y-72379172D01*
X102290609Y-72379185D01*
X102378210Y-72510288D01*
X102378213Y-72510292D01*
X102489707Y-72621786D01*
X102489711Y-72621789D01*
X102620814Y-72709390D01*
X102620827Y-72709397D01*
X102766498Y-72769735D01*
X102766503Y-72769737D01*
X102921153Y-72800499D01*
X102921156Y-72800500D01*
X102921158Y-72800500D01*
X103078844Y-72800500D01*
X103078845Y-72800499D01*
X103233497Y-72769737D01*
X103379179Y-72709394D01*
X103510289Y-72621789D01*
X103621789Y-72510289D01*
X103709394Y-72379179D01*
X103769737Y-72233497D01*
X103800500Y-72078842D01*
X103800500Y-71921158D01*
X103800500Y-71921155D01*
X103787426Y-71855431D01*
X103793653Y-71785840D01*
X103836515Y-71730662D01*
X103861589Y-71716679D01*
X103879179Y-71709394D01*
X104010289Y-71621789D01*
X104121789Y-71510289D01*
X104209394Y-71379179D01*
X104269737Y-71233497D01*
X104300500Y-71078842D01*
X104300500Y-70921158D01*
X104300500Y-70921155D01*
X104300499Y-70921153D01*
X104274531Y-70790606D01*
X104269737Y-70766503D01*
X104256062Y-70733489D01*
X104209397Y-70620827D01*
X104209390Y-70620814D01*
X104121789Y-70489711D01*
X104121786Y-70489707D01*
X104010292Y-70378213D01*
X104010288Y-70378210D01*
X103879185Y-70290609D01*
X103879172Y-70290602D01*
X103733501Y-70230264D01*
X103733489Y-70230261D01*
X103578845Y-70199500D01*
X103578842Y-70199500D01*
X103574838Y-70199500D01*
X103572816Y-70198906D01*
X103572782Y-70198903D01*
X103572782Y-70198896D01*
X103507799Y-70179815D01*
X103462044Y-70127011D01*
X103460275Y-70122949D01*
X103459394Y-70120821D01*
X103459391Y-70120816D01*
X103459390Y-70120814D01*
X103371789Y-69989711D01*
X103371786Y-69989707D01*
X103260292Y-69878213D01*
X103260288Y-69878210D01*
X103129185Y-69790609D01*
X103129172Y-69790602D01*
X102983501Y-69730264D01*
X102983489Y-69730261D01*
X102828845Y-69699500D01*
X102828842Y-69699500D01*
X102671158Y-69699500D01*
X102671155Y-69699500D01*
X102516510Y-69730261D01*
X102516498Y-69730264D01*
X102370827Y-69790602D01*
X102370814Y-69790609D01*
X102239711Y-69878210D01*
X102239707Y-69878213D01*
X102128213Y-69989707D01*
X102128210Y-69989711D01*
X102040609Y-70120814D01*
X102040602Y-70120827D01*
X101980264Y-70266498D01*
X101980261Y-70266510D01*
X101949500Y-70421153D01*
X59149599Y-70421153D01*
X59149599Y-70401262D01*
X59118709Y-70206235D01*
X59057688Y-70018434D01*
X58997451Y-69900213D01*
X58968044Y-69842498D01*
X58851978Y-69682748D01*
X58712351Y-69543121D01*
X58552601Y-69427055D01*
X58376664Y-69337410D01*
X58188863Y-69276389D01*
X57993836Y-69245500D01*
X57993831Y-69245500D01*
X57796369Y-69245500D01*
X57796364Y-69245500D01*
X57601336Y-69276389D01*
X57413535Y-69337410D01*
X57237598Y-69427055D01*
X57077847Y-69543122D01*
X56938223Y-69682746D01*
X56822156Y-69842497D01*
X56732511Y-70018434D01*
X56671490Y-70206235D01*
X56640601Y-70401262D01*
X54649598Y-70401262D01*
X54618708Y-70206235D01*
X54557687Y-70018434D01*
X54497450Y-69900213D01*
X54468043Y-69842498D01*
X54351977Y-69682748D01*
X54212350Y-69543121D01*
X54052600Y-69427055D01*
X53876663Y-69337410D01*
X53688862Y-69276389D01*
X53493835Y-69245500D01*
X53493830Y-69245500D01*
X53296368Y-69245500D01*
X53296363Y-69245500D01*
X53101335Y-69276389D01*
X52913534Y-69337410D01*
X52737597Y-69427055D01*
X52577846Y-69543122D01*
X52438222Y-69682746D01*
X52322155Y-69842497D01*
X52232510Y-70018434D01*
X52171489Y-70206235D01*
X52140600Y-70401262D01*
X50500500Y-70401262D01*
X50500500Y-66921153D01*
X60699500Y-66921153D01*
X60699500Y-67078846D01*
X60730261Y-67233489D01*
X60730264Y-67233501D01*
X60790602Y-67379172D01*
X60790609Y-67379185D01*
X60878210Y-67510288D01*
X60878213Y-67510292D01*
X60989707Y-67621786D01*
X60989711Y-67621789D01*
X61120814Y-67709390D01*
X61120827Y-67709397D01*
X61266498Y-67769735D01*
X61266503Y-67769737D01*
X61421153Y-67800499D01*
X61421156Y-67800500D01*
X61421158Y-67800500D01*
X61578844Y-67800500D01*
X61578845Y-67800499D01*
X61733497Y-67769737D01*
X61879179Y-67709394D01*
X62010289Y-67621789D01*
X62121789Y-67510289D01*
X62209394Y-67379179D01*
X62269737Y-67233497D01*
X62300500Y-67078842D01*
X62300500Y-66921158D01*
X62300500Y-66921155D01*
X62296536Y-66901228D01*
X62296536Y-66901227D01*
X62292692Y-66881902D01*
X64499500Y-66881902D01*
X64499500Y-67118097D01*
X64536446Y-67351368D01*
X64609433Y-67575996D01*
X64677405Y-67709397D01*
X64716657Y-67786433D01*
X64855483Y-67977510D01*
X65022490Y-68144517D01*
X65213567Y-68283343D01*
X65312991Y-68334002D01*
X65424003Y-68390566D01*
X65424005Y-68390566D01*
X65424008Y-68390568D01*
X65544412Y-68429689D01*
X65648631Y-68463553D01*
X65881903Y-68500500D01*
X65881908Y-68500500D01*
X66118097Y-68500500D01*
X66351368Y-68463553D01*
X66575992Y-68390568D01*
X66786433Y-68283343D01*
X66977510Y-68144517D01*
X66988314Y-68133713D01*
X116149500Y-68133713D01*
X116149500Y-68346287D01*
X116159534Y-68409644D01*
X116182753Y-68556239D01*
X116248444Y-68758414D01*
X116344951Y-68947820D01*
X116469890Y-69119786D01*
X116620213Y-69270109D01*
X116792182Y-69395050D01*
X116800946Y-69399516D01*
X116851742Y-69447491D01*
X116868536Y-69515312D01*
X116845998Y-69581447D01*
X116800946Y-69620484D01*
X116792182Y-69624949D01*
X116620213Y-69749890D01*
X116469890Y-69900213D01*
X116344951Y-70072179D01*
X116248444Y-70261585D01*
X116182753Y-70463760D01*
X116149500Y-70673713D01*
X116149500Y-70886286D01*
X116179998Y-71078846D01*
X116182754Y-71096243D01*
X116245880Y-71290525D01*
X116248444Y-71298414D01*
X116344951Y-71487820D01*
X116469890Y-71659786D01*
X116620213Y-71810109D01*
X116792182Y-71935050D01*
X116800946Y-71939516D01*
X116851742Y-71987491D01*
X116868536Y-72055312D01*
X116845998Y-72121447D01*
X116800946Y-72160484D01*
X116792182Y-72164949D01*
X116620213Y-72289890D01*
X116469890Y-72440213D01*
X116344951Y-72612179D01*
X116248444Y-72801585D01*
X116182753Y-73003760D01*
X116149500Y-73213713D01*
X116149500Y-73426286D01*
X116182753Y-73636239D01*
X116248444Y-73838414D01*
X116344951Y-74027820D01*
X116469890Y-74199786D01*
X116620213Y-74350109D01*
X116792179Y-74475048D01*
X116792181Y-74475049D01*
X116792184Y-74475051D01*
X116981588Y-74571557D01*
X117183757Y-74637246D01*
X117393713Y-74670500D01*
X117393714Y-74670500D01*
X117606286Y-74670500D01*
X117606287Y-74670500D01*
X117816243Y-74637246D01*
X118018412Y-74571557D01*
X118207816Y-74475051D01*
X118229789Y-74459086D01*
X118379786Y-74350109D01*
X118379788Y-74350106D01*
X118379792Y-74350104D01*
X118530104Y-74199792D01*
X118530106Y-74199788D01*
X118530109Y-74199786D01*
X118655048Y-74027820D01*
X118655047Y-74027820D01*
X118655051Y-74027816D01*
X118751557Y-73838412D01*
X118817246Y-73636243D01*
X118850500Y-73426287D01*
X118850500Y-73213713D01*
X118817246Y-73003757D01*
X118751557Y-72801588D01*
X118655051Y-72612184D01*
X118655049Y-72612181D01*
X118655048Y-72612179D01*
X118530109Y-72440213D01*
X118379786Y-72289890D01*
X118207820Y-72164951D01*
X118207115Y-72164591D01*
X118199054Y-72160485D01*
X118148259Y-72112512D01*
X118131463Y-72044692D01*
X118153999Y-71978556D01*
X118199054Y-71939515D01*
X118207816Y-71935051D01*
X118229789Y-71919086D01*
X118379786Y-71810109D01*
X118379788Y-71810106D01*
X118379792Y-71810104D01*
X118530104Y-71659792D01*
X118530106Y-71659788D01*
X118530109Y-71659786D01*
X118655048Y-71487820D01*
X118655047Y-71487820D01*
X118655051Y-71487816D01*
X118751557Y-71298412D01*
X118817246Y-71096243D01*
X118850500Y-70886287D01*
X118850500Y-70673713D01*
X118817246Y-70463757D01*
X118751557Y-70261588D01*
X118655051Y-70072184D01*
X118655049Y-70072181D01*
X118655048Y-70072179D01*
X118530109Y-69900213D01*
X118379786Y-69749890D01*
X118207820Y-69624951D01*
X118207115Y-69624591D01*
X118199054Y-69620485D01*
X118148259Y-69572512D01*
X118131463Y-69504692D01*
X118153999Y-69438556D01*
X118199054Y-69399515D01*
X118207816Y-69395051D01*
X118287154Y-69337409D01*
X118379786Y-69270109D01*
X118379788Y-69270106D01*
X118379792Y-69270104D01*
X118530104Y-69119792D01*
X118530106Y-69119788D01*
X118530109Y-69119786D01*
X118655048Y-68947820D01*
X118655047Y-68947820D01*
X118655051Y-68947816D01*
X118751557Y-68758412D01*
X118817246Y-68556243D01*
X118850500Y-68346287D01*
X118850500Y-68133713D01*
X118817246Y-67923757D01*
X118751557Y-67721588D01*
X118655051Y-67532184D01*
X118655049Y-67532181D01*
X118655048Y-67532179D01*
X118530109Y-67360213D01*
X118416181Y-67246285D01*
X118382696Y-67184962D01*
X118387680Y-67115270D01*
X118429552Y-67059337D01*
X118460529Y-67042422D01*
X118592086Y-66993354D01*
X118592093Y-66993350D01*
X118707187Y-66907190D01*
X118707190Y-66907187D01*
X118793350Y-66792093D01*
X118793354Y-66792086D01*
X118843596Y-66657379D01*
X118843598Y-66657372D01*
X118849999Y-66597844D01*
X118850000Y-66597827D01*
X118850000Y-65950000D01*
X117933012Y-65950000D01*
X117965925Y-65892993D01*
X118000000Y-65765826D01*
X118000000Y-65634174D01*
X117965925Y-65507007D01*
X117933012Y-65450000D01*
X118850000Y-65450000D01*
X118850000Y-64802172D01*
X118849999Y-64802155D01*
X118843598Y-64742627D01*
X118843596Y-64742620D01*
X118793354Y-64607913D01*
X118793350Y-64607906D01*
X118707190Y-64492812D01*
X118707187Y-64492809D01*
X118592093Y-64406649D01*
X118592086Y-64406645D01*
X118457379Y-64356403D01*
X118457372Y-64356401D01*
X118397844Y-64350000D01*
X117750000Y-64350000D01*
X117750000Y-65266988D01*
X117692993Y-65234075D01*
X117565826Y-65200000D01*
X117434174Y-65200000D01*
X117307007Y-65234075D01*
X117250000Y-65266988D01*
X117250000Y-64350000D01*
X116602155Y-64350000D01*
X116542627Y-64356401D01*
X116542620Y-64356403D01*
X116407913Y-64406645D01*
X116407906Y-64406649D01*
X116292812Y-64492809D01*
X116292809Y-64492812D01*
X116206649Y-64607906D01*
X116206645Y-64607913D01*
X116156403Y-64742620D01*
X116156401Y-64742627D01*
X116150000Y-64802155D01*
X116150000Y-65450000D01*
X117066988Y-65450000D01*
X117034075Y-65507007D01*
X117000000Y-65634174D01*
X117000000Y-65765826D01*
X117034075Y-65892993D01*
X117066988Y-65950000D01*
X116150000Y-65950000D01*
X116150000Y-66597844D01*
X116156401Y-66657372D01*
X116156403Y-66657379D01*
X116206645Y-66792086D01*
X116206649Y-66792093D01*
X116292809Y-66907187D01*
X116292812Y-66907190D01*
X116407906Y-66993350D01*
X116407913Y-66993354D01*
X116539470Y-67042422D01*
X116595404Y-67084293D01*
X116619821Y-67149758D01*
X116604969Y-67218031D01*
X116583819Y-67246285D01*
X116469889Y-67360215D01*
X116344951Y-67532179D01*
X116248444Y-67721585D01*
X116182753Y-67923760D01*
X116174240Y-67977510D01*
X116149500Y-68133713D01*
X66988314Y-68133713D01*
X67144517Y-67977510D01*
X67283343Y-67786433D01*
X67390568Y-67575992D01*
X67463553Y-67351368D01*
X67500500Y-67118097D01*
X67500500Y-66881902D01*
X67463553Y-66648631D01*
X67390566Y-66424003D01*
X67322594Y-66290602D01*
X67283343Y-66213567D01*
X67144517Y-66022490D01*
X66977510Y-65855483D01*
X66786433Y-65716657D01*
X66575996Y-65609433D01*
X66351368Y-65536446D01*
X66118097Y-65499500D01*
X66118092Y-65499500D01*
X65881908Y-65499500D01*
X65881903Y-65499500D01*
X65648631Y-65536446D01*
X65424003Y-65609433D01*
X65213566Y-65716657D01*
X65145892Y-65765826D01*
X65022490Y-65855483D01*
X65022488Y-65855485D01*
X65022487Y-65855485D01*
X64855485Y-66022487D01*
X64855485Y-66022488D01*
X64855483Y-66022490D01*
X64799097Y-66100099D01*
X64716657Y-66213566D01*
X64609433Y-66424003D01*
X64536446Y-66648631D01*
X64499500Y-66881902D01*
X62292692Y-66881902D01*
X62269738Y-66766510D01*
X62269737Y-66766503D01*
X62220914Y-66648632D01*
X62209397Y-66620827D01*
X62209390Y-66620814D01*
X62121789Y-66489711D01*
X62121786Y-66489707D01*
X62010292Y-66378213D01*
X62010288Y-66378210D01*
X61879185Y-66290609D01*
X61879172Y-66290602D01*
X61733501Y-66230264D01*
X61733489Y-66230261D01*
X61578845Y-66199500D01*
X61578842Y-66199500D01*
X61421158Y-66199500D01*
X61421155Y-66199500D01*
X61266510Y-66230261D01*
X61266498Y-66230264D01*
X61120827Y-66290602D01*
X61120814Y-66290609D01*
X60989711Y-66378210D01*
X60989707Y-66378213D01*
X60878213Y-66489707D01*
X60878210Y-66489711D01*
X60790609Y-66620814D01*
X60790602Y-66620827D01*
X60730264Y-66766498D01*
X60730261Y-66766510D01*
X60699500Y-66921153D01*
X50500500Y-66921153D01*
X50500500Y-54818209D01*
X51299500Y-54818209D01*
X51299500Y-55181790D01*
X51335137Y-55543630D01*
X51406064Y-55900212D01*
X51406067Y-55900223D01*
X51511614Y-56248165D01*
X51650754Y-56584078D01*
X51650756Y-56584083D01*
X51822140Y-56904720D01*
X51822151Y-56904738D01*
X52024140Y-57207035D01*
X52024150Y-57207049D01*
X52254807Y-57488106D01*
X52511893Y-57745192D01*
X52511898Y-57745196D01*
X52511899Y-57745197D01*
X52792956Y-57975854D01*
X53095268Y-58177853D01*
X53095277Y-58177858D01*
X53095279Y-58177859D01*
X53415916Y-58349243D01*
X53415918Y-58349243D01*
X53415924Y-58349247D01*
X53751836Y-58488386D01*
X54099767Y-58593930D01*
X54099773Y-58593931D01*
X54099776Y-58593932D01*
X54099787Y-58593935D01*
X54456369Y-58664862D01*
X54818206Y-58700500D01*
X54818209Y-58700500D01*
X55181791Y-58700500D01*
X55181794Y-58700500D01*
X55543631Y-58664862D01*
X55613045Y-58651054D01*
X55900212Y-58593935D01*
X55900223Y-58593932D01*
X55900223Y-58593931D01*
X55900233Y-58593930D01*
X56248164Y-58488386D01*
X56584076Y-58349247D01*
X56904732Y-58177853D01*
X57207044Y-57975854D01*
X57488101Y-57745197D01*
X57745197Y-57488101D01*
X57975854Y-57207044D01*
X58177853Y-56904732D01*
X58349247Y-56584076D01*
X58488386Y-56248164D01*
X58511747Y-56171153D01*
X89949500Y-56171153D01*
X89949500Y-56328846D01*
X89980261Y-56483489D01*
X89980264Y-56483501D01*
X90040602Y-56629172D01*
X90040609Y-56629185D01*
X90128210Y-56760288D01*
X90128213Y-56760292D01*
X90239707Y-56871786D01*
X90239711Y-56871789D01*
X90370814Y-56959390D01*
X90370827Y-56959397D01*
X90516498Y-57019735D01*
X90516503Y-57019737D01*
X90671153Y-57050499D01*
X90671156Y-57050500D01*
X90671158Y-57050500D01*
X90828844Y-57050500D01*
X90828845Y-57050499D01*
X90983497Y-57019737D01*
X91129179Y-56959394D01*
X91260289Y-56871789D01*
X91371789Y-56760289D01*
X91459394Y-56629179D01*
X91519737Y-56483497D01*
X91550500Y-56328842D01*
X91550500Y-56171158D01*
X91550500Y-56171155D01*
X91550499Y-56171153D01*
X91519738Y-56016510D01*
X91519737Y-56016503D01*
X91471568Y-55900212D01*
X91459397Y-55870827D01*
X91459390Y-55870814D01*
X91371789Y-55739711D01*
X91371786Y-55739707D01*
X91260292Y-55628213D01*
X91260288Y-55628210D01*
X91129185Y-55540609D01*
X91129172Y-55540602D01*
X90983501Y-55480264D01*
X90983489Y-55480261D01*
X90828845Y-55449500D01*
X90828842Y-55449500D01*
X90671158Y-55449500D01*
X90671155Y-55449500D01*
X90516510Y-55480261D01*
X90516498Y-55480264D01*
X90370827Y-55540602D01*
X90370814Y-55540609D01*
X90239711Y-55628210D01*
X90239707Y-55628213D01*
X90128213Y-55739707D01*
X90128210Y-55739711D01*
X90040609Y-55870814D01*
X90040602Y-55870827D01*
X89980264Y-56016498D01*
X89980261Y-56016510D01*
X89949500Y-56171153D01*
X58511747Y-56171153D01*
X58593930Y-55900233D01*
X58593932Y-55900223D01*
X58593935Y-55900212D01*
X58664862Y-55543630D01*
X58679937Y-55390568D01*
X58700500Y-55181794D01*
X58700500Y-54818206D01*
X58664862Y-54456369D01*
X58643976Y-54351368D01*
X58593935Y-54099787D01*
X58593932Y-54099776D01*
X58593931Y-54099773D01*
X58593930Y-54099767D01*
X58488386Y-53751836D01*
X58454966Y-53671153D01*
X75449500Y-53671153D01*
X75449500Y-53828846D01*
X75480261Y-53983489D01*
X75480264Y-53983501D01*
X75540602Y-54129172D01*
X75540609Y-54129185D01*
X75628210Y-54260288D01*
X75628213Y-54260292D01*
X75739707Y-54371786D01*
X75739711Y-54371789D01*
X75870814Y-54459390D01*
X75870827Y-54459397D01*
X76016498Y-54519735D01*
X76016503Y-54519737D01*
X76171153Y-54550499D01*
X76171156Y-54550500D01*
X76171158Y-54550500D01*
X76328844Y-54550500D01*
X76328845Y-54550499D01*
X76483497Y-54519737D01*
X76629179Y-54459394D01*
X76760289Y-54371789D01*
X76871789Y-54260289D01*
X76959394Y-54129179D01*
X77019737Y-53983497D01*
X77033493Y-53914336D01*
X77039945Y-53881902D01*
X81999500Y-53881902D01*
X81999500Y-54118097D01*
X82036446Y-54351368D01*
X82109433Y-54575996D01*
X82202611Y-54758867D01*
X82216657Y-54786433D01*
X82355483Y-54977510D01*
X82522490Y-55144517D01*
X82713567Y-55283343D01*
X82812991Y-55334002D01*
X82924003Y-55390566D01*
X82924005Y-55390566D01*
X82924008Y-55390568D01*
X83044412Y-55429689D01*
X83148631Y-55463553D01*
X83381903Y-55500500D01*
X83381908Y-55500500D01*
X83618097Y-55500500D01*
X83851368Y-55463553D01*
X84075992Y-55390568D01*
X84286433Y-55283343D01*
X84477510Y-55144517D01*
X84644517Y-54977510D01*
X84760256Y-54818209D01*
X111299500Y-54818209D01*
X111299500Y-55181790D01*
X111335137Y-55543630D01*
X111406064Y-55900212D01*
X111406067Y-55900223D01*
X111511614Y-56248165D01*
X111650754Y-56584078D01*
X111650756Y-56584083D01*
X111822140Y-56904720D01*
X111822151Y-56904738D01*
X112024140Y-57207035D01*
X112024150Y-57207049D01*
X112254807Y-57488106D01*
X112511893Y-57745192D01*
X112511898Y-57745196D01*
X112511899Y-57745197D01*
X112792956Y-57975854D01*
X113095268Y-58177853D01*
X113095277Y-58177858D01*
X113095279Y-58177859D01*
X113415916Y-58349243D01*
X113415918Y-58349243D01*
X113415924Y-58349247D01*
X113751836Y-58488386D01*
X114099767Y-58593930D01*
X114099773Y-58593931D01*
X114099776Y-58593932D01*
X114099787Y-58593935D01*
X114456369Y-58664862D01*
X114818206Y-58700500D01*
X114818209Y-58700500D01*
X115181791Y-58700500D01*
X115181794Y-58700500D01*
X115543631Y-58664862D01*
X115613045Y-58651054D01*
X115900212Y-58593935D01*
X115900223Y-58593932D01*
X115900223Y-58593931D01*
X115900233Y-58593930D01*
X116248164Y-58488386D01*
X116584076Y-58349247D01*
X116904732Y-58177853D01*
X117207044Y-57975854D01*
X117488101Y-57745197D01*
X117745197Y-57488101D01*
X117975854Y-57207044D01*
X118177853Y-56904732D01*
X118349247Y-56584076D01*
X118488386Y-56248164D01*
X118593930Y-55900233D01*
X118593932Y-55900223D01*
X118593935Y-55900212D01*
X118664862Y-55543630D01*
X118679937Y-55390568D01*
X118700500Y-55181794D01*
X118700500Y-54818206D01*
X118664862Y-54456369D01*
X118643976Y-54351368D01*
X118593935Y-54099787D01*
X118593932Y-54099776D01*
X118593931Y-54099773D01*
X118593930Y-54099767D01*
X118488386Y-53751836D01*
X118349247Y-53415924D01*
X118195462Y-53128213D01*
X118177859Y-53095279D01*
X118177858Y-53095277D01*
X118177853Y-53095268D01*
X117975854Y-52792956D01*
X117745197Y-52511899D01*
X117745196Y-52511898D01*
X117745192Y-52511893D01*
X117488106Y-52254807D01*
X117207049Y-52024150D01*
X117207048Y-52024149D01*
X117207044Y-52024146D01*
X116904732Y-51822147D01*
X116904727Y-51822144D01*
X116904720Y-51822140D01*
X116584083Y-51650756D01*
X116584078Y-51650754D01*
X116248165Y-51511614D01*
X115900223Y-51406067D01*
X115900212Y-51406064D01*
X115543630Y-51335137D01*
X115271111Y-51308296D01*
X115181794Y-51299500D01*
X114818206Y-51299500D01*
X114735679Y-51307628D01*
X114456369Y-51335137D01*
X114099787Y-51406064D01*
X114099776Y-51406067D01*
X113751834Y-51511614D01*
X113415921Y-51650754D01*
X113415916Y-51650756D01*
X113095279Y-51822140D01*
X113095261Y-51822151D01*
X112792964Y-52024140D01*
X112792950Y-52024150D01*
X112511893Y-52254807D01*
X112254807Y-52511893D01*
X112024150Y-52792950D01*
X112024140Y-52792964D01*
X111822151Y-53095261D01*
X111822140Y-53095279D01*
X111650756Y-53415916D01*
X111650754Y-53415921D01*
X111511614Y-53751834D01*
X111406067Y-54099776D01*
X111406064Y-54099787D01*
X111335137Y-54456369D01*
X111307628Y-54735679D01*
X111302630Y-54786433D01*
X111299500Y-54818209D01*
X84760256Y-54818209D01*
X84783343Y-54786433D01*
X84890568Y-54575992D01*
X84963553Y-54351368D01*
X84977978Y-54260292D01*
X85000500Y-54118097D01*
X85000500Y-53881902D01*
X84963553Y-53648631D01*
X84920624Y-53516510D01*
X84890568Y-53424008D01*
X84890566Y-53424005D01*
X84890566Y-53424003D01*
X84783342Y-53213566D01*
X84721329Y-53128213D01*
X84644517Y-53022490D01*
X84477510Y-52855483D01*
X84286433Y-52716657D01*
X84075996Y-52609433D01*
X83851368Y-52536446D01*
X83618097Y-52499500D01*
X83618092Y-52499500D01*
X83381908Y-52499500D01*
X83381903Y-52499500D01*
X83148631Y-52536446D01*
X82924003Y-52609433D01*
X82713566Y-52716657D01*
X82608559Y-52792950D01*
X82522490Y-52855483D01*
X82522488Y-52855485D01*
X82522487Y-52855485D01*
X82355485Y-53022487D01*
X82355485Y-53022488D01*
X82355483Y-53022490D01*
X82342324Y-53040602D01*
X82216657Y-53213566D01*
X82109433Y-53424003D01*
X82036446Y-53648631D01*
X81999500Y-53881902D01*
X77039945Y-53881902D01*
X77045726Y-53852845D01*
X77045726Y-53852844D01*
X77050500Y-53828844D01*
X77050500Y-53671155D01*
X77050499Y-53671153D01*
X77019738Y-53516510D01*
X77019737Y-53516503D01*
X76981423Y-53424003D01*
X76959397Y-53370827D01*
X76959390Y-53370814D01*
X76871789Y-53239711D01*
X76871786Y-53239707D01*
X76760292Y-53128213D01*
X76760288Y-53128210D01*
X76629185Y-53040609D01*
X76629172Y-53040602D01*
X76483501Y-52980264D01*
X76483489Y-52980261D01*
X76328845Y-52949500D01*
X76328842Y-52949500D01*
X76171158Y-52949500D01*
X76171155Y-52949500D01*
X76016510Y-52980261D01*
X76016498Y-52980264D01*
X75870827Y-53040602D01*
X75870814Y-53040609D01*
X75739711Y-53128210D01*
X75739707Y-53128213D01*
X75628213Y-53239707D01*
X75628210Y-53239711D01*
X75540609Y-53370814D01*
X75540602Y-53370827D01*
X75480264Y-53516498D01*
X75480261Y-53516510D01*
X75449500Y-53671153D01*
X58454966Y-53671153D01*
X58349247Y-53415924D01*
X58195462Y-53128213D01*
X58177859Y-53095279D01*
X58177858Y-53095277D01*
X58177853Y-53095268D01*
X57975854Y-52792956D01*
X57745197Y-52511899D01*
X57745196Y-52511898D01*
X57745192Y-52511893D01*
X57488106Y-52254807D01*
X57207049Y-52024150D01*
X57207048Y-52024149D01*
X57207044Y-52024146D01*
X56904732Y-51822147D01*
X56904727Y-51822144D01*
X56904720Y-51822140D01*
X56584083Y-51650756D01*
X56584078Y-51650754D01*
X56248165Y-51511614D01*
X55900223Y-51406067D01*
X55900212Y-51406064D01*
X55543630Y-51335137D01*
X55271111Y-51308296D01*
X55181794Y-51299500D01*
X54818206Y-51299500D01*
X54735679Y-51307628D01*
X54456369Y-51335137D01*
X54099787Y-51406064D01*
X54099776Y-51406067D01*
X53751834Y-51511614D01*
X53415921Y-51650754D01*
X53415916Y-51650756D01*
X53095279Y-51822140D01*
X53095261Y-51822151D01*
X52792964Y-52024140D01*
X52792950Y-52024150D01*
X52511893Y-52254807D01*
X52254807Y-52511893D01*
X52024150Y-52792950D01*
X52024140Y-52792964D01*
X51822151Y-53095261D01*
X51822140Y-53095279D01*
X51650756Y-53415916D01*
X51650754Y-53415921D01*
X51511614Y-53751834D01*
X51406067Y-54099776D01*
X51406064Y-54099787D01*
X51335137Y-54456369D01*
X51307628Y-54735679D01*
X51302630Y-54786433D01*
X51299500Y-54818209D01*
X50500500Y-54818209D01*
X50500500Y-50624500D01*
X50520185Y-50557461D01*
X50572989Y-50511706D01*
X50624500Y-50500500D01*
X119375500Y-50500500D01*
X119442539Y-50520185D01*
G37*
%TD.AperFunction*%
%TD*%
M02*
