%TF.GenerationSoftware,KiCad,Pcbnew,9.0.1*%
%TF.CreationDate,2025-06-23T13:00:01-04:00*%
%TF.ProjectId,Colossus_TI_rev_B,436f6c6f-7373-4757-935f-54495f726576,rev?*%
%TF.SameCoordinates,Original*%
%TF.FileFunction,Soldermask,Top*%
%TF.FilePolarity,Negative*%
%FSLAX46Y46*%
G04 Gerber Fmt 4.6, Leading zero omitted, Abs format (unit mm)*
G04 Created by KiCad (PCBNEW 9.0.1) date 2025-06-23 13:00:01*
%MOMM*%
%LPD*%
G01*
G04 APERTURE LIST*
G04 APERTURE END LIST*
G36*
X85618873Y-81353470D02*
G01*
X85755432Y-81410034D01*
X85878331Y-81492153D01*
X85982848Y-81596670D01*
X86064967Y-81719569D01*
X86121531Y-81856128D01*
X86150367Y-82001097D01*
X86150367Y-82148907D01*
X86121531Y-82293876D01*
X86064967Y-82430435D01*
X85982848Y-82553334D01*
X85878331Y-82657851D01*
X85755432Y-82739970D01*
X85618873Y-82796534D01*
X85473904Y-82825370D01*
X85326094Y-82825370D01*
X85181125Y-82796534D01*
X85044566Y-82739970D01*
X84921667Y-82657851D01*
X84817150Y-82553334D01*
X84735031Y-82430435D01*
X84678467Y-82293876D01*
X84649631Y-82148907D01*
X84649631Y-82001097D01*
X84678467Y-81856128D01*
X84735031Y-81719569D01*
X84817150Y-81596670D01*
X84921667Y-81492153D01*
X85044566Y-81410034D01*
X85181125Y-81353470D01*
X85326094Y-81324634D01*
X85473904Y-81324634D01*
X85618873Y-81353470D01*
G37*
G36*
X90118874Y-81353470D02*
G01*
X90255433Y-81410034D01*
X90378332Y-81492153D01*
X90482849Y-81596670D01*
X90564968Y-81719569D01*
X90621532Y-81856128D01*
X90650368Y-82001097D01*
X90650368Y-82148907D01*
X90621532Y-82293876D01*
X90564968Y-82430435D01*
X90482849Y-82553334D01*
X90378332Y-82657851D01*
X90255433Y-82739970D01*
X90118874Y-82796534D01*
X89973905Y-82825370D01*
X89826095Y-82825370D01*
X89681126Y-82796534D01*
X89544567Y-82739970D01*
X89421668Y-82657851D01*
X89317151Y-82553334D01*
X89235032Y-82430435D01*
X89178468Y-82293876D01*
X89149632Y-82148907D01*
X89149632Y-82001097D01*
X89178468Y-81856128D01*
X89235032Y-81719569D01*
X89317151Y-81596670D01*
X89421668Y-81492153D01*
X89544567Y-81410034D01*
X89681126Y-81353470D01*
X89826095Y-81324634D01*
X89973905Y-81324634D01*
X90118874Y-81353470D01*
G37*
G36*
X80779850Y-81200964D02*
G01*
X80830040Y-81206787D01*
X80847189Y-81214359D01*
X80870671Y-81219030D01*
X80895810Y-81235827D01*
X80915696Y-81244608D01*
X80929277Y-81258189D01*
X80951777Y-81273223D01*
X80966810Y-81295722D01*
X80980391Y-81309303D01*
X80989170Y-81329186D01*
X81005970Y-81354329D01*
X81010641Y-81377812D01*
X81018212Y-81394959D01*
X81024033Y-81445139D01*
X81025000Y-81450000D01*
X81025000Y-82400000D01*
X81024032Y-82404863D01*
X81018212Y-82455040D01*
X81010641Y-82472185D01*
X81005970Y-82495671D01*
X80989169Y-82520815D01*
X80980391Y-82540696D01*
X80966812Y-82554274D01*
X80951777Y-82576777D01*
X80929274Y-82591812D01*
X80915696Y-82605391D01*
X80895815Y-82614169D01*
X80870671Y-82630970D01*
X80847185Y-82635641D01*
X80830040Y-82643212D01*
X80779861Y-82649032D01*
X80775000Y-82650000D01*
X80275000Y-82650000D01*
X80270138Y-82649032D01*
X80219959Y-82643212D01*
X80202812Y-82635641D01*
X80179329Y-82630970D01*
X80154186Y-82614170D01*
X80134303Y-82605391D01*
X80120722Y-82591810D01*
X80098223Y-82576777D01*
X80083189Y-82554277D01*
X80069608Y-82540696D01*
X80060827Y-82520810D01*
X80044030Y-82495671D01*
X80039359Y-82472189D01*
X80031787Y-82455040D01*
X80025964Y-82404849D01*
X80025000Y-82400000D01*
X80025000Y-81450000D01*
X80025964Y-81445150D01*
X80031787Y-81394959D01*
X80039359Y-81377808D01*
X80044030Y-81354329D01*
X80060826Y-81329191D01*
X80069608Y-81309303D01*
X80083191Y-81295719D01*
X80098223Y-81273223D01*
X80120719Y-81258191D01*
X80134303Y-81244608D01*
X80154191Y-81235826D01*
X80179329Y-81219030D01*
X80202808Y-81214359D01*
X80219959Y-81206787D01*
X80270151Y-81200964D01*
X80275000Y-81200000D01*
X80775000Y-81200000D01*
X80779850Y-81200964D01*
G37*
G36*
X82679850Y-81200964D02*
G01*
X82730040Y-81206787D01*
X82747189Y-81214359D01*
X82770671Y-81219030D01*
X82795810Y-81235827D01*
X82815696Y-81244608D01*
X82829277Y-81258189D01*
X82851777Y-81273223D01*
X82866810Y-81295722D01*
X82880391Y-81309303D01*
X82889170Y-81329186D01*
X82905970Y-81354329D01*
X82910641Y-81377812D01*
X82918212Y-81394959D01*
X82924033Y-81445139D01*
X82925000Y-81450000D01*
X82925000Y-82400000D01*
X82924032Y-82404863D01*
X82918212Y-82455040D01*
X82910641Y-82472185D01*
X82905970Y-82495671D01*
X82889169Y-82520815D01*
X82880391Y-82540696D01*
X82866812Y-82554274D01*
X82851777Y-82576777D01*
X82829274Y-82591812D01*
X82815696Y-82605391D01*
X82795815Y-82614169D01*
X82770671Y-82630970D01*
X82747185Y-82635641D01*
X82730040Y-82643212D01*
X82679861Y-82649032D01*
X82675000Y-82650000D01*
X82175000Y-82650000D01*
X82170138Y-82649032D01*
X82119959Y-82643212D01*
X82102812Y-82635641D01*
X82079329Y-82630970D01*
X82054186Y-82614170D01*
X82034303Y-82605391D01*
X82020722Y-82591810D01*
X81998223Y-82576777D01*
X81983189Y-82554277D01*
X81969608Y-82540696D01*
X81960827Y-82520810D01*
X81944030Y-82495671D01*
X81939359Y-82472189D01*
X81931787Y-82455040D01*
X81925964Y-82404849D01*
X81925000Y-82400000D01*
X81925000Y-81450000D01*
X81925964Y-81445150D01*
X81931787Y-81394959D01*
X81939359Y-81377808D01*
X81944030Y-81354329D01*
X81960826Y-81329191D01*
X81969608Y-81309303D01*
X81983191Y-81295719D01*
X81998223Y-81273223D01*
X82020719Y-81258191D01*
X82034303Y-81244608D01*
X82054191Y-81235826D01*
X82079329Y-81219030D01*
X82102808Y-81214359D01*
X82119959Y-81206787D01*
X82170151Y-81200964D01*
X82175000Y-81200000D01*
X82675000Y-81200000D01*
X82679850Y-81200964D01*
G37*
G36*
X73321742Y-80651601D02*
G01*
X73475687Y-80715367D01*
X73614234Y-80807941D01*
X73732059Y-80925766D01*
X73824633Y-81064313D01*
X73888399Y-81218258D01*
X73920907Y-81381685D01*
X73920907Y-81548315D01*
X73888399Y-81711742D01*
X73824633Y-81865687D01*
X73732059Y-82004234D01*
X73614234Y-82122059D01*
X73475687Y-82214633D01*
X73321742Y-82278399D01*
X73158315Y-82310907D01*
X72991685Y-82310907D01*
X72828258Y-82278399D01*
X72674313Y-82214633D01*
X72535766Y-82122059D01*
X72417941Y-82004234D01*
X72325367Y-81865687D01*
X72261601Y-81711742D01*
X72229093Y-81548315D01*
X72229093Y-81381685D01*
X72261601Y-81218258D01*
X72325367Y-81064313D01*
X72417941Y-80925766D01*
X72535766Y-80807941D01*
X72674313Y-80715367D01*
X72828258Y-80651601D01*
X72991685Y-80619093D01*
X73158315Y-80619093D01*
X73321742Y-80651601D01*
G37*
G36*
X73321742Y-78111601D02*
G01*
X73475687Y-78175367D01*
X73614234Y-78267941D01*
X73732059Y-78385766D01*
X73824633Y-78524313D01*
X73888399Y-78678258D01*
X73920907Y-78841685D01*
X73920907Y-79008315D01*
X73888399Y-79171742D01*
X73824633Y-79325687D01*
X73732059Y-79464234D01*
X73614234Y-79582059D01*
X73475687Y-79674633D01*
X73321742Y-79738399D01*
X73158315Y-79770907D01*
X72991685Y-79770907D01*
X72828258Y-79738399D01*
X72674313Y-79674633D01*
X72535766Y-79582059D01*
X72417941Y-79464234D01*
X72325367Y-79325687D01*
X72261601Y-79171742D01*
X72229093Y-79008315D01*
X72229093Y-78841685D01*
X72261601Y-78678258D01*
X72325367Y-78524313D01*
X72417941Y-78385766D01*
X72535766Y-78267941D01*
X72674313Y-78175367D01*
X72828258Y-78111601D01*
X72991685Y-78079093D01*
X73158315Y-78079093D01*
X73321742Y-78111601D01*
G37*
G36*
X73925000Y-77235000D02*
G01*
X72225000Y-77235000D01*
X72225000Y-75535000D01*
X73925000Y-75535000D01*
X73925000Y-77235000D01*
G37*
G36*
X80717350Y-74975964D02*
G01*
X80767540Y-74981787D01*
X80784689Y-74989359D01*
X80808171Y-74994030D01*
X80833310Y-75010827D01*
X80853196Y-75019608D01*
X80866777Y-75033189D01*
X80889277Y-75048223D01*
X80904310Y-75070722D01*
X80917891Y-75084303D01*
X80926670Y-75104186D01*
X80943470Y-75129329D01*
X80948141Y-75152812D01*
X80955712Y-75169959D01*
X80961533Y-75220139D01*
X80962500Y-75225000D01*
X80962500Y-76125000D01*
X80961532Y-76129863D01*
X80955712Y-76180040D01*
X80948141Y-76197185D01*
X80943470Y-76220671D01*
X80926669Y-76245815D01*
X80917891Y-76265696D01*
X80904312Y-76279274D01*
X80889277Y-76301777D01*
X80866774Y-76316812D01*
X80853196Y-76330391D01*
X80833315Y-76339169D01*
X80808171Y-76355970D01*
X80784685Y-76360641D01*
X80767540Y-76368212D01*
X80717361Y-76374032D01*
X80712500Y-76375000D01*
X80187500Y-76375000D01*
X80182638Y-76374032D01*
X80132459Y-76368212D01*
X80115312Y-76360641D01*
X80091829Y-76355970D01*
X80066686Y-76339170D01*
X80046803Y-76330391D01*
X80033222Y-76316810D01*
X80010723Y-76301777D01*
X79995689Y-76279277D01*
X79982108Y-76265696D01*
X79973327Y-76245810D01*
X79956530Y-76220671D01*
X79951859Y-76197189D01*
X79944287Y-76180040D01*
X79938464Y-76129849D01*
X79937500Y-76125000D01*
X79937500Y-75225000D01*
X79938464Y-75220150D01*
X79944287Y-75169959D01*
X79951859Y-75152808D01*
X79956530Y-75129329D01*
X79973326Y-75104191D01*
X79982108Y-75084303D01*
X79995691Y-75070719D01*
X80010723Y-75048223D01*
X80033219Y-75033191D01*
X80046803Y-75019608D01*
X80066691Y-75010826D01*
X80091829Y-74994030D01*
X80115308Y-74989359D01*
X80132459Y-74981787D01*
X80182651Y-74975964D01*
X80187500Y-74975000D01*
X80712500Y-74975000D01*
X80717350Y-74975964D01*
G37*
G36*
X82542350Y-74975964D02*
G01*
X82592540Y-74981787D01*
X82609689Y-74989359D01*
X82633171Y-74994030D01*
X82658310Y-75010827D01*
X82678196Y-75019608D01*
X82691777Y-75033189D01*
X82714277Y-75048223D01*
X82729310Y-75070722D01*
X82742891Y-75084303D01*
X82751670Y-75104186D01*
X82768470Y-75129329D01*
X82773141Y-75152812D01*
X82780712Y-75169959D01*
X82786533Y-75220139D01*
X82787500Y-75225000D01*
X82787500Y-76125000D01*
X82786532Y-76129863D01*
X82780712Y-76180040D01*
X82773141Y-76197185D01*
X82768470Y-76220671D01*
X82751669Y-76245815D01*
X82742891Y-76265696D01*
X82729312Y-76279274D01*
X82714277Y-76301777D01*
X82691774Y-76316812D01*
X82678196Y-76330391D01*
X82658315Y-76339169D01*
X82633171Y-76355970D01*
X82609685Y-76360641D01*
X82592540Y-76368212D01*
X82542361Y-76374032D01*
X82537500Y-76375000D01*
X82012500Y-76375000D01*
X82007638Y-76374032D01*
X81957459Y-76368212D01*
X81940312Y-76360641D01*
X81916829Y-76355970D01*
X81891686Y-76339170D01*
X81871803Y-76330391D01*
X81858222Y-76316810D01*
X81835723Y-76301777D01*
X81820689Y-76279277D01*
X81807108Y-76265696D01*
X81798327Y-76245810D01*
X81781530Y-76220671D01*
X81776859Y-76197189D01*
X81769287Y-76180040D01*
X81763464Y-76129849D01*
X81762500Y-76125000D01*
X81762500Y-75225000D01*
X81763464Y-75220150D01*
X81769287Y-75169959D01*
X81776859Y-75152808D01*
X81781530Y-75129329D01*
X81798326Y-75104191D01*
X81807108Y-75084303D01*
X81820691Y-75070719D01*
X81835723Y-75048223D01*
X81858219Y-75033191D01*
X81871803Y-75019608D01*
X81891691Y-75010826D01*
X81916829Y-74994030D01*
X81940308Y-74989359D01*
X81957459Y-74981787D01*
X82007651Y-74975964D01*
X82012500Y-74975000D01*
X82537500Y-74975000D01*
X82542350Y-74975964D01*
G37*
G36*
X85618873Y-74853468D02*
G01*
X85755432Y-74910032D01*
X85878331Y-74992151D01*
X85982848Y-75096668D01*
X86064967Y-75219567D01*
X86121531Y-75356126D01*
X86150367Y-75501095D01*
X86150367Y-75648905D01*
X86121531Y-75793874D01*
X86064967Y-75930433D01*
X85982848Y-76053332D01*
X85878331Y-76157849D01*
X85755432Y-76239968D01*
X85618873Y-76296532D01*
X85473904Y-76325368D01*
X85326094Y-76325368D01*
X85181125Y-76296532D01*
X85044566Y-76239968D01*
X84921667Y-76157849D01*
X84817150Y-76053332D01*
X84735031Y-75930433D01*
X84678467Y-75793874D01*
X84649631Y-75648905D01*
X84649631Y-75501095D01*
X84678467Y-75356126D01*
X84735031Y-75219567D01*
X84817150Y-75096668D01*
X84921667Y-74992151D01*
X85044566Y-74910032D01*
X85181125Y-74853468D01*
X85326094Y-74824632D01*
X85473904Y-74824632D01*
X85618873Y-74853468D01*
G37*
G36*
X90118874Y-74853468D02*
G01*
X90255433Y-74910032D01*
X90378332Y-74992151D01*
X90482849Y-75096668D01*
X90564968Y-75219567D01*
X90621532Y-75356126D01*
X90650368Y-75501095D01*
X90650368Y-75648905D01*
X90621532Y-75793874D01*
X90564968Y-75930433D01*
X90482849Y-76053332D01*
X90378332Y-76157849D01*
X90255433Y-76239968D01*
X90118874Y-76296532D01*
X89973905Y-76325368D01*
X89826095Y-76325368D01*
X89681126Y-76296532D01*
X89544567Y-76239968D01*
X89421668Y-76157849D01*
X89317151Y-76053332D01*
X89235032Y-75930433D01*
X89178468Y-75793874D01*
X89149632Y-75648905D01*
X89149632Y-75501095D01*
X89178468Y-75356126D01*
X89235032Y-75219567D01*
X89317151Y-75096668D01*
X89421668Y-74992151D01*
X89544567Y-74910032D01*
X89681126Y-74853468D01*
X89826095Y-74824632D01*
X89973905Y-74824632D01*
X90118874Y-74853468D01*
G37*
G36*
X88800000Y-71000000D02*
G01*
X86800000Y-71000000D01*
X86800000Y-69000000D01*
X88800000Y-69000000D01*
X88800000Y-71000000D01*
G37*
G36*
X110000000Y-71000000D02*
G01*
X108000000Y-71000000D01*
X108000000Y-69000000D01*
X110000000Y-69000000D01*
X110000000Y-71000000D01*
G37*
G36*
X104168268Y-70507612D02*
G01*
X104200711Y-70529289D01*
X104222388Y-70561732D01*
X104230000Y-70600000D01*
X104230000Y-70800000D01*
X104222388Y-70838268D01*
X104200711Y-70870711D01*
X104168268Y-70892388D01*
X104130000Y-70900000D01*
X103870000Y-70900000D01*
X103831732Y-70892388D01*
X103799289Y-70870711D01*
X103777612Y-70838268D01*
X103770000Y-70800000D01*
X103770000Y-70600000D01*
X103777612Y-70561732D01*
X103799289Y-70529289D01*
X103831732Y-70507612D01*
X103870000Y-70500000D01*
X104130000Y-70500000D01*
X104168268Y-70507612D01*
G37*
G36*
X104808268Y-70507612D02*
G01*
X104840711Y-70529289D01*
X104862388Y-70561732D01*
X104870000Y-70600000D01*
X104870000Y-70800000D01*
X104862388Y-70838268D01*
X104840711Y-70870711D01*
X104808268Y-70892388D01*
X104770000Y-70900000D01*
X104510000Y-70900000D01*
X104471732Y-70892388D01*
X104439289Y-70870711D01*
X104417612Y-70838268D01*
X104410000Y-70800000D01*
X104410000Y-70600000D01*
X104417612Y-70561732D01*
X104439289Y-70529289D01*
X104471732Y-70507612D01*
X104510000Y-70500000D01*
X104770000Y-70500000D01*
X104808268Y-70507612D01*
G37*
G36*
X97438268Y-70267612D02*
G01*
X97470711Y-70289289D01*
X97492388Y-70321732D01*
X97500000Y-70360000D01*
X97500000Y-70620000D01*
X97492388Y-70658268D01*
X97470711Y-70690711D01*
X97438268Y-70712388D01*
X97400000Y-70720000D01*
X97200000Y-70720000D01*
X97161732Y-70712388D01*
X97129289Y-70690711D01*
X97107612Y-70658268D01*
X97100000Y-70620000D01*
X97100000Y-70360000D01*
X97107612Y-70321732D01*
X97129289Y-70289289D01*
X97161732Y-70267612D01*
X97200000Y-70260000D01*
X97400000Y-70260000D01*
X97438268Y-70267612D01*
G37*
G36*
X104334625Y-69478122D02*
G01*
X104362385Y-69496671D01*
X104380935Y-69509065D01*
X104394565Y-69529465D01*
X104411877Y-69555374D01*
X104419999Y-69596209D01*
X104419999Y-69596210D01*
X104419999Y-69596212D01*
X104420000Y-69963789D01*
X104411877Y-70004625D01*
X104380935Y-70050935D01*
X104337436Y-70079999D01*
X104334625Y-70081877D01*
X104293790Y-70089999D01*
X104293788Y-70089999D01*
X103986211Y-70090000D01*
X103953497Y-70083492D01*
X103945374Y-70081877D01*
X103926825Y-70069483D01*
X103899065Y-70050935D01*
X103886671Y-70032385D01*
X103868122Y-70004625D01*
X103860000Y-69963790D01*
X103860000Y-69596210D01*
X103868122Y-69555374D01*
X103899065Y-69509065D01*
X103945374Y-69478122D01*
X103986209Y-69470000D01*
X104293789Y-69470000D01*
X104334625Y-69478122D01*
G37*
G36*
X105294625Y-69478122D02*
G01*
X105322385Y-69496671D01*
X105340935Y-69509065D01*
X105354565Y-69529465D01*
X105371877Y-69555374D01*
X105379999Y-69596209D01*
X105379999Y-69596210D01*
X105379999Y-69596212D01*
X105380000Y-69963789D01*
X105371877Y-70004625D01*
X105340935Y-70050935D01*
X105297436Y-70079999D01*
X105294625Y-70081877D01*
X105253790Y-70089999D01*
X105253788Y-70089999D01*
X104946211Y-70090000D01*
X104913497Y-70083492D01*
X104905374Y-70081877D01*
X104886825Y-70069483D01*
X104859065Y-70050935D01*
X104846671Y-70032385D01*
X104828122Y-70004625D01*
X104820000Y-69963790D01*
X104820000Y-69596210D01*
X104828122Y-69555374D01*
X104859065Y-69509065D01*
X104905374Y-69478122D01*
X104946209Y-69470000D01*
X105253789Y-69470000D01*
X105294625Y-69478122D01*
G37*
G36*
X97438268Y-69627612D02*
G01*
X97470711Y-69649289D01*
X97492388Y-69681732D01*
X97500000Y-69720000D01*
X97500000Y-69980000D01*
X97492388Y-70018268D01*
X97470711Y-70050711D01*
X97438268Y-70072388D01*
X97400000Y-70080000D01*
X97200000Y-70080000D01*
X97161732Y-70072388D01*
X97129289Y-70050711D01*
X97107612Y-70018268D01*
X97100000Y-69980000D01*
X97100000Y-69720000D01*
X97107612Y-69681732D01*
X97129289Y-69649289D01*
X97161732Y-69627612D01*
X97200000Y-69620000D01*
X97400000Y-69620000D01*
X97438268Y-69627612D01*
G37*
G36*
X92283485Y-69481661D02*
G01*
X92311872Y-69500628D01*
X92330839Y-69529015D01*
X92337500Y-69562500D01*
X92337500Y-69737500D01*
X92330839Y-69770985D01*
X92311872Y-69799372D01*
X92283485Y-69818339D01*
X92250000Y-69825000D01*
X90800000Y-69825000D01*
X90766515Y-69818339D01*
X90738128Y-69799372D01*
X90719161Y-69770985D01*
X90712500Y-69737500D01*
X90712500Y-69562500D01*
X90719161Y-69529015D01*
X90738128Y-69500628D01*
X90766515Y-69481661D01*
X90800000Y-69475000D01*
X92250000Y-69475000D01*
X92283485Y-69481661D01*
G37*
G36*
X96508485Y-69481661D02*
G01*
X96536872Y-69500628D01*
X96555839Y-69529015D01*
X96562500Y-69562500D01*
X96562500Y-69737500D01*
X96555839Y-69770985D01*
X96536872Y-69799372D01*
X96508485Y-69818339D01*
X96475000Y-69825000D01*
X95025000Y-69825000D01*
X94991515Y-69818339D01*
X94963128Y-69799372D01*
X94944161Y-69770985D01*
X94937500Y-69737500D01*
X94937500Y-69562500D01*
X94944161Y-69529015D01*
X94963128Y-69500628D01*
X94991515Y-69481661D01*
X95025000Y-69475000D01*
X96475000Y-69475000D01*
X96508485Y-69481661D01*
G37*
G36*
X92283485Y-68981661D02*
G01*
X92311872Y-69000628D01*
X92330839Y-69029015D01*
X92337500Y-69062500D01*
X92337500Y-69237500D01*
X92330839Y-69270985D01*
X92311872Y-69299372D01*
X92283485Y-69318339D01*
X92250000Y-69325000D01*
X90800000Y-69325000D01*
X90766515Y-69318339D01*
X90738128Y-69299372D01*
X90719161Y-69270985D01*
X90712500Y-69237500D01*
X90712500Y-69062500D01*
X90719161Y-69029015D01*
X90738128Y-69000628D01*
X90766515Y-68981661D01*
X90800000Y-68975000D01*
X92250000Y-68975000D01*
X92283485Y-68981661D01*
G37*
G36*
X96508485Y-68981661D02*
G01*
X96536872Y-69000628D01*
X96555839Y-69029015D01*
X96562500Y-69062500D01*
X96562500Y-69237500D01*
X96555839Y-69270985D01*
X96536872Y-69299372D01*
X96508485Y-69318339D01*
X96475000Y-69325000D01*
X95025000Y-69325000D01*
X94991515Y-69318339D01*
X94963128Y-69299372D01*
X94944161Y-69270985D01*
X94937500Y-69237500D01*
X94937500Y-69062500D01*
X94944161Y-69029015D01*
X94963128Y-69000628D01*
X94991515Y-68981661D01*
X95025000Y-68975000D01*
X96475000Y-68975000D01*
X96508485Y-68981661D01*
G37*
G36*
X84679199Y-64967272D02*
G01*
X84957167Y-65041754D01*
X85223035Y-65151880D01*
X85472255Y-65295767D01*
X85700561Y-65470952D01*
X85904048Y-65674439D01*
X86079233Y-65902745D01*
X86223120Y-66151965D01*
X86333246Y-66417833D01*
X86407728Y-66695801D01*
X86445290Y-66981113D01*
X86445290Y-67268887D01*
X86407728Y-67554199D01*
X86333246Y-67832167D01*
X86223120Y-68098035D01*
X86079233Y-68347255D01*
X85904048Y-68575561D01*
X85700561Y-68779048D01*
X85472255Y-68954233D01*
X85223035Y-69098120D01*
X84957167Y-69208246D01*
X84679199Y-69282728D01*
X84393887Y-69320290D01*
X84106113Y-69320290D01*
X83820801Y-69282728D01*
X83542833Y-69208246D01*
X83276965Y-69098120D01*
X83027745Y-68954233D01*
X82799439Y-68779048D01*
X82595952Y-68575561D01*
X82420767Y-68347255D01*
X82276880Y-68098035D01*
X82166754Y-67832167D01*
X82092272Y-67554199D01*
X82054710Y-67268887D01*
X82054710Y-66981113D01*
X82092272Y-66695801D01*
X82166754Y-66417833D01*
X82276880Y-66151965D01*
X82420767Y-65902745D01*
X82595952Y-65674439D01*
X82799439Y-65470952D01*
X83027745Y-65295767D01*
X83276965Y-65151880D01*
X83542833Y-65041754D01*
X83820801Y-64967272D01*
X84106113Y-64929710D01*
X84393887Y-64929710D01*
X84679199Y-64967272D01*
G37*
G36*
X112979199Y-64967272D02*
G01*
X113257167Y-65041754D01*
X113523035Y-65151880D01*
X113772255Y-65295767D01*
X114000561Y-65470952D01*
X114204048Y-65674439D01*
X114379233Y-65902745D01*
X114523120Y-66151965D01*
X114633246Y-66417833D01*
X114707728Y-66695801D01*
X114745290Y-66981113D01*
X114745290Y-67268887D01*
X114707728Y-67554199D01*
X114633246Y-67832167D01*
X114523120Y-68098035D01*
X114379233Y-68347255D01*
X114204048Y-68575561D01*
X114000561Y-68779048D01*
X113772255Y-68954233D01*
X113523035Y-69098120D01*
X113257167Y-69208246D01*
X112979199Y-69282728D01*
X112693887Y-69320290D01*
X112406113Y-69320290D01*
X112120801Y-69282728D01*
X111842833Y-69208246D01*
X111576965Y-69098120D01*
X111327745Y-68954233D01*
X111099439Y-68779048D01*
X110895952Y-68575561D01*
X110720767Y-68347255D01*
X110576880Y-68098035D01*
X110466754Y-67832167D01*
X110392272Y-67554199D01*
X110354710Y-67268887D01*
X110354710Y-66981113D01*
X110392272Y-66695801D01*
X110466754Y-66417833D01*
X110576880Y-66151965D01*
X110720767Y-65902745D01*
X110895952Y-65674439D01*
X111099439Y-65470952D01*
X111327745Y-65295767D01*
X111576965Y-65151880D01*
X111842833Y-65041754D01*
X112120801Y-64967272D01*
X112406113Y-64929710D01*
X112693887Y-64929710D01*
X112979199Y-64967272D01*
G37*
G36*
X98534625Y-68688122D02*
G01*
X98562385Y-68706671D01*
X98580935Y-68719065D01*
X98589304Y-68731591D01*
X98611877Y-68765374D01*
X98619999Y-68806209D01*
X98619999Y-68806210D01*
X98619999Y-68806212D01*
X98620000Y-69113789D01*
X98611877Y-69154625D01*
X98580935Y-69200935D01*
X98537436Y-69229999D01*
X98534625Y-69231877D01*
X98493790Y-69239999D01*
X98493788Y-69239999D01*
X98126211Y-69240000D01*
X98093497Y-69233492D01*
X98085374Y-69231877D01*
X98066825Y-69219483D01*
X98039065Y-69200935D01*
X98026671Y-69182385D01*
X98008122Y-69154625D01*
X98000000Y-69113790D01*
X98000000Y-68806210D01*
X98008122Y-68765374D01*
X98039065Y-68719065D01*
X98085374Y-68688122D01*
X98126209Y-68680000D01*
X98493789Y-68680000D01*
X98534625Y-68688122D01*
G37*
G36*
X97438268Y-68777612D02*
G01*
X97470711Y-68799289D01*
X97492388Y-68831732D01*
X97500000Y-68870000D01*
X97500000Y-69130000D01*
X97492388Y-69168268D01*
X97470711Y-69200711D01*
X97438268Y-69222388D01*
X97400000Y-69230000D01*
X97200000Y-69230000D01*
X97161732Y-69222388D01*
X97129289Y-69200711D01*
X97107612Y-69168268D01*
X97100000Y-69130000D01*
X97100000Y-68870000D01*
X97107612Y-68831732D01*
X97129289Y-68799289D01*
X97161732Y-68777612D01*
X97200000Y-68770000D01*
X97400000Y-68770000D01*
X97438268Y-68777612D01*
G37*
G36*
X99438268Y-68777612D02*
G01*
X99470711Y-68799289D01*
X99492388Y-68831732D01*
X99500000Y-68870000D01*
X99500000Y-69130000D01*
X99492388Y-69168268D01*
X99470711Y-69200711D01*
X99438268Y-69222388D01*
X99400000Y-69230000D01*
X99200000Y-69230000D01*
X99161732Y-69222388D01*
X99129289Y-69200711D01*
X99107612Y-69168268D01*
X99100000Y-69130000D01*
X99100000Y-68870000D01*
X99107612Y-68831732D01*
X99129289Y-68799289D01*
X99161732Y-68777612D01*
X99200000Y-68770000D01*
X99400000Y-68770000D01*
X99438268Y-68777612D01*
G37*
G36*
X102152022Y-68887350D02*
G01*
X101847222Y-68887350D01*
X101847222Y-67909450D01*
X102152022Y-67909450D01*
X102152022Y-68887350D01*
G37*
G36*
X102652148Y-68887350D02*
G01*
X102347348Y-68887350D01*
X102347348Y-67909450D01*
X102652148Y-67909450D01*
X102652148Y-68887350D01*
G37*
G36*
X103152274Y-68887350D02*
G01*
X102847474Y-68887350D01*
X102847474Y-67909450D01*
X103152274Y-67909450D01*
X103152274Y-68887350D01*
G37*
G36*
X103652400Y-68887350D02*
G01*
X103347600Y-68887350D01*
X103347600Y-67909450D01*
X103652400Y-67909450D01*
X103652400Y-68887350D01*
G37*
G36*
X104152526Y-68887350D02*
G01*
X103847726Y-68887350D01*
X103847726Y-67909450D01*
X104152526Y-67909450D01*
X104152526Y-68887350D01*
G37*
G36*
X104652652Y-68887350D02*
G01*
X104347852Y-68887350D01*
X104347852Y-67909450D01*
X104652652Y-67909450D01*
X104652652Y-68887350D01*
G37*
G36*
X105152778Y-68887350D02*
G01*
X104847978Y-68887350D01*
X104847978Y-67909450D01*
X105152778Y-67909450D01*
X105152778Y-68887350D01*
G37*
G36*
X105652904Y-68887350D02*
G01*
X105348104Y-68887350D01*
X105348104Y-67909450D01*
X105652904Y-67909450D01*
X105652904Y-68887350D01*
G37*
G36*
X92283485Y-68481661D02*
G01*
X92311872Y-68500628D01*
X92330839Y-68529015D01*
X92337500Y-68562500D01*
X92337500Y-68737500D01*
X92330839Y-68770985D01*
X92311872Y-68799372D01*
X92283485Y-68818339D01*
X92250000Y-68825000D01*
X90800000Y-68825000D01*
X90766515Y-68818339D01*
X90738128Y-68799372D01*
X90719161Y-68770985D01*
X90712500Y-68737500D01*
X90712500Y-68562500D01*
X90719161Y-68529015D01*
X90738128Y-68500628D01*
X90766515Y-68481661D01*
X90800000Y-68475000D01*
X92250000Y-68475000D01*
X92283485Y-68481661D01*
G37*
G36*
X96508485Y-68481661D02*
G01*
X96536872Y-68500628D01*
X96555839Y-68529015D01*
X96562500Y-68562500D01*
X96562500Y-68737500D01*
X96555839Y-68770985D01*
X96536872Y-68799372D01*
X96508485Y-68818339D01*
X96475000Y-68825000D01*
X95025000Y-68825000D01*
X94991515Y-68818339D01*
X94963128Y-68799372D01*
X94944161Y-68770985D01*
X94937500Y-68737500D01*
X94937500Y-68562500D01*
X94944161Y-68529015D01*
X94963128Y-68500628D01*
X94991515Y-68481661D01*
X95025000Y-68475000D01*
X96475000Y-68475000D01*
X96508485Y-68481661D01*
G37*
G36*
X97438268Y-68137612D02*
G01*
X97470711Y-68159289D01*
X97492388Y-68191732D01*
X97500000Y-68230000D01*
X97500000Y-68490000D01*
X97492388Y-68528268D01*
X97470711Y-68560711D01*
X97438268Y-68582388D01*
X97400000Y-68590000D01*
X97200000Y-68590000D01*
X97161732Y-68582388D01*
X97129289Y-68560711D01*
X97107612Y-68528268D01*
X97100000Y-68490000D01*
X97100000Y-68230000D01*
X97107612Y-68191732D01*
X97129289Y-68159289D01*
X97161732Y-68137612D01*
X97200000Y-68130000D01*
X97400000Y-68130000D01*
X97438268Y-68137612D01*
G37*
G36*
X99438268Y-68137612D02*
G01*
X99470711Y-68159289D01*
X99492388Y-68191732D01*
X99500000Y-68230000D01*
X99500000Y-68490000D01*
X99492388Y-68528268D01*
X99470711Y-68560711D01*
X99438268Y-68582388D01*
X99400000Y-68590000D01*
X99200000Y-68590000D01*
X99161732Y-68582388D01*
X99129289Y-68560711D01*
X99107612Y-68528268D01*
X99100000Y-68490000D01*
X99100000Y-68230000D01*
X99107612Y-68191732D01*
X99129289Y-68159289D01*
X99161732Y-68137612D01*
X99200000Y-68130000D01*
X99400000Y-68130000D01*
X99438268Y-68137612D01*
G37*
G36*
X92283485Y-67981661D02*
G01*
X92311872Y-68000628D01*
X92330839Y-68029015D01*
X92337500Y-68062500D01*
X92337500Y-68237500D01*
X92330839Y-68270985D01*
X92311872Y-68299372D01*
X92283485Y-68318339D01*
X92250000Y-68325000D01*
X90800000Y-68325000D01*
X90766515Y-68318339D01*
X90738128Y-68299372D01*
X90719161Y-68270985D01*
X90712500Y-68237500D01*
X90712500Y-68062500D01*
X90719161Y-68029015D01*
X90738128Y-68000628D01*
X90766515Y-67981661D01*
X90800000Y-67975000D01*
X92250000Y-67975000D01*
X92283485Y-67981661D01*
G37*
G36*
X96508485Y-67981661D02*
G01*
X96536872Y-68000628D01*
X96555839Y-68029015D01*
X96562500Y-68062500D01*
X96562500Y-68237500D01*
X96555839Y-68270985D01*
X96536872Y-68299372D01*
X96508485Y-68318339D01*
X96475000Y-68325000D01*
X95025000Y-68325000D01*
X94991515Y-68318339D01*
X94963128Y-68299372D01*
X94944161Y-68270985D01*
X94937500Y-68237500D01*
X94937500Y-68062500D01*
X94944161Y-68029015D01*
X94963128Y-68000628D01*
X94991515Y-67981661D01*
X95025000Y-67975000D01*
X96475000Y-67975000D01*
X96508485Y-67981661D01*
G37*
G36*
X98534625Y-67728122D02*
G01*
X98562385Y-67746671D01*
X98580935Y-67759065D01*
X98588899Y-67770985D01*
X98611877Y-67805374D01*
X98619999Y-67846209D01*
X98619999Y-67846210D01*
X98619999Y-67846212D01*
X98620000Y-68153789D01*
X98611877Y-68194625D01*
X98580935Y-68240935D01*
X98536635Y-68270534D01*
X98534625Y-68271877D01*
X98493790Y-68279999D01*
X98493788Y-68279999D01*
X98126211Y-68280000D01*
X98093497Y-68273492D01*
X98085374Y-68271877D01*
X98066825Y-68259483D01*
X98039065Y-68240935D01*
X98026331Y-68221877D01*
X98008122Y-68194625D01*
X98000000Y-68153790D01*
X98000000Y-67846210D01*
X98008122Y-67805374D01*
X98039065Y-67759065D01*
X98085374Y-67728122D01*
X98126209Y-67720000D01*
X98493789Y-67720000D01*
X98534625Y-67728122D01*
G37*
G36*
X107584625Y-67618122D02*
G01*
X107612385Y-67636671D01*
X107630935Y-67649065D01*
X107649483Y-67676825D01*
X107661877Y-67695374D01*
X107669999Y-67736209D01*
X107669999Y-67736210D01*
X107669999Y-67736212D01*
X107670000Y-68103789D01*
X107661877Y-68144625D01*
X107630935Y-68190935D01*
X107584625Y-68221877D01*
X107543790Y-68229999D01*
X107543788Y-68229999D01*
X107236211Y-68230000D01*
X107203497Y-68223492D01*
X107195374Y-68221877D01*
X107176825Y-68209483D01*
X107149065Y-68190935D01*
X107128476Y-68160120D01*
X107118122Y-68144625D01*
X107110000Y-68103790D01*
X107110000Y-67736210D01*
X107118122Y-67695374D01*
X107149065Y-67649065D01*
X107195374Y-67618122D01*
X107236209Y-67610000D01*
X107543789Y-67610000D01*
X107584625Y-67618122D01*
G37*
G36*
X108544625Y-67618122D02*
G01*
X108572385Y-67636671D01*
X108590935Y-67649065D01*
X108609483Y-67676825D01*
X108621877Y-67695374D01*
X108629999Y-67736209D01*
X108629999Y-67736210D01*
X108629999Y-67736212D01*
X108630000Y-68103789D01*
X108621877Y-68144625D01*
X108590935Y-68190935D01*
X108544625Y-68221877D01*
X108503790Y-68229999D01*
X108503788Y-68229999D01*
X108196211Y-68230000D01*
X108163497Y-68223492D01*
X108155374Y-68221877D01*
X108136825Y-68209483D01*
X108109065Y-68190935D01*
X108088476Y-68160120D01*
X108078122Y-68144625D01*
X108070000Y-68103790D01*
X108070000Y-67736210D01*
X108078122Y-67695374D01*
X108109065Y-67649065D01*
X108155374Y-67618122D01*
X108196209Y-67610000D01*
X108503789Y-67610000D01*
X108544625Y-67618122D01*
G37*
G36*
X109556662Y-67520276D02*
G01*
X109600459Y-67549541D01*
X109629724Y-67593338D01*
X109640000Y-67645000D01*
X109640000Y-67915000D01*
X109629724Y-67966662D01*
X109600459Y-68010459D01*
X109556662Y-68039724D01*
X109505000Y-68050000D01*
X109135000Y-68050000D01*
X109083338Y-68039724D01*
X109039541Y-68010459D01*
X109010276Y-67966662D01*
X109000000Y-67915000D01*
X109000000Y-67645000D01*
X109010276Y-67593338D01*
X109039541Y-67549541D01*
X109083338Y-67520276D01*
X109135000Y-67510000D01*
X109505000Y-67510000D01*
X109556662Y-67520276D01*
G37*
G36*
X92283485Y-67481661D02*
G01*
X92311872Y-67500628D01*
X92330839Y-67529015D01*
X92337500Y-67562500D01*
X92337500Y-67737500D01*
X92330839Y-67770985D01*
X92311872Y-67799372D01*
X92283485Y-67818339D01*
X92250000Y-67825000D01*
X90800000Y-67825000D01*
X90766515Y-67818339D01*
X90738128Y-67799372D01*
X90719161Y-67770985D01*
X90712500Y-67737500D01*
X90712500Y-67562500D01*
X90719161Y-67529015D01*
X90738128Y-67500628D01*
X90766515Y-67481661D01*
X90800000Y-67475000D01*
X92250000Y-67475000D01*
X92283485Y-67481661D01*
G37*
G36*
X96508485Y-67481661D02*
G01*
X96536872Y-67500628D01*
X96555839Y-67529015D01*
X96562500Y-67562500D01*
X96562500Y-67737500D01*
X96555839Y-67770985D01*
X96536872Y-67799372D01*
X96508485Y-67818339D01*
X96475000Y-67825000D01*
X95025000Y-67825000D01*
X94991515Y-67818339D01*
X94963128Y-67799372D01*
X94944161Y-67770985D01*
X94937500Y-67737500D01*
X94937500Y-67562500D01*
X94944161Y-67529015D01*
X94963128Y-67500628D01*
X94991515Y-67481661D01*
X95025000Y-67475000D01*
X96475000Y-67475000D01*
X96508485Y-67481661D01*
G37*
G36*
X107818268Y-66857612D02*
G01*
X107850711Y-66879289D01*
X107872388Y-66911732D01*
X107880000Y-66950000D01*
X107880000Y-67150000D01*
X107872388Y-67188268D01*
X107850711Y-67220711D01*
X107818268Y-67242388D01*
X107780000Y-67250000D01*
X107520000Y-67250000D01*
X107481732Y-67242388D01*
X107449289Y-67220711D01*
X107427612Y-67188268D01*
X107420000Y-67150000D01*
X107420000Y-66950000D01*
X107427612Y-66911732D01*
X107449289Y-66879289D01*
X107481732Y-66857612D01*
X107520000Y-66850000D01*
X107780000Y-66850000D01*
X107818268Y-66857612D01*
G37*
G36*
X108458268Y-66857612D02*
G01*
X108490711Y-66879289D01*
X108512388Y-66911732D01*
X108520000Y-66950000D01*
X108520000Y-67150000D01*
X108512388Y-67188268D01*
X108490711Y-67220711D01*
X108458268Y-67242388D01*
X108420000Y-67250000D01*
X108160000Y-67250000D01*
X108121732Y-67242388D01*
X108089289Y-67220711D01*
X108067612Y-67188268D01*
X108060000Y-67150000D01*
X108060000Y-66950000D01*
X108067612Y-66911732D01*
X108089289Y-66879289D01*
X108121732Y-66857612D01*
X108160000Y-66850000D01*
X108420000Y-66850000D01*
X108458268Y-66857612D01*
G37*
G36*
X109556662Y-66500276D02*
G01*
X109600459Y-66529541D01*
X109629724Y-66573338D01*
X109640000Y-66625000D01*
X109640000Y-66895000D01*
X109629724Y-66946662D01*
X109600459Y-66990459D01*
X109556662Y-67019724D01*
X109505000Y-67030000D01*
X109135000Y-67030000D01*
X109083338Y-67019724D01*
X109039541Y-66990459D01*
X109010276Y-66946662D01*
X109000000Y-66895000D01*
X109000000Y-66625000D01*
X109010276Y-66573338D01*
X109039541Y-66529541D01*
X109083338Y-66500276D01*
X109135000Y-66490000D01*
X109505000Y-66490000D01*
X109556662Y-66500276D01*
G37*
G36*
X107818268Y-66082612D02*
G01*
X107850711Y-66104289D01*
X107872388Y-66136732D01*
X107880000Y-66175000D01*
X107880000Y-66375000D01*
X107872388Y-66413268D01*
X107850711Y-66445711D01*
X107818268Y-66467388D01*
X107780000Y-66475000D01*
X107520000Y-66475000D01*
X107481732Y-66467388D01*
X107449289Y-66445711D01*
X107427612Y-66413268D01*
X107420000Y-66375000D01*
X107420000Y-66175000D01*
X107427612Y-66136732D01*
X107449289Y-66104289D01*
X107481732Y-66082612D01*
X107520000Y-66075000D01*
X107780000Y-66075000D01*
X107818268Y-66082612D01*
G37*
G36*
X108458268Y-66082612D02*
G01*
X108490711Y-66104289D01*
X108512388Y-66136732D01*
X108520000Y-66175000D01*
X108520000Y-66375000D01*
X108512388Y-66413268D01*
X108490711Y-66445711D01*
X108458268Y-66467388D01*
X108420000Y-66475000D01*
X108160000Y-66475000D01*
X108121732Y-66467388D01*
X108089289Y-66445711D01*
X108067612Y-66413268D01*
X108060000Y-66375000D01*
X108060000Y-66175000D01*
X108067612Y-66136732D01*
X108089289Y-66104289D01*
X108121732Y-66082612D01*
X108160000Y-66075000D01*
X108420000Y-66075000D01*
X108458268Y-66082612D01*
G37*
G36*
X98522071Y-65347929D02*
G01*
X98524542Y-65353895D01*
X98528066Y-65355355D01*
X98551934Y-65355355D01*
X98555457Y-65353895D01*
X98557929Y-65347929D01*
X98565000Y-65345000D01*
X99435000Y-65345000D01*
X99442071Y-65347929D01*
X99445000Y-65355000D01*
X99445000Y-65645000D01*
X99442071Y-65652071D01*
X99436103Y-65654543D01*
X99432573Y-65663065D01*
X99432573Y-65686935D01*
X99436103Y-65695456D01*
X99442071Y-65697929D01*
X99445000Y-65705000D01*
X99445000Y-65995000D01*
X99442071Y-66002071D01*
X99436103Y-66004543D01*
X99432573Y-66013065D01*
X99432573Y-66036935D01*
X99436103Y-66045456D01*
X99442071Y-66047929D01*
X99445000Y-66055000D01*
X99445000Y-66345000D01*
X99442071Y-66352071D01*
X99435000Y-66355000D01*
X99423066Y-66355000D01*
X98576935Y-66355000D01*
X98565000Y-66355000D01*
X98557929Y-66352071D01*
X98555456Y-66346102D01*
X98551935Y-66344644D01*
X98528065Y-66344644D01*
X98524543Y-66346102D01*
X98522071Y-66352071D01*
X98515000Y-66355000D01*
X98503065Y-66355000D01*
X97656934Y-66355000D01*
X97645000Y-66355000D01*
X97637929Y-66352071D01*
X97635000Y-66345000D01*
X97635000Y-66055000D01*
X97637929Y-66047929D01*
X97643895Y-66045457D01*
X97647426Y-66036934D01*
X97647426Y-66013066D01*
X97643895Y-66004542D01*
X97637929Y-66002071D01*
X97635000Y-65995000D01*
X97635000Y-65705000D01*
X97637929Y-65697929D01*
X97643895Y-65695457D01*
X97647426Y-65686934D01*
X97647426Y-65663066D01*
X97643895Y-65654542D01*
X97637929Y-65652071D01*
X97635000Y-65645000D01*
X97635000Y-65355000D01*
X97637929Y-65347929D01*
X97645000Y-65345000D01*
X98515000Y-65345000D01*
X98522071Y-65347929D01*
G37*
G36*
X92546028Y-65758702D02*
G01*
X92595644Y-65791855D01*
X92628797Y-65841471D01*
X92637500Y-65885225D01*
X92637500Y-66214774D01*
X92628797Y-66258528D01*
X92595644Y-66308144D01*
X92546028Y-66341297D01*
X92502275Y-66350000D01*
X91447725Y-66350000D01*
X91403971Y-66341297D01*
X91354355Y-66308144D01*
X91321202Y-66258528D01*
X91312500Y-66214774D01*
X91312500Y-65885225D01*
X91321202Y-65841471D01*
X91354355Y-65791855D01*
X91403971Y-65758702D01*
X91447725Y-65750000D01*
X92502275Y-65750000D01*
X92546028Y-65758702D01*
G37*
G36*
X94821028Y-65758702D02*
G01*
X94870644Y-65791855D01*
X94903797Y-65841471D01*
X94912500Y-65885225D01*
X94912500Y-66214774D01*
X94903797Y-66258528D01*
X94870644Y-66308144D01*
X94821028Y-66341297D01*
X94777275Y-66350000D01*
X93722725Y-66350000D01*
X93678971Y-66341297D01*
X93629355Y-66308144D01*
X93596202Y-66258528D01*
X93587500Y-66214774D01*
X93587500Y-65885225D01*
X93596202Y-65841471D01*
X93629355Y-65791855D01*
X93678971Y-65758702D01*
X93722725Y-65750000D01*
X94777275Y-65750000D01*
X94821028Y-65758702D01*
G37*
G36*
X90613268Y-65427612D02*
G01*
X90645711Y-65449289D01*
X90667388Y-65481732D01*
X90675000Y-65520000D01*
X90675000Y-65780000D01*
X90667388Y-65818268D01*
X90645711Y-65850711D01*
X90613268Y-65872388D01*
X90575000Y-65880000D01*
X90375000Y-65880000D01*
X90336732Y-65872388D01*
X90304289Y-65850711D01*
X90282612Y-65818268D01*
X90275000Y-65780000D01*
X90275000Y-65520000D01*
X90282612Y-65481732D01*
X90304289Y-65449289D01*
X90336732Y-65427612D01*
X90375000Y-65420000D01*
X90575000Y-65420000D01*
X90613268Y-65427612D01*
G37*
G36*
X102152022Y-65801250D02*
G01*
X101847222Y-65801250D01*
X101847222Y-64823350D01*
X102152022Y-64823350D01*
X102152022Y-65801250D01*
G37*
G36*
X102652148Y-65801250D02*
G01*
X102347348Y-65801250D01*
X102347348Y-64823350D01*
X102652148Y-64823350D01*
X102652148Y-65801250D01*
G37*
G36*
X103152274Y-65801250D02*
G01*
X102847474Y-65801250D01*
X102847474Y-64823350D01*
X103152274Y-64823350D01*
X103152274Y-65801250D01*
G37*
G36*
X103652400Y-65801250D02*
G01*
X103347600Y-65801250D01*
X103347600Y-64823350D01*
X103652400Y-64823350D01*
X103652400Y-65801250D01*
G37*
G36*
X104152526Y-65801250D02*
G01*
X103847726Y-65801250D01*
X103847726Y-64823350D01*
X104152526Y-64823350D01*
X104152526Y-65801250D01*
G37*
G36*
X104652652Y-65801250D02*
G01*
X104347852Y-65801250D01*
X104347852Y-64823350D01*
X104652652Y-64823350D01*
X104652652Y-65801250D01*
G37*
G36*
X105152778Y-65801250D02*
G01*
X104847978Y-65801250D01*
X104847978Y-64823350D01*
X105152778Y-64823350D01*
X105152778Y-65801250D01*
G37*
G36*
X105652904Y-65801250D02*
G01*
X105348104Y-65801250D01*
X105348104Y-64823350D01*
X105652904Y-64823350D01*
X105652904Y-65801250D01*
G37*
G36*
X94821028Y-64808702D02*
G01*
X94870644Y-64841855D01*
X94903797Y-64891471D01*
X94912500Y-64935225D01*
X94912500Y-65264774D01*
X94903797Y-65308528D01*
X94870644Y-65358144D01*
X94821028Y-65391297D01*
X94777275Y-65400000D01*
X93722725Y-65400000D01*
X93678971Y-65391297D01*
X93629355Y-65358144D01*
X93596202Y-65308528D01*
X93587500Y-65264774D01*
X93587500Y-64935225D01*
X93596202Y-64891471D01*
X93629355Y-64841855D01*
X93678971Y-64808702D01*
X93722725Y-64800000D01*
X94777275Y-64800000D01*
X94821028Y-64808702D01*
G37*
G36*
X88800000Y-65250000D02*
G01*
X86800000Y-65250000D01*
X86800000Y-63250000D01*
X88800000Y-63250000D01*
X88800000Y-65250000D01*
G37*
G36*
X110000000Y-65250000D02*
G01*
X108000000Y-65250000D01*
X108000000Y-63250000D01*
X110000000Y-63250000D01*
X110000000Y-65250000D01*
G37*
G36*
X90613268Y-64787612D02*
G01*
X90645711Y-64809289D01*
X90667388Y-64841732D01*
X90675000Y-64880000D01*
X90675000Y-65140000D01*
X90667388Y-65178268D01*
X90645711Y-65210711D01*
X90613268Y-65232388D01*
X90575000Y-65240000D01*
X90375000Y-65240000D01*
X90336732Y-65232388D01*
X90304289Y-65210711D01*
X90282612Y-65178268D01*
X90275000Y-65140000D01*
X90275000Y-64880000D01*
X90282612Y-64841732D01*
X90304289Y-64809289D01*
X90336732Y-64787612D01*
X90375000Y-64780000D01*
X90575000Y-64780000D01*
X90613268Y-64787612D01*
G37*
G36*
X96237674Y-64592832D02*
G01*
X96264443Y-64610718D01*
X96282330Y-64622670D01*
X96300215Y-64649439D01*
X96312167Y-64667325D01*
X96320000Y-64706703D01*
X96320000Y-64864879D01*
X96320000Y-65003297D01*
X96312167Y-65042674D01*
X96282330Y-65087330D01*
X96237674Y-65117167D01*
X96198297Y-65125000D01*
X95801703Y-65125000D01*
X95762325Y-65117167D01*
X95744439Y-65105215D01*
X95717670Y-65087330D01*
X95705718Y-65069443D01*
X95687832Y-65042674D01*
X95680000Y-65003296D01*
X95680000Y-64706703D01*
X95687832Y-64667325D01*
X95717670Y-64622670D01*
X95762325Y-64592832D01*
X95801703Y-64585000D01*
X96198297Y-64585000D01*
X96237674Y-64592832D01*
G37*
G36*
X97138268Y-64442612D02*
G01*
X97170711Y-64464289D01*
X97192388Y-64496732D01*
X97200000Y-64535000D01*
X97200000Y-64795000D01*
X97192388Y-64833268D01*
X97170711Y-64865711D01*
X97138268Y-64887388D01*
X97100000Y-64895000D01*
X96900000Y-64895000D01*
X96861732Y-64887388D01*
X96829289Y-64865711D01*
X96807612Y-64833268D01*
X96800000Y-64795000D01*
X96800000Y-64535000D01*
X96807612Y-64496732D01*
X96829289Y-64464289D01*
X96861732Y-64442612D01*
X96900000Y-64435000D01*
X97100000Y-64435000D01*
X97138268Y-64442612D01*
G37*
G36*
X92546028Y-63858702D02*
G01*
X92595644Y-63891855D01*
X92628797Y-63941471D01*
X92637500Y-63985225D01*
X92637500Y-64314774D01*
X92628797Y-64358528D01*
X92595644Y-64408144D01*
X92546028Y-64441297D01*
X92502275Y-64450000D01*
X91447725Y-64450000D01*
X91403971Y-64441297D01*
X91354355Y-64408144D01*
X91321202Y-64358528D01*
X91312500Y-64314774D01*
X91312500Y-63985225D01*
X91321202Y-63941471D01*
X91354355Y-63891855D01*
X91403971Y-63858702D01*
X91447725Y-63850000D01*
X92502275Y-63850000D01*
X92546028Y-63858702D01*
G37*
G36*
X94821028Y-63858702D02*
G01*
X94870644Y-63891855D01*
X94903797Y-63941471D01*
X94912500Y-63985225D01*
X94912500Y-64314774D01*
X94903797Y-64358528D01*
X94870644Y-64408144D01*
X94821028Y-64441297D01*
X94777275Y-64450000D01*
X93722725Y-64450000D01*
X93678971Y-64441297D01*
X93629355Y-64408144D01*
X93596202Y-64358528D01*
X93587500Y-64314774D01*
X93587500Y-63985225D01*
X93596202Y-63941471D01*
X93629355Y-63891855D01*
X93678971Y-63858702D01*
X93722725Y-63850000D01*
X94777275Y-63850000D01*
X94821028Y-63858702D01*
G37*
G36*
X97138268Y-63802612D02*
G01*
X97170711Y-63824289D01*
X97192388Y-63856732D01*
X97200000Y-63895000D01*
X97200000Y-64155000D01*
X97192388Y-64193268D01*
X97170711Y-64225711D01*
X97138268Y-64247388D01*
X97100000Y-64255000D01*
X96900000Y-64255000D01*
X96861732Y-64247388D01*
X96829289Y-64225711D01*
X96807612Y-64193268D01*
X96800000Y-64155000D01*
X96800000Y-63895000D01*
X96807612Y-63856732D01*
X96829289Y-63824289D01*
X96861732Y-63802612D01*
X96900000Y-63795000D01*
X97100000Y-63795000D01*
X97138268Y-63802612D01*
G37*
G36*
X96237674Y-63572832D02*
G01*
X96264443Y-63590718D01*
X96282330Y-63602670D01*
X96300215Y-63629439D01*
X96312167Y-63647325D01*
X96320000Y-63686703D01*
X96320000Y-63850000D01*
X96320000Y-63983297D01*
X96312167Y-64022674D01*
X96282330Y-64067330D01*
X96237674Y-64097167D01*
X96198297Y-64105000D01*
X95801703Y-64105000D01*
X95762325Y-64097167D01*
X95744439Y-64085215D01*
X95717670Y-64067330D01*
X95705718Y-64049443D01*
X95687832Y-64022674D01*
X95680000Y-63983296D01*
X95680000Y-63686703D01*
X95687832Y-63647325D01*
X95717670Y-63602670D01*
X95762325Y-63572832D01*
X95801703Y-63565000D01*
X96198297Y-63565000D01*
X96237674Y-63572832D01*
G37*
G36*
X115021742Y-58221601D02*
G01*
X115175687Y-58285367D01*
X115314234Y-58377941D01*
X115432059Y-58495766D01*
X115524633Y-58634313D01*
X115588399Y-58788258D01*
X115620907Y-58951685D01*
X115620907Y-59118315D01*
X115588399Y-59281742D01*
X115524633Y-59435687D01*
X115432059Y-59574234D01*
X115314234Y-59692059D01*
X115175687Y-59784633D01*
X115021742Y-59848399D01*
X114858315Y-59880907D01*
X114691685Y-59880907D01*
X114528258Y-59848399D01*
X114374313Y-59784633D01*
X114235766Y-59692059D01*
X114117941Y-59574234D01*
X114025367Y-59435687D01*
X113961601Y-59281742D01*
X113929093Y-59118315D01*
X113929093Y-58951685D01*
X113961601Y-58788258D01*
X114025367Y-58634313D01*
X114117941Y-58495766D01*
X114235766Y-58377941D01*
X114374313Y-58285367D01*
X114528258Y-58221601D01*
X114691685Y-58189093D01*
X114858315Y-58189093D01*
X115021742Y-58221601D01*
G37*
G36*
X115021742Y-55681601D02*
G01*
X115175687Y-55745367D01*
X115314234Y-55837941D01*
X115432059Y-55955766D01*
X115524633Y-56094313D01*
X115588399Y-56248258D01*
X115620907Y-56411685D01*
X115620907Y-56578315D01*
X115588399Y-56741742D01*
X115524633Y-56895687D01*
X115432059Y-57034234D01*
X115314234Y-57152059D01*
X115175687Y-57244633D01*
X115021742Y-57308399D01*
X114858315Y-57340907D01*
X114691685Y-57340907D01*
X114528258Y-57308399D01*
X114374313Y-57244633D01*
X114235766Y-57152059D01*
X114117941Y-57034234D01*
X114025367Y-56895687D01*
X113961601Y-56741742D01*
X113929093Y-56578315D01*
X113929093Y-56411685D01*
X113961601Y-56248258D01*
X114025367Y-56094313D01*
X114117941Y-55955766D01*
X114235766Y-55837941D01*
X114374313Y-55745367D01*
X114528258Y-55681601D01*
X114691685Y-55649093D01*
X114858315Y-55649093D01*
X115021742Y-55681601D01*
G37*
G36*
X115021742Y-53141601D02*
G01*
X115175687Y-53205367D01*
X115314234Y-53297941D01*
X115432059Y-53415766D01*
X115524633Y-53554313D01*
X115588399Y-53708258D01*
X115620907Y-53871685D01*
X115620907Y-54038315D01*
X115588399Y-54201742D01*
X115524633Y-54355687D01*
X115432059Y-54494234D01*
X115314234Y-54612059D01*
X115175687Y-54704633D01*
X115021742Y-54768399D01*
X114858315Y-54800907D01*
X114691685Y-54800907D01*
X114528258Y-54768399D01*
X114374313Y-54704633D01*
X114235766Y-54612059D01*
X114117941Y-54494234D01*
X114025367Y-54355687D01*
X113961601Y-54201742D01*
X113929093Y-54038315D01*
X113929093Y-53871685D01*
X113961601Y-53708258D01*
X114025367Y-53554313D01*
X114117941Y-53415766D01*
X114235766Y-53297941D01*
X114374313Y-53205367D01*
X114528258Y-53141601D01*
X114691685Y-53109093D01*
X114858315Y-53109093D01*
X115021742Y-53141601D01*
G37*
G36*
X115625000Y-52265000D02*
G01*
X113925000Y-52265000D01*
X113925000Y-50565000D01*
X115625000Y-50565000D01*
X115625000Y-52265000D01*
G37*
M02*
