%TF.GenerationSoftware,KiCad,Pcbnew,9.0.1*%
%TF.CreationDate,2025-06-23T13:00:01-04:00*%
%TF.ProjectId,Colossus_TI_rev_B,436f6c6f-7373-4757-935f-54495f726576,rev?*%
%TF.SameCoordinates,Original*%
%TF.FileFunction,Legend,Bot*%
%TF.FilePolarity,Positive*%
%FSLAX46Y46*%
G04 Gerber Fmt 4.6, Leading zero omitted, Abs format (unit mm)*
G04 Created by KiCad (PCBNEW 9.0.1) date 2025-06-23 13:00:01*
%MOMM*%
%LPD*%
G01*
G04 APERTURE LIST*
%ADD10C,0.152400*%
G04 APERTURE END LIST*
D10*
X76212603Y-75503786D02*
X75399803Y-75503786D01*
X75399803Y-75503786D02*
X75399803Y-75697310D01*
X75399803Y-75697310D02*
X75438508Y-75813424D01*
X75438508Y-75813424D02*
X75515918Y-75890834D01*
X75515918Y-75890834D02*
X75593327Y-75929539D01*
X75593327Y-75929539D02*
X75748146Y-75968243D01*
X75748146Y-75968243D02*
X75864260Y-75968243D01*
X75864260Y-75968243D02*
X76019079Y-75929539D01*
X76019079Y-75929539D02*
X76096489Y-75890834D01*
X76096489Y-75890834D02*
X76173899Y-75813424D01*
X76173899Y-75813424D02*
X76212603Y-75697310D01*
X76212603Y-75697310D02*
X76212603Y-75503786D01*
X76173899Y-76626224D02*
X76212603Y-76548815D01*
X76212603Y-76548815D02*
X76212603Y-76393996D01*
X76212603Y-76393996D02*
X76173899Y-76316586D01*
X76173899Y-76316586D02*
X76096489Y-76277882D01*
X76096489Y-76277882D02*
X75786851Y-76277882D01*
X75786851Y-76277882D02*
X75709441Y-76316586D01*
X75709441Y-76316586D02*
X75670737Y-76393996D01*
X75670737Y-76393996D02*
X75670737Y-76548815D01*
X75670737Y-76548815D02*
X75709441Y-76626224D01*
X75709441Y-76626224D02*
X75786851Y-76664929D01*
X75786851Y-76664929D02*
X75864260Y-76664929D01*
X75864260Y-76664929D02*
X75941670Y-76277882D01*
X76212603Y-77013272D02*
X75399803Y-77013272D01*
X75709441Y-77013272D02*
X75670737Y-77090682D01*
X75670737Y-77090682D02*
X75670737Y-77245501D01*
X75670737Y-77245501D02*
X75709441Y-77322910D01*
X75709441Y-77322910D02*
X75748146Y-77361615D01*
X75748146Y-77361615D02*
X75825556Y-77400320D01*
X75825556Y-77400320D02*
X76057784Y-77400320D01*
X76057784Y-77400320D02*
X76135194Y-77361615D01*
X76135194Y-77361615D02*
X76173899Y-77322910D01*
X76173899Y-77322910D02*
X76212603Y-77245501D01*
X76212603Y-77245501D02*
X76212603Y-77090682D01*
X76212603Y-77090682D02*
X76173899Y-77013272D01*
X75670737Y-78097005D02*
X76212603Y-78097005D01*
X75670737Y-77748662D02*
X76096489Y-77748662D01*
X76096489Y-77748662D02*
X76173899Y-77787367D01*
X76173899Y-77787367D02*
X76212603Y-77864777D01*
X76212603Y-77864777D02*
X76212603Y-77980891D01*
X76212603Y-77980891D02*
X76173899Y-78058300D01*
X76173899Y-78058300D02*
X76135194Y-78097005D01*
X75670737Y-78832395D02*
X76328718Y-78832395D01*
X76328718Y-78832395D02*
X76406127Y-78793690D01*
X76406127Y-78793690D02*
X76444832Y-78754986D01*
X76444832Y-78754986D02*
X76483537Y-78677576D01*
X76483537Y-78677576D02*
X76483537Y-78561462D01*
X76483537Y-78561462D02*
X76444832Y-78484052D01*
X76173899Y-78832395D02*
X76212603Y-78754986D01*
X76212603Y-78754986D02*
X76212603Y-78600167D01*
X76212603Y-78600167D02*
X76173899Y-78522757D01*
X76173899Y-78522757D02*
X76135194Y-78484052D01*
X76135194Y-78484052D02*
X76057784Y-78445348D01*
X76057784Y-78445348D02*
X75825556Y-78445348D01*
X75825556Y-78445348D02*
X75748146Y-78484052D01*
X75748146Y-78484052D02*
X75709441Y-78522757D01*
X75709441Y-78522757D02*
X75670737Y-78600167D01*
X75670737Y-78600167D02*
X75670737Y-78754986D01*
X75670737Y-78754986D02*
X75709441Y-78832395D01*
X75670737Y-79567785D02*
X76328718Y-79567785D01*
X76328718Y-79567785D02*
X76406127Y-79529080D01*
X76406127Y-79529080D02*
X76444832Y-79490376D01*
X76444832Y-79490376D02*
X76483537Y-79412966D01*
X76483537Y-79412966D02*
X76483537Y-79296852D01*
X76483537Y-79296852D02*
X76444832Y-79219442D01*
X76173899Y-79567785D02*
X76212603Y-79490376D01*
X76212603Y-79490376D02*
X76212603Y-79335557D01*
X76212603Y-79335557D02*
X76173899Y-79258147D01*
X76173899Y-79258147D02*
X76135194Y-79219442D01*
X76135194Y-79219442D02*
X76057784Y-79180738D01*
X76057784Y-79180738D02*
X75825556Y-79180738D01*
X75825556Y-79180738D02*
X75748146Y-79219442D01*
X75748146Y-79219442D02*
X75709441Y-79258147D01*
X75709441Y-79258147D02*
X75670737Y-79335557D01*
X75670737Y-79335557D02*
X75670737Y-79490376D01*
X75670737Y-79490376D02*
X75709441Y-79567785D01*
X76212603Y-79954832D02*
X75670737Y-79954832D01*
X75399803Y-79954832D02*
X75438508Y-79916128D01*
X75438508Y-79916128D02*
X75477213Y-79954832D01*
X75477213Y-79954832D02*
X75438508Y-79993537D01*
X75438508Y-79993537D02*
X75399803Y-79954832D01*
X75399803Y-79954832D02*
X75477213Y-79954832D01*
X75670737Y-80341880D02*
X76212603Y-80341880D01*
X75748146Y-80341880D02*
X75709441Y-80380585D01*
X75709441Y-80380585D02*
X75670737Y-80457995D01*
X75670737Y-80457995D02*
X75670737Y-80574109D01*
X75670737Y-80574109D02*
X75709441Y-80651518D01*
X75709441Y-80651518D02*
X75786851Y-80690223D01*
X75786851Y-80690223D02*
X76212603Y-80690223D01*
X75670737Y-81425613D02*
X76328718Y-81425613D01*
X76328718Y-81425613D02*
X76406127Y-81386908D01*
X76406127Y-81386908D02*
X76444832Y-81348204D01*
X76444832Y-81348204D02*
X76483537Y-81270794D01*
X76483537Y-81270794D02*
X76483537Y-81154680D01*
X76483537Y-81154680D02*
X76444832Y-81077270D01*
X76173899Y-81425613D02*
X76212603Y-81348204D01*
X76212603Y-81348204D02*
X76212603Y-81193385D01*
X76212603Y-81193385D02*
X76173899Y-81115975D01*
X76173899Y-81115975D02*
X76135194Y-81077270D01*
X76135194Y-81077270D02*
X76057784Y-81038566D01*
X76057784Y-81038566D02*
X75825556Y-81038566D01*
X75825556Y-81038566D02*
X75748146Y-81077270D01*
X75748146Y-81077270D02*
X75709441Y-81115975D01*
X75709441Y-81115975D02*
X75670737Y-81193385D01*
X75670737Y-81193385D02*
X75670737Y-81348204D01*
X75670737Y-81348204D02*
X75709441Y-81425613D01*
X112039694Y-50558358D02*
X111039694Y-50558358D01*
X111039694Y-50558358D02*
X111039694Y-50939310D01*
X111039694Y-50939310D02*
X111087313Y-51034548D01*
X111087313Y-51034548D02*
X111134932Y-51082167D01*
X111134932Y-51082167D02*
X111230170Y-51129786D01*
X111230170Y-51129786D02*
X111373027Y-51129786D01*
X111373027Y-51129786D02*
X111468265Y-51082167D01*
X111468265Y-51082167D02*
X111515884Y-51034548D01*
X111515884Y-51034548D02*
X111563503Y-50939310D01*
X111563503Y-50939310D02*
X111563503Y-50558358D01*
X112039694Y-51558358D02*
X111373027Y-51558358D01*
X111563503Y-51558358D02*
X111468265Y-51605977D01*
X111468265Y-51605977D02*
X111420646Y-51653596D01*
X111420646Y-51653596D02*
X111373027Y-51748834D01*
X111373027Y-51748834D02*
X111373027Y-51844072D01*
X112039694Y-52320263D02*
X111992075Y-52225025D01*
X111992075Y-52225025D02*
X111944455Y-52177406D01*
X111944455Y-52177406D02*
X111849217Y-52129787D01*
X111849217Y-52129787D02*
X111563503Y-52129787D01*
X111563503Y-52129787D02*
X111468265Y-52177406D01*
X111468265Y-52177406D02*
X111420646Y-52225025D01*
X111420646Y-52225025D02*
X111373027Y-52320263D01*
X111373027Y-52320263D02*
X111373027Y-52463120D01*
X111373027Y-52463120D02*
X111420646Y-52558358D01*
X111420646Y-52558358D02*
X111468265Y-52605977D01*
X111468265Y-52605977D02*
X111563503Y-52653596D01*
X111563503Y-52653596D02*
X111849217Y-52653596D01*
X111849217Y-52653596D02*
X111944455Y-52605977D01*
X111944455Y-52605977D02*
X111992075Y-52558358D01*
X111992075Y-52558358D02*
X112039694Y-52463120D01*
X112039694Y-52463120D02*
X112039694Y-52320263D01*
X111373027Y-53510739D02*
X112182551Y-53510739D01*
X112182551Y-53510739D02*
X112277789Y-53463120D01*
X112277789Y-53463120D02*
X112325408Y-53415501D01*
X112325408Y-53415501D02*
X112373027Y-53320263D01*
X112373027Y-53320263D02*
X112373027Y-53177406D01*
X112373027Y-53177406D02*
X112325408Y-53082168D01*
X111992075Y-53510739D02*
X112039694Y-53415501D01*
X112039694Y-53415501D02*
X112039694Y-53225025D01*
X112039694Y-53225025D02*
X111992075Y-53129787D01*
X111992075Y-53129787D02*
X111944455Y-53082168D01*
X111944455Y-53082168D02*
X111849217Y-53034549D01*
X111849217Y-53034549D02*
X111563503Y-53034549D01*
X111563503Y-53034549D02*
X111468265Y-53082168D01*
X111468265Y-53082168D02*
X111420646Y-53129787D01*
X111420646Y-53129787D02*
X111373027Y-53225025D01*
X111373027Y-53225025D02*
X111373027Y-53415501D01*
X111373027Y-53415501D02*
X111420646Y-53510739D01*
X112039694Y-53986930D02*
X111373027Y-53986930D01*
X111563503Y-53986930D02*
X111468265Y-54034549D01*
X111468265Y-54034549D02*
X111420646Y-54082168D01*
X111420646Y-54082168D02*
X111373027Y-54177406D01*
X111373027Y-54177406D02*
X111373027Y-54272644D01*
X112039694Y-55034549D02*
X111515884Y-55034549D01*
X111515884Y-55034549D02*
X111420646Y-54986930D01*
X111420646Y-54986930D02*
X111373027Y-54891692D01*
X111373027Y-54891692D02*
X111373027Y-54701216D01*
X111373027Y-54701216D02*
X111420646Y-54605978D01*
X111992075Y-55034549D02*
X112039694Y-54939311D01*
X112039694Y-54939311D02*
X112039694Y-54701216D01*
X112039694Y-54701216D02*
X111992075Y-54605978D01*
X111992075Y-54605978D02*
X111896836Y-54558359D01*
X111896836Y-54558359D02*
X111801598Y-54558359D01*
X111801598Y-54558359D02*
X111706360Y-54605978D01*
X111706360Y-54605978D02*
X111658741Y-54701216D01*
X111658741Y-54701216D02*
X111658741Y-54939311D01*
X111658741Y-54939311D02*
X111611122Y-55034549D01*
X112039694Y-55510740D02*
X111373027Y-55510740D01*
X111468265Y-55510740D02*
X111420646Y-55558359D01*
X111420646Y-55558359D02*
X111373027Y-55653597D01*
X111373027Y-55653597D02*
X111373027Y-55796454D01*
X111373027Y-55796454D02*
X111420646Y-55891692D01*
X111420646Y-55891692D02*
X111515884Y-55939311D01*
X111515884Y-55939311D02*
X112039694Y-55939311D01*
X111515884Y-55939311D02*
X111420646Y-55986930D01*
X111420646Y-55986930D02*
X111373027Y-56082168D01*
X111373027Y-56082168D02*
X111373027Y-56225025D01*
X111373027Y-56225025D02*
X111420646Y-56320264D01*
X111420646Y-56320264D02*
X111515884Y-56367883D01*
X111515884Y-56367883D02*
X112039694Y-56367883D01*
X112039694Y-56844073D02*
X111373027Y-56844073D01*
X111468265Y-56844073D02*
X111420646Y-56891692D01*
X111420646Y-56891692D02*
X111373027Y-56986930D01*
X111373027Y-56986930D02*
X111373027Y-57129787D01*
X111373027Y-57129787D02*
X111420646Y-57225025D01*
X111420646Y-57225025D02*
X111515884Y-57272644D01*
X111515884Y-57272644D02*
X112039694Y-57272644D01*
X111515884Y-57272644D02*
X111420646Y-57320263D01*
X111420646Y-57320263D02*
X111373027Y-57415501D01*
X111373027Y-57415501D02*
X111373027Y-57558358D01*
X111373027Y-57558358D02*
X111420646Y-57653597D01*
X111420646Y-57653597D02*
X111515884Y-57701216D01*
X111515884Y-57701216D02*
X112039694Y-57701216D01*
X112039694Y-58177406D02*
X111373027Y-58177406D01*
X111039694Y-58177406D02*
X111087313Y-58129787D01*
X111087313Y-58129787D02*
X111134932Y-58177406D01*
X111134932Y-58177406D02*
X111087313Y-58225025D01*
X111087313Y-58225025D02*
X111039694Y-58177406D01*
X111039694Y-58177406D02*
X111134932Y-58177406D01*
X111373027Y-58653596D02*
X112039694Y-58653596D01*
X111468265Y-58653596D02*
X111420646Y-58701215D01*
X111420646Y-58701215D02*
X111373027Y-58796453D01*
X111373027Y-58796453D02*
X111373027Y-58939310D01*
X111373027Y-58939310D02*
X111420646Y-59034548D01*
X111420646Y-59034548D02*
X111515884Y-59082167D01*
X111515884Y-59082167D02*
X112039694Y-59082167D01*
X111373027Y-59986929D02*
X112182551Y-59986929D01*
X112182551Y-59986929D02*
X112277789Y-59939310D01*
X112277789Y-59939310D02*
X112325408Y-59891691D01*
X112325408Y-59891691D02*
X112373027Y-59796453D01*
X112373027Y-59796453D02*
X112373027Y-59653596D01*
X112373027Y-59653596D02*
X112325408Y-59558358D01*
X111992075Y-59986929D02*
X112039694Y-59891691D01*
X112039694Y-59891691D02*
X112039694Y-59701215D01*
X112039694Y-59701215D02*
X111992075Y-59605977D01*
X111992075Y-59605977D02*
X111944455Y-59558358D01*
X111944455Y-59558358D02*
X111849217Y-59510739D01*
X111849217Y-59510739D02*
X111563503Y-59510739D01*
X111563503Y-59510739D02*
X111468265Y-59558358D01*
X111468265Y-59558358D02*
X111420646Y-59605977D01*
X111420646Y-59605977D02*
X111373027Y-59701215D01*
X111373027Y-59701215D02*
X111373027Y-59891691D01*
X111373027Y-59891691D02*
X111420646Y-59986929D01*
M02*
