M48
; DRILL file {KiCad 9.0.1} date 2025-06-23T12:59:58-0400
; FORMAT={-:-/ absolute / metric / decimal}
; #@! TF.CreationDate,2025-06-23T12:59:58-04:00
; #@! TF.GenerationSoftware,Kicad,Pcbnew,9.0.1
; #@! TF.FileFunction,Plated,1,4,PTH
FMAT,2
METRIC
; #@! TA.AperFunction,Plated,PTH,ViaDrill
T1C0.150
; #@! TA.AperFunction,Plated,PTH,ViaDrill
T2C0.300
; #@! TA.AperFunction,Plated,PTH,ComponentDrill
T3C0.400
; #@! TA.AperFunction,Plated,PTH,ComponentDrill
T4C1.000
; #@! TA.AperFunction,Plated,PTH,ComponentDrill
T5C1.000
; #@! TA.AperFunction,Plated,PTH,ComponentDrill
T6C2.200
%
G90
G05
T1
X92.7Y-67.45
X92.7Y-68.15
X92.7Y-68.75
X94.7Y-67.25
X97.05Y-65.35
X97.05Y-65.889
X97.06Y-66.55
X99.895Y-66.005
X99.92Y-65.4
X103.45Y-66.15
X104.85Y-66.15
X104.85Y-67.603
X105.7Y-66.15
X105.7Y-67.603
T2
X78.525Y-81.625
X78.6Y-76.35
X87.8Y-66.5
X89.95Y-68.95
X90.08Y-63.83
X92.01Y-65.08
X92.4Y-77.95
X93.09Y-65.57
X93.2Y-64.6
X94.2Y-69.15
X97.05Y-76.02
X100.4Y-63.8
X100.4Y-69.75
X102.05Y-69.95
X102.05Y-75.475
X102.741Y-70.35
X103.243Y-69.643
X106.35Y-69.37
X106.35Y-70.25
X106.75Y-64.25
X109.775Y-57.75
T3
X82.6Y-67.125
X83.083Y-65.958
X83.083Y-68.292
X84.25Y-65.475
X84.25Y-68.775
X85.417Y-65.958
X85.417Y-68.292
X85.9Y-67.125
X110.9Y-67.125
X111.383Y-65.958
X111.383Y-68.292
X112.55Y-65.475
X112.55Y-68.775
X113.717Y-65.958
X113.717Y-68.292
X114.2Y-67.125
T4
X85.4Y-75.575
X85.4Y-82.075
X89.9Y-75.575
X89.9Y-82.075
T5
X73.075Y-76.385
X73.075Y-78.925
X73.075Y-81.465
X114.775Y-51.415
X114.775Y-53.955
X114.775Y-56.495
X114.775Y-59.035
T6
X84.25Y-67.125
X112.55Y-67.125
M30
