%TF.GenerationSoftware,KiCad,Pcbnew,9.0.1*%
%TF.CreationDate,2025-06-23T13:00:01-04:00*%
%TF.ProjectId,Colossus_TI_rev_B,436f6c6f-7373-4757-935f-54495f726576,rev?*%
%TF.SameCoordinates,Original*%
%TF.FileFunction,Paste,Top*%
%TF.FilePolarity,Positive*%
%FSLAX46Y46*%
G04 Gerber Fmt 4.6, Leading zero omitted, Abs format (unit mm)*
G04 Created by KiCad (PCBNEW 9.0.1) date 2025-06-23 13:00:01*
%MOMM*%
%LPD*%
G01*
G04 APERTURE LIST*
G04 Aperture macros list*
%AMRoundRect*
0 Rectangle with rounded corners*
0 $1 Rounding radius*
0 $2 $3 $4 $5 $6 $7 $8 $9 X,Y pos of 4 corners*
0 Add a 4 corners polygon primitive as box body*
4,1,4,$2,$3,$4,$5,$6,$7,$8,$9,$2,$3,0*
0 Add four circle primitives for the rounded corners*
1,1,$1+$1,$2,$3*
1,1,$1+$1,$4,$5*
1,1,$1+$1,$6,$7*
1,1,$1+$1,$8,$9*
0 Add four rect primitives between the rounded corners*
20,1,$1+$1,$2,$3,$4,$5,0*
20,1,$1+$1,$4,$5,$6,$7,0*
20,1,$1+$1,$6,$7,$8,$9,0*
20,1,$1+$1,$8,$9,$2,$3,0*%
G04 Aperture macros list end*
%ADD10RoundRect,0.150000X0.512500X0.150000X-0.512500X0.150000X-0.512500X-0.150000X0.512500X-0.150000X0*%
%ADD11RoundRect,0.135000X-0.185000X0.135000X-0.185000X-0.135000X0.185000X-0.135000X0.185000X0.135000X0*%
%ADD12RoundRect,0.140000X-0.140000X-0.170000X0.140000X-0.170000X0.140000X0.170000X-0.140000X0.170000X0*%
%ADD13RoundRect,0.140000X-0.170000X0.140000X-0.170000X-0.140000X0.170000X-0.140000X0.170000X0.140000X0*%
%ADD14RoundRect,0.079500X-0.079500X-0.100500X0.079500X-0.100500X0.079500X0.100500X-0.079500X0.100500X0*%
%ADD15RoundRect,0.135000X0.185000X-0.135000X0.185000X0.135000X-0.185000X0.135000X-0.185000X-0.135000X0*%
%ADD16RoundRect,0.079500X-0.100500X0.079500X-0.100500X-0.079500X0.100500X-0.079500X0.100500X0.079500X0*%
%ADD17RoundRect,0.087500X0.725000X0.087500X-0.725000X0.087500X-0.725000X-0.087500X0.725000X-0.087500X0*%
%ADD18RoundRect,0.250000X-0.262500X-0.450000X0.262500X-0.450000X0.262500X0.450000X-0.262500X0.450000X0*%
%ADD19RoundRect,0.079500X0.100500X-0.079500X0.100500X0.079500X-0.100500X0.079500X-0.100500X-0.079500X0*%
%ADD20RoundRect,0.250000X-0.250000X-0.475000X0.250000X-0.475000X0.250000X0.475000X-0.250000X0.475000X0*%
%ADD21R,0.770000X0.190000*%
%ADD22R,0.304800X0.977900*%
G04 APERTURE END LIST*
D10*
%TO.C,U3*%
X94250000Y-66050000D03*
X94250000Y-65100000D03*
X94250000Y-64150000D03*
X91975000Y-64150000D03*
X91975000Y-66050000D03*
%TD*%
D11*
%TO.C,R4*%
X96000000Y-63835000D03*
X96000000Y-64855000D03*
%TD*%
D12*
%TO.C,C8*%
X107390000Y-67920000D03*
X108350000Y-67920000D03*
%TD*%
D13*
%TO.C,C6*%
X98310000Y-68000000D03*
X98310000Y-68960000D03*
%TD*%
D12*
%TO.C,C1*%
X104140000Y-69780000D03*
X105100000Y-69780000D03*
%TD*%
D14*
%TO.C,C2*%
X104665000Y-70700000D03*
X103975000Y-70700000D03*
%TD*%
%TO.C,R2*%
X108315000Y-67050000D03*
X107625000Y-67050000D03*
%TD*%
D15*
%TO.C,TH1*%
X109320000Y-66760000D03*
X109320000Y-67780000D03*
%TD*%
D16*
%TO.C,C5*%
X99300000Y-69025000D03*
X99300000Y-68335000D03*
%TD*%
%TO.C,C9*%
X97000000Y-64690000D03*
X97000000Y-64000000D03*
%TD*%
D14*
%TO.C,R1*%
X108315000Y-66275000D03*
X107625000Y-66275000D03*
%TD*%
D17*
%TO.C,U2*%
X91525000Y-69650000D03*
X91525000Y-69150000D03*
X91525000Y-68650000D03*
X91525000Y-68150000D03*
X91525000Y-67650000D03*
X95750000Y-67650000D03*
X95750000Y-68150000D03*
X95750000Y-68650000D03*
X95750000Y-69150000D03*
X95750000Y-69650000D03*
%TD*%
D18*
%TO.C,R7*%
X82275000Y-75675000D03*
X80450000Y-75675000D03*
%TD*%
D19*
%TO.C,C7*%
X97300000Y-68335000D03*
X97300000Y-69025000D03*
%TD*%
D20*
%TO.C,C10*%
X82425000Y-81925000D03*
X80525000Y-81925000D03*
%TD*%
D21*
%TO.C,U4*%
X98080000Y-66200000D03*
X98080000Y-65850000D03*
X98080000Y-65500000D03*
X99000000Y-65500000D03*
X99000000Y-65850000D03*
X99000000Y-66200000D03*
%TD*%
D19*
%TO.C,C4*%
X97300000Y-69825000D03*
X97300000Y-70515000D03*
%TD*%
%TO.C,R3*%
X90475000Y-64985000D03*
X90475000Y-65675000D03*
%TD*%
D22*
%TO.C,U1*%
X101999622Y-65312300D03*
X102499748Y-65312300D03*
X102999874Y-65312300D03*
X103500000Y-65312300D03*
X104000126Y-65312300D03*
X104500252Y-65312300D03*
X105000378Y-65312300D03*
X105500504Y-65312300D03*
X105500504Y-68398400D03*
X105000378Y-68398400D03*
X104500252Y-68398400D03*
X104000126Y-68398400D03*
X103500000Y-68398400D03*
X102999874Y-68398400D03*
X102499748Y-68398400D03*
X101999622Y-68398400D03*
%TD*%
M02*
