%TF.GenerationSoftware,KiCad,Pcbnew,9.0.1*%
%TF.CreationDate,2025-06-23T13:00:01-04:00*%
%TF.ProjectId,Colossus_TI_rev_B,436f6c6f-7373-4757-935f-54495f726576,rev?*%
%TF.SameCoordinates,Original*%
%TF.FileFunction,Soldermask,Bot*%
%TF.FilePolarity,Negative*%
%FSLAX46Y46*%
G04 Gerber Fmt 4.6, Leading zero omitted, Abs format (unit mm)*
G04 Created by KiCad (PCBNEW 9.0.1) date 2025-06-23 13:00:01*
%MOMM*%
%LPD*%
G01*
G04 APERTURE LIST*
G04 APERTURE END LIST*
G36*
X85618873Y-81353470D02*
G01*
X85755432Y-81410034D01*
X85878331Y-81492153D01*
X85982848Y-81596670D01*
X86064967Y-81719569D01*
X86121531Y-81856128D01*
X86150367Y-82001097D01*
X86150367Y-82148907D01*
X86121531Y-82293876D01*
X86064967Y-82430435D01*
X85982848Y-82553334D01*
X85878331Y-82657851D01*
X85755432Y-82739970D01*
X85618873Y-82796534D01*
X85473904Y-82825370D01*
X85326094Y-82825370D01*
X85181125Y-82796534D01*
X85044566Y-82739970D01*
X84921667Y-82657851D01*
X84817150Y-82553334D01*
X84735031Y-82430435D01*
X84678467Y-82293876D01*
X84649631Y-82148907D01*
X84649631Y-82001097D01*
X84678467Y-81856128D01*
X84735031Y-81719569D01*
X84817150Y-81596670D01*
X84921667Y-81492153D01*
X85044566Y-81410034D01*
X85181125Y-81353470D01*
X85326094Y-81324634D01*
X85473904Y-81324634D01*
X85618873Y-81353470D01*
G37*
G36*
X90118874Y-81353470D02*
G01*
X90255433Y-81410034D01*
X90378332Y-81492153D01*
X90482849Y-81596670D01*
X90564968Y-81719569D01*
X90621532Y-81856128D01*
X90650368Y-82001097D01*
X90650368Y-82148907D01*
X90621532Y-82293876D01*
X90564968Y-82430435D01*
X90482849Y-82553334D01*
X90378332Y-82657851D01*
X90255433Y-82739970D01*
X90118874Y-82796534D01*
X89973905Y-82825370D01*
X89826095Y-82825370D01*
X89681126Y-82796534D01*
X89544567Y-82739970D01*
X89421668Y-82657851D01*
X89317151Y-82553334D01*
X89235032Y-82430435D01*
X89178468Y-82293876D01*
X89149632Y-82148907D01*
X89149632Y-82001097D01*
X89178468Y-81856128D01*
X89235032Y-81719569D01*
X89317151Y-81596670D01*
X89421668Y-81492153D01*
X89544567Y-81410034D01*
X89681126Y-81353470D01*
X89826095Y-81324634D01*
X89973905Y-81324634D01*
X90118874Y-81353470D01*
G37*
G36*
X73321742Y-80651601D02*
G01*
X73475687Y-80715367D01*
X73614234Y-80807941D01*
X73732059Y-80925766D01*
X73824633Y-81064313D01*
X73888399Y-81218258D01*
X73920907Y-81381685D01*
X73920907Y-81548315D01*
X73888399Y-81711742D01*
X73824633Y-81865687D01*
X73732059Y-82004234D01*
X73614234Y-82122059D01*
X73475687Y-82214633D01*
X73321742Y-82278399D01*
X73158315Y-82310907D01*
X72991685Y-82310907D01*
X72828258Y-82278399D01*
X72674313Y-82214633D01*
X72535766Y-82122059D01*
X72417941Y-82004234D01*
X72325367Y-81865687D01*
X72261601Y-81711742D01*
X72229093Y-81548315D01*
X72229093Y-81381685D01*
X72261601Y-81218258D01*
X72325367Y-81064313D01*
X72417941Y-80925766D01*
X72535766Y-80807941D01*
X72674313Y-80715367D01*
X72828258Y-80651601D01*
X72991685Y-80619093D01*
X73158315Y-80619093D01*
X73321742Y-80651601D01*
G37*
G36*
X73321742Y-78111601D02*
G01*
X73475687Y-78175367D01*
X73614234Y-78267941D01*
X73732059Y-78385766D01*
X73824633Y-78524313D01*
X73888399Y-78678258D01*
X73920907Y-78841685D01*
X73920907Y-79008315D01*
X73888399Y-79171742D01*
X73824633Y-79325687D01*
X73732059Y-79464234D01*
X73614234Y-79582059D01*
X73475687Y-79674633D01*
X73321742Y-79738399D01*
X73158315Y-79770907D01*
X72991685Y-79770907D01*
X72828258Y-79738399D01*
X72674313Y-79674633D01*
X72535766Y-79582059D01*
X72417941Y-79464234D01*
X72325367Y-79325687D01*
X72261601Y-79171742D01*
X72229093Y-79008315D01*
X72229093Y-78841685D01*
X72261601Y-78678258D01*
X72325367Y-78524313D01*
X72417941Y-78385766D01*
X72535766Y-78267941D01*
X72674313Y-78175367D01*
X72828258Y-78111601D01*
X72991685Y-78079093D01*
X73158315Y-78079093D01*
X73321742Y-78111601D01*
G37*
G36*
X73925000Y-77235000D02*
G01*
X72225000Y-77235000D01*
X72225000Y-75535000D01*
X73925000Y-75535000D01*
X73925000Y-77235000D01*
G37*
G36*
X85618873Y-74853468D02*
G01*
X85755432Y-74910032D01*
X85878331Y-74992151D01*
X85982848Y-75096668D01*
X86064967Y-75219567D01*
X86121531Y-75356126D01*
X86150367Y-75501095D01*
X86150367Y-75648905D01*
X86121531Y-75793874D01*
X86064967Y-75930433D01*
X85982848Y-76053332D01*
X85878331Y-76157849D01*
X85755432Y-76239968D01*
X85618873Y-76296532D01*
X85473904Y-76325368D01*
X85326094Y-76325368D01*
X85181125Y-76296532D01*
X85044566Y-76239968D01*
X84921667Y-76157849D01*
X84817150Y-76053332D01*
X84735031Y-75930433D01*
X84678467Y-75793874D01*
X84649631Y-75648905D01*
X84649631Y-75501095D01*
X84678467Y-75356126D01*
X84735031Y-75219567D01*
X84817150Y-75096668D01*
X84921667Y-74992151D01*
X85044566Y-74910032D01*
X85181125Y-74853468D01*
X85326094Y-74824632D01*
X85473904Y-74824632D01*
X85618873Y-74853468D01*
G37*
G36*
X90118874Y-74853468D02*
G01*
X90255433Y-74910032D01*
X90378332Y-74992151D01*
X90482849Y-75096668D01*
X90564968Y-75219567D01*
X90621532Y-75356126D01*
X90650368Y-75501095D01*
X90650368Y-75648905D01*
X90621532Y-75793874D01*
X90564968Y-75930433D01*
X90482849Y-76053332D01*
X90378332Y-76157849D01*
X90255433Y-76239968D01*
X90118874Y-76296532D01*
X89973905Y-76325368D01*
X89826095Y-76325368D01*
X89681126Y-76296532D01*
X89544567Y-76239968D01*
X89421668Y-76157849D01*
X89317151Y-76053332D01*
X89235032Y-75930433D01*
X89178468Y-75793874D01*
X89149632Y-75648905D01*
X89149632Y-75501095D01*
X89178468Y-75356126D01*
X89235032Y-75219567D01*
X89317151Y-75096668D01*
X89421668Y-74992151D01*
X89544567Y-74910032D01*
X89681126Y-74853468D01*
X89826095Y-74824632D01*
X89973905Y-74824632D01*
X90118874Y-74853468D01*
G37*
G36*
X84679199Y-64967272D02*
G01*
X84957167Y-65041754D01*
X85223035Y-65151880D01*
X85472255Y-65295767D01*
X85700561Y-65470952D01*
X85904048Y-65674439D01*
X86079233Y-65902745D01*
X86223120Y-66151965D01*
X86333246Y-66417833D01*
X86407728Y-66695801D01*
X86445290Y-66981113D01*
X86445290Y-67268887D01*
X86407728Y-67554199D01*
X86333246Y-67832167D01*
X86223120Y-68098035D01*
X86079233Y-68347255D01*
X85904048Y-68575561D01*
X85700561Y-68779048D01*
X85472255Y-68954233D01*
X85223035Y-69098120D01*
X84957167Y-69208246D01*
X84679199Y-69282728D01*
X84393887Y-69320290D01*
X84106113Y-69320290D01*
X83820801Y-69282728D01*
X83542833Y-69208246D01*
X83276965Y-69098120D01*
X83027745Y-68954233D01*
X82799439Y-68779048D01*
X82595952Y-68575561D01*
X82420767Y-68347255D01*
X82276880Y-68098035D01*
X82166754Y-67832167D01*
X82092272Y-67554199D01*
X82054710Y-67268887D01*
X82054710Y-66981113D01*
X82092272Y-66695801D01*
X82166754Y-66417833D01*
X82276880Y-66151965D01*
X82420767Y-65902745D01*
X82595952Y-65674439D01*
X82799439Y-65470952D01*
X83027745Y-65295767D01*
X83276965Y-65151880D01*
X83542833Y-65041754D01*
X83820801Y-64967272D01*
X84106113Y-64929710D01*
X84393887Y-64929710D01*
X84679199Y-64967272D01*
G37*
G36*
X112979199Y-64967272D02*
G01*
X113257167Y-65041754D01*
X113523035Y-65151880D01*
X113772255Y-65295767D01*
X114000561Y-65470952D01*
X114204048Y-65674439D01*
X114379233Y-65902745D01*
X114523120Y-66151965D01*
X114633246Y-66417833D01*
X114707728Y-66695801D01*
X114745290Y-66981113D01*
X114745290Y-67268887D01*
X114707728Y-67554199D01*
X114633246Y-67832167D01*
X114523120Y-68098035D01*
X114379233Y-68347255D01*
X114204048Y-68575561D01*
X114000561Y-68779048D01*
X113772255Y-68954233D01*
X113523035Y-69098120D01*
X113257167Y-69208246D01*
X112979199Y-69282728D01*
X112693887Y-69320290D01*
X112406113Y-69320290D01*
X112120801Y-69282728D01*
X111842833Y-69208246D01*
X111576965Y-69098120D01*
X111327745Y-68954233D01*
X111099439Y-68779048D01*
X110895952Y-68575561D01*
X110720767Y-68347255D01*
X110576880Y-68098035D01*
X110466754Y-67832167D01*
X110392272Y-67554199D01*
X110354710Y-67268887D01*
X110354710Y-66981113D01*
X110392272Y-66695801D01*
X110466754Y-66417833D01*
X110576880Y-66151965D01*
X110720767Y-65902745D01*
X110895952Y-65674439D01*
X111099439Y-65470952D01*
X111327745Y-65295767D01*
X111576965Y-65151880D01*
X111842833Y-65041754D01*
X112120801Y-64967272D01*
X112406113Y-64929710D01*
X112693887Y-64929710D01*
X112979199Y-64967272D01*
G37*
G36*
X115021742Y-58221601D02*
G01*
X115175687Y-58285367D01*
X115314234Y-58377941D01*
X115432059Y-58495766D01*
X115524633Y-58634313D01*
X115588399Y-58788258D01*
X115620907Y-58951685D01*
X115620907Y-59118315D01*
X115588399Y-59281742D01*
X115524633Y-59435687D01*
X115432059Y-59574234D01*
X115314234Y-59692059D01*
X115175687Y-59784633D01*
X115021742Y-59848399D01*
X114858315Y-59880907D01*
X114691685Y-59880907D01*
X114528258Y-59848399D01*
X114374313Y-59784633D01*
X114235766Y-59692059D01*
X114117941Y-59574234D01*
X114025367Y-59435687D01*
X113961601Y-59281742D01*
X113929093Y-59118315D01*
X113929093Y-58951685D01*
X113961601Y-58788258D01*
X114025367Y-58634313D01*
X114117941Y-58495766D01*
X114235766Y-58377941D01*
X114374313Y-58285367D01*
X114528258Y-58221601D01*
X114691685Y-58189093D01*
X114858315Y-58189093D01*
X115021742Y-58221601D01*
G37*
G36*
X115021742Y-55681601D02*
G01*
X115175687Y-55745367D01*
X115314234Y-55837941D01*
X115432059Y-55955766D01*
X115524633Y-56094313D01*
X115588399Y-56248258D01*
X115620907Y-56411685D01*
X115620907Y-56578315D01*
X115588399Y-56741742D01*
X115524633Y-56895687D01*
X115432059Y-57034234D01*
X115314234Y-57152059D01*
X115175687Y-57244633D01*
X115021742Y-57308399D01*
X114858315Y-57340907D01*
X114691685Y-57340907D01*
X114528258Y-57308399D01*
X114374313Y-57244633D01*
X114235766Y-57152059D01*
X114117941Y-57034234D01*
X114025367Y-56895687D01*
X113961601Y-56741742D01*
X113929093Y-56578315D01*
X113929093Y-56411685D01*
X113961601Y-56248258D01*
X114025367Y-56094313D01*
X114117941Y-55955766D01*
X114235766Y-55837941D01*
X114374313Y-55745367D01*
X114528258Y-55681601D01*
X114691685Y-55649093D01*
X114858315Y-55649093D01*
X115021742Y-55681601D01*
G37*
G36*
X115021742Y-53141601D02*
G01*
X115175687Y-53205367D01*
X115314234Y-53297941D01*
X115432059Y-53415766D01*
X115524633Y-53554313D01*
X115588399Y-53708258D01*
X115620907Y-53871685D01*
X115620907Y-54038315D01*
X115588399Y-54201742D01*
X115524633Y-54355687D01*
X115432059Y-54494234D01*
X115314234Y-54612059D01*
X115175687Y-54704633D01*
X115021742Y-54768399D01*
X114858315Y-54800907D01*
X114691685Y-54800907D01*
X114528258Y-54768399D01*
X114374313Y-54704633D01*
X114235766Y-54612059D01*
X114117941Y-54494234D01*
X114025367Y-54355687D01*
X113961601Y-54201742D01*
X113929093Y-54038315D01*
X113929093Y-53871685D01*
X113961601Y-53708258D01*
X114025367Y-53554313D01*
X114117941Y-53415766D01*
X114235766Y-53297941D01*
X114374313Y-53205367D01*
X114528258Y-53141601D01*
X114691685Y-53109093D01*
X114858315Y-53109093D01*
X115021742Y-53141601D01*
G37*
G36*
X115625000Y-52265000D02*
G01*
X113925000Y-52265000D01*
X113925000Y-50565000D01*
X115625000Y-50565000D01*
X115625000Y-52265000D01*
G37*
M02*
