%TF.GenerationSoftware,KiCad,Pcbnew,9.0.1*%
%TF.CreationDate,2025-06-23T12:59:58-04:00*%
%TF.ProjectId,Colossus_TI_rev_B,436f6c6f-7373-4757-935f-54495f726576,rev?*%
%TF.SameCoordinates,Original*%
%TF.FileFunction,Drillmap*%
%TF.FilePolarity,Positive*%
%FSLAX45Y45*%
G04 Gerber Fmt 4.5, Leading zero omitted, Abs format (unit mm)*
G04 Created by KiCad (PCBNEW 9.0.1) date 2025-06-23 12:59:58*
%MOMM*%
%LPD*%
G01*
G04 APERTURE LIST*
%ADD10C,0.038100*%
%ADD11C,0.200000*%
%ADD12C,0.100000*%
%ADD13C,0.220000*%
G04 APERTURE END LIST*
D10*
X7172711Y-5975290D02*
X7173000Y-5065000D01*
X8630000Y-6275000D02*
X9705000Y-6275000D01*
X8630000Y-7150000D02*
X8303750Y-6960000D01*
X10687500Y-6275000D02*
X11050000Y-6275000D01*
X7273000Y-4964978D02*
X11555289Y-4963711D01*
X11617289Y-8380289D02*
G75*
G02*
X11517289Y-8480289I-99999J-1D01*
G01*
X7272711Y-6075289D02*
G75*
G02*
X7172711Y-5975289I-1J99999D01*
G01*
X7232000Y-8480000D02*
G75*
G02*
X7132000Y-8380000I0J100000D01*
G01*
X10492500Y-6150000D02*
X10680000Y-6075000D01*
X7130000Y-7450000D02*
G75*
G02*
X7230000Y-7350000I100000J0D01*
G01*
X10450000Y-7275000D02*
X10637500Y-7350000D01*
X11515000Y-7350000D02*
X10637500Y-7350000D01*
X9857500Y-7275000D02*
X9670000Y-7350000D01*
X11515000Y-7350000D02*
G75*
G02*
X11615000Y-7450000I0J-100000D01*
G01*
X10645000Y-7150000D02*
X11050000Y-7150000D01*
X8630000Y-7150000D02*
X9662500Y-7150000D01*
X10492500Y-6200000D02*
X10687500Y-6275000D01*
X11050000Y-7150000D02*
X11377500Y-6960000D01*
X8303750Y-6960000D02*
G75*
G02*
X8265822Y-6486879I117500J247500D01*
G01*
X9857500Y-7225000D02*
X9857500Y-7275000D01*
X11555289Y-4963711D02*
G75*
G02*
X11655289Y-5063711I1J-99999D01*
G01*
X10492500Y-6200000D02*
X10492500Y-6150000D01*
X7232000Y-8480007D02*
X11517290Y-8480289D01*
X11657289Y-5975289D02*
G75*
G02*
X11557289Y-6075289I-99999J-1D01*
G01*
X10450000Y-7225000D02*
X10450000Y-7275000D01*
X9670000Y-7350000D02*
X7230000Y-7350000D01*
X9712500Y-6075000D02*
X7272711Y-6075000D01*
X10450000Y-7225000D02*
X10645000Y-7150000D01*
X11415428Y-6486879D02*
G75*
G02*
X11377500Y-6960000I-155428J-225621D01*
G01*
X11655289Y-5063711D02*
X11657500Y-5976000D01*
X11050000Y-6275000D02*
X11415428Y-6486879D01*
X9900000Y-6200000D02*
X9900000Y-6150000D01*
X8630000Y-6275000D02*
X8265822Y-6486879D01*
X9900000Y-6200000D02*
X9705000Y-6275000D01*
X11617289Y-8380290D02*
X11615000Y-7450000D01*
X7130000Y-7450000D02*
X7132000Y-8380000D01*
X7173000Y-5065000D02*
G75*
G02*
X7273000Y-4965000I100000J0D01*
G01*
X11557289Y-6075289D02*
X10680000Y-6075000D01*
X9857500Y-7225000D02*
X9662500Y-7150000D01*
X9900000Y-6150000D02*
X9712500Y-6075000D01*
D11*
D12*
X9262500Y-6737500D02*
X9277500Y-6752500D01*
X9277500Y-6737500D02*
X9262500Y-6752500D01*
X9262500Y-6807500D02*
X9277500Y-6822500D01*
X9277500Y-6807500D02*
X9262500Y-6822500D01*
X9262500Y-6867500D02*
X9277500Y-6882500D01*
X9277500Y-6867500D02*
X9262500Y-6882500D01*
X9462500Y-6717500D02*
X9477500Y-6732500D01*
X9477500Y-6717500D02*
X9462500Y-6732500D01*
X9697500Y-6527500D02*
X9712500Y-6542500D01*
X9712500Y-6527500D02*
X9697500Y-6542500D01*
X9697500Y-6581350D02*
X9712500Y-6596350D01*
X9712500Y-6581350D02*
X9697500Y-6596350D01*
X9698500Y-6647500D02*
X9713500Y-6662500D01*
X9713500Y-6647500D02*
X9698500Y-6662500D01*
X9981961Y-6593039D02*
X9996961Y-6608039D01*
X9996961Y-6593039D02*
X9981961Y-6608039D01*
X9984500Y-6532500D02*
X9999500Y-6547500D01*
X9999500Y-6532500D02*
X9984500Y-6547500D01*
X10337500Y-6607500D02*
X10352500Y-6622500D01*
X10352500Y-6607500D02*
X10337500Y-6622500D01*
X10477500Y-6607500D02*
X10492500Y-6622500D01*
X10492500Y-6607500D02*
X10477500Y-6622500D01*
X10477500Y-6752837D02*
X10492500Y-6767837D01*
X10492500Y-6752837D02*
X10477500Y-6767837D01*
X10562500Y-6607500D02*
X10577500Y-6622500D01*
X10577500Y-6607500D02*
X10562500Y-6622500D01*
X10562500Y-6752837D02*
X10577500Y-6767837D01*
X10577500Y-6752837D02*
X10562500Y-6767837D01*
X7867500Y-8162500D02*
G75*
G02*
X7837500Y-8162500I-15000J0D01*
G01*
X7837500Y-8162500D02*
G75*
G02*
X7867500Y-8162500I15000J0D01*
G01*
X7875000Y-7635000D02*
G75*
G02*
X7845000Y-7635000I-15000J0D01*
G01*
X7845000Y-7635000D02*
G75*
G02*
X7875000Y-7635000I15000J0D01*
G01*
X8795000Y-6650000D02*
G75*
G02*
X8765000Y-6650000I-15000J0D01*
G01*
X8765000Y-6650000D02*
G75*
G02*
X8795000Y-6650000I15000J0D01*
G01*
X9010000Y-6895000D02*
G75*
G02*
X8980000Y-6895000I-15000J0D01*
G01*
X8980000Y-6895000D02*
G75*
G02*
X9010000Y-6895000I15000J0D01*
G01*
X9023000Y-6383000D02*
G75*
G02*
X8993000Y-6383000I-15000J0D01*
G01*
X8993000Y-6383000D02*
G75*
G02*
X9023000Y-6383000I15000J0D01*
G01*
X9216000Y-6508000D02*
G75*
G02*
X9186000Y-6508000I-15000J0D01*
G01*
X9186000Y-6508000D02*
G75*
G02*
X9216000Y-6508000I15000J0D01*
G01*
X9255000Y-7795000D02*
G75*
G02*
X9225000Y-7795000I-15000J0D01*
G01*
X9225000Y-7795000D02*
G75*
G02*
X9255000Y-7795000I15000J0D01*
G01*
X9324000Y-6557000D02*
G75*
G02*
X9294000Y-6557000I-15000J0D01*
G01*
X9294000Y-6557000D02*
G75*
G02*
X9324000Y-6557000I15000J0D01*
G01*
X9335000Y-6460000D02*
G75*
G02*
X9305000Y-6460000I-15000J0D01*
G01*
X9305000Y-6460000D02*
G75*
G02*
X9335000Y-6460000I15000J0D01*
G01*
X9435000Y-6915000D02*
G75*
G02*
X9405000Y-6915000I-15000J0D01*
G01*
X9405000Y-6915000D02*
G75*
G02*
X9435000Y-6915000I15000J0D01*
G01*
X9720000Y-7602000D02*
G75*
G02*
X9690000Y-7602000I-15000J0D01*
G01*
X9690000Y-7602000D02*
G75*
G02*
X9720000Y-7602000I15000J0D01*
G01*
X10055000Y-6380000D02*
G75*
G02*
X10025000Y-6380000I-15000J0D01*
G01*
X10025000Y-6380000D02*
G75*
G02*
X10055000Y-6380000I15000J0D01*
G01*
X10055000Y-6975000D02*
G75*
G02*
X10025000Y-6975000I-15000J0D01*
G01*
X10025000Y-6975000D02*
G75*
G02*
X10055000Y-6975000I15000J0D01*
G01*
X10220000Y-6995000D02*
G75*
G02*
X10190000Y-6995000I-15000J0D01*
G01*
X10190000Y-6995000D02*
G75*
G02*
X10220000Y-6995000I15000J0D01*
G01*
X10220000Y-7547500D02*
G75*
G02*
X10190000Y-7547500I-15000J0D01*
G01*
X10190000Y-7547500D02*
G75*
G02*
X10220000Y-7547500I15000J0D01*
G01*
X10289136Y-7035000D02*
G75*
G02*
X10259136Y-7035000I-15000J0D01*
G01*
X10259136Y-7035000D02*
G75*
G02*
X10289136Y-7035000I15000J0D01*
G01*
X10339336Y-6964336D02*
G75*
G02*
X10309336Y-6964336I-15000J0D01*
G01*
X10309336Y-6964336D02*
G75*
G02*
X10339336Y-6964336I15000J0D01*
G01*
X10650000Y-6937000D02*
G75*
G02*
X10620000Y-6937000I-15000J0D01*
G01*
X10620000Y-6937000D02*
G75*
G02*
X10650000Y-6937000I15000J0D01*
G01*
X10650000Y-7025000D02*
G75*
G02*
X10620000Y-7025000I-15000J0D01*
G01*
X10620000Y-7025000D02*
G75*
G02*
X10650000Y-7025000I15000J0D01*
G01*
X10690000Y-6425000D02*
G75*
G02*
X10660000Y-6425000I-15000J0D01*
G01*
X10660000Y-6425000D02*
G75*
G02*
X10690000Y-6425000I15000J0D01*
G01*
X10992500Y-5775000D02*
G75*
G02*
X10962500Y-5775000I-15000J0D01*
G01*
X10962500Y-5775000D02*
G75*
G02*
X10992500Y-5775000I15000J0D01*
G01*
X8260000Y-6692500D02*
X8260000Y-6732500D01*
X8240000Y-6712500D02*
X8280000Y-6712500D01*
X8308327Y-6575827D02*
X8308327Y-6615827D01*
X8288327Y-6595827D02*
X8328327Y-6595827D01*
X8308327Y-6809173D02*
X8308327Y-6849173D01*
X8288327Y-6829173D02*
X8328327Y-6829173D01*
X8425000Y-6527500D02*
X8425000Y-6567500D01*
X8405000Y-6547500D02*
X8445000Y-6547500D01*
X8425000Y-6857500D02*
X8425000Y-6897500D01*
X8405000Y-6877500D02*
X8445000Y-6877500D01*
X8541673Y-6575827D02*
X8541673Y-6615827D01*
X8521673Y-6595827D02*
X8561673Y-6595827D01*
X8541673Y-6809173D02*
X8541673Y-6849173D01*
X8521673Y-6829173D02*
X8561673Y-6829173D01*
X8590000Y-6692500D02*
X8590000Y-6732500D01*
X8570000Y-6712500D02*
X8610000Y-6712500D01*
X11090000Y-6692500D02*
X11090000Y-6732500D01*
X11070000Y-6712500D02*
X11110000Y-6712500D01*
X11138327Y-6575827D02*
X11138327Y-6615827D01*
X11118327Y-6595827D02*
X11158327Y-6595827D01*
X11138327Y-6809173D02*
X11138327Y-6849173D01*
X11118327Y-6829173D02*
X11158327Y-6829173D01*
X11255000Y-6527500D02*
X11255000Y-6567500D01*
X11235000Y-6547500D02*
X11275000Y-6547500D01*
X11255000Y-6857500D02*
X11255000Y-6897500D01*
X11235000Y-6877500D02*
X11275000Y-6877500D01*
X11371673Y-6575827D02*
X11371673Y-6615827D01*
X11351673Y-6595827D02*
X11391673Y-6595827D01*
X11371673Y-6809173D02*
X11371673Y-6849173D01*
X11351673Y-6829173D02*
X11391673Y-6829173D01*
X11420000Y-6692500D02*
X11420000Y-6732500D01*
X11400000Y-6712500D02*
X11440000Y-6712500D01*
X8575356Y-7592856D02*
X8575356Y-7522144D01*
X8504644Y-7522144D01*
X8504644Y-7592856D01*
X8575356Y-7592856D01*
X8575356Y-8242856D02*
X8575356Y-8172145D01*
X8504644Y-8172145D01*
X8504644Y-8242856D01*
X8575356Y-8242856D01*
X9025356Y-7592856D02*
X9025356Y-7522144D01*
X8954644Y-7522144D01*
X8954644Y-7592856D01*
X9025356Y-7592856D01*
X9025356Y-8242856D02*
X9025356Y-8172145D01*
X8954644Y-8172145D01*
X8954644Y-8242856D01*
X9025356Y-8242856D01*
X7307500Y-7688500D02*
X7357500Y-7638500D01*
X7307500Y-7588500D01*
X7257500Y-7638500D01*
X7307500Y-7688500D01*
X7307500Y-7942500D02*
X7357500Y-7892500D01*
X7307500Y-7842500D01*
X7257500Y-7892500D01*
X7307500Y-7942500D01*
X7307500Y-8196500D02*
X7357500Y-8146500D01*
X7307500Y-8096500D01*
X7257500Y-8146500D01*
X7307500Y-8196500D01*
X11477500Y-5191500D02*
X11527500Y-5141500D01*
X11477500Y-5091500D01*
X11427500Y-5141500D01*
X11477500Y-5191500D01*
X11477500Y-5445500D02*
X11527500Y-5395500D01*
X11477500Y-5345500D01*
X11427500Y-5395500D01*
X11477500Y-5445500D01*
X11477500Y-5699500D02*
X11527500Y-5649500D01*
X11477500Y-5599500D01*
X11427500Y-5649500D01*
X11477500Y-5699500D01*
X11477500Y-5953500D02*
X11527500Y-5903500D01*
X11477500Y-5853500D01*
X11427500Y-5903500D01*
X11477500Y-5953500D01*
D13*
X8315000Y-6602500D02*
X8535000Y-6822500D01*
X8535000Y-6602500D02*
X8315000Y-6822500D01*
X8535000Y-6712500D02*
G75*
G02*
X8315000Y-6712500I-110000J0D01*
G01*
X8315000Y-6712500D02*
G75*
G02*
X8535000Y-6712500I110000J0D01*
G01*
X11145000Y-6602500D02*
X11365000Y-6822500D01*
X11365000Y-6602500D02*
X11145000Y-6822500D01*
X11365000Y-6712500D02*
G75*
G02*
X11145000Y-6712500I-110000J0D01*
G01*
X11145000Y-6712500D02*
G75*
G02*
X11365000Y-6712500I110000J0D01*
G01*
D11*
X7388872Y-8793678D02*
X7388872Y-8593678D01*
X7388872Y-8593678D02*
X7436491Y-8593678D01*
X7436491Y-8593678D02*
X7465062Y-8603202D01*
X7465062Y-8603202D02*
X7484110Y-8622250D01*
X7484110Y-8622250D02*
X7493634Y-8641297D01*
X7493634Y-8641297D02*
X7503157Y-8679392D01*
X7503157Y-8679392D02*
X7503157Y-8707964D01*
X7503157Y-8707964D02*
X7493634Y-8746059D01*
X7493634Y-8746059D02*
X7484110Y-8765107D01*
X7484110Y-8765107D02*
X7465062Y-8784154D01*
X7465062Y-8784154D02*
X7436491Y-8793678D01*
X7436491Y-8793678D02*
X7388872Y-8793678D01*
X7588872Y-8793678D02*
X7588872Y-8660345D01*
X7588872Y-8698440D02*
X7598396Y-8679392D01*
X7598396Y-8679392D02*
X7607919Y-8669869D01*
X7607919Y-8669869D02*
X7626967Y-8660345D01*
X7626967Y-8660345D02*
X7646015Y-8660345D01*
X7712681Y-8793678D02*
X7712681Y-8660345D01*
X7712681Y-8593678D02*
X7703157Y-8603202D01*
X7703157Y-8603202D02*
X7712681Y-8612726D01*
X7712681Y-8612726D02*
X7722205Y-8603202D01*
X7722205Y-8603202D02*
X7712681Y-8593678D01*
X7712681Y-8593678D02*
X7712681Y-8612726D01*
X7836491Y-8793678D02*
X7817443Y-8784154D01*
X7817443Y-8784154D02*
X7807919Y-8765107D01*
X7807919Y-8765107D02*
X7807919Y-8593678D01*
X7941253Y-8793678D02*
X7922205Y-8784154D01*
X7922205Y-8784154D02*
X7912681Y-8765107D01*
X7912681Y-8765107D02*
X7912681Y-8593678D01*
X8169824Y-8793678D02*
X8169824Y-8593678D01*
X8169824Y-8593678D02*
X8236491Y-8736535D01*
X8236491Y-8736535D02*
X8303157Y-8593678D01*
X8303157Y-8593678D02*
X8303157Y-8793678D01*
X8484110Y-8793678D02*
X8484110Y-8688916D01*
X8484110Y-8688916D02*
X8474586Y-8669869D01*
X8474586Y-8669869D02*
X8455539Y-8660345D01*
X8455539Y-8660345D02*
X8417443Y-8660345D01*
X8417443Y-8660345D02*
X8398396Y-8669869D01*
X8484110Y-8784154D02*
X8465062Y-8793678D01*
X8465062Y-8793678D02*
X8417443Y-8793678D01*
X8417443Y-8793678D02*
X8398396Y-8784154D01*
X8398396Y-8784154D02*
X8388872Y-8765107D01*
X8388872Y-8765107D02*
X8388872Y-8746059D01*
X8388872Y-8746059D02*
X8398396Y-8727011D01*
X8398396Y-8727011D02*
X8417443Y-8717488D01*
X8417443Y-8717488D02*
X8465062Y-8717488D01*
X8465062Y-8717488D02*
X8484110Y-8707964D01*
X8579348Y-8660345D02*
X8579348Y-8860345D01*
X8579348Y-8669869D02*
X8598396Y-8660345D01*
X8598396Y-8660345D02*
X8636491Y-8660345D01*
X8636491Y-8660345D02*
X8655539Y-8669869D01*
X8655539Y-8669869D02*
X8665062Y-8679392D01*
X8665062Y-8679392D02*
X8674586Y-8698440D01*
X8674586Y-8698440D02*
X8674586Y-8755583D01*
X8674586Y-8755583D02*
X8665062Y-8774630D01*
X8665062Y-8774630D02*
X8655539Y-8784154D01*
X8655539Y-8784154D02*
X8636491Y-8793678D01*
X8636491Y-8793678D02*
X8598396Y-8793678D01*
X8598396Y-8793678D02*
X8579348Y-8784154D01*
X8760300Y-8774630D02*
X8769824Y-8784154D01*
X8769824Y-8784154D02*
X8760300Y-8793678D01*
X8760300Y-8793678D02*
X8750777Y-8784154D01*
X8750777Y-8784154D02*
X8760300Y-8774630D01*
X8760300Y-8774630D02*
X8760300Y-8793678D01*
X8760300Y-8669869D02*
X8769824Y-8679392D01*
X8769824Y-8679392D02*
X8760300Y-8688916D01*
X8760300Y-8688916D02*
X8750777Y-8679392D01*
X8750777Y-8679392D02*
X8760300Y-8669869D01*
X8760300Y-8669869D02*
X8760300Y-8688916D01*
D12*
X7113095Y-9114694D02*
X7128095Y-9129694D01*
X7128095Y-9114694D02*
X7113095Y-9129694D01*
D11*
X7426967Y-9013678D02*
X7446015Y-9013678D01*
X7446015Y-9013678D02*
X7465062Y-9023202D01*
X7465062Y-9023202D02*
X7474586Y-9032726D01*
X7474586Y-9032726D02*
X7484110Y-9051773D01*
X7484110Y-9051773D02*
X7493634Y-9089869D01*
X7493634Y-9089869D02*
X7493634Y-9137488D01*
X7493634Y-9137488D02*
X7484110Y-9175583D01*
X7484110Y-9175583D02*
X7474586Y-9194630D01*
X7474586Y-9194630D02*
X7465062Y-9204154D01*
X7465062Y-9204154D02*
X7446015Y-9213678D01*
X7446015Y-9213678D02*
X7426967Y-9213678D01*
X7426967Y-9213678D02*
X7407919Y-9204154D01*
X7407919Y-9204154D02*
X7398396Y-9194630D01*
X7398396Y-9194630D02*
X7388872Y-9175583D01*
X7388872Y-9175583D02*
X7379348Y-9137488D01*
X7379348Y-9137488D02*
X7379348Y-9089869D01*
X7379348Y-9089869D02*
X7388872Y-9051773D01*
X7388872Y-9051773D02*
X7398396Y-9032726D01*
X7398396Y-9032726D02*
X7407919Y-9023202D01*
X7407919Y-9023202D02*
X7426967Y-9013678D01*
X7579348Y-9194630D02*
X7588872Y-9204154D01*
X7588872Y-9204154D02*
X7579348Y-9213678D01*
X7579348Y-9213678D02*
X7569824Y-9204154D01*
X7569824Y-9204154D02*
X7579348Y-9194630D01*
X7579348Y-9194630D02*
X7579348Y-9213678D01*
X7779348Y-9213678D02*
X7665062Y-9213678D01*
X7722205Y-9213678D02*
X7722205Y-9013678D01*
X7722205Y-9013678D02*
X7703157Y-9042250D01*
X7703157Y-9042250D02*
X7684110Y-9061297D01*
X7684110Y-9061297D02*
X7665062Y-9070821D01*
X7960300Y-9013678D02*
X7865062Y-9013678D01*
X7865062Y-9013678D02*
X7855538Y-9108916D01*
X7855538Y-9108916D02*
X7865062Y-9099392D01*
X7865062Y-9099392D02*
X7884110Y-9089869D01*
X7884110Y-9089869D02*
X7931729Y-9089869D01*
X7931729Y-9089869D02*
X7950777Y-9099392D01*
X7950777Y-9099392D02*
X7960300Y-9108916D01*
X7960300Y-9108916D02*
X7969824Y-9127964D01*
X7969824Y-9127964D02*
X7969824Y-9175583D01*
X7969824Y-9175583D02*
X7960300Y-9194630D01*
X7960300Y-9194630D02*
X7950777Y-9204154D01*
X7950777Y-9204154D02*
X7931729Y-9213678D01*
X7931729Y-9213678D02*
X7884110Y-9213678D01*
X7884110Y-9213678D02*
X7865062Y-9204154D01*
X7865062Y-9204154D02*
X7855538Y-9194630D01*
X8093634Y-9013678D02*
X8112681Y-9013678D01*
X8112681Y-9013678D02*
X8131729Y-9023202D01*
X8131729Y-9023202D02*
X8141253Y-9032726D01*
X8141253Y-9032726D02*
X8150777Y-9051773D01*
X8150777Y-9051773D02*
X8160300Y-9089869D01*
X8160300Y-9089869D02*
X8160300Y-9137488D01*
X8160300Y-9137488D02*
X8150777Y-9175583D01*
X8150777Y-9175583D02*
X8141253Y-9194630D01*
X8141253Y-9194630D02*
X8131729Y-9204154D01*
X8131729Y-9204154D02*
X8112681Y-9213678D01*
X8112681Y-9213678D02*
X8093634Y-9213678D01*
X8093634Y-9213678D02*
X8074586Y-9204154D01*
X8074586Y-9204154D02*
X8065062Y-9194630D01*
X8065062Y-9194630D02*
X8055538Y-9175583D01*
X8055538Y-9175583D02*
X8046015Y-9137488D01*
X8046015Y-9137488D02*
X8046015Y-9089869D01*
X8046015Y-9089869D02*
X8055538Y-9051773D01*
X8055538Y-9051773D02*
X8065062Y-9032726D01*
X8065062Y-9032726D02*
X8074586Y-9023202D01*
X8074586Y-9023202D02*
X8093634Y-9013678D01*
X8246015Y-9213678D02*
X8246015Y-9080345D01*
X8246015Y-9099392D02*
X8255538Y-9089869D01*
X8255538Y-9089869D02*
X8274586Y-9080345D01*
X8274586Y-9080345D02*
X8303158Y-9080345D01*
X8303158Y-9080345D02*
X8322205Y-9089869D01*
X8322205Y-9089869D02*
X8331729Y-9108916D01*
X8331729Y-9108916D02*
X8331729Y-9213678D01*
X8331729Y-9108916D02*
X8341253Y-9089869D01*
X8341253Y-9089869D02*
X8360300Y-9080345D01*
X8360300Y-9080345D02*
X8388872Y-9080345D01*
X8388872Y-9080345D02*
X8407920Y-9089869D01*
X8407920Y-9089869D02*
X8417443Y-9108916D01*
X8417443Y-9108916D02*
X8417443Y-9213678D01*
X8512681Y-9213678D02*
X8512681Y-9080345D01*
X8512681Y-9099392D02*
X8522205Y-9089869D01*
X8522205Y-9089869D02*
X8541253Y-9080345D01*
X8541253Y-9080345D02*
X8569824Y-9080345D01*
X8569824Y-9080345D02*
X8588872Y-9089869D01*
X8588872Y-9089869D02*
X8598396Y-9108916D01*
X8598396Y-9108916D02*
X8598396Y-9213678D01*
X8598396Y-9108916D02*
X8607920Y-9089869D01*
X8607920Y-9089869D02*
X8626967Y-9080345D01*
X8626967Y-9080345D02*
X8655539Y-9080345D01*
X8655539Y-9080345D02*
X8674586Y-9089869D01*
X8674586Y-9089869D02*
X8684110Y-9108916D01*
X8684110Y-9108916D02*
X8684110Y-9213678D01*
X9074586Y-9004154D02*
X8903158Y-9261297D01*
X9331729Y-9013678D02*
X9350777Y-9013678D01*
X9350777Y-9013678D02*
X9369824Y-9023202D01*
X9369824Y-9023202D02*
X9379348Y-9032726D01*
X9379348Y-9032726D02*
X9388872Y-9051773D01*
X9388872Y-9051773D02*
X9398396Y-9089869D01*
X9398396Y-9089869D02*
X9398396Y-9137488D01*
X9398396Y-9137488D02*
X9388872Y-9175583D01*
X9388872Y-9175583D02*
X9379348Y-9194630D01*
X9379348Y-9194630D02*
X9369824Y-9204154D01*
X9369824Y-9204154D02*
X9350777Y-9213678D01*
X9350777Y-9213678D02*
X9331729Y-9213678D01*
X9331729Y-9213678D02*
X9312682Y-9204154D01*
X9312682Y-9204154D02*
X9303158Y-9194630D01*
X9303158Y-9194630D02*
X9293634Y-9175583D01*
X9293634Y-9175583D02*
X9284110Y-9137488D01*
X9284110Y-9137488D02*
X9284110Y-9089869D01*
X9284110Y-9089869D02*
X9293634Y-9051773D01*
X9293634Y-9051773D02*
X9303158Y-9032726D01*
X9303158Y-9032726D02*
X9312682Y-9023202D01*
X9312682Y-9023202D02*
X9331729Y-9013678D01*
X9484110Y-9194630D02*
X9493634Y-9204154D01*
X9493634Y-9204154D02*
X9484110Y-9213678D01*
X9484110Y-9213678D02*
X9474586Y-9204154D01*
X9474586Y-9204154D02*
X9484110Y-9194630D01*
X9484110Y-9194630D02*
X9484110Y-9213678D01*
X9617443Y-9013678D02*
X9636491Y-9013678D01*
X9636491Y-9013678D02*
X9655539Y-9023202D01*
X9655539Y-9023202D02*
X9665063Y-9032726D01*
X9665063Y-9032726D02*
X9674586Y-9051773D01*
X9674586Y-9051773D02*
X9684110Y-9089869D01*
X9684110Y-9089869D02*
X9684110Y-9137488D01*
X9684110Y-9137488D02*
X9674586Y-9175583D01*
X9674586Y-9175583D02*
X9665063Y-9194630D01*
X9665063Y-9194630D02*
X9655539Y-9204154D01*
X9655539Y-9204154D02*
X9636491Y-9213678D01*
X9636491Y-9213678D02*
X9617443Y-9213678D01*
X9617443Y-9213678D02*
X9598396Y-9204154D01*
X9598396Y-9204154D02*
X9588872Y-9194630D01*
X9588872Y-9194630D02*
X9579348Y-9175583D01*
X9579348Y-9175583D02*
X9569824Y-9137488D01*
X9569824Y-9137488D02*
X9569824Y-9089869D01*
X9569824Y-9089869D02*
X9579348Y-9051773D01*
X9579348Y-9051773D02*
X9588872Y-9032726D01*
X9588872Y-9032726D02*
X9598396Y-9023202D01*
X9598396Y-9023202D02*
X9617443Y-9013678D01*
X9807920Y-9013678D02*
X9826967Y-9013678D01*
X9826967Y-9013678D02*
X9846015Y-9023202D01*
X9846015Y-9023202D02*
X9855539Y-9032726D01*
X9855539Y-9032726D02*
X9865063Y-9051773D01*
X9865063Y-9051773D02*
X9874586Y-9089869D01*
X9874586Y-9089869D02*
X9874586Y-9137488D01*
X9874586Y-9137488D02*
X9865063Y-9175583D01*
X9865063Y-9175583D02*
X9855539Y-9194630D01*
X9855539Y-9194630D02*
X9846015Y-9204154D01*
X9846015Y-9204154D02*
X9826967Y-9213678D01*
X9826967Y-9213678D02*
X9807920Y-9213678D01*
X9807920Y-9213678D02*
X9788872Y-9204154D01*
X9788872Y-9204154D02*
X9779348Y-9194630D01*
X9779348Y-9194630D02*
X9769824Y-9175583D01*
X9769824Y-9175583D02*
X9760301Y-9137488D01*
X9760301Y-9137488D02*
X9760301Y-9089869D01*
X9760301Y-9089869D02*
X9769824Y-9051773D01*
X9769824Y-9051773D02*
X9779348Y-9032726D01*
X9779348Y-9032726D02*
X9788872Y-9023202D01*
X9788872Y-9023202D02*
X9807920Y-9013678D01*
X10055539Y-9013678D02*
X9960301Y-9013678D01*
X9960301Y-9013678D02*
X9950777Y-9108916D01*
X9950777Y-9108916D02*
X9960301Y-9099392D01*
X9960301Y-9099392D02*
X9979348Y-9089869D01*
X9979348Y-9089869D02*
X10026967Y-9089869D01*
X10026967Y-9089869D02*
X10046015Y-9099392D01*
X10046015Y-9099392D02*
X10055539Y-9108916D01*
X10055539Y-9108916D02*
X10065063Y-9127964D01*
X10065063Y-9127964D02*
X10065063Y-9175583D01*
X10065063Y-9175583D02*
X10055539Y-9194630D01*
X10055539Y-9194630D02*
X10046015Y-9204154D01*
X10046015Y-9204154D02*
X10026967Y-9213678D01*
X10026967Y-9213678D02*
X9979348Y-9213678D01*
X9979348Y-9213678D02*
X9960301Y-9204154D01*
X9960301Y-9204154D02*
X9950777Y-9194630D01*
X10160301Y-9213678D02*
X10198396Y-9213678D01*
X10198396Y-9213678D02*
X10217444Y-9204154D01*
X10217444Y-9204154D02*
X10226967Y-9194630D01*
X10226967Y-9194630D02*
X10246015Y-9166059D01*
X10246015Y-9166059D02*
X10255539Y-9127964D01*
X10255539Y-9127964D02*
X10255539Y-9051773D01*
X10255539Y-9051773D02*
X10246015Y-9032726D01*
X10246015Y-9032726D02*
X10236491Y-9023202D01*
X10236491Y-9023202D02*
X10217444Y-9013678D01*
X10217444Y-9013678D02*
X10179348Y-9013678D01*
X10179348Y-9013678D02*
X10160301Y-9023202D01*
X10160301Y-9023202D02*
X10150777Y-9032726D01*
X10150777Y-9032726D02*
X10141253Y-9051773D01*
X10141253Y-9051773D02*
X10141253Y-9099392D01*
X10141253Y-9099392D02*
X10150777Y-9118440D01*
X10150777Y-9118440D02*
X10160301Y-9127964D01*
X10160301Y-9127964D02*
X10179348Y-9137488D01*
X10179348Y-9137488D02*
X10217444Y-9137488D01*
X10217444Y-9137488D02*
X10236491Y-9127964D01*
X10236491Y-9127964D02*
X10246015Y-9118440D01*
X10246015Y-9118440D02*
X10255539Y-9099392D01*
X10331729Y-9013678D02*
X10331729Y-9051773D01*
X10407920Y-9013678D02*
X10407920Y-9051773D01*
X10703158Y-9289869D02*
X10693634Y-9280345D01*
X10693634Y-9280345D02*
X10674586Y-9251773D01*
X10674586Y-9251773D02*
X10665063Y-9232726D01*
X10665063Y-9232726D02*
X10655539Y-9204154D01*
X10655539Y-9204154D02*
X10646015Y-9156535D01*
X10646015Y-9156535D02*
X10646015Y-9118440D01*
X10646015Y-9118440D02*
X10655539Y-9070821D01*
X10655539Y-9070821D02*
X10665063Y-9042250D01*
X10665063Y-9042250D02*
X10674586Y-9023202D01*
X10674586Y-9023202D02*
X10693634Y-8994630D01*
X10693634Y-8994630D02*
X10703158Y-8985107D01*
X10884110Y-9213678D02*
X10769825Y-9213678D01*
X10826967Y-9213678D02*
X10826967Y-9013678D01*
X10826967Y-9013678D02*
X10807920Y-9042250D01*
X10807920Y-9042250D02*
X10788872Y-9061297D01*
X10788872Y-9061297D02*
X10769825Y-9070821D01*
X11055539Y-9080345D02*
X11055539Y-9213678D01*
X11007920Y-9004154D02*
X10960301Y-9147011D01*
X10960301Y-9147011D02*
X11084110Y-9147011D01*
X11312682Y-9213678D02*
X11312682Y-9013678D01*
X11398396Y-9213678D02*
X11398396Y-9108916D01*
X11398396Y-9108916D02*
X11388872Y-9089869D01*
X11388872Y-9089869D02*
X11369825Y-9080345D01*
X11369825Y-9080345D02*
X11341253Y-9080345D01*
X11341253Y-9080345D02*
X11322205Y-9089869D01*
X11322205Y-9089869D02*
X11312682Y-9099392D01*
X11522205Y-9213678D02*
X11503158Y-9204154D01*
X11503158Y-9204154D02*
X11493634Y-9194630D01*
X11493634Y-9194630D02*
X11484110Y-9175583D01*
X11484110Y-9175583D02*
X11484110Y-9118440D01*
X11484110Y-9118440D02*
X11493634Y-9099392D01*
X11493634Y-9099392D02*
X11503158Y-9089869D01*
X11503158Y-9089869D02*
X11522205Y-9080345D01*
X11522205Y-9080345D02*
X11550777Y-9080345D01*
X11550777Y-9080345D02*
X11569825Y-9089869D01*
X11569825Y-9089869D02*
X11579348Y-9099392D01*
X11579348Y-9099392D02*
X11588872Y-9118440D01*
X11588872Y-9118440D02*
X11588872Y-9175583D01*
X11588872Y-9175583D02*
X11579348Y-9194630D01*
X11579348Y-9194630D02*
X11569825Y-9204154D01*
X11569825Y-9204154D02*
X11550777Y-9213678D01*
X11550777Y-9213678D02*
X11522205Y-9213678D01*
X11703158Y-9213678D02*
X11684110Y-9204154D01*
X11684110Y-9204154D02*
X11674586Y-9185107D01*
X11674586Y-9185107D02*
X11674586Y-9013678D01*
X11855539Y-9204154D02*
X11836491Y-9213678D01*
X11836491Y-9213678D02*
X11798396Y-9213678D01*
X11798396Y-9213678D02*
X11779348Y-9204154D01*
X11779348Y-9204154D02*
X11769825Y-9185107D01*
X11769825Y-9185107D02*
X11769825Y-9108916D01*
X11769825Y-9108916D02*
X11779348Y-9089869D01*
X11779348Y-9089869D02*
X11798396Y-9080345D01*
X11798396Y-9080345D02*
X11836491Y-9080345D01*
X11836491Y-9080345D02*
X11855539Y-9089869D01*
X11855539Y-9089869D02*
X11865063Y-9108916D01*
X11865063Y-9108916D02*
X11865063Y-9127964D01*
X11865063Y-9127964D02*
X11769825Y-9147011D01*
X11941253Y-9204154D02*
X11960301Y-9213678D01*
X11960301Y-9213678D02*
X11998396Y-9213678D01*
X11998396Y-9213678D02*
X12017444Y-9204154D01*
X12017444Y-9204154D02*
X12026967Y-9185107D01*
X12026967Y-9185107D02*
X12026967Y-9175583D01*
X12026967Y-9175583D02*
X12017444Y-9156535D01*
X12017444Y-9156535D02*
X11998396Y-9147011D01*
X11998396Y-9147011D02*
X11969825Y-9147011D01*
X11969825Y-9147011D02*
X11950777Y-9137488D01*
X11950777Y-9137488D02*
X11941253Y-9118440D01*
X11941253Y-9118440D02*
X11941253Y-9108916D01*
X11941253Y-9108916D02*
X11950777Y-9089869D01*
X11950777Y-9089869D02*
X11969825Y-9080345D01*
X11969825Y-9080345D02*
X11998396Y-9080345D01*
X11998396Y-9080345D02*
X12017444Y-9089869D01*
X12093634Y-9289869D02*
X12103158Y-9280345D01*
X12103158Y-9280345D02*
X12122206Y-9251773D01*
X12122206Y-9251773D02*
X12131729Y-9232726D01*
X12131729Y-9232726D02*
X12141253Y-9204154D01*
X12141253Y-9204154D02*
X12150777Y-9156535D01*
X12150777Y-9156535D02*
X12150777Y-9118440D01*
X12150777Y-9118440D02*
X12141253Y-9070821D01*
X12141253Y-9070821D02*
X12131729Y-9042250D01*
X12131729Y-9042250D02*
X12122206Y-9023202D01*
X12122206Y-9023202D02*
X12103158Y-8994630D01*
X12103158Y-8994630D02*
X12093634Y-8985107D01*
D12*
X7128095Y-9386194D02*
G75*
G02*
X7098095Y-9386194I-15000J0D01*
G01*
X7098095Y-9386194D02*
G75*
G02*
X7128095Y-9386194I15000J0D01*
G01*
D11*
X7426967Y-9277678D02*
X7446015Y-9277678D01*
X7446015Y-9277678D02*
X7465062Y-9287202D01*
X7465062Y-9287202D02*
X7474586Y-9296726D01*
X7474586Y-9296726D02*
X7484110Y-9315773D01*
X7484110Y-9315773D02*
X7493634Y-9353869D01*
X7493634Y-9353869D02*
X7493634Y-9401488D01*
X7493634Y-9401488D02*
X7484110Y-9439583D01*
X7484110Y-9439583D02*
X7474586Y-9458630D01*
X7474586Y-9458630D02*
X7465062Y-9468154D01*
X7465062Y-9468154D02*
X7446015Y-9477678D01*
X7446015Y-9477678D02*
X7426967Y-9477678D01*
X7426967Y-9477678D02*
X7407919Y-9468154D01*
X7407919Y-9468154D02*
X7398396Y-9458630D01*
X7398396Y-9458630D02*
X7388872Y-9439583D01*
X7388872Y-9439583D02*
X7379348Y-9401488D01*
X7379348Y-9401488D02*
X7379348Y-9353869D01*
X7379348Y-9353869D02*
X7388872Y-9315773D01*
X7388872Y-9315773D02*
X7398396Y-9296726D01*
X7398396Y-9296726D02*
X7407919Y-9287202D01*
X7407919Y-9287202D02*
X7426967Y-9277678D01*
X7579348Y-9458630D02*
X7588872Y-9468154D01*
X7588872Y-9468154D02*
X7579348Y-9477678D01*
X7579348Y-9477678D02*
X7569824Y-9468154D01*
X7569824Y-9468154D02*
X7579348Y-9458630D01*
X7579348Y-9458630D02*
X7579348Y-9477678D01*
X7655538Y-9277678D02*
X7779348Y-9277678D01*
X7779348Y-9277678D02*
X7712681Y-9353869D01*
X7712681Y-9353869D02*
X7741253Y-9353869D01*
X7741253Y-9353869D02*
X7760300Y-9363392D01*
X7760300Y-9363392D02*
X7769824Y-9372916D01*
X7769824Y-9372916D02*
X7779348Y-9391964D01*
X7779348Y-9391964D02*
X7779348Y-9439583D01*
X7779348Y-9439583D02*
X7769824Y-9458630D01*
X7769824Y-9458630D02*
X7760300Y-9468154D01*
X7760300Y-9468154D02*
X7741253Y-9477678D01*
X7741253Y-9477678D02*
X7684110Y-9477678D01*
X7684110Y-9477678D02*
X7665062Y-9468154D01*
X7665062Y-9468154D02*
X7655538Y-9458630D01*
X7903157Y-9277678D02*
X7922205Y-9277678D01*
X7922205Y-9277678D02*
X7941253Y-9287202D01*
X7941253Y-9287202D02*
X7950777Y-9296726D01*
X7950777Y-9296726D02*
X7960300Y-9315773D01*
X7960300Y-9315773D02*
X7969824Y-9353869D01*
X7969824Y-9353869D02*
X7969824Y-9401488D01*
X7969824Y-9401488D02*
X7960300Y-9439583D01*
X7960300Y-9439583D02*
X7950777Y-9458630D01*
X7950777Y-9458630D02*
X7941253Y-9468154D01*
X7941253Y-9468154D02*
X7922205Y-9477678D01*
X7922205Y-9477678D02*
X7903157Y-9477678D01*
X7903157Y-9477678D02*
X7884110Y-9468154D01*
X7884110Y-9468154D02*
X7874586Y-9458630D01*
X7874586Y-9458630D02*
X7865062Y-9439583D01*
X7865062Y-9439583D02*
X7855538Y-9401488D01*
X7855538Y-9401488D02*
X7855538Y-9353869D01*
X7855538Y-9353869D02*
X7865062Y-9315773D01*
X7865062Y-9315773D02*
X7874586Y-9296726D01*
X7874586Y-9296726D02*
X7884110Y-9287202D01*
X7884110Y-9287202D02*
X7903157Y-9277678D01*
X8093634Y-9277678D02*
X8112681Y-9277678D01*
X8112681Y-9277678D02*
X8131729Y-9287202D01*
X8131729Y-9287202D02*
X8141253Y-9296726D01*
X8141253Y-9296726D02*
X8150777Y-9315773D01*
X8150777Y-9315773D02*
X8160300Y-9353869D01*
X8160300Y-9353869D02*
X8160300Y-9401488D01*
X8160300Y-9401488D02*
X8150777Y-9439583D01*
X8150777Y-9439583D02*
X8141253Y-9458630D01*
X8141253Y-9458630D02*
X8131729Y-9468154D01*
X8131729Y-9468154D02*
X8112681Y-9477678D01*
X8112681Y-9477678D02*
X8093634Y-9477678D01*
X8093634Y-9477678D02*
X8074586Y-9468154D01*
X8074586Y-9468154D02*
X8065062Y-9458630D01*
X8065062Y-9458630D02*
X8055538Y-9439583D01*
X8055538Y-9439583D02*
X8046015Y-9401488D01*
X8046015Y-9401488D02*
X8046015Y-9353869D01*
X8046015Y-9353869D02*
X8055538Y-9315773D01*
X8055538Y-9315773D02*
X8065062Y-9296726D01*
X8065062Y-9296726D02*
X8074586Y-9287202D01*
X8074586Y-9287202D02*
X8093634Y-9277678D01*
X8246015Y-9477678D02*
X8246015Y-9344345D01*
X8246015Y-9363392D02*
X8255538Y-9353869D01*
X8255538Y-9353869D02*
X8274586Y-9344345D01*
X8274586Y-9344345D02*
X8303158Y-9344345D01*
X8303158Y-9344345D02*
X8322205Y-9353869D01*
X8322205Y-9353869D02*
X8331729Y-9372916D01*
X8331729Y-9372916D02*
X8331729Y-9477678D01*
X8331729Y-9372916D02*
X8341253Y-9353869D01*
X8341253Y-9353869D02*
X8360300Y-9344345D01*
X8360300Y-9344345D02*
X8388872Y-9344345D01*
X8388872Y-9344345D02*
X8407920Y-9353869D01*
X8407920Y-9353869D02*
X8417443Y-9372916D01*
X8417443Y-9372916D02*
X8417443Y-9477678D01*
X8512681Y-9477678D02*
X8512681Y-9344345D01*
X8512681Y-9363392D02*
X8522205Y-9353869D01*
X8522205Y-9353869D02*
X8541253Y-9344345D01*
X8541253Y-9344345D02*
X8569824Y-9344345D01*
X8569824Y-9344345D02*
X8588872Y-9353869D01*
X8588872Y-9353869D02*
X8598396Y-9372916D01*
X8598396Y-9372916D02*
X8598396Y-9477678D01*
X8598396Y-9372916D02*
X8607920Y-9353869D01*
X8607920Y-9353869D02*
X8626967Y-9344345D01*
X8626967Y-9344345D02*
X8655539Y-9344345D01*
X8655539Y-9344345D02*
X8674586Y-9353869D01*
X8674586Y-9353869D02*
X8684110Y-9372916D01*
X8684110Y-9372916D02*
X8684110Y-9477678D01*
X9074586Y-9268154D02*
X8903158Y-9525297D01*
X9331729Y-9277678D02*
X9350777Y-9277678D01*
X9350777Y-9277678D02*
X9369824Y-9287202D01*
X9369824Y-9287202D02*
X9379348Y-9296726D01*
X9379348Y-9296726D02*
X9388872Y-9315773D01*
X9388872Y-9315773D02*
X9398396Y-9353869D01*
X9398396Y-9353869D02*
X9398396Y-9401488D01*
X9398396Y-9401488D02*
X9388872Y-9439583D01*
X9388872Y-9439583D02*
X9379348Y-9458630D01*
X9379348Y-9458630D02*
X9369824Y-9468154D01*
X9369824Y-9468154D02*
X9350777Y-9477678D01*
X9350777Y-9477678D02*
X9331729Y-9477678D01*
X9331729Y-9477678D02*
X9312682Y-9468154D01*
X9312682Y-9468154D02*
X9303158Y-9458630D01*
X9303158Y-9458630D02*
X9293634Y-9439583D01*
X9293634Y-9439583D02*
X9284110Y-9401488D01*
X9284110Y-9401488D02*
X9284110Y-9353869D01*
X9284110Y-9353869D02*
X9293634Y-9315773D01*
X9293634Y-9315773D02*
X9303158Y-9296726D01*
X9303158Y-9296726D02*
X9312682Y-9287202D01*
X9312682Y-9287202D02*
X9331729Y-9277678D01*
X9484110Y-9458630D02*
X9493634Y-9468154D01*
X9493634Y-9468154D02*
X9484110Y-9477678D01*
X9484110Y-9477678D02*
X9474586Y-9468154D01*
X9474586Y-9468154D02*
X9484110Y-9458630D01*
X9484110Y-9458630D02*
X9484110Y-9477678D01*
X9617443Y-9277678D02*
X9636491Y-9277678D01*
X9636491Y-9277678D02*
X9655539Y-9287202D01*
X9655539Y-9287202D02*
X9665063Y-9296726D01*
X9665063Y-9296726D02*
X9674586Y-9315773D01*
X9674586Y-9315773D02*
X9684110Y-9353869D01*
X9684110Y-9353869D02*
X9684110Y-9401488D01*
X9684110Y-9401488D02*
X9674586Y-9439583D01*
X9674586Y-9439583D02*
X9665063Y-9458630D01*
X9665063Y-9458630D02*
X9655539Y-9468154D01*
X9655539Y-9468154D02*
X9636491Y-9477678D01*
X9636491Y-9477678D02*
X9617443Y-9477678D01*
X9617443Y-9477678D02*
X9598396Y-9468154D01*
X9598396Y-9468154D02*
X9588872Y-9458630D01*
X9588872Y-9458630D02*
X9579348Y-9439583D01*
X9579348Y-9439583D02*
X9569824Y-9401488D01*
X9569824Y-9401488D02*
X9569824Y-9353869D01*
X9569824Y-9353869D02*
X9579348Y-9315773D01*
X9579348Y-9315773D02*
X9588872Y-9296726D01*
X9588872Y-9296726D02*
X9598396Y-9287202D01*
X9598396Y-9287202D02*
X9617443Y-9277678D01*
X9874586Y-9477678D02*
X9760301Y-9477678D01*
X9817443Y-9477678D02*
X9817443Y-9277678D01*
X9817443Y-9277678D02*
X9798396Y-9306250D01*
X9798396Y-9306250D02*
X9779348Y-9325297D01*
X9779348Y-9325297D02*
X9760301Y-9334821D01*
X10065063Y-9477678D02*
X9950777Y-9477678D01*
X10007920Y-9477678D02*
X10007920Y-9277678D01*
X10007920Y-9277678D02*
X9988872Y-9306250D01*
X9988872Y-9306250D02*
X9969824Y-9325297D01*
X9969824Y-9325297D02*
X9950777Y-9334821D01*
X10179348Y-9363392D02*
X10160301Y-9353869D01*
X10160301Y-9353869D02*
X10150777Y-9344345D01*
X10150777Y-9344345D02*
X10141253Y-9325297D01*
X10141253Y-9325297D02*
X10141253Y-9315773D01*
X10141253Y-9315773D02*
X10150777Y-9296726D01*
X10150777Y-9296726D02*
X10160301Y-9287202D01*
X10160301Y-9287202D02*
X10179348Y-9277678D01*
X10179348Y-9277678D02*
X10217444Y-9277678D01*
X10217444Y-9277678D02*
X10236491Y-9287202D01*
X10236491Y-9287202D02*
X10246015Y-9296726D01*
X10246015Y-9296726D02*
X10255539Y-9315773D01*
X10255539Y-9315773D02*
X10255539Y-9325297D01*
X10255539Y-9325297D02*
X10246015Y-9344345D01*
X10246015Y-9344345D02*
X10236491Y-9353869D01*
X10236491Y-9353869D02*
X10217444Y-9363392D01*
X10217444Y-9363392D02*
X10179348Y-9363392D01*
X10179348Y-9363392D02*
X10160301Y-9372916D01*
X10160301Y-9372916D02*
X10150777Y-9382440D01*
X10150777Y-9382440D02*
X10141253Y-9401488D01*
X10141253Y-9401488D02*
X10141253Y-9439583D01*
X10141253Y-9439583D02*
X10150777Y-9458630D01*
X10150777Y-9458630D02*
X10160301Y-9468154D01*
X10160301Y-9468154D02*
X10179348Y-9477678D01*
X10179348Y-9477678D02*
X10217444Y-9477678D01*
X10217444Y-9477678D02*
X10236491Y-9468154D01*
X10236491Y-9468154D02*
X10246015Y-9458630D01*
X10246015Y-9458630D02*
X10255539Y-9439583D01*
X10255539Y-9439583D02*
X10255539Y-9401488D01*
X10255539Y-9401488D02*
X10246015Y-9382440D01*
X10246015Y-9382440D02*
X10236491Y-9372916D01*
X10236491Y-9372916D02*
X10217444Y-9363392D01*
X10331729Y-9277678D02*
X10331729Y-9315773D01*
X10407920Y-9277678D02*
X10407920Y-9315773D01*
X10703158Y-9553869D02*
X10693634Y-9544345D01*
X10693634Y-9544345D02*
X10674586Y-9515773D01*
X10674586Y-9515773D02*
X10665063Y-9496726D01*
X10665063Y-9496726D02*
X10655539Y-9468154D01*
X10655539Y-9468154D02*
X10646015Y-9420535D01*
X10646015Y-9420535D02*
X10646015Y-9382440D01*
X10646015Y-9382440D02*
X10655539Y-9334821D01*
X10655539Y-9334821D02*
X10665063Y-9306250D01*
X10665063Y-9306250D02*
X10674586Y-9287202D01*
X10674586Y-9287202D02*
X10693634Y-9258630D01*
X10693634Y-9258630D02*
X10703158Y-9249107D01*
X10769825Y-9296726D02*
X10779348Y-9287202D01*
X10779348Y-9287202D02*
X10798396Y-9277678D01*
X10798396Y-9277678D02*
X10846015Y-9277678D01*
X10846015Y-9277678D02*
X10865063Y-9287202D01*
X10865063Y-9287202D02*
X10874586Y-9296726D01*
X10874586Y-9296726D02*
X10884110Y-9315773D01*
X10884110Y-9315773D02*
X10884110Y-9334821D01*
X10884110Y-9334821D02*
X10874586Y-9363392D01*
X10874586Y-9363392D02*
X10760301Y-9477678D01*
X10760301Y-9477678D02*
X10884110Y-9477678D01*
X11074586Y-9477678D02*
X10960301Y-9477678D01*
X11017444Y-9477678D02*
X11017444Y-9277678D01*
X11017444Y-9277678D02*
X10998396Y-9306250D01*
X10998396Y-9306250D02*
X10979348Y-9325297D01*
X10979348Y-9325297D02*
X10960301Y-9334821D01*
X11312682Y-9477678D02*
X11312682Y-9277678D01*
X11398396Y-9477678D02*
X11398396Y-9372916D01*
X11398396Y-9372916D02*
X11388872Y-9353869D01*
X11388872Y-9353869D02*
X11369825Y-9344345D01*
X11369825Y-9344345D02*
X11341253Y-9344345D01*
X11341253Y-9344345D02*
X11322205Y-9353869D01*
X11322205Y-9353869D02*
X11312682Y-9363392D01*
X11522205Y-9477678D02*
X11503158Y-9468154D01*
X11503158Y-9468154D02*
X11493634Y-9458630D01*
X11493634Y-9458630D02*
X11484110Y-9439583D01*
X11484110Y-9439583D02*
X11484110Y-9382440D01*
X11484110Y-9382440D02*
X11493634Y-9363392D01*
X11493634Y-9363392D02*
X11503158Y-9353869D01*
X11503158Y-9353869D02*
X11522205Y-9344345D01*
X11522205Y-9344345D02*
X11550777Y-9344345D01*
X11550777Y-9344345D02*
X11569825Y-9353869D01*
X11569825Y-9353869D02*
X11579348Y-9363392D01*
X11579348Y-9363392D02*
X11588872Y-9382440D01*
X11588872Y-9382440D02*
X11588872Y-9439583D01*
X11588872Y-9439583D02*
X11579348Y-9458630D01*
X11579348Y-9458630D02*
X11569825Y-9468154D01*
X11569825Y-9468154D02*
X11550777Y-9477678D01*
X11550777Y-9477678D02*
X11522205Y-9477678D01*
X11703158Y-9477678D02*
X11684110Y-9468154D01*
X11684110Y-9468154D02*
X11674586Y-9449107D01*
X11674586Y-9449107D02*
X11674586Y-9277678D01*
X11855539Y-9468154D02*
X11836491Y-9477678D01*
X11836491Y-9477678D02*
X11798396Y-9477678D01*
X11798396Y-9477678D02*
X11779348Y-9468154D01*
X11779348Y-9468154D02*
X11769825Y-9449107D01*
X11769825Y-9449107D02*
X11769825Y-9372916D01*
X11769825Y-9372916D02*
X11779348Y-9353869D01*
X11779348Y-9353869D02*
X11798396Y-9344345D01*
X11798396Y-9344345D02*
X11836491Y-9344345D01*
X11836491Y-9344345D02*
X11855539Y-9353869D01*
X11855539Y-9353869D02*
X11865063Y-9372916D01*
X11865063Y-9372916D02*
X11865063Y-9391964D01*
X11865063Y-9391964D02*
X11769825Y-9411011D01*
X11941253Y-9468154D02*
X11960301Y-9477678D01*
X11960301Y-9477678D02*
X11998396Y-9477678D01*
X11998396Y-9477678D02*
X12017444Y-9468154D01*
X12017444Y-9468154D02*
X12026967Y-9449107D01*
X12026967Y-9449107D02*
X12026967Y-9439583D01*
X12026967Y-9439583D02*
X12017444Y-9420535D01*
X12017444Y-9420535D02*
X11998396Y-9411011D01*
X11998396Y-9411011D02*
X11969825Y-9411011D01*
X11969825Y-9411011D02*
X11950777Y-9401488D01*
X11950777Y-9401488D02*
X11941253Y-9382440D01*
X11941253Y-9382440D02*
X11941253Y-9372916D01*
X11941253Y-9372916D02*
X11950777Y-9353869D01*
X11950777Y-9353869D02*
X11969825Y-9344345D01*
X11969825Y-9344345D02*
X11998396Y-9344345D01*
X11998396Y-9344345D02*
X12017444Y-9353869D01*
X12093634Y-9553869D02*
X12103158Y-9544345D01*
X12103158Y-9544345D02*
X12122206Y-9515773D01*
X12122206Y-9515773D02*
X12131729Y-9496726D01*
X12131729Y-9496726D02*
X12141253Y-9468154D01*
X12141253Y-9468154D02*
X12150777Y-9420535D01*
X12150777Y-9420535D02*
X12150777Y-9382440D01*
X12150777Y-9382440D02*
X12141253Y-9334821D01*
X12141253Y-9334821D02*
X12131729Y-9306250D01*
X12131729Y-9306250D02*
X12122206Y-9287202D01*
X12122206Y-9287202D02*
X12103158Y-9258630D01*
X12103158Y-9258630D02*
X12093634Y-9249107D01*
D12*
X7108095Y-9630194D02*
X7108095Y-9670194D01*
X7088095Y-9650194D02*
X7128095Y-9650194D01*
D11*
X7426967Y-9541678D02*
X7446015Y-9541678D01*
X7446015Y-9541678D02*
X7465062Y-9551202D01*
X7465062Y-9551202D02*
X7474586Y-9560726D01*
X7474586Y-9560726D02*
X7484110Y-9579773D01*
X7484110Y-9579773D02*
X7493634Y-9617869D01*
X7493634Y-9617869D02*
X7493634Y-9665488D01*
X7493634Y-9665488D02*
X7484110Y-9703583D01*
X7484110Y-9703583D02*
X7474586Y-9722630D01*
X7474586Y-9722630D02*
X7465062Y-9732154D01*
X7465062Y-9732154D02*
X7446015Y-9741678D01*
X7446015Y-9741678D02*
X7426967Y-9741678D01*
X7426967Y-9741678D02*
X7407919Y-9732154D01*
X7407919Y-9732154D02*
X7398396Y-9722630D01*
X7398396Y-9722630D02*
X7388872Y-9703583D01*
X7388872Y-9703583D02*
X7379348Y-9665488D01*
X7379348Y-9665488D02*
X7379348Y-9617869D01*
X7379348Y-9617869D02*
X7388872Y-9579773D01*
X7388872Y-9579773D02*
X7398396Y-9560726D01*
X7398396Y-9560726D02*
X7407919Y-9551202D01*
X7407919Y-9551202D02*
X7426967Y-9541678D01*
X7579348Y-9722630D02*
X7588872Y-9732154D01*
X7588872Y-9732154D02*
X7579348Y-9741678D01*
X7579348Y-9741678D02*
X7569824Y-9732154D01*
X7569824Y-9732154D02*
X7579348Y-9722630D01*
X7579348Y-9722630D02*
X7579348Y-9741678D01*
X7760300Y-9608345D02*
X7760300Y-9741678D01*
X7712681Y-9532154D02*
X7665062Y-9675011D01*
X7665062Y-9675011D02*
X7788872Y-9675011D01*
X7903157Y-9541678D02*
X7922205Y-9541678D01*
X7922205Y-9541678D02*
X7941253Y-9551202D01*
X7941253Y-9551202D02*
X7950777Y-9560726D01*
X7950777Y-9560726D02*
X7960300Y-9579773D01*
X7960300Y-9579773D02*
X7969824Y-9617869D01*
X7969824Y-9617869D02*
X7969824Y-9665488D01*
X7969824Y-9665488D02*
X7960300Y-9703583D01*
X7960300Y-9703583D02*
X7950777Y-9722630D01*
X7950777Y-9722630D02*
X7941253Y-9732154D01*
X7941253Y-9732154D02*
X7922205Y-9741678D01*
X7922205Y-9741678D02*
X7903157Y-9741678D01*
X7903157Y-9741678D02*
X7884110Y-9732154D01*
X7884110Y-9732154D02*
X7874586Y-9722630D01*
X7874586Y-9722630D02*
X7865062Y-9703583D01*
X7865062Y-9703583D02*
X7855538Y-9665488D01*
X7855538Y-9665488D02*
X7855538Y-9617869D01*
X7855538Y-9617869D02*
X7865062Y-9579773D01*
X7865062Y-9579773D02*
X7874586Y-9560726D01*
X7874586Y-9560726D02*
X7884110Y-9551202D01*
X7884110Y-9551202D02*
X7903157Y-9541678D01*
X8093634Y-9541678D02*
X8112681Y-9541678D01*
X8112681Y-9541678D02*
X8131729Y-9551202D01*
X8131729Y-9551202D02*
X8141253Y-9560726D01*
X8141253Y-9560726D02*
X8150777Y-9579773D01*
X8150777Y-9579773D02*
X8160300Y-9617869D01*
X8160300Y-9617869D02*
X8160300Y-9665488D01*
X8160300Y-9665488D02*
X8150777Y-9703583D01*
X8150777Y-9703583D02*
X8141253Y-9722630D01*
X8141253Y-9722630D02*
X8131729Y-9732154D01*
X8131729Y-9732154D02*
X8112681Y-9741678D01*
X8112681Y-9741678D02*
X8093634Y-9741678D01*
X8093634Y-9741678D02*
X8074586Y-9732154D01*
X8074586Y-9732154D02*
X8065062Y-9722630D01*
X8065062Y-9722630D02*
X8055538Y-9703583D01*
X8055538Y-9703583D02*
X8046015Y-9665488D01*
X8046015Y-9665488D02*
X8046015Y-9617869D01*
X8046015Y-9617869D02*
X8055538Y-9579773D01*
X8055538Y-9579773D02*
X8065062Y-9560726D01*
X8065062Y-9560726D02*
X8074586Y-9551202D01*
X8074586Y-9551202D02*
X8093634Y-9541678D01*
X8246015Y-9741678D02*
X8246015Y-9608345D01*
X8246015Y-9627392D02*
X8255538Y-9617869D01*
X8255538Y-9617869D02*
X8274586Y-9608345D01*
X8274586Y-9608345D02*
X8303158Y-9608345D01*
X8303158Y-9608345D02*
X8322205Y-9617869D01*
X8322205Y-9617869D02*
X8331729Y-9636916D01*
X8331729Y-9636916D02*
X8331729Y-9741678D01*
X8331729Y-9636916D02*
X8341253Y-9617869D01*
X8341253Y-9617869D02*
X8360300Y-9608345D01*
X8360300Y-9608345D02*
X8388872Y-9608345D01*
X8388872Y-9608345D02*
X8407920Y-9617869D01*
X8407920Y-9617869D02*
X8417443Y-9636916D01*
X8417443Y-9636916D02*
X8417443Y-9741678D01*
X8512681Y-9741678D02*
X8512681Y-9608345D01*
X8512681Y-9627392D02*
X8522205Y-9617869D01*
X8522205Y-9617869D02*
X8541253Y-9608345D01*
X8541253Y-9608345D02*
X8569824Y-9608345D01*
X8569824Y-9608345D02*
X8588872Y-9617869D01*
X8588872Y-9617869D02*
X8598396Y-9636916D01*
X8598396Y-9636916D02*
X8598396Y-9741678D01*
X8598396Y-9636916D02*
X8607920Y-9617869D01*
X8607920Y-9617869D02*
X8626967Y-9608345D01*
X8626967Y-9608345D02*
X8655539Y-9608345D01*
X8655539Y-9608345D02*
X8674586Y-9617869D01*
X8674586Y-9617869D02*
X8684110Y-9636916D01*
X8684110Y-9636916D02*
X8684110Y-9741678D01*
X9074586Y-9532154D02*
X8903158Y-9789297D01*
X9331729Y-9541678D02*
X9350777Y-9541678D01*
X9350777Y-9541678D02*
X9369824Y-9551202D01*
X9369824Y-9551202D02*
X9379348Y-9560726D01*
X9379348Y-9560726D02*
X9388872Y-9579773D01*
X9388872Y-9579773D02*
X9398396Y-9617869D01*
X9398396Y-9617869D02*
X9398396Y-9665488D01*
X9398396Y-9665488D02*
X9388872Y-9703583D01*
X9388872Y-9703583D02*
X9379348Y-9722630D01*
X9379348Y-9722630D02*
X9369824Y-9732154D01*
X9369824Y-9732154D02*
X9350777Y-9741678D01*
X9350777Y-9741678D02*
X9331729Y-9741678D01*
X9331729Y-9741678D02*
X9312682Y-9732154D01*
X9312682Y-9732154D02*
X9303158Y-9722630D01*
X9303158Y-9722630D02*
X9293634Y-9703583D01*
X9293634Y-9703583D02*
X9284110Y-9665488D01*
X9284110Y-9665488D02*
X9284110Y-9617869D01*
X9284110Y-9617869D02*
X9293634Y-9579773D01*
X9293634Y-9579773D02*
X9303158Y-9560726D01*
X9303158Y-9560726D02*
X9312682Y-9551202D01*
X9312682Y-9551202D02*
X9331729Y-9541678D01*
X9484110Y-9722630D02*
X9493634Y-9732154D01*
X9493634Y-9732154D02*
X9484110Y-9741678D01*
X9484110Y-9741678D02*
X9474586Y-9732154D01*
X9474586Y-9732154D02*
X9484110Y-9722630D01*
X9484110Y-9722630D02*
X9484110Y-9741678D01*
X9617443Y-9541678D02*
X9636491Y-9541678D01*
X9636491Y-9541678D02*
X9655539Y-9551202D01*
X9655539Y-9551202D02*
X9665063Y-9560726D01*
X9665063Y-9560726D02*
X9674586Y-9579773D01*
X9674586Y-9579773D02*
X9684110Y-9617869D01*
X9684110Y-9617869D02*
X9684110Y-9665488D01*
X9684110Y-9665488D02*
X9674586Y-9703583D01*
X9674586Y-9703583D02*
X9665063Y-9722630D01*
X9665063Y-9722630D02*
X9655539Y-9732154D01*
X9655539Y-9732154D02*
X9636491Y-9741678D01*
X9636491Y-9741678D02*
X9617443Y-9741678D01*
X9617443Y-9741678D02*
X9598396Y-9732154D01*
X9598396Y-9732154D02*
X9588872Y-9722630D01*
X9588872Y-9722630D02*
X9579348Y-9703583D01*
X9579348Y-9703583D02*
X9569824Y-9665488D01*
X9569824Y-9665488D02*
X9569824Y-9617869D01*
X9569824Y-9617869D02*
X9579348Y-9579773D01*
X9579348Y-9579773D02*
X9588872Y-9560726D01*
X9588872Y-9560726D02*
X9598396Y-9551202D01*
X9598396Y-9551202D02*
X9617443Y-9541678D01*
X9874586Y-9741678D02*
X9760301Y-9741678D01*
X9817443Y-9741678D02*
X9817443Y-9541678D01*
X9817443Y-9541678D02*
X9798396Y-9570250D01*
X9798396Y-9570250D02*
X9779348Y-9589297D01*
X9779348Y-9589297D02*
X9760301Y-9598821D01*
X10055539Y-9541678D02*
X9960301Y-9541678D01*
X9960301Y-9541678D02*
X9950777Y-9636916D01*
X9950777Y-9636916D02*
X9960301Y-9627392D01*
X9960301Y-9627392D02*
X9979348Y-9617869D01*
X9979348Y-9617869D02*
X10026967Y-9617869D01*
X10026967Y-9617869D02*
X10046015Y-9627392D01*
X10046015Y-9627392D02*
X10055539Y-9636916D01*
X10055539Y-9636916D02*
X10065063Y-9655964D01*
X10065063Y-9655964D02*
X10065063Y-9703583D01*
X10065063Y-9703583D02*
X10055539Y-9722630D01*
X10055539Y-9722630D02*
X10046015Y-9732154D01*
X10046015Y-9732154D02*
X10026967Y-9741678D01*
X10026967Y-9741678D02*
X9979348Y-9741678D01*
X9979348Y-9741678D02*
X9960301Y-9732154D01*
X9960301Y-9732154D02*
X9950777Y-9722630D01*
X10131729Y-9541678D02*
X10265063Y-9541678D01*
X10265063Y-9541678D02*
X10179348Y-9741678D01*
X10331729Y-9541678D02*
X10331729Y-9579773D01*
X10407920Y-9541678D02*
X10407920Y-9579773D01*
X10703158Y-9817869D02*
X10693634Y-9808345D01*
X10693634Y-9808345D02*
X10674586Y-9779773D01*
X10674586Y-9779773D02*
X10665063Y-9760726D01*
X10665063Y-9760726D02*
X10655539Y-9732154D01*
X10655539Y-9732154D02*
X10646015Y-9684535D01*
X10646015Y-9684535D02*
X10646015Y-9646440D01*
X10646015Y-9646440D02*
X10655539Y-9598821D01*
X10655539Y-9598821D02*
X10665063Y-9570250D01*
X10665063Y-9570250D02*
X10674586Y-9551202D01*
X10674586Y-9551202D02*
X10693634Y-9522630D01*
X10693634Y-9522630D02*
X10703158Y-9513107D01*
X10884110Y-9741678D02*
X10769825Y-9741678D01*
X10826967Y-9741678D02*
X10826967Y-9541678D01*
X10826967Y-9541678D02*
X10807920Y-9570250D01*
X10807920Y-9570250D02*
X10788872Y-9589297D01*
X10788872Y-9589297D02*
X10769825Y-9598821D01*
X11055539Y-9541678D02*
X11017444Y-9541678D01*
X11017444Y-9541678D02*
X10998396Y-9551202D01*
X10998396Y-9551202D02*
X10988872Y-9560726D01*
X10988872Y-9560726D02*
X10969825Y-9589297D01*
X10969825Y-9589297D02*
X10960301Y-9627392D01*
X10960301Y-9627392D02*
X10960301Y-9703583D01*
X10960301Y-9703583D02*
X10969825Y-9722630D01*
X10969825Y-9722630D02*
X10979348Y-9732154D01*
X10979348Y-9732154D02*
X10998396Y-9741678D01*
X10998396Y-9741678D02*
X11036491Y-9741678D01*
X11036491Y-9741678D02*
X11055539Y-9732154D01*
X11055539Y-9732154D02*
X11065063Y-9722630D01*
X11065063Y-9722630D02*
X11074586Y-9703583D01*
X11074586Y-9703583D02*
X11074586Y-9655964D01*
X11074586Y-9655964D02*
X11065063Y-9636916D01*
X11065063Y-9636916D02*
X11055539Y-9627392D01*
X11055539Y-9627392D02*
X11036491Y-9617869D01*
X11036491Y-9617869D02*
X10998396Y-9617869D01*
X10998396Y-9617869D02*
X10979348Y-9627392D01*
X10979348Y-9627392D02*
X10969825Y-9636916D01*
X10969825Y-9636916D02*
X10960301Y-9655964D01*
X11312682Y-9741678D02*
X11312682Y-9541678D01*
X11398396Y-9741678D02*
X11398396Y-9636916D01*
X11398396Y-9636916D02*
X11388872Y-9617869D01*
X11388872Y-9617869D02*
X11369825Y-9608345D01*
X11369825Y-9608345D02*
X11341253Y-9608345D01*
X11341253Y-9608345D02*
X11322205Y-9617869D01*
X11322205Y-9617869D02*
X11312682Y-9627392D01*
X11522205Y-9741678D02*
X11503158Y-9732154D01*
X11503158Y-9732154D02*
X11493634Y-9722630D01*
X11493634Y-9722630D02*
X11484110Y-9703583D01*
X11484110Y-9703583D02*
X11484110Y-9646440D01*
X11484110Y-9646440D02*
X11493634Y-9627392D01*
X11493634Y-9627392D02*
X11503158Y-9617869D01*
X11503158Y-9617869D02*
X11522205Y-9608345D01*
X11522205Y-9608345D02*
X11550777Y-9608345D01*
X11550777Y-9608345D02*
X11569825Y-9617869D01*
X11569825Y-9617869D02*
X11579348Y-9627392D01*
X11579348Y-9627392D02*
X11588872Y-9646440D01*
X11588872Y-9646440D02*
X11588872Y-9703583D01*
X11588872Y-9703583D02*
X11579348Y-9722630D01*
X11579348Y-9722630D02*
X11569825Y-9732154D01*
X11569825Y-9732154D02*
X11550777Y-9741678D01*
X11550777Y-9741678D02*
X11522205Y-9741678D01*
X11703158Y-9741678D02*
X11684110Y-9732154D01*
X11684110Y-9732154D02*
X11674586Y-9713107D01*
X11674586Y-9713107D02*
X11674586Y-9541678D01*
X11855539Y-9732154D02*
X11836491Y-9741678D01*
X11836491Y-9741678D02*
X11798396Y-9741678D01*
X11798396Y-9741678D02*
X11779348Y-9732154D01*
X11779348Y-9732154D02*
X11769825Y-9713107D01*
X11769825Y-9713107D02*
X11769825Y-9636916D01*
X11769825Y-9636916D02*
X11779348Y-9617869D01*
X11779348Y-9617869D02*
X11798396Y-9608345D01*
X11798396Y-9608345D02*
X11836491Y-9608345D01*
X11836491Y-9608345D02*
X11855539Y-9617869D01*
X11855539Y-9617869D02*
X11865063Y-9636916D01*
X11865063Y-9636916D02*
X11865063Y-9655964D01*
X11865063Y-9655964D02*
X11769825Y-9675011D01*
X11941253Y-9732154D02*
X11960301Y-9741678D01*
X11960301Y-9741678D02*
X11998396Y-9741678D01*
X11998396Y-9741678D02*
X12017444Y-9732154D01*
X12017444Y-9732154D02*
X12026967Y-9713107D01*
X12026967Y-9713107D02*
X12026967Y-9703583D01*
X12026967Y-9703583D02*
X12017444Y-9684535D01*
X12017444Y-9684535D02*
X11998396Y-9675011D01*
X11998396Y-9675011D02*
X11969825Y-9675011D01*
X11969825Y-9675011D02*
X11950777Y-9665488D01*
X11950777Y-9665488D02*
X11941253Y-9646440D01*
X11941253Y-9646440D02*
X11941253Y-9636916D01*
X11941253Y-9636916D02*
X11950777Y-9617869D01*
X11950777Y-9617869D02*
X11969825Y-9608345D01*
X11969825Y-9608345D02*
X11998396Y-9608345D01*
X11998396Y-9608345D02*
X12017444Y-9617869D01*
X12093634Y-9817869D02*
X12103158Y-9808345D01*
X12103158Y-9808345D02*
X12122206Y-9779773D01*
X12122206Y-9779773D02*
X12131729Y-9760726D01*
X12131729Y-9760726D02*
X12141253Y-9732154D01*
X12141253Y-9732154D02*
X12150777Y-9684535D01*
X12150777Y-9684535D02*
X12150777Y-9646440D01*
X12150777Y-9646440D02*
X12141253Y-9598821D01*
X12141253Y-9598821D02*
X12131729Y-9570250D01*
X12131729Y-9570250D02*
X12122206Y-9551202D01*
X12122206Y-9551202D02*
X12103158Y-9522630D01*
X12103158Y-9522630D02*
X12093634Y-9513107D01*
D12*
X7113451Y-9949550D02*
X7113451Y-9878839D01*
X7042739Y-9878839D01*
X7042739Y-9949550D01*
X7113451Y-9949550D01*
D11*
X7493634Y-10005678D02*
X7379348Y-10005678D01*
X7436491Y-10005678D02*
X7436491Y-9805678D01*
X7436491Y-9805678D02*
X7417443Y-9834250D01*
X7417443Y-9834250D02*
X7398396Y-9853297D01*
X7398396Y-9853297D02*
X7379348Y-9862821D01*
X7579348Y-9986630D02*
X7588872Y-9996154D01*
X7588872Y-9996154D02*
X7579348Y-10005678D01*
X7579348Y-10005678D02*
X7569824Y-9996154D01*
X7569824Y-9996154D02*
X7579348Y-9986630D01*
X7579348Y-9986630D02*
X7579348Y-10005678D01*
X7712681Y-9805678D02*
X7731729Y-9805678D01*
X7731729Y-9805678D02*
X7750777Y-9815202D01*
X7750777Y-9815202D02*
X7760300Y-9824726D01*
X7760300Y-9824726D02*
X7769824Y-9843773D01*
X7769824Y-9843773D02*
X7779348Y-9881869D01*
X7779348Y-9881869D02*
X7779348Y-9929488D01*
X7779348Y-9929488D02*
X7769824Y-9967583D01*
X7769824Y-9967583D02*
X7760300Y-9986630D01*
X7760300Y-9986630D02*
X7750777Y-9996154D01*
X7750777Y-9996154D02*
X7731729Y-10005678D01*
X7731729Y-10005678D02*
X7712681Y-10005678D01*
X7712681Y-10005678D02*
X7693634Y-9996154D01*
X7693634Y-9996154D02*
X7684110Y-9986630D01*
X7684110Y-9986630D02*
X7674586Y-9967583D01*
X7674586Y-9967583D02*
X7665062Y-9929488D01*
X7665062Y-9929488D02*
X7665062Y-9881869D01*
X7665062Y-9881869D02*
X7674586Y-9843773D01*
X7674586Y-9843773D02*
X7684110Y-9824726D01*
X7684110Y-9824726D02*
X7693634Y-9815202D01*
X7693634Y-9815202D02*
X7712681Y-9805678D01*
X7903157Y-9805678D02*
X7922205Y-9805678D01*
X7922205Y-9805678D02*
X7941253Y-9815202D01*
X7941253Y-9815202D02*
X7950777Y-9824726D01*
X7950777Y-9824726D02*
X7960300Y-9843773D01*
X7960300Y-9843773D02*
X7969824Y-9881869D01*
X7969824Y-9881869D02*
X7969824Y-9929488D01*
X7969824Y-9929488D02*
X7960300Y-9967583D01*
X7960300Y-9967583D02*
X7950777Y-9986630D01*
X7950777Y-9986630D02*
X7941253Y-9996154D01*
X7941253Y-9996154D02*
X7922205Y-10005678D01*
X7922205Y-10005678D02*
X7903157Y-10005678D01*
X7903157Y-10005678D02*
X7884110Y-9996154D01*
X7884110Y-9996154D02*
X7874586Y-9986630D01*
X7874586Y-9986630D02*
X7865062Y-9967583D01*
X7865062Y-9967583D02*
X7855538Y-9929488D01*
X7855538Y-9929488D02*
X7855538Y-9881869D01*
X7855538Y-9881869D02*
X7865062Y-9843773D01*
X7865062Y-9843773D02*
X7874586Y-9824726D01*
X7874586Y-9824726D02*
X7884110Y-9815202D01*
X7884110Y-9815202D02*
X7903157Y-9805678D01*
X8093634Y-9805678D02*
X8112681Y-9805678D01*
X8112681Y-9805678D02*
X8131729Y-9815202D01*
X8131729Y-9815202D02*
X8141253Y-9824726D01*
X8141253Y-9824726D02*
X8150777Y-9843773D01*
X8150777Y-9843773D02*
X8160300Y-9881869D01*
X8160300Y-9881869D02*
X8160300Y-9929488D01*
X8160300Y-9929488D02*
X8150777Y-9967583D01*
X8150777Y-9967583D02*
X8141253Y-9986630D01*
X8141253Y-9986630D02*
X8131729Y-9996154D01*
X8131729Y-9996154D02*
X8112681Y-10005678D01*
X8112681Y-10005678D02*
X8093634Y-10005678D01*
X8093634Y-10005678D02*
X8074586Y-9996154D01*
X8074586Y-9996154D02*
X8065062Y-9986630D01*
X8065062Y-9986630D02*
X8055538Y-9967583D01*
X8055538Y-9967583D02*
X8046015Y-9929488D01*
X8046015Y-9929488D02*
X8046015Y-9881869D01*
X8046015Y-9881869D02*
X8055538Y-9843773D01*
X8055538Y-9843773D02*
X8065062Y-9824726D01*
X8065062Y-9824726D02*
X8074586Y-9815202D01*
X8074586Y-9815202D02*
X8093634Y-9805678D01*
X8246015Y-10005678D02*
X8246015Y-9872345D01*
X8246015Y-9891392D02*
X8255538Y-9881869D01*
X8255538Y-9881869D02*
X8274586Y-9872345D01*
X8274586Y-9872345D02*
X8303158Y-9872345D01*
X8303158Y-9872345D02*
X8322205Y-9881869D01*
X8322205Y-9881869D02*
X8331729Y-9900916D01*
X8331729Y-9900916D02*
X8331729Y-10005678D01*
X8331729Y-9900916D02*
X8341253Y-9881869D01*
X8341253Y-9881869D02*
X8360300Y-9872345D01*
X8360300Y-9872345D02*
X8388872Y-9872345D01*
X8388872Y-9872345D02*
X8407920Y-9881869D01*
X8407920Y-9881869D02*
X8417443Y-9900916D01*
X8417443Y-9900916D02*
X8417443Y-10005678D01*
X8512681Y-10005678D02*
X8512681Y-9872345D01*
X8512681Y-9891392D02*
X8522205Y-9881869D01*
X8522205Y-9881869D02*
X8541253Y-9872345D01*
X8541253Y-9872345D02*
X8569824Y-9872345D01*
X8569824Y-9872345D02*
X8588872Y-9881869D01*
X8588872Y-9881869D02*
X8598396Y-9900916D01*
X8598396Y-9900916D02*
X8598396Y-10005678D01*
X8598396Y-9900916D02*
X8607920Y-9881869D01*
X8607920Y-9881869D02*
X8626967Y-9872345D01*
X8626967Y-9872345D02*
X8655539Y-9872345D01*
X8655539Y-9872345D02*
X8674586Y-9881869D01*
X8674586Y-9881869D02*
X8684110Y-9900916D01*
X8684110Y-9900916D02*
X8684110Y-10005678D01*
X9074586Y-9796154D02*
X8903158Y-10053297D01*
X9331729Y-9805678D02*
X9350777Y-9805678D01*
X9350777Y-9805678D02*
X9369824Y-9815202D01*
X9369824Y-9815202D02*
X9379348Y-9824726D01*
X9379348Y-9824726D02*
X9388872Y-9843773D01*
X9388872Y-9843773D02*
X9398396Y-9881869D01*
X9398396Y-9881869D02*
X9398396Y-9929488D01*
X9398396Y-9929488D02*
X9388872Y-9967583D01*
X9388872Y-9967583D02*
X9379348Y-9986630D01*
X9379348Y-9986630D02*
X9369824Y-9996154D01*
X9369824Y-9996154D02*
X9350777Y-10005678D01*
X9350777Y-10005678D02*
X9331729Y-10005678D01*
X9331729Y-10005678D02*
X9312682Y-9996154D01*
X9312682Y-9996154D02*
X9303158Y-9986630D01*
X9303158Y-9986630D02*
X9293634Y-9967583D01*
X9293634Y-9967583D02*
X9284110Y-9929488D01*
X9284110Y-9929488D02*
X9284110Y-9881869D01*
X9284110Y-9881869D02*
X9293634Y-9843773D01*
X9293634Y-9843773D02*
X9303158Y-9824726D01*
X9303158Y-9824726D02*
X9312682Y-9815202D01*
X9312682Y-9815202D02*
X9331729Y-9805678D01*
X9484110Y-9986630D02*
X9493634Y-9996154D01*
X9493634Y-9996154D02*
X9484110Y-10005678D01*
X9484110Y-10005678D02*
X9474586Y-9996154D01*
X9474586Y-9996154D02*
X9484110Y-9986630D01*
X9484110Y-9986630D02*
X9484110Y-10005678D01*
X9617443Y-9805678D02*
X9636491Y-9805678D01*
X9636491Y-9805678D02*
X9655539Y-9815202D01*
X9655539Y-9815202D02*
X9665063Y-9824726D01*
X9665063Y-9824726D02*
X9674586Y-9843773D01*
X9674586Y-9843773D02*
X9684110Y-9881869D01*
X9684110Y-9881869D02*
X9684110Y-9929488D01*
X9684110Y-9929488D02*
X9674586Y-9967583D01*
X9674586Y-9967583D02*
X9665063Y-9986630D01*
X9665063Y-9986630D02*
X9655539Y-9996154D01*
X9655539Y-9996154D02*
X9636491Y-10005678D01*
X9636491Y-10005678D02*
X9617443Y-10005678D01*
X9617443Y-10005678D02*
X9598396Y-9996154D01*
X9598396Y-9996154D02*
X9588872Y-9986630D01*
X9588872Y-9986630D02*
X9579348Y-9967583D01*
X9579348Y-9967583D02*
X9569824Y-9929488D01*
X9569824Y-9929488D02*
X9569824Y-9881869D01*
X9569824Y-9881869D02*
X9579348Y-9843773D01*
X9579348Y-9843773D02*
X9588872Y-9824726D01*
X9588872Y-9824726D02*
X9598396Y-9815202D01*
X9598396Y-9815202D02*
X9617443Y-9805678D01*
X9750777Y-9805678D02*
X9874586Y-9805678D01*
X9874586Y-9805678D02*
X9807920Y-9881869D01*
X9807920Y-9881869D02*
X9836491Y-9881869D01*
X9836491Y-9881869D02*
X9855539Y-9891392D01*
X9855539Y-9891392D02*
X9865063Y-9900916D01*
X9865063Y-9900916D02*
X9874586Y-9919964D01*
X9874586Y-9919964D02*
X9874586Y-9967583D01*
X9874586Y-9967583D02*
X9865063Y-9986630D01*
X9865063Y-9986630D02*
X9855539Y-9996154D01*
X9855539Y-9996154D02*
X9836491Y-10005678D01*
X9836491Y-10005678D02*
X9779348Y-10005678D01*
X9779348Y-10005678D02*
X9760301Y-9996154D01*
X9760301Y-9996154D02*
X9750777Y-9986630D01*
X9969824Y-10005678D02*
X10007920Y-10005678D01*
X10007920Y-10005678D02*
X10026967Y-9996154D01*
X10026967Y-9996154D02*
X10036491Y-9986630D01*
X10036491Y-9986630D02*
X10055539Y-9958059D01*
X10055539Y-9958059D02*
X10065063Y-9919964D01*
X10065063Y-9919964D02*
X10065063Y-9843773D01*
X10065063Y-9843773D02*
X10055539Y-9824726D01*
X10055539Y-9824726D02*
X10046015Y-9815202D01*
X10046015Y-9815202D02*
X10026967Y-9805678D01*
X10026967Y-9805678D02*
X9988872Y-9805678D01*
X9988872Y-9805678D02*
X9969824Y-9815202D01*
X9969824Y-9815202D02*
X9960301Y-9824726D01*
X9960301Y-9824726D02*
X9950777Y-9843773D01*
X9950777Y-9843773D02*
X9950777Y-9891392D01*
X9950777Y-9891392D02*
X9960301Y-9910440D01*
X9960301Y-9910440D02*
X9969824Y-9919964D01*
X9969824Y-9919964D02*
X9988872Y-9929488D01*
X9988872Y-9929488D02*
X10026967Y-9929488D01*
X10026967Y-9929488D02*
X10046015Y-9919964D01*
X10046015Y-9919964D02*
X10055539Y-9910440D01*
X10055539Y-9910440D02*
X10065063Y-9891392D01*
X10236491Y-9872345D02*
X10236491Y-10005678D01*
X10188872Y-9796154D02*
X10141253Y-9939011D01*
X10141253Y-9939011D02*
X10265063Y-9939011D01*
X10331729Y-9805678D02*
X10331729Y-9843773D01*
X10407920Y-9805678D02*
X10407920Y-9843773D01*
X10703158Y-10081869D02*
X10693634Y-10072345D01*
X10693634Y-10072345D02*
X10674586Y-10043773D01*
X10674586Y-10043773D02*
X10665063Y-10024726D01*
X10665063Y-10024726D02*
X10655539Y-9996154D01*
X10655539Y-9996154D02*
X10646015Y-9948535D01*
X10646015Y-9948535D02*
X10646015Y-9910440D01*
X10646015Y-9910440D02*
X10655539Y-9862821D01*
X10655539Y-9862821D02*
X10665063Y-9834250D01*
X10665063Y-9834250D02*
X10674586Y-9815202D01*
X10674586Y-9815202D02*
X10693634Y-9786630D01*
X10693634Y-9786630D02*
X10703158Y-9777107D01*
X10865063Y-9872345D02*
X10865063Y-10005678D01*
X10817444Y-9796154D02*
X10769825Y-9939011D01*
X10769825Y-9939011D02*
X10893634Y-9939011D01*
X11122206Y-10005678D02*
X11122206Y-9805678D01*
X11207920Y-10005678D02*
X11207920Y-9900916D01*
X11207920Y-9900916D02*
X11198396Y-9881869D01*
X11198396Y-9881869D02*
X11179348Y-9872345D01*
X11179348Y-9872345D02*
X11150777Y-9872345D01*
X11150777Y-9872345D02*
X11131729Y-9881869D01*
X11131729Y-9881869D02*
X11122206Y-9891392D01*
X11331729Y-10005678D02*
X11312682Y-9996154D01*
X11312682Y-9996154D02*
X11303158Y-9986630D01*
X11303158Y-9986630D02*
X11293634Y-9967583D01*
X11293634Y-9967583D02*
X11293634Y-9910440D01*
X11293634Y-9910440D02*
X11303158Y-9891392D01*
X11303158Y-9891392D02*
X11312682Y-9881869D01*
X11312682Y-9881869D02*
X11331729Y-9872345D01*
X11331729Y-9872345D02*
X11360301Y-9872345D01*
X11360301Y-9872345D02*
X11379348Y-9881869D01*
X11379348Y-9881869D02*
X11388872Y-9891392D01*
X11388872Y-9891392D02*
X11398396Y-9910440D01*
X11398396Y-9910440D02*
X11398396Y-9967583D01*
X11398396Y-9967583D02*
X11388872Y-9986630D01*
X11388872Y-9986630D02*
X11379348Y-9996154D01*
X11379348Y-9996154D02*
X11360301Y-10005678D01*
X11360301Y-10005678D02*
X11331729Y-10005678D01*
X11512682Y-10005678D02*
X11493634Y-9996154D01*
X11493634Y-9996154D02*
X11484110Y-9977107D01*
X11484110Y-9977107D02*
X11484110Y-9805678D01*
X11665063Y-9996154D02*
X11646015Y-10005678D01*
X11646015Y-10005678D02*
X11607920Y-10005678D01*
X11607920Y-10005678D02*
X11588872Y-9996154D01*
X11588872Y-9996154D02*
X11579348Y-9977107D01*
X11579348Y-9977107D02*
X11579348Y-9900916D01*
X11579348Y-9900916D02*
X11588872Y-9881869D01*
X11588872Y-9881869D02*
X11607920Y-9872345D01*
X11607920Y-9872345D02*
X11646015Y-9872345D01*
X11646015Y-9872345D02*
X11665063Y-9881869D01*
X11665063Y-9881869D02*
X11674586Y-9900916D01*
X11674586Y-9900916D02*
X11674586Y-9919964D01*
X11674586Y-9919964D02*
X11579348Y-9939011D01*
X11750777Y-9996154D02*
X11769825Y-10005678D01*
X11769825Y-10005678D02*
X11807920Y-10005678D01*
X11807920Y-10005678D02*
X11826967Y-9996154D01*
X11826967Y-9996154D02*
X11836491Y-9977107D01*
X11836491Y-9977107D02*
X11836491Y-9967583D01*
X11836491Y-9967583D02*
X11826967Y-9948535D01*
X11826967Y-9948535D02*
X11807920Y-9939011D01*
X11807920Y-9939011D02*
X11779348Y-9939011D01*
X11779348Y-9939011D02*
X11760301Y-9929488D01*
X11760301Y-9929488D02*
X11750777Y-9910440D01*
X11750777Y-9910440D02*
X11750777Y-9900916D01*
X11750777Y-9900916D02*
X11760301Y-9881869D01*
X11760301Y-9881869D02*
X11779348Y-9872345D01*
X11779348Y-9872345D02*
X11807920Y-9872345D01*
X11807920Y-9872345D02*
X11826967Y-9881869D01*
X11903158Y-10081869D02*
X11912682Y-10072345D01*
X11912682Y-10072345D02*
X11931729Y-10043773D01*
X11931729Y-10043773D02*
X11941253Y-10024726D01*
X11941253Y-10024726D02*
X11950777Y-9996154D01*
X11950777Y-9996154D02*
X11960301Y-9948535D01*
X11960301Y-9948535D02*
X11960301Y-9910440D01*
X11960301Y-9910440D02*
X11950777Y-9862821D01*
X11950777Y-9862821D02*
X11941253Y-9834250D01*
X11941253Y-9834250D02*
X11931729Y-9815202D01*
X11931729Y-9815202D02*
X11912682Y-9786630D01*
X11912682Y-9786630D02*
X11903158Y-9777107D01*
D12*
X7078095Y-10228194D02*
X7128095Y-10178194D01*
X7078095Y-10128194D01*
X7028095Y-10178194D01*
X7078095Y-10228194D01*
D11*
X7493634Y-10269678D02*
X7379348Y-10269678D01*
X7436491Y-10269678D02*
X7436491Y-10069678D01*
X7436491Y-10069678D02*
X7417443Y-10098250D01*
X7417443Y-10098250D02*
X7398396Y-10117297D01*
X7398396Y-10117297D02*
X7379348Y-10126821D01*
X7579348Y-10250630D02*
X7588872Y-10260154D01*
X7588872Y-10260154D02*
X7579348Y-10269678D01*
X7579348Y-10269678D02*
X7569824Y-10260154D01*
X7569824Y-10260154D02*
X7579348Y-10250630D01*
X7579348Y-10250630D02*
X7579348Y-10269678D01*
X7712681Y-10069678D02*
X7731729Y-10069678D01*
X7731729Y-10069678D02*
X7750777Y-10079202D01*
X7750777Y-10079202D02*
X7760300Y-10088726D01*
X7760300Y-10088726D02*
X7769824Y-10107773D01*
X7769824Y-10107773D02*
X7779348Y-10145869D01*
X7779348Y-10145869D02*
X7779348Y-10193488D01*
X7779348Y-10193488D02*
X7769824Y-10231583D01*
X7769824Y-10231583D02*
X7760300Y-10250630D01*
X7760300Y-10250630D02*
X7750777Y-10260154D01*
X7750777Y-10260154D02*
X7731729Y-10269678D01*
X7731729Y-10269678D02*
X7712681Y-10269678D01*
X7712681Y-10269678D02*
X7693634Y-10260154D01*
X7693634Y-10260154D02*
X7684110Y-10250630D01*
X7684110Y-10250630D02*
X7674586Y-10231583D01*
X7674586Y-10231583D02*
X7665062Y-10193488D01*
X7665062Y-10193488D02*
X7665062Y-10145869D01*
X7665062Y-10145869D02*
X7674586Y-10107773D01*
X7674586Y-10107773D02*
X7684110Y-10088726D01*
X7684110Y-10088726D02*
X7693634Y-10079202D01*
X7693634Y-10079202D02*
X7712681Y-10069678D01*
X7903157Y-10069678D02*
X7922205Y-10069678D01*
X7922205Y-10069678D02*
X7941253Y-10079202D01*
X7941253Y-10079202D02*
X7950777Y-10088726D01*
X7950777Y-10088726D02*
X7960300Y-10107773D01*
X7960300Y-10107773D02*
X7969824Y-10145869D01*
X7969824Y-10145869D02*
X7969824Y-10193488D01*
X7969824Y-10193488D02*
X7960300Y-10231583D01*
X7960300Y-10231583D02*
X7950777Y-10250630D01*
X7950777Y-10250630D02*
X7941253Y-10260154D01*
X7941253Y-10260154D02*
X7922205Y-10269678D01*
X7922205Y-10269678D02*
X7903157Y-10269678D01*
X7903157Y-10269678D02*
X7884110Y-10260154D01*
X7884110Y-10260154D02*
X7874586Y-10250630D01*
X7874586Y-10250630D02*
X7865062Y-10231583D01*
X7865062Y-10231583D02*
X7855538Y-10193488D01*
X7855538Y-10193488D02*
X7855538Y-10145869D01*
X7855538Y-10145869D02*
X7865062Y-10107773D01*
X7865062Y-10107773D02*
X7874586Y-10088726D01*
X7874586Y-10088726D02*
X7884110Y-10079202D01*
X7884110Y-10079202D02*
X7903157Y-10069678D01*
X8093634Y-10069678D02*
X8112681Y-10069678D01*
X8112681Y-10069678D02*
X8131729Y-10079202D01*
X8131729Y-10079202D02*
X8141253Y-10088726D01*
X8141253Y-10088726D02*
X8150777Y-10107773D01*
X8150777Y-10107773D02*
X8160300Y-10145869D01*
X8160300Y-10145869D02*
X8160300Y-10193488D01*
X8160300Y-10193488D02*
X8150777Y-10231583D01*
X8150777Y-10231583D02*
X8141253Y-10250630D01*
X8141253Y-10250630D02*
X8131729Y-10260154D01*
X8131729Y-10260154D02*
X8112681Y-10269678D01*
X8112681Y-10269678D02*
X8093634Y-10269678D01*
X8093634Y-10269678D02*
X8074586Y-10260154D01*
X8074586Y-10260154D02*
X8065062Y-10250630D01*
X8065062Y-10250630D02*
X8055538Y-10231583D01*
X8055538Y-10231583D02*
X8046015Y-10193488D01*
X8046015Y-10193488D02*
X8046015Y-10145869D01*
X8046015Y-10145869D02*
X8055538Y-10107773D01*
X8055538Y-10107773D02*
X8065062Y-10088726D01*
X8065062Y-10088726D02*
X8074586Y-10079202D01*
X8074586Y-10079202D02*
X8093634Y-10069678D01*
X8246015Y-10269678D02*
X8246015Y-10136345D01*
X8246015Y-10155392D02*
X8255538Y-10145869D01*
X8255538Y-10145869D02*
X8274586Y-10136345D01*
X8274586Y-10136345D02*
X8303158Y-10136345D01*
X8303158Y-10136345D02*
X8322205Y-10145869D01*
X8322205Y-10145869D02*
X8331729Y-10164916D01*
X8331729Y-10164916D02*
X8331729Y-10269678D01*
X8331729Y-10164916D02*
X8341253Y-10145869D01*
X8341253Y-10145869D02*
X8360300Y-10136345D01*
X8360300Y-10136345D02*
X8388872Y-10136345D01*
X8388872Y-10136345D02*
X8407920Y-10145869D01*
X8407920Y-10145869D02*
X8417443Y-10164916D01*
X8417443Y-10164916D02*
X8417443Y-10269678D01*
X8512681Y-10269678D02*
X8512681Y-10136345D01*
X8512681Y-10155392D02*
X8522205Y-10145869D01*
X8522205Y-10145869D02*
X8541253Y-10136345D01*
X8541253Y-10136345D02*
X8569824Y-10136345D01*
X8569824Y-10136345D02*
X8588872Y-10145869D01*
X8588872Y-10145869D02*
X8598396Y-10164916D01*
X8598396Y-10164916D02*
X8598396Y-10269678D01*
X8598396Y-10164916D02*
X8607920Y-10145869D01*
X8607920Y-10145869D02*
X8626967Y-10136345D01*
X8626967Y-10136345D02*
X8655539Y-10136345D01*
X8655539Y-10136345D02*
X8674586Y-10145869D01*
X8674586Y-10145869D02*
X8684110Y-10164916D01*
X8684110Y-10164916D02*
X8684110Y-10269678D01*
X9074586Y-10060154D02*
X8903158Y-10317297D01*
X9331729Y-10069678D02*
X9350777Y-10069678D01*
X9350777Y-10069678D02*
X9369824Y-10079202D01*
X9369824Y-10079202D02*
X9379348Y-10088726D01*
X9379348Y-10088726D02*
X9388872Y-10107773D01*
X9388872Y-10107773D02*
X9398396Y-10145869D01*
X9398396Y-10145869D02*
X9398396Y-10193488D01*
X9398396Y-10193488D02*
X9388872Y-10231583D01*
X9388872Y-10231583D02*
X9379348Y-10250630D01*
X9379348Y-10250630D02*
X9369824Y-10260154D01*
X9369824Y-10260154D02*
X9350777Y-10269678D01*
X9350777Y-10269678D02*
X9331729Y-10269678D01*
X9331729Y-10269678D02*
X9312682Y-10260154D01*
X9312682Y-10260154D02*
X9303158Y-10250630D01*
X9303158Y-10250630D02*
X9293634Y-10231583D01*
X9293634Y-10231583D02*
X9284110Y-10193488D01*
X9284110Y-10193488D02*
X9284110Y-10145869D01*
X9284110Y-10145869D02*
X9293634Y-10107773D01*
X9293634Y-10107773D02*
X9303158Y-10088726D01*
X9303158Y-10088726D02*
X9312682Y-10079202D01*
X9312682Y-10079202D02*
X9331729Y-10069678D01*
X9484110Y-10250630D02*
X9493634Y-10260154D01*
X9493634Y-10260154D02*
X9484110Y-10269678D01*
X9484110Y-10269678D02*
X9474586Y-10260154D01*
X9474586Y-10260154D02*
X9484110Y-10250630D01*
X9484110Y-10250630D02*
X9484110Y-10269678D01*
X9617443Y-10069678D02*
X9636491Y-10069678D01*
X9636491Y-10069678D02*
X9655539Y-10079202D01*
X9655539Y-10079202D02*
X9665063Y-10088726D01*
X9665063Y-10088726D02*
X9674586Y-10107773D01*
X9674586Y-10107773D02*
X9684110Y-10145869D01*
X9684110Y-10145869D02*
X9684110Y-10193488D01*
X9684110Y-10193488D02*
X9674586Y-10231583D01*
X9674586Y-10231583D02*
X9665063Y-10250630D01*
X9665063Y-10250630D02*
X9655539Y-10260154D01*
X9655539Y-10260154D02*
X9636491Y-10269678D01*
X9636491Y-10269678D02*
X9617443Y-10269678D01*
X9617443Y-10269678D02*
X9598396Y-10260154D01*
X9598396Y-10260154D02*
X9588872Y-10250630D01*
X9588872Y-10250630D02*
X9579348Y-10231583D01*
X9579348Y-10231583D02*
X9569824Y-10193488D01*
X9569824Y-10193488D02*
X9569824Y-10145869D01*
X9569824Y-10145869D02*
X9579348Y-10107773D01*
X9579348Y-10107773D02*
X9588872Y-10088726D01*
X9588872Y-10088726D02*
X9598396Y-10079202D01*
X9598396Y-10079202D02*
X9617443Y-10069678D01*
X9750777Y-10069678D02*
X9874586Y-10069678D01*
X9874586Y-10069678D02*
X9807920Y-10145869D01*
X9807920Y-10145869D02*
X9836491Y-10145869D01*
X9836491Y-10145869D02*
X9855539Y-10155392D01*
X9855539Y-10155392D02*
X9865063Y-10164916D01*
X9865063Y-10164916D02*
X9874586Y-10183964D01*
X9874586Y-10183964D02*
X9874586Y-10231583D01*
X9874586Y-10231583D02*
X9865063Y-10250630D01*
X9865063Y-10250630D02*
X9855539Y-10260154D01*
X9855539Y-10260154D02*
X9836491Y-10269678D01*
X9836491Y-10269678D02*
X9779348Y-10269678D01*
X9779348Y-10269678D02*
X9760301Y-10260154D01*
X9760301Y-10260154D02*
X9750777Y-10250630D01*
X9969824Y-10269678D02*
X10007920Y-10269678D01*
X10007920Y-10269678D02*
X10026967Y-10260154D01*
X10026967Y-10260154D02*
X10036491Y-10250630D01*
X10036491Y-10250630D02*
X10055539Y-10222059D01*
X10055539Y-10222059D02*
X10065063Y-10183964D01*
X10065063Y-10183964D02*
X10065063Y-10107773D01*
X10065063Y-10107773D02*
X10055539Y-10088726D01*
X10055539Y-10088726D02*
X10046015Y-10079202D01*
X10046015Y-10079202D02*
X10026967Y-10069678D01*
X10026967Y-10069678D02*
X9988872Y-10069678D01*
X9988872Y-10069678D02*
X9969824Y-10079202D01*
X9969824Y-10079202D02*
X9960301Y-10088726D01*
X9960301Y-10088726D02*
X9950777Y-10107773D01*
X9950777Y-10107773D02*
X9950777Y-10155392D01*
X9950777Y-10155392D02*
X9960301Y-10174440D01*
X9960301Y-10174440D02*
X9969824Y-10183964D01*
X9969824Y-10183964D02*
X9988872Y-10193488D01*
X9988872Y-10193488D02*
X10026967Y-10193488D01*
X10026967Y-10193488D02*
X10046015Y-10183964D01*
X10046015Y-10183964D02*
X10055539Y-10174440D01*
X10055539Y-10174440D02*
X10065063Y-10155392D01*
X10236491Y-10136345D02*
X10236491Y-10269678D01*
X10188872Y-10060154D02*
X10141253Y-10203011D01*
X10141253Y-10203011D02*
X10265063Y-10203011D01*
X10331729Y-10069678D02*
X10331729Y-10107773D01*
X10407920Y-10069678D02*
X10407920Y-10107773D01*
X10703158Y-10345869D02*
X10693634Y-10336345D01*
X10693634Y-10336345D02*
X10674586Y-10307773D01*
X10674586Y-10307773D02*
X10665063Y-10288726D01*
X10665063Y-10288726D02*
X10655539Y-10260154D01*
X10655539Y-10260154D02*
X10646015Y-10212535D01*
X10646015Y-10212535D02*
X10646015Y-10174440D01*
X10646015Y-10174440D02*
X10655539Y-10126821D01*
X10655539Y-10126821D02*
X10665063Y-10098250D01*
X10665063Y-10098250D02*
X10674586Y-10079202D01*
X10674586Y-10079202D02*
X10693634Y-10050630D01*
X10693634Y-10050630D02*
X10703158Y-10041107D01*
X10760301Y-10069678D02*
X10893634Y-10069678D01*
X10893634Y-10069678D02*
X10807920Y-10269678D01*
X11122206Y-10269678D02*
X11122206Y-10069678D01*
X11207920Y-10269678D02*
X11207920Y-10164916D01*
X11207920Y-10164916D02*
X11198396Y-10145869D01*
X11198396Y-10145869D02*
X11179348Y-10136345D01*
X11179348Y-10136345D02*
X11150777Y-10136345D01*
X11150777Y-10136345D02*
X11131729Y-10145869D01*
X11131729Y-10145869D02*
X11122206Y-10155392D01*
X11331729Y-10269678D02*
X11312682Y-10260154D01*
X11312682Y-10260154D02*
X11303158Y-10250630D01*
X11303158Y-10250630D02*
X11293634Y-10231583D01*
X11293634Y-10231583D02*
X11293634Y-10174440D01*
X11293634Y-10174440D02*
X11303158Y-10155392D01*
X11303158Y-10155392D02*
X11312682Y-10145869D01*
X11312682Y-10145869D02*
X11331729Y-10136345D01*
X11331729Y-10136345D02*
X11360301Y-10136345D01*
X11360301Y-10136345D02*
X11379348Y-10145869D01*
X11379348Y-10145869D02*
X11388872Y-10155392D01*
X11388872Y-10155392D02*
X11398396Y-10174440D01*
X11398396Y-10174440D02*
X11398396Y-10231583D01*
X11398396Y-10231583D02*
X11388872Y-10250630D01*
X11388872Y-10250630D02*
X11379348Y-10260154D01*
X11379348Y-10260154D02*
X11360301Y-10269678D01*
X11360301Y-10269678D02*
X11331729Y-10269678D01*
X11512682Y-10269678D02*
X11493634Y-10260154D01*
X11493634Y-10260154D02*
X11484110Y-10241107D01*
X11484110Y-10241107D02*
X11484110Y-10069678D01*
X11665063Y-10260154D02*
X11646015Y-10269678D01*
X11646015Y-10269678D02*
X11607920Y-10269678D01*
X11607920Y-10269678D02*
X11588872Y-10260154D01*
X11588872Y-10260154D02*
X11579348Y-10241107D01*
X11579348Y-10241107D02*
X11579348Y-10164916D01*
X11579348Y-10164916D02*
X11588872Y-10145869D01*
X11588872Y-10145869D02*
X11607920Y-10136345D01*
X11607920Y-10136345D02*
X11646015Y-10136345D01*
X11646015Y-10136345D02*
X11665063Y-10145869D01*
X11665063Y-10145869D02*
X11674586Y-10164916D01*
X11674586Y-10164916D02*
X11674586Y-10183964D01*
X11674586Y-10183964D02*
X11579348Y-10203011D01*
X11750777Y-10260154D02*
X11769825Y-10269678D01*
X11769825Y-10269678D02*
X11807920Y-10269678D01*
X11807920Y-10269678D02*
X11826967Y-10260154D01*
X11826967Y-10260154D02*
X11836491Y-10241107D01*
X11836491Y-10241107D02*
X11836491Y-10231583D01*
X11836491Y-10231583D02*
X11826967Y-10212535D01*
X11826967Y-10212535D02*
X11807920Y-10203011D01*
X11807920Y-10203011D02*
X11779348Y-10203011D01*
X11779348Y-10203011D02*
X11760301Y-10193488D01*
X11760301Y-10193488D02*
X11750777Y-10174440D01*
X11750777Y-10174440D02*
X11750777Y-10164916D01*
X11750777Y-10164916D02*
X11760301Y-10145869D01*
X11760301Y-10145869D02*
X11779348Y-10136345D01*
X11779348Y-10136345D02*
X11807920Y-10136345D01*
X11807920Y-10136345D02*
X11826967Y-10145869D01*
X11903158Y-10345869D02*
X11912682Y-10336345D01*
X11912682Y-10336345D02*
X11931729Y-10307773D01*
X11931729Y-10307773D02*
X11941253Y-10288726D01*
X11941253Y-10288726D02*
X11950777Y-10260154D01*
X11950777Y-10260154D02*
X11960301Y-10212535D01*
X11960301Y-10212535D02*
X11960301Y-10174440D01*
X11960301Y-10174440D02*
X11950777Y-10126821D01*
X11950777Y-10126821D02*
X11941253Y-10098250D01*
X11941253Y-10098250D02*
X11931729Y-10079202D01*
X11931729Y-10079202D02*
X11912682Y-10050630D01*
X11912682Y-10050630D02*
X11903158Y-10041107D01*
X6928095Y-10342194D02*
X7128095Y-10542194D01*
X7128095Y-10342194D02*
X6928095Y-10542194D01*
X7128095Y-10442194D02*
G75*
G02*
X6928095Y-10442194I-100000J0D01*
G01*
X6928095Y-10442194D02*
G75*
G02*
X7128095Y-10442194I100000J0D01*
G01*
X7379348Y-10352726D02*
X7388872Y-10343202D01*
X7388872Y-10343202D02*
X7407919Y-10333678D01*
X7407919Y-10333678D02*
X7455538Y-10333678D01*
X7455538Y-10333678D02*
X7474586Y-10343202D01*
X7474586Y-10343202D02*
X7484110Y-10352726D01*
X7484110Y-10352726D02*
X7493634Y-10371773D01*
X7493634Y-10371773D02*
X7493634Y-10390821D01*
X7493634Y-10390821D02*
X7484110Y-10419392D01*
X7484110Y-10419392D02*
X7369824Y-10533678D01*
X7369824Y-10533678D02*
X7493634Y-10533678D01*
X7579348Y-10514630D02*
X7588872Y-10524154D01*
X7588872Y-10524154D02*
X7579348Y-10533678D01*
X7579348Y-10533678D02*
X7569824Y-10524154D01*
X7569824Y-10524154D02*
X7579348Y-10514630D01*
X7579348Y-10514630D02*
X7579348Y-10533678D01*
X7665062Y-10352726D02*
X7674586Y-10343202D01*
X7674586Y-10343202D02*
X7693634Y-10333678D01*
X7693634Y-10333678D02*
X7741253Y-10333678D01*
X7741253Y-10333678D02*
X7760300Y-10343202D01*
X7760300Y-10343202D02*
X7769824Y-10352726D01*
X7769824Y-10352726D02*
X7779348Y-10371773D01*
X7779348Y-10371773D02*
X7779348Y-10390821D01*
X7779348Y-10390821D02*
X7769824Y-10419392D01*
X7769824Y-10419392D02*
X7655538Y-10533678D01*
X7655538Y-10533678D02*
X7779348Y-10533678D01*
X7903157Y-10333678D02*
X7922205Y-10333678D01*
X7922205Y-10333678D02*
X7941253Y-10343202D01*
X7941253Y-10343202D02*
X7950777Y-10352726D01*
X7950777Y-10352726D02*
X7960300Y-10371773D01*
X7960300Y-10371773D02*
X7969824Y-10409869D01*
X7969824Y-10409869D02*
X7969824Y-10457488D01*
X7969824Y-10457488D02*
X7960300Y-10495583D01*
X7960300Y-10495583D02*
X7950777Y-10514630D01*
X7950777Y-10514630D02*
X7941253Y-10524154D01*
X7941253Y-10524154D02*
X7922205Y-10533678D01*
X7922205Y-10533678D02*
X7903157Y-10533678D01*
X7903157Y-10533678D02*
X7884110Y-10524154D01*
X7884110Y-10524154D02*
X7874586Y-10514630D01*
X7874586Y-10514630D02*
X7865062Y-10495583D01*
X7865062Y-10495583D02*
X7855538Y-10457488D01*
X7855538Y-10457488D02*
X7855538Y-10409869D01*
X7855538Y-10409869D02*
X7865062Y-10371773D01*
X7865062Y-10371773D02*
X7874586Y-10352726D01*
X7874586Y-10352726D02*
X7884110Y-10343202D01*
X7884110Y-10343202D02*
X7903157Y-10333678D01*
X8093634Y-10333678D02*
X8112681Y-10333678D01*
X8112681Y-10333678D02*
X8131729Y-10343202D01*
X8131729Y-10343202D02*
X8141253Y-10352726D01*
X8141253Y-10352726D02*
X8150777Y-10371773D01*
X8150777Y-10371773D02*
X8160300Y-10409869D01*
X8160300Y-10409869D02*
X8160300Y-10457488D01*
X8160300Y-10457488D02*
X8150777Y-10495583D01*
X8150777Y-10495583D02*
X8141253Y-10514630D01*
X8141253Y-10514630D02*
X8131729Y-10524154D01*
X8131729Y-10524154D02*
X8112681Y-10533678D01*
X8112681Y-10533678D02*
X8093634Y-10533678D01*
X8093634Y-10533678D02*
X8074586Y-10524154D01*
X8074586Y-10524154D02*
X8065062Y-10514630D01*
X8065062Y-10514630D02*
X8055538Y-10495583D01*
X8055538Y-10495583D02*
X8046015Y-10457488D01*
X8046015Y-10457488D02*
X8046015Y-10409869D01*
X8046015Y-10409869D02*
X8055538Y-10371773D01*
X8055538Y-10371773D02*
X8065062Y-10352726D01*
X8065062Y-10352726D02*
X8074586Y-10343202D01*
X8074586Y-10343202D02*
X8093634Y-10333678D01*
X8246015Y-10533678D02*
X8246015Y-10400345D01*
X8246015Y-10419392D02*
X8255538Y-10409869D01*
X8255538Y-10409869D02*
X8274586Y-10400345D01*
X8274586Y-10400345D02*
X8303158Y-10400345D01*
X8303158Y-10400345D02*
X8322205Y-10409869D01*
X8322205Y-10409869D02*
X8331729Y-10428916D01*
X8331729Y-10428916D02*
X8331729Y-10533678D01*
X8331729Y-10428916D02*
X8341253Y-10409869D01*
X8341253Y-10409869D02*
X8360300Y-10400345D01*
X8360300Y-10400345D02*
X8388872Y-10400345D01*
X8388872Y-10400345D02*
X8407920Y-10409869D01*
X8407920Y-10409869D02*
X8417443Y-10428916D01*
X8417443Y-10428916D02*
X8417443Y-10533678D01*
X8512681Y-10533678D02*
X8512681Y-10400345D01*
X8512681Y-10419392D02*
X8522205Y-10409869D01*
X8522205Y-10409869D02*
X8541253Y-10400345D01*
X8541253Y-10400345D02*
X8569824Y-10400345D01*
X8569824Y-10400345D02*
X8588872Y-10409869D01*
X8588872Y-10409869D02*
X8598396Y-10428916D01*
X8598396Y-10428916D02*
X8598396Y-10533678D01*
X8598396Y-10428916D02*
X8607920Y-10409869D01*
X8607920Y-10409869D02*
X8626967Y-10400345D01*
X8626967Y-10400345D02*
X8655539Y-10400345D01*
X8655539Y-10400345D02*
X8674586Y-10409869D01*
X8674586Y-10409869D02*
X8684110Y-10428916D01*
X8684110Y-10428916D02*
X8684110Y-10533678D01*
X9074586Y-10324154D02*
X8903158Y-10581297D01*
X9331729Y-10333678D02*
X9350777Y-10333678D01*
X9350777Y-10333678D02*
X9369824Y-10343202D01*
X9369824Y-10343202D02*
X9379348Y-10352726D01*
X9379348Y-10352726D02*
X9388872Y-10371773D01*
X9388872Y-10371773D02*
X9398396Y-10409869D01*
X9398396Y-10409869D02*
X9398396Y-10457488D01*
X9398396Y-10457488D02*
X9388872Y-10495583D01*
X9388872Y-10495583D02*
X9379348Y-10514630D01*
X9379348Y-10514630D02*
X9369824Y-10524154D01*
X9369824Y-10524154D02*
X9350777Y-10533678D01*
X9350777Y-10533678D02*
X9331729Y-10533678D01*
X9331729Y-10533678D02*
X9312682Y-10524154D01*
X9312682Y-10524154D02*
X9303158Y-10514630D01*
X9303158Y-10514630D02*
X9293634Y-10495583D01*
X9293634Y-10495583D02*
X9284110Y-10457488D01*
X9284110Y-10457488D02*
X9284110Y-10409869D01*
X9284110Y-10409869D02*
X9293634Y-10371773D01*
X9293634Y-10371773D02*
X9303158Y-10352726D01*
X9303158Y-10352726D02*
X9312682Y-10343202D01*
X9312682Y-10343202D02*
X9331729Y-10333678D01*
X9484110Y-10514630D02*
X9493634Y-10524154D01*
X9493634Y-10524154D02*
X9484110Y-10533678D01*
X9484110Y-10533678D02*
X9474586Y-10524154D01*
X9474586Y-10524154D02*
X9484110Y-10514630D01*
X9484110Y-10514630D02*
X9484110Y-10533678D01*
X9617443Y-10333678D02*
X9636491Y-10333678D01*
X9636491Y-10333678D02*
X9655539Y-10343202D01*
X9655539Y-10343202D02*
X9665063Y-10352726D01*
X9665063Y-10352726D02*
X9674586Y-10371773D01*
X9674586Y-10371773D02*
X9684110Y-10409869D01*
X9684110Y-10409869D02*
X9684110Y-10457488D01*
X9684110Y-10457488D02*
X9674586Y-10495583D01*
X9674586Y-10495583D02*
X9665063Y-10514630D01*
X9665063Y-10514630D02*
X9655539Y-10524154D01*
X9655539Y-10524154D02*
X9636491Y-10533678D01*
X9636491Y-10533678D02*
X9617443Y-10533678D01*
X9617443Y-10533678D02*
X9598396Y-10524154D01*
X9598396Y-10524154D02*
X9588872Y-10514630D01*
X9588872Y-10514630D02*
X9579348Y-10495583D01*
X9579348Y-10495583D02*
X9569824Y-10457488D01*
X9569824Y-10457488D02*
X9569824Y-10409869D01*
X9569824Y-10409869D02*
X9579348Y-10371773D01*
X9579348Y-10371773D02*
X9588872Y-10352726D01*
X9588872Y-10352726D02*
X9598396Y-10343202D01*
X9598396Y-10343202D02*
X9617443Y-10333678D01*
X9798396Y-10419392D02*
X9779348Y-10409869D01*
X9779348Y-10409869D02*
X9769824Y-10400345D01*
X9769824Y-10400345D02*
X9760301Y-10381297D01*
X9760301Y-10381297D02*
X9760301Y-10371773D01*
X9760301Y-10371773D02*
X9769824Y-10352726D01*
X9769824Y-10352726D02*
X9779348Y-10343202D01*
X9779348Y-10343202D02*
X9798396Y-10333678D01*
X9798396Y-10333678D02*
X9836491Y-10333678D01*
X9836491Y-10333678D02*
X9855539Y-10343202D01*
X9855539Y-10343202D02*
X9865063Y-10352726D01*
X9865063Y-10352726D02*
X9874586Y-10371773D01*
X9874586Y-10371773D02*
X9874586Y-10381297D01*
X9874586Y-10381297D02*
X9865063Y-10400345D01*
X9865063Y-10400345D02*
X9855539Y-10409869D01*
X9855539Y-10409869D02*
X9836491Y-10419392D01*
X9836491Y-10419392D02*
X9798396Y-10419392D01*
X9798396Y-10419392D02*
X9779348Y-10428916D01*
X9779348Y-10428916D02*
X9769824Y-10438440D01*
X9769824Y-10438440D02*
X9760301Y-10457488D01*
X9760301Y-10457488D02*
X9760301Y-10495583D01*
X9760301Y-10495583D02*
X9769824Y-10514630D01*
X9769824Y-10514630D02*
X9779348Y-10524154D01*
X9779348Y-10524154D02*
X9798396Y-10533678D01*
X9798396Y-10533678D02*
X9836491Y-10533678D01*
X9836491Y-10533678D02*
X9855539Y-10524154D01*
X9855539Y-10524154D02*
X9865063Y-10514630D01*
X9865063Y-10514630D02*
X9874586Y-10495583D01*
X9874586Y-10495583D02*
X9874586Y-10457488D01*
X9874586Y-10457488D02*
X9865063Y-10438440D01*
X9865063Y-10438440D02*
X9855539Y-10428916D01*
X9855539Y-10428916D02*
X9836491Y-10419392D01*
X10046015Y-10333678D02*
X10007920Y-10333678D01*
X10007920Y-10333678D02*
X9988872Y-10343202D01*
X9988872Y-10343202D02*
X9979348Y-10352726D01*
X9979348Y-10352726D02*
X9960301Y-10381297D01*
X9960301Y-10381297D02*
X9950777Y-10419392D01*
X9950777Y-10419392D02*
X9950777Y-10495583D01*
X9950777Y-10495583D02*
X9960301Y-10514630D01*
X9960301Y-10514630D02*
X9969824Y-10524154D01*
X9969824Y-10524154D02*
X9988872Y-10533678D01*
X9988872Y-10533678D02*
X10026967Y-10533678D01*
X10026967Y-10533678D02*
X10046015Y-10524154D01*
X10046015Y-10524154D02*
X10055539Y-10514630D01*
X10055539Y-10514630D02*
X10065063Y-10495583D01*
X10065063Y-10495583D02*
X10065063Y-10447964D01*
X10065063Y-10447964D02*
X10055539Y-10428916D01*
X10055539Y-10428916D02*
X10046015Y-10419392D01*
X10046015Y-10419392D02*
X10026967Y-10409869D01*
X10026967Y-10409869D02*
X9988872Y-10409869D01*
X9988872Y-10409869D02*
X9969824Y-10419392D01*
X9969824Y-10419392D02*
X9960301Y-10428916D01*
X9960301Y-10428916D02*
X9950777Y-10447964D01*
X10236491Y-10333678D02*
X10198396Y-10333678D01*
X10198396Y-10333678D02*
X10179348Y-10343202D01*
X10179348Y-10343202D02*
X10169824Y-10352726D01*
X10169824Y-10352726D02*
X10150777Y-10381297D01*
X10150777Y-10381297D02*
X10141253Y-10419392D01*
X10141253Y-10419392D02*
X10141253Y-10495583D01*
X10141253Y-10495583D02*
X10150777Y-10514630D01*
X10150777Y-10514630D02*
X10160301Y-10524154D01*
X10160301Y-10524154D02*
X10179348Y-10533678D01*
X10179348Y-10533678D02*
X10217444Y-10533678D01*
X10217444Y-10533678D02*
X10236491Y-10524154D01*
X10236491Y-10524154D02*
X10246015Y-10514630D01*
X10246015Y-10514630D02*
X10255539Y-10495583D01*
X10255539Y-10495583D02*
X10255539Y-10447964D01*
X10255539Y-10447964D02*
X10246015Y-10428916D01*
X10246015Y-10428916D02*
X10236491Y-10419392D01*
X10236491Y-10419392D02*
X10217444Y-10409869D01*
X10217444Y-10409869D02*
X10179348Y-10409869D01*
X10179348Y-10409869D02*
X10160301Y-10419392D01*
X10160301Y-10419392D02*
X10150777Y-10428916D01*
X10150777Y-10428916D02*
X10141253Y-10447964D01*
X10331729Y-10333678D02*
X10331729Y-10371773D01*
X10407920Y-10333678D02*
X10407920Y-10371773D01*
X10703158Y-10609869D02*
X10693634Y-10600345D01*
X10693634Y-10600345D02*
X10674586Y-10571773D01*
X10674586Y-10571773D02*
X10665063Y-10552726D01*
X10665063Y-10552726D02*
X10655539Y-10524154D01*
X10655539Y-10524154D02*
X10646015Y-10476535D01*
X10646015Y-10476535D02*
X10646015Y-10438440D01*
X10646015Y-10438440D02*
X10655539Y-10390821D01*
X10655539Y-10390821D02*
X10665063Y-10362250D01*
X10665063Y-10362250D02*
X10674586Y-10343202D01*
X10674586Y-10343202D02*
X10693634Y-10314630D01*
X10693634Y-10314630D02*
X10703158Y-10305107D01*
X10769825Y-10352726D02*
X10779348Y-10343202D01*
X10779348Y-10343202D02*
X10798396Y-10333678D01*
X10798396Y-10333678D02*
X10846015Y-10333678D01*
X10846015Y-10333678D02*
X10865063Y-10343202D01*
X10865063Y-10343202D02*
X10874586Y-10352726D01*
X10874586Y-10352726D02*
X10884110Y-10371773D01*
X10884110Y-10371773D02*
X10884110Y-10390821D01*
X10884110Y-10390821D02*
X10874586Y-10419392D01*
X10874586Y-10419392D02*
X10760301Y-10533678D01*
X10760301Y-10533678D02*
X10884110Y-10533678D01*
X11122206Y-10533678D02*
X11122206Y-10333678D01*
X11207920Y-10533678D02*
X11207920Y-10428916D01*
X11207920Y-10428916D02*
X11198396Y-10409869D01*
X11198396Y-10409869D02*
X11179348Y-10400345D01*
X11179348Y-10400345D02*
X11150777Y-10400345D01*
X11150777Y-10400345D02*
X11131729Y-10409869D01*
X11131729Y-10409869D02*
X11122206Y-10419392D01*
X11331729Y-10533678D02*
X11312682Y-10524154D01*
X11312682Y-10524154D02*
X11303158Y-10514630D01*
X11303158Y-10514630D02*
X11293634Y-10495583D01*
X11293634Y-10495583D02*
X11293634Y-10438440D01*
X11293634Y-10438440D02*
X11303158Y-10419392D01*
X11303158Y-10419392D02*
X11312682Y-10409869D01*
X11312682Y-10409869D02*
X11331729Y-10400345D01*
X11331729Y-10400345D02*
X11360301Y-10400345D01*
X11360301Y-10400345D02*
X11379348Y-10409869D01*
X11379348Y-10409869D02*
X11388872Y-10419392D01*
X11388872Y-10419392D02*
X11398396Y-10438440D01*
X11398396Y-10438440D02*
X11398396Y-10495583D01*
X11398396Y-10495583D02*
X11388872Y-10514630D01*
X11388872Y-10514630D02*
X11379348Y-10524154D01*
X11379348Y-10524154D02*
X11360301Y-10533678D01*
X11360301Y-10533678D02*
X11331729Y-10533678D01*
X11512682Y-10533678D02*
X11493634Y-10524154D01*
X11493634Y-10524154D02*
X11484110Y-10505107D01*
X11484110Y-10505107D02*
X11484110Y-10333678D01*
X11665063Y-10524154D02*
X11646015Y-10533678D01*
X11646015Y-10533678D02*
X11607920Y-10533678D01*
X11607920Y-10533678D02*
X11588872Y-10524154D01*
X11588872Y-10524154D02*
X11579348Y-10505107D01*
X11579348Y-10505107D02*
X11579348Y-10428916D01*
X11579348Y-10428916D02*
X11588872Y-10409869D01*
X11588872Y-10409869D02*
X11607920Y-10400345D01*
X11607920Y-10400345D02*
X11646015Y-10400345D01*
X11646015Y-10400345D02*
X11665063Y-10409869D01*
X11665063Y-10409869D02*
X11674586Y-10428916D01*
X11674586Y-10428916D02*
X11674586Y-10447964D01*
X11674586Y-10447964D02*
X11579348Y-10467011D01*
X11750777Y-10524154D02*
X11769825Y-10533678D01*
X11769825Y-10533678D02*
X11807920Y-10533678D01*
X11807920Y-10533678D02*
X11826967Y-10524154D01*
X11826967Y-10524154D02*
X11836491Y-10505107D01*
X11836491Y-10505107D02*
X11836491Y-10495583D01*
X11836491Y-10495583D02*
X11826967Y-10476535D01*
X11826967Y-10476535D02*
X11807920Y-10467011D01*
X11807920Y-10467011D02*
X11779348Y-10467011D01*
X11779348Y-10467011D02*
X11760301Y-10457488D01*
X11760301Y-10457488D02*
X11750777Y-10438440D01*
X11750777Y-10438440D02*
X11750777Y-10428916D01*
X11750777Y-10428916D02*
X11760301Y-10409869D01*
X11760301Y-10409869D02*
X11779348Y-10400345D01*
X11779348Y-10400345D02*
X11807920Y-10400345D01*
X11807920Y-10400345D02*
X11826967Y-10409869D01*
X11903158Y-10609869D02*
X11912682Y-10600345D01*
X11912682Y-10600345D02*
X11931729Y-10571773D01*
X11931729Y-10571773D02*
X11941253Y-10552726D01*
X11941253Y-10552726D02*
X11950777Y-10524154D01*
X11950777Y-10524154D02*
X11960301Y-10476535D01*
X11960301Y-10476535D02*
X11960301Y-10438440D01*
X11960301Y-10438440D02*
X11950777Y-10390821D01*
X11950777Y-10390821D02*
X11941253Y-10362250D01*
X11941253Y-10362250D02*
X11931729Y-10343202D01*
X11931729Y-10343202D02*
X11912682Y-10314630D01*
X11912682Y-10314630D02*
X11903158Y-10305107D01*
M02*
